<svg width="131" height="30" viewBox="0 0 131 30" fill="none" xmlns="http://www.w3.org/2000/svg">
<path d="M36.7119 0.891113C36.8159 0.891113 36.9199 0.891113 37.0239 0.891113C39.9359 1.10197 42.4319 2.15627 44.5119 4.26487C45.7599 5.53003 46.4879 7.11148 46.5919 9.00922C46.7999 10.907 46.3839 12.6993 45.3439 14.2807C44.4079 15.6513 43.2639 16.6002 41.9119 17.3382C40.8719 17.9708 39.7279 18.2871 38.4799 18.4979C38.3759 18.4979 38.2719 18.4979 38.1679 18.6034H41.5999C43.5759 22.2934 45.6559 25.878 47.7359 29.5681C47.6319 29.5681 47.6319 29.5681 47.5279 29.5681C45.3439 29.5681 43.2639 29.5681 41.0799 29.5681C40.8719 29.5681 40.8719 29.4626 40.7679 29.3572C39.7279 27.4595 38.6879 25.5617 37.6479 23.664C36.8159 22.0826 35.8799 20.5011 35.0479 18.9197C35.0479 18.8142 34.9439 18.8142 34.9439 18.7088H29.4319V29.5681H23.192V4.15945H23.088C19.968 12.5939 16.848 21.0282 13.624 29.5681C13.52 29.5681 13.416 29.5681 13.416 29.5681C13 29.5681 12.48 29.5681 12.064 29.5681C11.752 29.5681 11.752 29.5681 11.648 29.2518C10.4 26.1943 9.25598 23.1369 8.00799 19.974C5.92799 14.7025 3.95199 9.43094 1.872 4.26487C1.872 4.15944 1.768 4.05401 1.768 4.05401V29.5681C1.664 29.5681 1.664 29.5681 1.664 29.5681C1.144 29.5681 0.728003 29.5681 0.208004 29.5681C0.104005 29.5681 0.104 29.5681 0 29.5681V0.891113C2.184 0.891113 4.47199 0.891113 6.65599 0.891113C6.65599 0.996543 6.65599 0.99654 6.75998 1.10197C9.35998 7.84949 11.96 14.597 14.664 21.3445C14.664 21.45 14.768 21.45 14.768 21.6608C14.768 21.5554 14.872 21.45 14.872 21.3445C16.744 16.3893 18.616 11.4341 20.488 6.47891C21.216 4.58117 21.944 2.78885 22.568 0.891113H36.7119ZM29.4319 17.3382H29.7439C31.1999 17.3382 32.6559 17.3382 34.1119 17.3382C35.6719 17.3382 36.9199 16.7056 37.9599 15.5459C38.6879 14.7024 39.1039 13.7536 39.3119 12.5939C39.7279 11.0124 39.7279 9.32551 39.4159 7.74406C39.2079 6.68976 38.8959 5.63546 38.3759 4.79202C37.3359 3.21057 35.9839 2.36714 34.0079 2.26171C32.5519 2.26171 31.0959 2.26171 29.6399 2.26171C29.5359 2.26171 29.5359 2.26171 29.4319 2.26171V17.3382Z" fill="#D7D7D7"/>
<path d="M78.2101 17.0222H79.7701C80.8101 18.8145 81.7461 20.6068 82.7861 22.5045H79.3541C79.2501 22.3991 79.2501 22.2937 79.1461 22.1882C78.2101 20.6068 77.3782 18.9199 76.5462 17.3385C76.4422 17.1276 76.3381 17.1276 76.1301 17.1276C75.4021 17.1276 74.6742 17.1276 73.8422 17.1276H73.5301V22.5045C73.3222 22.61 70.8262 22.61 70.4102 22.5045V8.27148H70.5142C72.8022 8.27148 74.9862 8.27148 77.2741 8.27148C78.6261 8.27148 79.8741 8.79863 80.9141 9.85293C82.5781 11.329 82.5781 14.0701 81.0181 15.5461C80.2901 16.2842 79.3541 16.8113 78.2101 17.0222ZM73.6342 16.3896H73.7382C74.4662 16.3896 75.2982 16.3896 76.0262 16.3896C76.8582 16.3896 77.4821 15.9679 78.0021 15.3353C78.2101 15.1244 78.3142 14.8081 78.4182 14.4918C78.7302 13.7538 78.7301 12.9104 78.7301 12.067C78.7301 11.4344 78.5221 10.8018 78.2101 10.2746C77.6901 9.32578 76.9621 8.90407 75.9221 8.90407C75.2981 8.90407 74.6742 8.90407 73.9462 8.90407C73.8422 8.90407 73.7382 8.90407 73.6342 8.90407V16.3896Z" fill="#D7D7D7"/>
<path d="M112.839 8.1665H115.959V22.505C115.751 22.505 115.439 22.505 115.231 22.2941C114.607 21.767 113.983 21.1344 113.463 20.6073C113.359 20.5018 113.359 20.5018 113.255 20.3964C113.255 20.3964 113.255 20.5018 113.151 20.5018C112.423 21.4507 111.487 22.0833 110.239 22.3996C108.679 22.7158 107.119 22.7159 105.559 22.0833C104.103 21.4507 103.063 20.5018 102.439 19.0258C102.127 18.3932 102.023 17.6552 102.023 16.9172C102.023 14.0706 102.023 11.224 102.023 8.37738C102.023 8.27195 102.023 8.27193 102.023 8.1665H105.143V8.4828C105.143 11.3294 105.143 14.2814 105.143 17.1281C105.143 17.7606 105.247 18.4987 105.455 19.1312C105.975 20.5018 107.015 21.3453 108.471 21.5561C109.407 21.6616 110.239 21.6615 111.071 21.3453C111.695 21.1344 112.111 20.7127 112.527 20.291C112.631 20.1855 112.735 19.9747 112.735 19.7638C112.735 17.1281 112.735 14.4923 112.735 11.8566C112.735 10.6968 112.735 9.64253 112.735 8.4828C112.839 8.37737 112.839 8.27193 112.839 8.1665Z" fill="#D7D7D7"/>
<path d="M92.0401 8.06006C93.392 8.06006 94.744 8.27091 95.888 9.00892C97.76 10.1687 99.008 11.7501 99.424 13.9641C100.152 18.6031 97.24 21.6605 94.12 22.3985C92.3521 22.8203 90.5841 22.8203 88.9201 22.0823C86.6321 21.028 85.1761 19.3411 84.6561 16.8108C83.9281 12.699 86.2161 9.74694 89.0241 8.58721C89.9601 8.16549 91.0001 8.06006 92.0401 8.06006ZM96.2 15.2293C96.2 14.4913 96.096 13.6478 95.992 12.9098C95.784 11.8555 95.3681 10.9067 94.7441 10.0632C94.3281 9.53607 93.912 9.11436 93.288 8.9035C92.144 8.37635 90.4801 8.48178 89.2321 9.85237C88.7121 10.4849 88.4001 11.1175 88.1921 11.8555C87.7761 13.0153 87.6721 14.2804 87.6721 15.5456C87.6721 16.5999 87.7761 17.6542 88.0881 18.7085C88.4001 19.5519 88.8161 20.3954 89.4401 21.028C90.2721 21.8714 91.3121 22.1877 92.4561 21.9768C93.3921 21.8714 94.0161 21.3442 94.5361 20.6062C95.0561 19.9736 95.3681 19.3411 95.5761 18.4976C96.0961 17.5488 96.2 16.4945 96.2 15.2293Z" fill="#D7D7D7"/>
<path d="M122.097 22.505H118.977V8.1665H119.081C121.369 8.1665 123.657 8.1665 125.841 8.1665C127.297 8.1665 128.545 8.79909 129.585 9.85339C130.105 10.3805 130.521 11.0131 130.625 11.8566C130.833 13.3326 130.521 14.5977 129.481 15.652C128.545 16.4955 127.505 17.0226 126.361 17.1281C126.049 17.1281 125.633 17.2335 125.321 17.2335C124.385 17.2335 123.345 17.2335 122.409 17.2335H122.097V22.505ZM122.097 16.39C122.201 16.39 122.201 16.39 122.201 16.39C122.929 16.39 123.761 16.39 124.489 16.39C125.113 16.39 125.737 16.0738 126.153 15.5466C126.465 15.1249 126.673 14.7032 126.881 14.2814C127.193 13.3326 127.193 12.4891 126.985 11.5403C126.881 11.0131 126.673 10.486 126.361 9.95883C125.841 9.22082 125.217 8.90453 124.281 8.90453C123.553 8.90453 122.929 8.90453 122.201 8.90453C122.097 8.90453 122.097 8.90453 121.993 8.90453V16.39H122.097Z" fill="#D7D7D7"/>
<path d="M66.7689 11.8555H66.2489C66.2489 11.6447 66.2489 11.4338 66.1449 11.223C66.0409 10.6958 65.7289 10.2741 65.3129 9.85236C64.5849 9.21978 63.8569 8.90349 62.9209 8.79806C62.0889 8.69263 61.2569 8.79806 60.4249 9.00892C59.0729 9.43064 58.1369 10.2741 57.5129 11.6447C57.0969 12.4881 56.8889 13.3316 56.7849 14.175C56.6809 15.1239 56.6809 16.0727 56.7849 17.0216C56.9929 18.4976 57.4089 19.8682 58.3449 20.9225C59.0729 21.766 59.9049 22.1877 61.0489 22.1877C61.6729 22.1877 62.2969 22.0822 62.8169 21.8714C63.4409 21.5551 63.9609 21.1334 64.2729 20.3954C64.3769 20.1845 64.3769 20.0791 64.3769 19.8682C64.3769 18.8139 64.3769 17.7596 64.3769 16.8108V16.4945H67.4969V22.6094C67.1849 22.6094 66.9769 22.6094 66.7689 22.3985C66.3529 21.9768 65.8329 21.5551 65.4169 21.1334C65.4169 21.1334 65.4169 21.1334 65.3129 21.1334C64.6889 21.8714 63.9609 22.2931 63.0249 22.504C60.3209 23.1365 56.9929 22.504 54.9129 19.7628C54.0809 18.7085 53.6649 17.5488 53.5609 16.1782C53.4569 15.0184 53.561 13.8587 53.977 12.699C54.913 10.4849 56.5769 9.00893 58.8649 8.37635C60.4249 7.95463 62.0889 7.95463 63.6489 8.37635C64.4809 8.58721 65.2089 9.11435 65.8329 9.74693C66.2489 10.2741 66.5609 10.9067 66.6649 11.6447C66.7689 11.6447 66.7689 11.7501 66.7689 11.8555Z" fill="#D7D7D7"/>
</svg>
