<svg width="105" height="53" viewBox="0 0 105 53" fill="none" xmlns="http://www.w3.org/2000/svg">
<path d="M92.3509 35.531C92.3509 37.2179 92.3509 38.9047 92.3509 40.5916C92.3509 40.9079 92.3509 41.1188 92.7669 41.1188C93.9109 41.1188 95.0549 41.1188 96.1989 41.0133C97.8629 40.8025 99.2149 40.0645 99.9429 38.483C100.567 37.007 100.567 35.4255 100.255 33.8441C99.8389 31.6301 98.3829 30.2595 96.1989 30.154C95.1589 30.0486 94.0149 30.154 92.8709 30.0486C92.4549 30.0486 92.3509 30.154 92.3509 30.5758C92.3509 32.2626 92.3509 33.9495 92.3509 35.531ZM88.7109 26.7803C91.8309 26.7803 94.9509 26.3586 97.9669 26.9911C101.087 27.6237 103.271 29.7323 103.895 33.1061C104.311 35.3201 104.207 37.5341 103.375 39.6427C102.543 41.7513 100.983 43.2274 98.9029 43.8599C97.7589 44.1762 96.5109 44.3871 95.3669 44.3871C93.2869 44.4925 91.2069 44.3871 89.1269 44.3871C89.0229 44.3871 88.9189 44.3871 88.7109 44.3871V26.7803Z" fill="#D7D7D7"/>
<path d="M56.3666 35.1112C57.5106 35.1112 58.6545 35.1112 59.7985 35.1112C60.1105 35.1112 60.4226 35.1112 60.7346 35.0058C62.1906 34.6895 62.9185 33.846 62.9185 32.4754C62.8145 31.1049 61.9825 30.2614 60.5265 30.156C59.2785 30.0506 58.0305 30.156 56.7825 30.0505C56.4705 30.0505 56.3666 30.156 56.3666 30.4723C56.3666 31.2103 56.3666 31.8429 56.3666 32.5809V35.1112ZM67.9105 44.4945C66.4545 44.4945 65.1025 44.4945 63.8546 44.4945C63.7506 44.4945 63.5425 44.389 63.4385 44.2836C62.0865 42.3859 60.6305 40.5936 59.2785 38.6958C59.0705 38.485 58.7586 38.3795 58.5506 38.2741C57.9266 38.1687 56.3666 38.2741 56.3666 38.2741C56.3666 38.2741 56.3666 38.3795 56.3666 38.8012C56.3666 40.4881 56.3666 42.0696 56.3666 43.7565V44.4945H52.7266V26.7822C52.8306 26.7822 53.0386 26.7822 53.1426 26.7822C55.6385 26.7822 58.2386 26.7822 60.7346 26.7822C61.9826 26.7822 63.2305 27.0985 64.2705 27.8365C65.7265 28.7854 66.4545 30.156 66.5585 31.8429C66.6625 32.5809 66.5585 33.4243 66.3505 34.1623C66.0385 35.8492 64.8945 36.9035 63.4385 37.5361C63.2305 37.6415 63.0226 37.7469 62.8146 37.8524C64.5825 40.0664 66.2465 42.175 67.9105 44.4945Z" fill="#D7D7D7"/>
<path d="M78.0011 30.5777C77.0651 33.0026 76.1291 35.4275 75.2971 37.9578H80.8091C79.7691 35.5329 78.9371 33.0026 78.0011 30.5777ZM86.9451 44.4945C85.6971 44.4945 84.5531 44.4945 83.4091 44.4945C83.3051 44.4945 83.0971 44.2836 82.9931 44.1782C82.6811 43.3347 82.3691 42.4913 82.0571 41.6479C81.9531 41.3316 81.7451 41.2261 81.4331 41.2261C79.1451 41.2261 76.7531 41.2261 74.4651 41.2261C74.1531 41.2261 73.9451 41.3316 73.8411 41.6479C73.5291 42.4913 73.2171 43.3347 72.8011 44.1782C72.6971 44.2836 72.5931 44.4945 72.4891 44.4945C71.3451 44.4945 70.2011 44.4945 68.9531 44.4945C69.3691 43.4402 69.6811 42.4913 70.0971 41.5424C71.9691 36.7981 73.9451 31.9483 75.8171 27.2039C75.9211 26.8877 76.1291 26.7822 76.4411 26.7822C77.4811 26.7822 78.5211 26.7822 79.5611 26.7822C79.8731 26.7822 79.9771 26.7822 80.0811 27.0985C82.3691 32.7917 84.5531 38.485 86.8411 44.1782C86.9451 44.1782 86.9451 44.2836 86.9451 44.4945Z" fill="#D7D7D7"/>
<path d="M20.5931 44.4945H16.9531V26.7822C18.0971 26.7822 19.2411 26.7822 20.2811 26.7822C20.3851 26.7822 20.4891 26.9931 20.5931 27.0985C22.8811 30.3669 25.1691 33.7406 27.4571 37.0089C27.7691 37.4307 27.9771 37.7469 28.3931 38.2741V26.7822H32.0331V44.4945C30.8891 44.4945 29.8491 44.4945 28.7051 44.4945C28.6011 44.4945 28.3931 44.2836 28.2891 44.1782C25.7931 40.5936 23.4011 37.1144 20.9051 33.5297C20.8011 33.4243 20.6971 33.3189 20.5931 33.108V44.4945Z" fill="#D7D7D7"/>
<path d="M11.9556 26.7822H8.31641V44.4945H11.9556V26.7822Z" fill="#D7D7D7"/>
<path d="M48.8825 34.794C48.8825 34.6886 48.8825 34.4778 48.6745 34.4778C48.5705 34.4778 48.4665 34.4778 48.3625 34.4778H47.9465C47.1145 34.4778 46.2825 34.4778 45.4505 34.4778H42.4345V37.9569H45.3465C45.3465 38.8004 45.3465 39.7493 45.3465 40.5927C45.3465 41.5416 45.0345 41.5416 44.4105 41.647C43.9945 41.7524 43.4745 41.7524 42.7465 41.647C41.2905 41.5416 39.8345 41.0144 38.7945 39.8547C37.8585 38.8004 37.6505 37.5352 37.5465 36.0592C37.3385 33.4235 38.7945 31.2094 41.1865 30.4714C43.4745 29.7334 45.7625 30.0497 47.8425 31.2094C47.9465 31.3149 48.0505 31.3149 48.2585 31.4203C48.2585 30.366 48.2585 29.4171 48.2585 28.4682C48.2585 28.0465 48.1545 27.8357 47.7385 27.7302C45.3465 26.7814 42.9545 26.4651 40.4585 27.0977C38.5865 27.5194 37.0265 28.3628 35.7785 29.8388C33.6985 32.2637 33.2825 35.2158 33.9065 38.2732C34.5305 41.7524 36.7145 43.861 40.0425 44.8099C42.8505 45.5479 46.2825 45.2316 48.3625 44.1773C48.4665 44.0719 48.6745 43.861 48.6745 43.7556C48.8825 40.6981 48.8825 37.4298 48.8825 34.794Z" fill="#D7D7D7"/>
<path d="M3.63999 49.2381V20.5611L28.392 7.06612V22.0372H32.032V0.951172L0 18.3471V52.9282H32.032V49.2381H3.63999Z" fill="#D7D7D7"/>
</svg>
