<svg width="112" height="39" viewBox="0 0 112 39" fill="none" xmlns="http://www.w3.org/2000/svg">
<path d="M17.4953 38.1784C17.1833 38.1784 16.9753 38.073 16.6633 38.073C16.5593 38.073 16.4553 38.073 16.2473 38.073C16.3513 37.9675 16.3513 37.9675 16.4553 37.9675C18.3273 36.4915 19.9913 34.9101 21.6553 33.2232C23.8393 31.0092 25.8153 28.4788 27.6873 25.9485C27.8953 25.6322 28.1033 25.4214 28.2073 24.9996C28.3113 24.1562 27.6873 23.4182 26.9593 23.3128C25.5033 23.2073 24.0473 23.1019 22.5913 23.1019C20.4073 23.1019 18.1193 22.9965 15.9353 22.9965C14.2713 22.9965 12.6073 23.1019 10.9433 23.2073C9.07133 23.3128 7.19933 23.5236 5.22334 23.6291C3.66334 23.7345 2.20734 23.9453 0.647344 24.1562H0.543346C-0.704651 18.3576 0.127345 12.9806 3.76734 8.23627C7.82333 2.85934 13.3353 0.539883 19.9913 0.961603C19.9913 0.961603 19.9913 0.961601 19.9913 1.06703L19.8873 1.17246C17.7033 2.85934 15.7273 4.65165 13.7513 6.54939C11.9833 8.3417 10.3193 10.2394 8.86333 12.2426C8.13533 13.1915 8.86333 14.5621 9.79933 14.6675C10.2153 14.6675 10.5273 14.6675 10.9433 14.6675C11.8793 14.6675 12.7113 14.5621 13.6473 14.5621C15.2073 14.5621 16.8713 14.4566 18.4313 14.4566C19.7833 14.4566 21.2393 14.4566 22.5913 14.5621C24.3593 14.6675 26.2313 14.6675 27.9993 14.8784C29.8713 14.9838 31.7433 15.1947 33.7193 15.4055C34.5513 15.5109 35.3833 15.6164 36.3193 15.7218C36.5273 15.7218 36.5273 15.8272 36.5273 15.9327C36.7353 16.987 36.8393 18.1467 36.9433 19.201C37.0473 22.0476 36.5273 24.6834 35.3833 27.3191C33.6153 31.3254 30.8073 34.2775 26.9593 36.2807C25.0873 37.2295 23.1113 37.8621 21.0313 38.1784C20.5113 38.2838 19.9913 38.2838 19.4713 38.2838C19.3673 38.2838 19.3673 38.2838 19.2633 38.2838H17.4953V38.1784Z" fill="#D7D7D7"/>
<path d="M59.617 28.6893V36.0694H54.833V28.6893C51.297 28.5839 48.489 27.1079 46.409 24.2613C44.953 22.2581 44.329 19.9386 44.433 17.5137C44.745 11.7151 49.529 7.49788 54.833 7.60331V3.06982H59.7209V23.945C60.7609 23.945 61.593 23.7341 62.529 23.207C63.8809 22.4689 64.8169 21.3092 65.2329 19.8332C65.7529 18.1463 65.5449 16.4594 64.5049 14.9834C63.5689 13.5074 62.1129 12.664 60.3449 12.3477C60.6569 11.9259 60.9689 11.3988 61.2809 10.9771C61.9049 10.1336 62.5289 9.18477 63.1529 8.34133C63.2569 8.2359 63.2569 8.23589 63.4649 8.23589C67.1049 9.71191 69.3929 12.4531 70.0169 16.4594C70.7449 20.9929 68.4569 25.421 64.4009 27.5296C63.0489 28.1622 61.6969 28.5839 60.2409 28.5839C59.9289 28.5839 59.721 28.6893 59.617 28.6893ZM54.729 23.945V12.3477C53.273 12.2422 51.193 13.0857 49.945 14.9834C48.697 16.9866 48.697 19.0952 49.945 21.0984C50.985 22.8907 52.649 23.8395 54.729 23.945Z" fill="#D7D7D7"/>
<path d="M88.7372 9.50113C87.8012 10.8717 86.7612 12.2423 85.8252 13.6129C83.1212 11.7152 79.6892 12.7695 78.2332 15.0889C76.7772 17.4084 77.2972 20.4659 79.2732 22.1527C81.3532 23.945 84.5772 23.8396 86.6572 21.6256C87.5932 22.9962 88.6332 24.4722 89.5692 25.8428C86.2412 29.0057 80.4172 29.7437 76.0492 26.0536C71.5772 22.3636 71.0572 15.5106 74.8012 11.0826C78.6492 6.75995 84.7852 6.65452 88.7372 9.50113Z" fill="#D7D7D7"/>
<path d="M23.9429 26.054C23.527 26.6866 23.0069 27.2138 22.591 27.7409C20.615 30.1658 18.431 32.4853 16.039 34.4884C14.895 35.4373 13.751 36.2807 12.711 37.1242C12.607 37.2296 12.399 37.2296 12.295 37.2296C8.13499 35.7536 4.91099 33.1178 2.62299 29.4278C2.207 28.6898 1.895 27.9518 1.479 27.3192C1.479 27.3192 1.479 27.2138 1.375 27.1083C8.86298 26.054 16.351 25.7377 23.9429 26.054Z" fill="#D7D7D7"/>
<path d="M12.9219 11.6092C13.0259 11.5038 13.1299 11.3983 13.1299 11.2929C15.5219 8.4463 18.2259 5.91599 21.1379 3.70195C21.9699 3.06937 22.8018 2.54222 23.6338 1.90964C23.7378 1.80421 23.8418 1.80421 23.9458 1.90964C29.0418 3.70195 32.7858 7.07572 35.0738 12.1364C35.1778 12.2418 35.1778 12.4526 35.2818 12.5581C34.9698 12.5581 34.7618 12.4526 34.4498 12.4526C33.9298 12.3472 33.3058 12.3472 32.7858 12.2418C32.1618 12.1364 31.5378 12.1364 30.9138 12.0309C30.3938 12.0309 29.8738 11.9255 29.3538 11.9255C28.7298 11.9255 28.0018 11.8201 27.3778 11.8201C26.8578 11.8201 26.3378 11.7146 25.8178 11.7146C24.7779 11.7146 23.6338 11.6092 22.5938 11.6092C22.1778 11.6092 21.7619 11.6092 21.3459 11.6092C19.4739 11.6092 17.7059 11.6092 15.8339 11.6092C14.8979 11.6092 14.0659 11.6092 13.1299 11.7146C13.0259 11.6092 13.0259 11.6092 12.9219 11.6092Z" fill="#D7D7D7"/>
<path d="M104.025 17.9353C106.521 21.309 109.017 24.7882 111.617 28.162C111.513 28.162 111.513 28.162 111.409 28.162C109.641 28.162 107.977 28.162 106.209 28.162C106.105 28.162 106.001 28.162 105.897 28.0566C103.505 24.7882 101.009 21.4145 98.6172 18.1461C98.6172 18.1461 98.7212 18.0407 98.7212 17.9353C101.009 14.667 103.297 11.3986 105.689 8.13029C105.793 8.02486 105.897 7.91943 106.001 7.91943C107.665 7.91943 109.433 7.91943 111.097 7.91943H111.305C108.809 11.2932 106.417 14.667 104.025 17.9353Z" fill="#D7D7D7"/>
<path d="M97.886 8.02441H92.582V28.267H97.886V8.02441Z" fill="#D7D7D7"/>
<path d="M108.081 35.3313V37.8616H107.457V31.4303H108.081V32.1684H108.185C108.809 31.1141 110.784 31.0086 111.408 32.4846C111.824 33.5389 111.824 34.5932 111.096 35.5421C110.368 36.3856 108.809 36.491 108.081 35.3313ZM110.992 33.6444C110.992 33.5389 110.992 33.3281 110.888 33.1172C110.784 32.4846 110.264 32.0629 109.745 31.9575C109.225 31.8521 108.705 32.1684 108.393 32.5901C107.977 33.2227 108.081 34.3824 108.497 35.015C109.017 35.753 110.056 35.753 110.576 35.1204C110.888 34.6987 110.992 34.277 110.992 33.6444Z" fill="#D7D7D7"/>
<path d="M86.1353 35.5415C86.2393 35.5415 86.3432 35.5415 86.5512 35.5415C86.6552 35.5415 86.7592 35.5415 86.7592 35.4361C87.0712 34.9089 87.2793 34.2763 87.3833 33.6438C87.4872 33.0112 87.4873 32.3786 87.4873 31.746C87.4873 31.6406 87.4873 31.5352 87.4873 31.5352H90.2952V35.5415H90.9192V37.1229H90.2952V36.0686H86.6553V37.1229H86.0312V35.5415H86.1353ZM88.0073 32.0623C88.0073 33.3275 87.9032 34.4872 87.2792 35.5415H89.5673V32.0623H88.0073Z" fill="#D7D7D7"/>
<path d="M101.006 33.8555H97.5744C97.5744 34.488 97.7824 35.0152 98.3023 35.3315C98.9261 35.7532 99.654 35.7532 100.694 35.1206C100.798 35.226 100.902 35.4369 101.006 35.5423C100.694 35.8586 100.278 36.0695 99.8619 36.1749C98.4062 36.4912 97.1585 35.6478 96.9506 34.1717C96.8466 33.012 97.3665 31.9577 98.4062 31.536C99.1341 31.2197 99.9659 31.3251 100.486 31.9577C100.902 32.3794 101.006 33.1174 101.006 33.8555ZM97.5744 33.2229H100.382C100.382 32.3794 99.8619 31.8523 99.1341 31.8523C98.3023 31.8523 97.5744 32.5903 97.5744 33.2229Z" fill="#D7D7D7"/>
<path d="M76.0469 36.0691V31.5356H76.6707V35.1202C76.7747 35.0148 76.7747 35.0148 76.7747 35.0148C77.6065 33.8551 78.4383 32.8008 79.2702 31.641C79.3741 31.5356 79.4781 31.4302 79.6861 31.4302C79.7901 31.4302 79.894 31.4302 79.998 31.4302V35.9637H79.3741V32.379L79.2702 32.4845C78.4383 33.5388 77.6065 34.6985 76.8787 35.7528C76.7747 35.8582 76.6707 35.9637 76.4628 35.9637C76.2548 36.0691 76.1509 36.0691 76.0469 36.0691Z" fill="#D7D7D7"/>
<path d="M68.6647 32.0638H67.105C67.105 32.3801 67.105 32.6964 67.105 33.0127C67.105 33.6453 67.105 34.1724 66.8971 34.805C66.7931 35.2267 66.6891 35.543 66.3772 35.7539C66.1693 35.9647 65.8573 36.0701 65.4414 36.1756C65.4414 35.9647 65.4414 35.8593 65.4414 35.6484C65.4414 35.6484 65.4414 35.543 65.5454 35.543C65.9613 35.4376 66.1693 35.0159 66.3772 34.6996C66.5852 34.1724 66.5852 33.6453 66.5852 33.1181C66.5852 32.591 66.5852 32.0638 66.5852 31.6421H69.3925V36.1756H68.6647V32.0638Z" fill="#D7D7D7"/>
</svg>
