<svg width="77" height="42" viewBox="0 0 77 42" fill="none" xmlns="http://www.w3.org/2000/svg">
<path d="M9.56798 24.5402H0V1.13477H15.808V6.30083H5.71999V9.56917H9.56798C14.456 9.56917 17.264 12.7321 17.264 17.0547C17.264 21.3773 14.456 24.5402 9.56798 24.5402ZM9.25597 14.6298H5.61598V19.3741H9.25597C10.712 19.3741 11.544 18.3199 11.544 17.0547C11.648 15.6841 10.712 14.6298 9.25597 14.6298Z" fill="#D7D7D7"/>
<path d="M21.2148 24.5402V1.13477H36.9188V6.30083H26.9348V10.2018H35.4628V15.3678H26.9348V19.4796H36.9188V24.5402H21.2148Z" fill="#D7D7D7"/>
<path d="M48.9806 24.751C46.1726 24.751 44.1966 23.9076 42.5326 22.2207C40.1406 19.7958 40.1406 16.8438 40.1406 12.8374C40.1406 8.93653 40.1406 5.87903 42.5326 3.45414C44.1966 1.76726 46.1726 0.923828 48.9806 0.923828C53.3486 0.923828 56.8846 3.34873 57.7166 8.5148H51.8926C51.5806 7.24964 50.8526 5.98449 48.9806 5.98449C47.9406 5.98449 47.2126 6.4062 46.6926 6.93335C46.1726 7.67136 45.8606 8.40937 45.8606 12.732C45.8606 17.0546 46.1726 17.7926 46.6926 18.5307C47.1086 19.0578 47.9406 19.4795 48.9806 19.4795C50.8526 19.4795 51.5806 18.3198 51.8926 16.9492H57.7166C56.8846 22.3261 53.3486 24.751 48.9806 24.751Z" fill="#D7D7D7"/>
<path d="M70.6158 6.30083V24.5402H64.8958V6.30083H59.1758V1.13477H76.2318V6.30083H70.6158Z" fill="#D7D7D7"/>
<path d="M4.88799 40.9871V37.1917H2.39199V40.9871H0V31.2876H2.39199V34.9776H4.88799V31.2876H7.27998V40.9871H4.88799Z" fill="#D7D7D7"/>
<path d="M15.2854 40.0382C14.5574 40.7763 13.8294 41.0925 12.5814 41.0925C11.4374 41.0925 10.6054 40.6708 9.87741 40.0382C8.94141 39.0894 8.94141 37.8242 8.94141 36.1373C8.94141 34.4504 8.94141 33.2907 9.87741 32.2364C10.6054 31.4984 11.3334 31.1821 12.5814 31.1821C13.7254 31.1821 14.5574 31.6038 15.2854 32.2364C16.3254 33.1853 16.3254 34.4504 16.3254 36.1373C16.2214 37.8242 16.2214 38.9839 15.2854 40.0382ZM13.5174 33.7124C13.3094 33.5016 12.9974 33.2907 12.5814 33.2907C12.1654 33.2907 11.8534 33.5016 11.6454 33.7124C11.4374 34.0287 11.3334 34.345 11.3334 36.1373C11.3334 37.9296 11.4374 38.2459 11.6454 38.5622C11.8534 38.7731 12.1654 38.9839 12.5814 38.9839C12.9974 38.9839 13.3094 38.7731 13.5174 38.5622C13.7254 38.2459 13.8294 37.9296 13.8294 36.1373C13.8294 34.345 13.7254 34.0287 13.5174 33.7124Z" fill="#D7D7D7"/>
<path d="M22.0467 40.9871H17.8867V31.1821H21.8387C23.7107 31.1821 24.9587 32.2364 24.9587 33.9233C24.9587 34.7668 24.6467 35.3993 23.9187 35.9265C24.7507 36.4536 25.0627 37.0862 25.0627 38.0351C25.0627 39.9328 23.9187 40.9871 22.0467 40.9871ZM21.7347 33.3962H20.2787V34.9776H21.7347C22.2547 34.9776 22.5667 34.6613 22.5667 34.1342C22.5667 33.7124 22.2547 33.3962 21.7347 33.3962ZM21.8387 37.1916H20.2787V38.8785H21.8387C22.3587 38.8785 22.6707 38.5622 22.6707 38.0351C22.6707 37.5079 22.3587 37.1916 21.8387 37.1916Z" fill="#D7D7D7"/>
<path d="M32.655 40.0382C31.927 40.7763 31.199 41.0925 29.951 41.0925C28.807 41.0925 27.975 40.6708 27.247 40.0382C26.207 39.0894 26.207 37.8242 26.207 36.1373C26.207 34.4504 26.207 33.2907 27.247 32.2364C27.975 31.4984 28.703 31.1821 29.951 31.1821C31.095 31.1821 31.927 31.6038 32.655 32.2364C33.695 33.1853 33.695 34.4504 33.695 36.1373C33.695 37.8242 33.695 38.9839 32.655 40.0382ZM30.991 33.7124C30.783 33.5016 30.471 33.2907 30.055 33.2907C29.639 33.2907 29.327 33.5016 29.119 33.7124C28.911 34.0287 28.807 34.345 28.807 36.1373C28.807 37.9296 28.911 38.2459 29.119 38.5622C29.327 38.7731 29.639 38.9839 30.055 38.9839C30.471 38.9839 30.783 38.7731 30.991 38.5622C31.199 38.2459 31.303 37.9296 31.303 36.1373C31.303 34.345 31.199 34.0287 30.991 33.7124Z" fill="#D7D7D7"/>
<path d="M38.6908 41.0925C37.5468 41.0925 36.7148 40.6708 35.9868 40.0382C35.0508 39.0894 35.0508 37.8242 35.0508 36.1373C35.0508 34.4504 35.0508 33.2907 35.9868 32.2364C36.7148 31.4984 37.4428 31.1821 38.6908 31.1821C40.5628 31.1821 42.0188 32.2364 42.3308 34.345H39.9388C39.8348 33.8179 39.5228 33.2907 38.6908 33.2907C38.2748 33.2907 37.9628 33.5016 37.7548 33.7124C37.5468 34.0287 37.3388 34.345 37.3388 36.1373C37.3388 37.9296 37.4428 38.2459 37.7548 38.5622C37.9628 38.7731 38.2748 38.9839 38.6908 38.9839C39.5228 38.9839 39.7308 38.4568 39.9388 37.9296H42.3308C41.9148 40.0382 40.4588 41.0925 38.6908 41.0925Z" fill="#D7D7D7"/>
<path d="M47.6331 33.3962V40.9871H45.2411V33.3962H42.9531V31.2876H50.0251V33.3962H47.6331Z" fill="#D7D7D7"/>
<path d="M55.223 37.5079H53.767V40.9871H51.375V31.1821H55.223C57.407 31.1821 58.551 32.7636 58.551 34.345C58.447 36.0319 57.303 37.5079 55.223 37.5079ZM55.119 33.3962H53.767V35.3993H55.119C55.743 35.3993 56.159 34.8722 56.159 34.4505C56.159 33.9233 55.743 33.3962 55.119 33.3962Z" fill="#D7D7D7"/>
<path d="M65.9363 40.0382C65.2083 40.7763 64.4803 41.0925 63.2323 41.0925C62.0883 41.0925 61.2563 40.6708 60.5283 40.0382C59.4883 39.0894 59.4883 37.8242 59.4883 36.1373C59.4883 34.4504 59.4883 33.2907 60.5283 32.2364C61.2563 31.4984 61.9843 31.1821 63.2323 31.1821C64.3763 31.1821 65.2083 31.6038 65.9363 32.2364C66.9763 33.1853 66.9763 34.4504 66.9763 36.1373C66.8723 37.8242 66.8723 38.9839 65.9363 40.0382ZM64.1683 33.7124C63.9603 33.5016 63.6483 33.2907 63.2323 33.2907C62.8163 33.2907 62.5043 33.5016 62.2963 33.7124C62.0883 34.0287 61.9843 34.345 61.9843 36.1373C61.9843 37.9296 62.0883 38.2459 62.2963 38.5622C62.5043 38.7731 62.8163 38.9839 63.2323 38.9839C63.6483 38.9839 63.9603 38.7731 64.1683 38.5622C64.3763 38.2459 64.4803 37.9296 64.4803 36.1373C64.4803 34.345 64.3763 34.0287 64.1683 33.7124Z" fill="#D7D7D7"/>
<path d="M73.6297 40.9871V35.7156L70.5097 40.9871H68.4297V31.1822H70.8217V36.4537L73.9417 31.1822H76.0217V40.9871H73.6297ZM72.2777 30.7605C71.2377 30.7605 69.9897 30.3387 69.9897 28.6519H71.5497C71.5497 29.179 71.8617 29.3898 72.2777 29.3898C72.6937 29.3898 73.0057 29.179 73.0057 28.6519H74.5657C74.5657 30.3387 73.3177 30.7605 72.2777 30.7605Z" fill="#D7D7D7"/>
</svg>
