<svg width="99" height="28" viewBox="0 0 99 28" fill="none" xmlns="http://www.w3.org/2000/svg">
<path d="M11.6942 1.41406C11.4862 1.41406 11.2782 1.51948 11.1742 1.73034C10.6542 2.46835 10.1342 3.20637 9.61421 3.94438C7.74222 6.58013 5.8702 9.21588 3.9982 11.8516C3.8942 11.9571 3.89421 12.0625 3.68621 12.1679V1.41406H0.0462221C-0.0577777 1.83578 0.0462221 17.7557 0.0462221 17.9666H0.15026C1.08626 17.9666 2.12624 17.9666 3.06224 17.9666C3.16624 17.9666 3.27023 17.8611 3.37423 17.7557C3.58223 17.4394 3.89424 17.0177 4.10224 16.7014C6.28623 13.6439 8.47022 10.5865 10.6542 7.52899C10.7582 7.42356 10.7582 7.31814 10.9662 7.21271V9.84846V12.4842C10.9662 13.3277 10.9662 14.2765 10.9662 15.12C10.9662 15.9634 10.9662 16.9123 10.9662 17.7557H14.6062V1.41406C14.5022 1.41406 14.3982 1.41406 14.2942 1.41406C13.4622 1.41406 12.5262 1.41406 11.6942 1.41406Z" fill="#D7D7D7"/>
<path d="M89.904 18.4926C94.792 18.4926 98.6399 14.5916 98.6399 9.74186C98.6399 5.10294 95.104 0.991172 89.904 0.885742C85.016 0.885742 81.168 4.78664 81.168 9.63642C81.168 14.5916 85.016 18.4926 89.904 18.4926ZM85.744 6.57896C86.888 4.99751 88.448 4.36493 90.216 4.47036C90.736 4.47036 91.256 4.57581 91.672 4.78667C93.44 5.41925 94.48 6.78982 94.792 8.68756C95 9.95272 94.896 11.1124 94.272 12.2722C93.544 13.8536 92.192 14.5916 90.632 14.9079C89.696 15.0134 88.864 15.0134 87.928 14.6971C86.16 14.0645 85.12 12.6939 84.808 10.9016C84.704 10.5853 84.704 10.1636 84.704 9.84729C84.808 8.58213 85.12 7.52783 85.744 6.57896Z" fill="#D7D7D7"/>
<path d="M54.7494 14.6973V11.4289H63.4853V8.1606H62.0294H60.5733H59.1173H57.6613C57.1413 8.1606 56.7253 8.1606 56.2053 8.1606C55.6853 8.1606 55.2694 8.1606 54.7494 8.1606V4.89226H63.7973V1.41309H51.1094V17.9656C51.2134 17.9656 51.2133 17.9656 51.2133 17.9656C55.3733 17.9656 59.4294 17.9656 63.5893 17.9656H63.6933C63.6933 16.9113 63.6933 15.7516 63.6933 14.6973H54.7494Z" fill="#D7D7D7"/>
<path d="M29.1651 7.73889H22.0931V1.41309H18.4531V17.9656H22.0931V11.3235H29.2691V17.9656C29.7891 18.071 32.5971 18.071 32.9091 17.9656V1.41309H29.2691V7.73889H29.1651Z" fill="#D7D7D7"/>
<path d="M72.1184 11.5344C72.4304 11.5344 72.5344 11.6398 72.7424 11.8507C74.1984 13.8538 75.6544 15.857 77.0064 17.8602C77.1104 18.071 77.3184 18.1765 77.5264 18.1765C78.7744 18.1765 79.9184 18.1765 81.1664 18.1765C81.2704 18.1765 81.3744 18.1765 81.5824 18.1765C79.5024 15.3298 77.5264 12.5887 75.4464 9.84749C77.5264 7.10631 79.5024 4.36513 81.5824 1.51852C81.3744 1.51852 81.2704 1.51852 81.1664 1.51852C80.0224 1.51852 78.7744 1.51852 77.6304 1.51852C77.3184 1.51852 77.2144 1.62394 77.1104 1.8348C75.7584 3.73254 74.3025 5.63027 72.9505 7.52801C72.6385 7.94973 72.4305 8.16059 71.9105 8.05516C71.5985 8.05516 71.2865 8.05516 70.8705 8.05516V1.41309H67.2305V17.9656C67.7505 18.071 70.5585 18.071 70.8705 17.9656V11.5344C71.2865 11.5344 71.7024 11.5344 72.1184 11.5344Z" fill="#D7D7D7"/>
<path d="M97.8036 23.6585C91.2516 23.6585 84.5956 23.6585 78.0436 23.6585C75.8597 23.6585 73.6756 23.6585 71.5956 23.6585C71.2836 23.6585 71.1797 23.6585 71.1797 23.9748C71.1797 24.9237 71.1797 25.8725 71.1797 26.8214C71.1797 26.9268 71.1797 27.0323 71.1797 27.1377H71.5956H97.8036C97.9076 27.1377 98.0116 27.1377 98.1156 27.1377C98.2196 27.1377 98.3236 27.0323 98.3236 26.9268C98.3236 26.8214 98.3236 26.716 98.3236 26.6105C98.3236 25.7671 98.3236 24.9237 98.3236 24.0802C98.3236 23.5531 98.3236 23.6585 97.8036 23.6585Z" fill="#D7D7D7"/>
<path d="M43.7257 18.071V11.4289V4.78686H44.1417C45.4937 4.78686 46.8457 4.78686 48.3017 4.78686C48.4057 4.78686 48.6137 4.78686 48.7177 4.78686V1.51853C48.3017 1.4131 35.3017 1.4131 35.0938 1.51853V4.89227H35.5098C36.8618 4.89227 38.2138 4.89227 39.6698 4.89227C39.7738 4.89227 39.9817 4.89227 40.0857 4.89227V18.071H43.7257Z" fill="#D7D7D7"/>
<path d="M63.3819 23.6597H63.2779H40.6059C40.5019 23.6597 40.5019 23.6597 40.3979 23.6597C40.1899 23.6597 40.1899 23.6597 40.0859 23.9759C40.0859 24.0814 40.0859 24.0814 40.0859 24.1868C40.0859 25.0303 40.0859 25.9791 40.0859 26.8226C40.0859 27.3497 40.0859 27.3497 40.6059 27.3497H51.9419H63.0699C63.1739 27.3497 63.2779 27.3497 63.3819 27.3497C63.5899 27.3497 63.6939 27.3497 63.6939 27.0334C63.6939 26.0845 63.6939 25.0303 63.6939 24.0814C63.6939 23.6597 63.6939 23.6597 63.3819 23.6597Z" fill="#D7D7D7"/>
<path d="M32.3895 23.6597C31.5575 23.6597 30.8294 23.6597 29.9974 23.6597C25.0054 23.6597 20.0135 23.6597 15.0215 23.6597C14.6055 23.6597 14.6055 23.6597 14.6055 24.0814C14.6055 25.0303 14.6055 25.9791 14.6055 26.8226C14.6055 26.928 14.6055 27.0334 14.6055 27.2443H15.0215H20.0135C24.0695 27.2443 28.1254 27.2443 32.2854 27.2443C32.7014 27.2443 32.7015 27.2443 32.7015 26.8226C32.7015 25.8737 32.7015 24.9248 32.7015 24.0814C32.8055 23.6597 32.8055 23.6597 32.3895 23.6597Z" fill="#D7D7D7"/>
<path d="M6.9109 23.6597C4.7269 23.6597 2.64689 23.6597 0.4629 23.6597C0.1509 23.6597 0.046875 23.6597 0.046875 24.0814C0.046875 25.0303 0.046875 25.9791 0.046875 26.928C0.046875 27.0334 0.046875 27.1389 0.046875 27.2443C0.150875 27.2443 0.254862 27.2443 0.358862 27.2443C2.54286 27.2443 4.7269 27.2443 6.9109 27.2443C7.2229 27.2443 7.22289 27.2443 7.22289 26.928C7.22289 25.9791 7.22289 25.0303 7.22289 24.0814C7.32689 23.6597 7.2229 23.6597 6.9109 23.6597Z" fill="#D7D7D7"/>
</svg>
