<svg width="677" height="116" viewBox="0 0 677 116" fill="none" xmlns="http://www.w3.org/2000/svg">
<path d="M437.251 57.6599C437.251 89.5052 463.065 115.32 494.908 115.32C526.756 115.32 552.571 89.5052 552.571 57.6599C552.571 25.8173 526.756 -7.4486e-05 494.908 -7.4486e-05C463.065 -7.4486e-05 437.251 25.8173 437.251 57.6599V57.6599ZM459.595 57.6599C459.595 38.1559 475.405 22.344 494.908 22.344C514.412 22.344 530.227 38.1559 530.227 57.6599C530.227 77.1666 514.412 92.976 494.908 92.976C475.405 92.976 459.595 77.1666 459.595 57.6599ZM654.121 0.0985583L654.083 51.9893V115.595H676.665L676.676 0.0985583H654.121ZM574.865 0.0985583V115.595H597.42V69.0559H645.023L653.727 46.6386H597.42V0.0985583H574.865ZM360.992 0.0985583L316.153 115.595H339.979L373.296 29.776L406.616 115.595H430.441L385.604 0.0985583H360.992ZM235.555 0.0985583L190.715 115.595H214.543L223.32 92.9827H254.823L263.527 70.5652H232.023L247.86 29.776L281.179 115.595H305.005L260.165 0.0985583H235.555ZM0.00134277 17.4172L15.8014 33.2159C22.216 26.6252 31.1813 22.5307 41.1053 22.5307C60.6093 22.5307 76.424 38.3413 76.424 57.8466C76.424 77.3506 60.6093 93.164 41.1053 93.164C31.1813 93.164 22.216 89.0679 15.8014 82.4745L0 98.276C10.46 108.909 25.012 115.507 41.1053 115.507C72.9507 115.507 98.7667 89.6919 98.7667 57.8466C98.7667 26.0026 72.9507 0.186612 41.1053 0.186612C25.012 0.186612 10.46 6.78391 0.00134277 17.4172V17.4172ZM109.915 0.197354V22.4933H139.248V115.665H161.543V22.4933H190.715V0.197354H109.915ZM26.64 46.6386L26.8853 69.0559H64.6374L73.34 46.6386H26.64Z" fill="#D7D7D7"/>
</svg>
