<svg width="48" height="48" viewBox="0 0 48 48" fill="none" xmlns="http://www.w3.org/2000/svg">
<g clip-path="url(#clip0)">
<path d="M26.6091 3.10533C26.2352 3.26128 25.9913 3.62519 25.9913 4.02902L25.9913 14.9833L0.999696 14.9833C0.44788 14.9833 -1.29133e-06 15.4312 -1.26721e-06 15.983L-5.68059e-07 31.9777C-5.43939e-07 32.5295 0.447881 32.9774 0.999697 32.9774L25.9914 32.9774L25.9914 43.9737C25.9914 44.3775 26.2353 44.7414 26.6072 44.8974C26.9811 45.0514 27.4109 44.9674 27.6969 44.6815L47.7062 24.7381C47.8941 24.5502 48.0001 24.2962 48.0001 24.0304C48.0001 23.7645 47.8941 23.5105 47.7082 23.3226L27.6988 3.32126C27.4128 3.03532 26.983 2.94938 26.6091 3.10533Z" fill="#596667"/>
</g>
<defs>
<clipPath id="clip0">
<rect width="48" height="48" fill="white" transform="translate(0 48) rotate(-90)"/>
</clipPath>
</defs>
</svg>
