<svg width="184" height="184" viewBox="0 0 184 184" fill="none" xmlns="http://www.w3.org/2000/svg">
<circle cx="92" cy="92" r="92" fill="#596667"/>
<path d="M86.3484 97.4902C86.3036 97.4182 86.2336 97.3637 86.1508 97.3361C86.0681 97.3086 85.9778 97.3098 85.8959 97.3396L85.7809 97.3802L85.7159 97.3994L85.6109 97.428L85.5609 97.44L85.4459 97.4663L85.3184 97.4926H85.2834H85.2209L85.2984 97.4352L85.3359 97.4041L85.3534 97.3898L85.3709 97.3731L85.4059 97.342L85.4384 97.3085C85.5169 97.2291 85.5849 97.1408 85.6409 97.0456C85.6844 96.9696 85.7196 96.8895 85.7459 96.8066L85.7684 96.7349L85.7884 96.6441V96.6035C85.7988 96.5156 85.7746 96.4273 85.7205 96.3556C85.6665 96.2838 85.5865 96.2339 85.4961 96.2154C85.4057 96.1969 85.3114 96.2112 85.2314 96.2556C85.1514 96.2999 85.0916 96.3711 85.0634 96.4553C85.0634 96.4553 85.0634 96.4696 85.0509 96.4959C85.0434 96.5173 85.0342 96.538 85.0234 96.5581C85.0063 96.5907 84.9863 96.6219 84.9634 96.6513C84.9327 96.6907 84.8975 96.7268 84.8585 96.7588C84.8353 96.7784 84.8111 96.7967 84.786 96.8138C84.757 96.8328 84.7269 96.8504 84.696 96.8664L84.606 96.9094C84.3965 96.7929 84.1583 96.7319 83.916 96.7325C83.6737 96.732 83.4356 96.793 83.226 96.9094L83.136 96.8664C83.1051 96.8504 83.075 96.8328 83.046 96.8138C83.0208 96.7967 82.9966 96.7784 82.9735 96.7588C82.9345 96.7268 82.8993 96.6907 82.8685 96.6513C82.8458 96.6219 82.8258 96.5907 82.8085 96.5581C82.7977 96.538 82.7885 96.5173 82.781 96.4959C82.781 96.472 82.7685 96.4553 82.7685 96.4553C82.7404 96.3711 82.6805 96.2999 82.6006 96.2556C82.5206 96.2112 82.4262 96.1969 82.3358 96.2154C82.2454 96.2339 82.1654 96.2838 82.1114 96.3556C82.0574 96.4273 82.0332 96.5156 82.0436 96.6035V96.6441L82.0636 96.7349L82.0836 96.8066C82.1101 96.8894 82.1453 96.9695 82.1886 97.0456C82.2446 97.1408 82.3126 97.2291 82.391 97.3085L82.4235 97.342L82.4585 97.3731L82.476 97.3898L82.4935 97.4041L82.531 97.4352L82.6085 97.4926H82.546H82.511L82.3835 97.4663L82.2685 97.44L82.2185 97.428L82.1136 97.3994L82.0486 97.3802L81.9336 97.3396C81.8468 97.3093 81.7513 97.3108 81.6657 97.344C81.5801 97.3772 81.5104 97.4396 81.4702 97.5191C81.43 97.5987 81.4222 97.6896 81.4482 97.7744C81.4742 97.8592 81.5323 97.9316 81.6111 97.9778L81.6536 98.0017L81.7136 98.0351L81.7461 98.0495L81.7936 98.071L81.8461 98.0949L81.9011 98.1164L82.0236 98.1642L82.1636 98.212L82.3186 98.2574L82.401 98.2789L82.521 98.3076L82.4935 98.3243C82.3629 98.4041 82.2443 98.5006 82.1411 98.6111C82.1161 98.6374 82.0936 98.6637 82.0711 98.6924L82.0111 98.7761L81.9586 98.8597C81.9411 98.886 81.9286 98.9171 81.9161 98.9434L81.8811 99.0246C81.8708 99.0495 81.8624 99.0751 81.8561 99.1011L81.8361 99.1728C81.8361 99.1728 81.8361 99.1991 81.8361 99.223C81.8361 99.2469 81.8236 99.3234 81.8236 99.3234C81.8236 99.3234 81.8236 99.3688 81.8236 99.4262C81.8212 99.4468 81.8212 99.4677 81.8236 99.4883C81.8203 99.5834 81.8566 99.6758 81.9246 99.7453C81.9925 99.8148 82.0866 99.8556 82.1861 99.8588C82.2855 99.8619 82.3822 99.8272 82.4549 99.7622C82.5275 99.6972 82.5702 99.6073 82.5735 99.5122C82.5735 99.5122 82.5735 99.4644 82.5735 99.4429C82.5779 99.421 82.5838 99.3995 82.591 99.3784C82.6052 99.3407 82.6236 99.3046 82.646 99.2708C82.6794 99.2246 82.7171 99.1814 82.7585 99.1417C82.7783 99.1238 82.7992 99.1071 82.821 99.0915L82.8685 99.0581L82.9235 99.027L82.9685 99.0031C83.2243 99.2407 83.5669 99.3736 83.9235 99.3736C84.2801 99.3736 84.6227 99.2407 84.8785 99.0031L84.9235 99.027L84.9784 99.0581L85.0259 99.0915C85.0478 99.1071 85.0687 99.1238 85.0884 99.1417C85.1299 99.1814 85.1676 99.2246 85.2009 99.2708C85.2232 99.3047 85.2417 99.3407 85.2559 99.3784C85.2633 99.3995 85.2692 99.421 85.2734 99.4429C85.2734 99.4644 85.2734 99.5122 85.2734 99.5122C85.2768 99.6073 85.3194 99.6972 85.3921 99.7622C85.4648 99.8272 85.5615 99.8619 85.6609 99.8588C85.7604 99.8556 85.8544 99.8148 85.9224 99.7453C85.9904 99.6758 86.0267 99.5834 86.0234 99.4883C86.0257 99.4677 86.0257 99.4468 86.0234 99.4262C86.0234 99.3688 86.0234 99.3377 86.0234 99.3282C86.0234 99.3186 86.0234 99.2469 86.0084 99.223C85.9934 99.1991 86.0084 99.1848 86.0084 99.1728L85.9884 99.1011C85.982 99.0751 85.9737 99.0495 85.9634 99.0246L85.9284 98.9434C85.9159 98.9147 85.9009 98.886 85.8859 98.8597L85.8334 98.7761L85.7734 98.6924C85.7509 98.6637 85.7284 98.6374 85.7034 98.6111C85.6002 98.5005 85.4816 98.404 85.3509 98.3243L85.3234 98.3076L85.4434 98.2789L85.5259 98.2574L85.6809 98.212L85.8209 98.1642L85.9434 98.1164L85.9984 98.0949L86.0509 98.071L86.0984 98.0495L86.1309 98.0351L86.1909 98.0017L86.2334 97.9778C86.3159 97.93 86.3759 97.8535 86.4006 97.7643C86.4253 97.6752 86.4129 97.5803 86.3659 97.4997" fill="#7EA935"/>
<path d="M50.8801 97.6383C50.8925 98.4726 50.7097 99.299 50.3451 100.057C49.9882 100.782 49.455 101.415 48.7901 101.902C48.0521 102.436 47.2173 102.836 46.3277 103.081C45.2717 103.371 44.1767 103.512 43.0778 103.499C41.6833 103.503 40.2957 103.31 38.9605 102.925C37.6362 102.54 36.3877 101.948 35.2656 101.173L36.1731 99.995C38.2137 101.393 40.6626 102.141 43.1728 102.134C43.9927 102.139 44.81 102.045 45.6052 101.854C46.3072 101.692 46.9723 101.409 47.5677 101.018C48.1121 100.654 48.5571 100.17 48.8651 99.6078C49.1906 98.9886 49.352 98.3024 49.3351 97.6096C49.3687 96.8664 49.1778 96.1296 48.7851 95.4872C48.4225 94.944 47.9341 94.4877 47.3577 94.1536C46.7449 93.801 46.0847 93.53 45.3953 93.3481C44.6703 93.1521 43.962 92.9928 43.2703 92.8701C42.427 92.7267 41.6004 92.5514 40.7904 92.3443C40.0215 92.1554 39.2884 91.8522 38.618 91.4456C37.9791 91.0531 37.4456 90.5226 37.0606 89.8968C36.6606 89.2595 36.4606 88.4221 36.4606 87.3848C36.4478 86.5547 36.6181 85.7314 36.9606 84.9685C37.2851 84.2586 37.773 83.6279 38.388 83.1233C39.0397 82.5986 39.7944 82.2037 40.6079 81.9617C41.5524 81.6825 42.5369 81.547 43.5253 81.5602C46.0252 81.5602 48.176 82.1075 49.9776 83.2022L49.1676 84.4427C48.3117 83.9698 47.4004 83.5952 46.4527 83.3265C45.4875 83.0554 44.4863 82.9193 43.4803 82.9226C42.7811 82.9208 42.0849 83.0093 41.4104 83.1855C40.7781 83.3433 40.1839 83.6169 39.6605 83.9909C39.1594 84.3595 38.7511 84.8308 38.4655 85.37C38.1475 85.9971 37.9923 86.6882 38.013 87.3848C37.9794 88.0576 38.1598 88.7242 38.5305 89.2969C38.8773 89.784 39.3433 90.1828 39.888 90.4585C40.4959 90.7647 41.143 90.9937 41.8129 91.1397C42.5345 91.299 43.2728 91.4544 44.0278 91.6057C44.8894 91.7651 45.7302 91.9667 46.5502 92.2104C47.3349 92.4317 48.0775 92.7714 48.7501 93.2167C49.4031 93.6574 49.9356 94.2419 50.3026 94.9208C50.6909 95.6235 50.8851 96.5325 50.8851 97.6479" fill="white"/>
<path d="M71.2097 84.9903H71.1772L67.7998 91.8092L63.7074 99.9355H62.4075L58.3151 91.7518L54.9053 84.995C54.9062 84.9993 54.906 85.0037 54.9047 85.0079C54.9034 85.0121 54.901 85.0159 54.8978 85.019C54.8946 85.022 54.8906 85.0243 54.8862 85.0256C54.8818 85.0268 54.8772 85.027 54.8728 85.0261V103.313H53.4453V81.7373H54.9453L60.0226 91.9048C60.5426 92.9389 61.0575 93.9666 61.5675 94.988C62.0775 96.0094 62.5816 97.0451 63.08 98.0951H63.1125L66.1923 91.8952L71.2497 81.7278H72.7096V103.301H71.2097V84.9903Z" fill="white"/>
<path d="M149.487 97.6385C149.499 98.4728 149.316 99.2992 148.952 100.057C148.594 100.782 148.06 101.415 147.394 101.902C146.655 102.437 145.82 102.836 144.929 103.081C143.873 103.372 142.778 103.513 141.679 103.499C140.285 103.504 138.897 103.31 137.562 102.925C136.238 102.54 134.989 101.948 133.867 101.173L134.775 99.9951C136.815 101.393 139.264 102.141 141.774 102.134C142.594 102.139 143.412 102.045 144.207 101.855C144.909 101.692 145.574 101.409 146.169 101.018C146.713 100.654 147.158 100.17 147.467 99.6079C147.792 98.9887 147.954 98.3026 147.937 97.6098C147.97 96.8663 147.778 96.1294 147.384 95.4874C147.022 94.9442 146.533 94.4879 145.957 94.1537C145.345 93.8013 144.685 93.5303 143.997 93.3483C143.272 93.1523 142.564 92.9929 141.874 92.8702C141.031 92.7268 140.204 92.5516 139.394 92.3444C138.626 92.1555 137.892 91.8523 137.222 91.4458C136.583 91.0533 136.05 90.5227 135.665 89.897C135.265 89.2596 135.065 88.4223 135.065 87.385C135.052 86.5549 135.222 85.7315 135.565 84.9686C135.889 84.2587 136.377 83.628 136.992 83.1235C137.644 82.5987 138.398 82.2038 139.212 81.9619C140.155 81.6797 141.139 81.5409 142.127 81.5508C144.627 81.5508 146.778 82.0981 148.579 83.1928L147.769 84.4332C146.913 83.9605 146.002 83.5859 145.054 83.3171C144.089 83.0459 143.088 82.9099 142.082 82.9131C141.383 82.9114 140.686 82.9998 140.012 83.176C139.38 83.3339 138.785 83.6074 138.262 83.9815C137.761 84.3501 137.353 84.8213 137.067 85.3606C136.753 85.9894 136.602 86.6814 136.627 87.3778C136.593 88.0505 136.774 88.7172 137.145 89.2899C137.491 89.777 137.957 90.1757 138.502 90.4515C139.11 90.7577 139.757 90.9867 140.427 91.1326C141.149 91.292 141.887 91.4473 142.642 91.5987C143.503 91.7581 144.344 91.9596 145.164 92.2034C145.949 92.4247 146.692 92.7644 147.364 93.2096C148.017 93.6503 148.55 94.2348 148.917 94.9138C149.305 95.6165 149.499 96.5255 149.499 97.6409" fill="white"/>
<path d="M129.832 81.6466L131.322 81.2666V82.9922L129.832 83.3723V81.6466Z" fill="#7EA935"/>
<path d="M119.296 88.4422V103.497H120.789V87.9211L119.296 88.4422Z" fill="#AAADAE"/>
<path d="M129.832 103.309V84.7747L131.322 84.2561V103.309H129.832Z" fill="white"/>
<path d="M119.296 86.1579L120.788 85.7658V83.0094H127.498V81.7375H112.488V83.0094H119.296V86.1579Z" fill="white"/>
<path d="M96.9813 92.027H96.9238V83.0068H103.714C104.373 83.0028 105.031 83.0831 105.669 83.2458C106.269 83.3959 106.835 83.6547 107.333 84.0082C107.819 84.3629 108.211 84.8202 108.481 85.3443C108.787 85.9603 108.937 86.6367 108.918 87.3185C108.917 87.8715 108.825 88.4209 108.643 88.9461L110.428 88.4681C110.5 88.0807 110.536 87.688 110.536 87.2946C110.549 86.4904 110.383 85.6927 110.048 84.9547C109.742 84.286 109.288 83.6885 108.718 83.2027C108.121 82.7093 107.427 82.3354 106.676 82.1033C105.839 81.8395 104.962 81.7087 104.081 81.7161H95.3789V92.4309L96.9813 92.027Z" fill="white"/>
<path d="M79.5056 95.3133C79.7656 94.6106 80.0631 93.8099 80.3981 92.9112L81.468 90.0431C81.8464 89.0313 82.1972 88.0753 82.5205 87.175C82.8438 86.2747 83.1305 85.4948 83.3805 84.8351C83.6288 84.1738 83.7955 83.7293 83.8805 83.5014H83.9779C84.3029 84.4113 84.6363 85.3099 84.9779 86.1975C85.3196 87.085 85.6604 87.9836 86.0004 88.8935L88.0328 94.3907L89.4353 94.0226C89.2453 93.5279 89.0578 93.0259 88.8678 92.5312C87.4878 88.9524 86.107 85.3545 84.7254 81.7375H83.128L74.9258 103.31H76.5457L78.9456 96.7712C79.054 96.5035 79.2373 96.0175 79.4956 95.3133" fill="white"/>
<path d="M95.3711 96.7635V103.309H96.926V96.2234L95.3711 96.7635Z" fill="#AAADAE"/>
<path d="M103.707 93.8618L108.437 103.309H110.249L105.144 93.3647L103.707 93.8618Z" fill="#AAADAE"/>
<path d="M89.6289 98.7615L91.3088 103.303H92.9613C92.3238 101.613 91.6838 99.9422 91.0439 98.262L89.6289 98.7615Z" fill="#AAADAE"/>
</svg>
