<svg width="269" height="269" viewBox="0 0 269 269" fill="none" xmlns="http://www.w3.org/2000/svg">
<path fill-rule="evenodd" clip-rule="evenodd" d="M3.43816 164.987C1.18857 155.25 0 145.109 0 134.693C0 60.3041 60.6191 0 135.397 0V72.527C100.884 72.527 72.9059 100.36 72.9059 134.693C72.9059 139.501 73.4545 144.181 74.4927 148.675L3.43816 164.987Z" fill="#F1933C"/>
<path fill-rule="evenodd" clip-rule="evenodd" d="M103.839 266.31C53.691 254.793 14.2157 215.346 2.69 165.233L73.7505 148.847C78.9709 171.98 97.0861 190.233 120.153 195.667L103.839 266.31Z" fill="#FCD171"/>
<path fill-rule="evenodd" clip-rule="evenodd" d="M104.013 265.597L120.32 195.6C124.783 196.603 129.427 197.133 134.196 197.133C163.977 197.133 188.89 176.481 195.135 148.847L266.31 165.117C252.504 224.622 198.706 269 134.444 269C123.98 269 113.794 267.823 104.013 265.597H104.013Z" fill="#A1B437"/>
<path fill-rule="evenodd" clip-rule="evenodd" d="M135.397 0C209.184 0 269 60.3041 269 134.693C269 145.109 267.827 155.25 265.607 164.987L195.494 148.675C196.518 144.181 197.06 139.501 197.06 134.693C197.06 100.36 169.452 72.527 135.397 72.527V0Z" fill="#D7D3D4"/>
<path d="M205.545 81.966H203.979V84H202.701V81.966H197.589V80.796L202.215 71.184H203.601L198.975 80.796H202.701V77.16H203.979V80.796H205.545V81.966ZM214.211 80.58C214.211 81.624 213.875 82.476 213.203 83.136C212.543 83.784 211.709 84.108 210.701 84.108C209.681 84.108 208.841 83.784 208.181 83.136C207.521 82.488 207.191 81.636 207.191 80.58V74.604C207.191 73.548 207.521 72.696 208.181 72.048C208.841 71.4 209.681 71.076 210.701 71.076C211.709 71.076 212.543 71.406 213.203 72.066C213.875 72.714 214.211 73.56 214.211 74.604V80.58ZM212.915 80.508V74.676C212.915 73.956 212.717 73.368 212.321 72.912C211.937 72.456 211.397 72.228 210.701 72.228C210.005 72.228 209.459 72.456 209.063 72.912C208.679 73.368 208.487 73.956 208.487 74.676V80.508C208.487 81.228 208.679 81.816 209.063 82.272C209.459 82.728 210.005 82.956 210.701 82.956C211.397 82.956 211.937 82.728 212.321 82.272C212.717 81.816 212.915 81.228 212.915 80.508ZM220.123 75.342V73.524C220.123 72.48 219.661 71.958 218.737 71.958C217.801 71.958 217.333 72.48 217.333 73.524V75.342C217.333 76.374 217.801 76.89 218.737 76.89C219.661 76.89 220.123 76.374 220.123 75.342ZM221.167 75.378C221.167 76.11 220.939 76.698 220.483 77.142C220.039 77.574 219.457 77.79 218.737 77.79C218.017 77.79 217.429 77.574 216.973 77.142C216.529 76.698 216.307 76.11 216.307 75.378V73.488C216.307 72.756 216.535 72.168 216.991 71.724C217.447 71.28 218.029 71.058 218.737 71.058C219.445 71.058 220.027 71.28 220.483 71.724C220.939 72.168 221.167 72.756 221.167 73.488V75.378ZM227.935 81.66V79.86C227.935 78.816 227.473 78.294 226.549 78.294C225.613 78.294 225.145 78.816 225.145 79.86V81.66C225.145 82.704 225.613 83.226 226.549 83.226C227.473 83.226 227.935 82.704 227.935 81.66ZM228.979 81.714C228.979 82.446 228.751 83.034 228.295 83.478C227.839 83.91 227.257 84.126 226.549 84.126C225.841 84.126 225.259 83.91 224.803 83.478C224.347 83.034 224.119 82.446 224.119 81.714V79.824C224.119 79.092 224.347 78.504 224.803 78.06C225.259 77.616 225.841 77.394 226.549 77.394C227.257 77.394 227.839 77.616 228.295 78.06C228.751 78.504 228.979 79.092 228.979 79.824V81.714ZM226.189 71.184L220.177 84H219.097L225.109 71.184H226.189Z" fill="#676767"/>
<path d="M52.8086 211H51.5126V199.624L49.1186 201.73V200.254L51.5126 198.184H52.8086V211ZM64.2109 207.58C64.2109 208.624 63.8749 209.476 63.2029 210.136C62.5429 210.784 61.7089 211.108 60.7009 211.108C59.6809 211.108 58.8409 210.784 58.1809 210.136C57.5209 209.488 57.1909 208.636 57.1909 207.58V201.604C57.1909 200.548 57.5209 199.696 58.1809 199.048C58.8409 198.4 59.6809 198.076 60.7009 198.076C61.7089 198.076 62.5429 198.406 63.2029 199.066C63.8749 199.714 64.2109 200.56 64.2109 201.604V207.58ZM62.9149 207.508V201.676C62.9149 200.956 62.7169 200.368 62.3209 199.912C61.9369 199.456 61.3969 199.228 60.7009 199.228C60.0049 199.228 59.4589 199.456 59.0629 199.912C58.6789 200.368 58.4869 200.956 58.4869 201.676V207.508C58.4869 208.228 58.6789 208.816 59.0629 209.272C59.4589 209.728 60.0049 209.956 60.7009 209.956C61.3969 209.956 61.9369 209.728 62.3209 209.272C62.7169 208.816 62.9149 208.228 62.9149 207.508ZM70.1232 202.342V200.524C70.1232 199.48 69.6612 198.958 68.7372 198.958C67.8012 198.958 67.3332 199.48 67.3332 200.524V202.342C67.3332 203.374 67.8012 203.89 68.7372 203.89C69.6612 203.89 70.1232 203.374 70.1232 202.342ZM71.1672 202.378C71.1672 203.11 70.9392 203.698 70.4832 204.142C70.0392 204.574 69.4572 204.79 68.7372 204.79C68.0172 204.79 67.4292 204.574 66.9732 204.142C66.5292 203.698 66.3072 203.11 66.3072 202.378V200.488C66.3072 199.756 66.5352 199.168 66.9912 198.724C67.4472 198.28 68.0292 198.058 68.7372 198.058C69.4452 198.058 70.0272 198.28 70.4832 198.724C70.9392 199.168 71.1672 199.756 71.1672 200.488V202.378ZM77.9352 208.66V206.86C77.9352 205.816 77.4732 205.294 76.5492 205.294C75.6132 205.294 75.1452 205.816 75.1452 206.86V208.66C75.1452 209.704 75.6132 210.226 76.5492 210.226C77.4732 210.226 77.9352 209.704 77.9352 208.66ZM78.9792 208.714C78.9792 209.446 78.7512 210.034 78.2952 210.478C77.8392 210.91 77.2572 211.126 76.5492 211.126C75.8412 211.126 75.2592 210.91 74.8032 210.478C74.3472 210.034 74.1192 209.446 74.1192 208.714V206.824C74.1192 206.092 74.3472 205.504 74.8032 205.06C75.2592 204.616 75.8412 204.394 76.5492 204.394C77.2572 204.394 77.8392 204.616 78.2952 205.06C78.7512 205.504 78.9792 206.092 78.9792 206.824V208.714ZM76.1892 198.184L70.1772 211H69.0972L75.1092 198.184H76.1892Z" fill="white"/>
<path d="M184.167 220H177.093V218.848L182.151 212.422C182.631 211.798 182.871 211.168 182.871 210.532C182.871 209.836 182.673 209.278 182.277 208.858C181.881 208.438 181.335 208.228 180.639 208.228C179.991 208.228 179.457 208.42 179.037 208.804C178.617 209.188 178.407 209.77 178.407 210.55H177.111C177.111 209.53 177.435 208.696 178.083 208.048C178.731 207.4 179.583 207.076 180.639 207.076C181.695 207.076 182.547 207.394 183.195 208.03C183.843 208.654 184.167 209.488 184.167 210.532C184.167 211.024 184.089 211.462 183.933 211.846C183.777 212.23 183.513 212.656 183.141 213.124L178.659 218.848H184.167V220ZM193.319 215.77C193.319 216.538 193.253 217.192 193.121 217.732C192.989 218.272 192.713 218.752 192.293 219.172C191.657 219.808 190.805 220.126 189.737 220.126C188.633 220.126 187.775 219.82 187.163 219.208C186.635 218.668 186.335 217.924 186.263 216.976H187.559C187.727 218.308 188.453 218.974 189.737 218.974C190.397 218.974 190.925 218.776 191.321 218.38C191.789 217.912 192.023 217.042 192.023 215.77C192.023 215.326 191.993 214.942 191.933 214.618C191.885 214.282 191.789 213.958 191.645 213.646C191.501 213.322 191.279 213.076 190.979 212.908C190.679 212.74 190.307 212.656 189.863 212.656C189.311 212.656 188.849 212.77 188.477 212.998C188.117 213.226 187.871 213.532 187.739 213.916H186.569V207.184H193.049V208.336H187.739V212.404C188.267 211.816 189.035 211.522 190.043 211.522C190.979 211.522 191.717 211.792 192.257 212.332C192.965 213.04 193.319 214.186 193.319 215.77ZM199.123 211.342V209.524C199.123 208.48 198.661 207.958 197.737 207.958C196.801 207.958 196.333 208.48 196.333 209.524V211.342C196.333 212.374 196.801 212.89 197.737 212.89C198.661 212.89 199.123 212.374 199.123 211.342ZM200.167 211.378C200.167 212.11 199.939 212.698 199.483 213.142C199.039 213.574 198.457 213.79 197.737 213.79C197.017 213.79 196.429 213.574 195.973 213.142C195.529 212.698 195.307 212.11 195.307 211.378V209.488C195.307 208.756 195.535 208.168 195.991 207.724C196.447 207.28 197.029 207.058 197.737 207.058C198.445 207.058 199.027 207.28 199.483 207.724C199.939 208.168 200.167 208.756 200.167 209.488V211.378ZM206.935 217.66V215.86C206.935 214.816 206.473 214.294 205.549 214.294C204.613 214.294 204.145 214.816 204.145 215.86V217.66C204.145 218.704 204.613 219.226 205.549 219.226C206.473 219.226 206.935 218.704 206.935 217.66ZM207.979 217.714C207.979 218.446 207.751 219.034 207.295 219.478C206.839 219.91 206.257 220.126 205.549 220.126C204.841 220.126 204.259 219.91 203.803 219.478C203.347 219.034 203.119 218.446 203.119 217.714V215.824C203.119 215.092 203.347 214.504 203.803 214.06C204.259 213.616 204.841 213.394 205.549 213.394C206.257 213.394 206.839 213.616 207.295 214.06C207.751 214.504 207.979 215.092 207.979 215.824V217.714ZM205.189 207.184L199.177 220H198.097L204.109 207.184H205.189Z" fill="white"/>
<path d="M56.1666 82H49.0926V80.848L54.1506 74.422C54.6306 73.798 54.8706 73.168 54.8706 72.532C54.8706 71.836 54.6726 71.278 54.2766 70.858C53.8806 70.438 53.3346 70.228 52.6386 70.228C51.9906 70.228 51.4566 70.42 51.0366 70.804C50.6166 71.188 50.4066 71.77 50.4066 72.55H49.1106C49.1106 71.53 49.4346 70.696 50.0826 70.048C50.7306 69.4 51.5826 69.076 52.6386 69.076C53.6946 69.076 54.5466 69.394 55.1946 70.03C55.8426 70.654 56.1666 71.488 56.1666 72.532C56.1666 73.024 56.0886 73.462 55.9326 73.846C55.7766 74.23 55.5126 74.656 55.1406 75.124L50.6586 80.848H56.1666V82ZM65.3189 77.77C65.3189 78.538 65.2529 79.192 65.1209 79.732C64.9889 80.272 64.7129 80.752 64.2929 81.172C63.6569 81.808 62.8049 82.126 61.7369 82.126C60.6329 82.126 59.7749 81.82 59.1629 81.208C58.6349 80.668 58.3349 79.924 58.2629 78.976H59.5589C59.7269 80.308 60.4529 80.974 61.7369 80.974C62.3969 80.974 62.9249 80.776 63.3209 80.38C63.7889 79.912 64.0229 79.042 64.0229 77.77C64.0229 77.326 63.9929 76.942 63.9329 76.618C63.8849 76.282 63.7889 75.958 63.6449 75.646C63.5009 75.322 63.2789 75.076 62.9789 74.908C62.6789 74.74 62.3069 74.656 61.8629 74.656C61.3109 74.656 60.8489 74.77 60.4769 74.998C60.1169 75.226 59.8709 75.532 59.7389 75.916H58.5689V69.184H65.0489V70.336H59.7389V74.404C60.2669 73.816 61.0349 73.522 62.0429 73.522C62.9789 73.522 63.7169 73.792 64.2569 74.332C64.9649 75.04 65.3189 76.186 65.3189 77.77ZM71.1232 73.342V71.524C71.1232 70.48 70.6612 69.958 69.7372 69.958C68.8012 69.958 68.3332 70.48 68.3332 71.524V73.342C68.3332 74.374 68.8012 74.89 69.7372 74.89C70.6612 74.89 71.1232 74.374 71.1232 73.342ZM72.1672 73.378C72.1672 74.11 71.9392 74.698 71.4832 75.142C71.0392 75.574 70.4572 75.79 69.7372 75.79C69.0172 75.79 68.4292 75.574 67.9732 75.142C67.5292 74.698 67.3072 74.11 67.3072 73.378V71.488C67.3072 70.756 67.5352 70.168 67.9912 69.724C68.4472 69.28 69.0292 69.058 69.7372 69.058C70.4452 69.058 71.0272 69.28 71.4832 69.724C71.9392 70.168 72.1672 70.756 72.1672 71.488V73.378ZM78.9352 79.66V77.86C78.9352 76.816 78.4732 76.294 77.5492 76.294C76.6132 76.294 76.1452 76.816 76.1452 77.86V79.66C76.1452 80.704 76.6132 81.226 77.5492 81.226C78.4732 81.226 78.9352 80.704 78.9352 79.66ZM79.9792 79.714C79.9792 80.446 79.7512 81.034 79.2952 81.478C78.8392 81.91 78.2572 82.126 77.5492 82.126C76.8412 82.126 76.2592 81.91 75.8032 81.478C75.3472 81.034 75.1192 80.446 75.1192 79.714V77.824C75.1192 77.092 75.3472 76.504 75.8032 76.06C76.2592 75.616 76.8412 75.394 77.5492 75.394C78.2572 75.394 78.8392 75.616 79.2952 76.06C79.7512 76.504 79.9792 77.092 79.9792 77.824V79.714ZM77.1892 69.184L71.1772 82H70.0972L76.1092 69.184H77.1892Z" fill="white"/>
</svg>
