<svg width="327" height="330" viewBox="0 0 327 330" fill="none" xmlns="http://www.w3.org/2000/svg">
<path fill-rule="evenodd" clip-rule="evenodd" d="M27.0007 161.038C27.3545 151.052 28.8344 140.95 31.5306 130.887C50.7854 59.0274 124.777 16.4169 196.795 35.714L178.022 105.775C144.783 96.869 110.633 116.535 101.746 149.702C100.502 154.346 99.8185 159.008 99.6552 163.617L27.0007 161.038V161.038Z" fill="#FCD171"/>
<path fill-rule="evenodd" clip-rule="evenodd" d="M98.5968 284.782C52.9304 260.568 24.8822 212.027 26.7277 160.405L99.9411 162.98C98.9918 186.785 111.824 209.206 132.794 220.476L98.5968 284.782V284.782Z" fill="#F1933C"/>
<path fill-rule="evenodd" clip-rule="evenodd" d="M98.1168 284.211L132.083 220.336C136.125 222.464 140.464 224.179 145.062 225.411C173.777 233.105 203.178 219.453 216.403 194.185L280.786 228.4C251.965 282.716 188.528 311.985 126.57 295.383C116.481 292.68 106.967 288.904 98.1168 284.211L98.1168 284.211Z" fill="#A1B437"/>
<path fill-rule="evenodd" clip-rule="evenodd" d="M196.793 35.7109C268.277 54.8651 310.618 128.647 291.363 200.507C288.667 210.569 284.906 220.06 280.235 228.89L216.532 194.932C218.688 190.856 220.423 186.476 221.668 181.832C230.555 148.666 211.013 114.613 178.02 105.772L196.793 35.7109Z" fill="#EDEDED"/>
<path fill-rule="evenodd" clip-rule="evenodd" d="M196.793 35.7109C268.277 54.8651 310.618 128.647 291.363 200.507C288.667 210.569 284.906 220.06 280.235 228.89L216.532 194.932C218.688 190.856 220.423 186.476 221.668 181.832C230.555 148.666 211.013 114.613 178.02 105.772L196.793 35.7109Z" fill="#FCD171"/>
<path d="M288.327 121.321C294.586 139.169 297.012 158.134 295.447 176.98C293.881 195.826 288.359 214.129 279.24 230.696L215.773 195.507C219.924 187.965 221.654 179.476 222.367 170.897C223.079 162.317 221.975 153.684 219.125 145.559L288.327 121.321Z" fill="#A1B437"/>
<path d="M276.697 95.4269C281.896 104.503 286.036 114.155 289.036 124.192L219.213 146.282C217.847 141.713 215.73 136.417 213.363 132.285L276.697 95.4269Z" fill="#D7D3D4"/>
<path d="M264.649 119.688C264.649 120.828 264.295 121.716 263.587 122.352C262.879 122.988 261.979 123.306 260.887 123.306C259.819 123.306 258.937 123.024 258.241 122.46C257.545 121.884 257.173 121.038 257.125 119.922L258.421 119.922C258.469 120.678 258.721 121.242 259.177 121.614C259.645 121.974 260.215 122.154 260.887 122.154C261.595 122.154 262.183 121.932 262.651 121.488C263.119 121.044 263.353 120.438 263.353 119.67C263.353 118.014 262.513 117.186 260.833 117.186L260.563 117.186L260.563 116.052L260.833 116.052C261.601 116.052 262.171 115.854 262.543 115.458C262.927 115.05 263.119 114.474 263.119 113.73C263.119 112.986 262.909 112.41 262.489 112.002C262.069 111.594 261.535 111.39 260.887 111.39C260.215 111.39 259.675 111.582 259.267 111.966C258.871 112.35 258.643 112.872 258.583 113.532L257.287 113.532C257.359 112.512 257.725 111.708 258.385 111.12C259.057 110.532 259.891 110.238 260.887 110.238C261.931 110.238 262.777 110.556 263.425 111.192C264.085 111.828 264.415 112.668 264.415 113.712C264.415 115.08 263.839 116.028 262.687 116.556C263.995 117.048 264.649 118.092 264.649 119.688ZM270.49 114.522L270.49 112.704C270.49 111.66 270.028 111.138 269.104 111.138C268.168 111.138 267.7 111.66 267.7 112.704L267.7 114.522C267.7 115.554 268.168 116.07 269.104 116.07C270.028 116.07 270.49 115.554 270.49 114.522ZM271.534 114.558C271.534 115.29 271.306 115.878 270.85 116.322C270.406 116.754 269.824 116.97 269.104 116.97C268.384 116.97 267.796 116.754 267.34 116.322C266.896 115.878 266.674 115.29 266.674 114.558L266.674 112.668C266.674 111.936 266.902 111.348 267.358 110.904C267.814 110.46 268.396 110.238 269.104 110.238C269.812 110.238 270.394 110.46 270.85 110.904C271.306 111.348 271.534 111.936 271.534 112.668L271.534 114.558ZM278.302 120.84L278.302 119.04C278.302 117.996 277.84 117.474 276.916 117.474C275.98 117.474 275.512 117.996 275.512 119.04L275.512 120.84C275.512 121.884 275.98 122.406 276.916 122.406C277.84 122.406 278.302 121.884 278.302 120.84ZM279.346 120.894C279.346 121.626 279.118 122.214 278.662 122.658C278.206 123.09 277.624 123.306 276.916 123.306C276.208 123.306 275.626 123.09 275.17 122.658C274.714 122.214 274.486 121.626 274.486 120.894L274.486 119.004C274.486 118.272 274.714 117.684 275.17 117.24C275.626 116.796 276.208 116.574 276.916 116.574C277.624 116.574 278.206 116.796 278.662 117.24C279.118 117.684 279.346 118.272 279.346 119.004L279.346 120.894ZM276.556 110.364L270.544 123.18L269.464 123.18L275.476 110.364L276.556 110.364Z" fill="#676767"/>
<path d="M224.082 237.692C224.082 238.832 223.728 239.72 223.02 240.356C222.312 240.992 221.412 241.31 220.32 241.31C219.252 241.31 218.37 241.028 217.674 240.464C216.978 239.888 216.606 239.042 216.558 237.926L217.854 237.926C217.902 238.682 218.154 239.246 218.61 239.618C219.078 239.978 219.648 240.158 220.32 240.158C221.028 240.158 221.616 239.936 222.084 239.492C222.552 239.048 222.786 238.442 222.786 237.674C222.786 236.018 221.946 235.19 220.266 235.19L219.996 235.19L219.996 234.056L220.266 234.056C221.034 234.056 221.604 233.858 221.976 233.462C222.36 233.054 222.552 232.478 222.552 231.734C222.552 230.99 222.342 230.414 221.922 230.006C221.502 229.598 220.968 229.394 220.32 229.394C219.648 229.394 219.108 229.586 218.7 229.97C218.304 230.354 218.076 230.876 218.016 231.536L216.72 231.536C216.792 230.516 217.158 229.712 217.818 229.124C218.49 228.536 219.324 228.242 220.32 228.242C221.364 228.242 222.21 228.56 222.858 229.196C223.518 229.832 223.848 230.672 223.848 231.716C223.848 233.084 223.272 234.032 222.12 234.56C223.428 235.052 224.082 236.096 224.082 237.692ZM233.217 237.494C233.217 238.598 232.893 239.51 232.245 240.23C231.597 240.938 230.739 241.292 229.671 241.292C228.591 241.292 227.727 240.956 227.079 240.284C226.431 239.612 226.107 238.718 226.107 237.602C226.107 236.762 226.377 235.802 226.917 234.722L230.067 228.368L231.399 228.368L228.537 234.128C228.933 233.948 229.383 233.858 229.887 233.858C230.883 233.858 231.687 234.2 232.299 234.884C232.911 235.556 233.217 236.426 233.217 237.494ZM231.921 237.548C231.921 236.804 231.717 236.186 231.309 235.694C230.913 235.202 230.361 234.956 229.653 234.956C228.969 234.956 228.423 235.19 228.015 235.658C227.607 236.126 227.403 236.756 227.403 237.548C227.403 238.328 227.607 238.958 228.015 239.438C228.423 239.906 228.969 240.14 229.653 240.14C230.337 240.14 230.883 239.906 231.291 239.438C231.711 238.958 231.921 238.328 231.921 237.548ZM239.057 232.526L239.057 230.708C239.057 229.664 238.595 229.142 237.671 229.142C236.735 229.142 236.267 229.664 236.267 230.708L236.267 232.526C236.267 233.558 236.735 234.074 237.671 234.074C238.595 234.074 239.057 233.558 239.057 232.526ZM240.101 232.562C240.101 233.294 239.873 233.882 239.417 234.326C238.973 234.758 238.391 234.974 237.671 234.974C236.951 234.974 236.363 234.758 235.907 234.326C235.463 233.882 235.241 233.294 235.241 232.562L235.241 230.672C235.241 229.94 235.469 229.352 235.925 228.908C236.381 228.464 236.963 228.242 237.671 228.242C238.379 228.242 238.961 228.464 239.417 228.908C239.873 229.352 240.101 229.94 240.101 230.672L240.101 232.562ZM246.869 238.844L246.869 237.044C246.869 236 246.407 235.478 245.483 235.478C244.547 235.478 244.079 236 244.079 237.044L244.079 238.844C244.079 239.888 244.547 240.41 245.483 240.41C246.407 240.41 246.869 239.888 246.869 238.844ZM247.913 238.898C247.913 239.63 247.685 240.218 247.229 240.662C246.773 241.094 246.191 241.31 245.483 241.31C244.775 241.31 244.193 241.094 243.737 240.662C243.281 240.218 243.053 239.63 243.053 238.898L243.053 237.008C243.053 236.276 243.281 235.688 243.737 235.244C244.193 234.8 244.775 234.578 245.483 234.578C246.191 234.578 246.773 234.8 247.229 235.244C247.685 235.688 247.913 236.276 247.913 237.008L247.913 238.898ZM245.123 228.368L239.111 241.184L238.031 241.184L244.043 228.368L245.123 228.368Z" fill="white"/>
<path d="M74.1002 224.18L67.0262 224.18L67.0262 223.028L72.0842 216.602C72.5642 215.978 72.8042 215.348 72.8042 214.712C72.8042 214.016 72.6062 213.458 72.2102 213.038C71.8142 212.618 71.2682 212.408 70.5722 212.408C69.9242 212.408 69.3902 212.6 68.9702 212.984C68.5502 213.368 68.3402 213.95 68.3402 214.73L67.0442 214.73C67.0442 213.71 67.3682 212.876 68.0162 212.228C68.6642 211.58 69.5162 211.256 70.5722 211.256C71.6282 211.256 72.4802 211.574 73.1282 212.21C73.7762 212.834 74.1002 213.668 74.1002 214.712C74.1002 215.204 74.0222 215.642 73.8662 216.026C73.7102 216.41 73.4462 216.836 73.0742 217.304L68.5922 223.028L74.1002 223.028L74.1002 224.18ZM83.1445 220.76C83.1445 221.804 82.8085 222.656 82.1365 223.316C81.4765 223.964 80.6425 224.288 79.6345 224.288C78.6145 224.288 77.7745 223.964 77.1145 223.316C76.4545 222.668 76.1245 221.816 76.1245 220.76L76.1245 214.784C76.1245 213.728 76.4545 212.876 77.1145 212.228C77.7745 211.58 78.6145 211.256 79.6345 211.256C80.6425 211.256 81.4765 211.586 82.1365 212.246C82.8085 212.894 83.1445 213.74 83.1445 214.784L83.1445 220.76ZM81.8485 220.688L81.8485 214.856C81.8485 214.136 81.6505 213.548 81.2545 213.092C80.8705 212.636 80.3305 212.408 79.6345 212.408C78.9385 212.408 78.3925 212.636 77.9965 213.092C77.6125 213.548 77.4205 214.136 77.4205 214.856L77.4205 220.688C77.4205 221.408 77.6125 221.996 77.9965 222.452C78.3925 222.908 78.9385 223.136 79.6345 223.136C80.3305 223.136 80.8705 222.908 81.2545 222.452C81.6505 221.996 81.8485 221.408 81.8485 220.688ZM89.0568 215.522L89.0568 213.704C89.0568 212.66 88.5948 212.138 87.6708 212.138C86.7348 212.138 86.2668 212.66 86.2668 213.704L86.2668 215.522C86.2668 216.554 86.7348 217.07 87.6708 217.07C88.5948 217.07 89.0568 216.554 89.0568 215.522ZM90.1008 215.558C90.1008 216.29 89.8728 216.878 89.4168 217.322C88.9728 217.754 88.3908 217.97 87.6708 217.97C86.9508 217.97 86.3628 217.754 85.9068 217.322C85.4628 216.878 85.2408 216.29 85.2408 215.558L85.2408 213.668C85.2408 212.936 85.4688 212.348 85.9248 211.904C86.3808 211.46 86.9628 211.238 87.6708 211.238C88.3788 211.238 88.9608 211.46 89.4168 211.904C89.8728 212.348 90.1008 212.936 90.1008 213.668L90.1008 215.558ZM96.8688 221.84L96.8688 220.04C96.8688 218.996 96.4068 218.474 95.4828 218.474C94.5468 218.474 94.0788 218.996 94.0788 220.04L94.0788 221.84C94.0788 222.884 94.5468 223.406 95.4828 223.406C96.4068 223.406 96.8688 222.884 96.8688 221.84ZM97.9128 221.894C97.9128 222.626 97.6848 223.214 97.2288 223.658C96.7728 224.09 96.1908 224.306 95.4828 224.306C94.7748 224.306 94.1928 224.09 93.7368 223.658C93.2808 223.214 93.0528 222.626 93.0528 221.894L93.0528 220.004C93.0528 219.272 93.2808 218.684 93.7368 218.24C94.1928 217.796 94.7748 217.574 95.4828 217.574C96.1908 217.574 96.7728 217.796 97.2288 218.24C97.6848 218.684 97.9128 219.272 97.9128 220.004L97.9128 221.894ZM95.1228 211.364L89.1108 224.18L88.0308 224.18L94.0428 211.364L95.1228 211.364Z" fill="white"/>
<path d="M128.478 78.1496L126.912 78.1496L126.912 80.1836L125.634 80.1836L125.634 78.1496L120.522 78.1496L120.522 76.9796L125.148 67.3676L126.534 67.3676L121.908 76.9796L125.634 76.9796L125.634 73.3436L126.912 73.3436L126.912 76.9796L128.478 76.9796L128.478 78.1496ZM134.877 80.1836L133.581 80.1836L133.581 68.8076L131.187 70.9136L131.187 69.4376L133.581 67.3676L134.877 67.3676L134.877 80.1836ZM143.057 71.5256L143.057 69.7076C143.057 68.6636 142.595 68.1416 141.671 68.1416C140.735 68.1416 140.267 68.6636 140.267 69.7076L140.267 71.5256C140.267 72.5576 140.735 73.0736 141.671 73.0736C142.595 73.0736 143.057 72.5576 143.057 71.5256ZM144.101 71.5616C144.101 72.2936 143.873 72.8816 143.417 73.3256C142.973 73.7576 142.391 73.9736 141.671 73.9736C140.951 73.9736 140.363 73.7576 139.907 73.3256C139.463 72.8816 139.241 72.2936 139.241 71.5616L139.241 69.6716C139.241 68.9396 139.469 68.3516 139.925 67.9076C140.381 67.4636 140.963 67.2416 141.671 67.2416C142.379 67.2416 142.961 67.4636 143.417 67.9076C143.873 68.3516 144.101 68.9396 144.101 69.6716L144.101 71.5616ZM150.869 77.8436L150.869 76.0436C150.869 74.9996 150.407 74.4776 149.483 74.4776C148.547 74.4776 148.079 74.9996 148.079 76.0436L148.079 77.8436C148.079 78.8876 148.547 79.4096 149.483 79.4096C150.407 79.4096 150.869 78.8876 150.869 77.8436ZM151.913 77.8976C151.913 78.6296 151.685 79.2176 151.229 79.6616C150.773 80.0936 150.191 80.3096 149.483 80.3096C148.775 80.3096 148.193 80.0936 147.737 79.6616C147.281 79.2176 147.053 78.6296 147.053 77.8976L147.053 76.0076C147.053 75.2756 147.281 74.6876 147.737 74.2436C148.193 73.7996 148.775 73.5776 149.483 73.5776C150.191 73.5776 150.773 73.7996 151.229 74.2436C151.685 74.6876 151.913 75.2756 151.913 76.0076L151.913 77.8976ZM149.123 67.3676L143.111 80.1836L142.031 80.1836L148.043 67.3676L149.123 67.3676Z" fill="white"/>
</svg>
