<svg width="25" height="25" viewBox="0 0 25 25" fill="none" xmlns="http://www.w3.org/2000/svg">
<path fill-rule="evenodd" clip-rule="evenodd" d="M12.5 4.77051C7.5 4.77051 3.23 7.88051 1.5 12.2705C3.23 16.6605 7.5 19.7705 12.5 19.7705C17.5 19.7705 21.77 16.6605 23.5 12.2705C21.77 7.88051 17.5 4.77051 12.5 4.77051ZM12.5 17.2705C9.74 17.2705 7.5 15.0305 7.5 12.2705C7.5 9.51051 9.74 7.27051 12.5 7.27051C15.26 7.27051 17.5 9.51051 17.5 12.2705C17.5 15.0305 15.26 17.2705 12.5 17.2705ZM9.5 12.2705C9.5 10.6105 10.84 9.27051 12.5 9.27051C14.16 9.27051 15.5 10.6105 15.5 12.2705C15.5 13.9305 14.16 15.2705 12.5 15.2705C10.84 15.2705 9.5 13.9305 9.5 12.2705Z" fill="#7EA935"/>
</svg>
