<svg width="89" height="81" viewBox="0 0 89 81" fill="none" xmlns="http://www.w3.org/2000/svg">
<path d="M85.921 24.6367H85.0783L77.0891 3.15063C76.7417 2.22891 76.1237 1.43447 75.3165 0.871987C74.5093 0.309507 73.5509 0.00542212 72.5678 0H16.3836C15.4005 0.00542212 14.4421 0.309507 13.6349 0.871987C12.8277 1.43447 12.2097 2.22891 11.8624 3.15063L3.90556 24.6367H3.06284C2.25053 24.6367 1.4715 24.96 0.897113 25.5356C0.322722 26.1113 0 26.892 0 27.706V30.1746C0 30.9887 0.322722 31.7694 0.897113 32.345C1.4715 32.9206 2.25053 33.2441 3.06284 33.2441H3.51654V61.8758C3.51654 62.2225 3.65398 62.5551 3.89863 62.8002C4.14328 63.0454 4.47518 63.1831 4.82116 63.1831C5.16715 63.1831 5.49895 63.0454 5.7436 62.8002C5.98825 62.5551 6.12569 62.2225 6.12569 61.8758V33.2278H26.5931C27.1567 33.2279 27.7147 33.116 28.2349 32.8986C28.7551 32.6812 29.2271 32.3625 29.6235 31.961L44.5 17.0524L59.3766 31.961C59.7744 32.3595 60.247 32.6753 60.7671 32.8899C61.2872 33.1045 61.8445 33.2138 62.407 33.2115H82.8744V36.6707C82.8744 37.0175 83.0118 37.35 83.2565 37.5952C83.5011 37.8403 83.8329 37.9781 84.1789 37.9781C84.5249 37.9781 84.8567 37.8403 85.1014 37.5952C85.346 37.35 85.4835 37.0175 85.4835 36.6707V33.2115H85.9373C86.7496 33.2115 87.5286 32.8881 88.103 32.3125C88.6774 31.7369 89 30.9562 89 30.1421V27.6736C89 26.8596 88.6774 26.0789 88.103 25.5032C87.5286 24.9276 86.7496 24.6042 85.9373 24.6042L85.921 24.6367ZM14.3094 4.06009C14.4675 3.63641 14.7507 3.27119 15.1213 3.01295C15.4919 2.75472 15.9323 2.61582 16.3836 2.61477H72.6001C73.0515 2.61582 73.4918 2.75472 73.8624 3.01295C74.233 3.27119 74.5163 3.63641 74.6745 4.06009L82.3072 24.6367H64.1248L47.4656 7.94156C46.6607 7.13826 45.5711 6.68725 44.4352 6.68725C43.2993 6.68725 42.2096 7.13826 41.4048 7.94156L24.8105 24.6367H6.69284L14.3094 4.06009ZM86.3747 30.1583C86.3747 30.2789 86.327 30.3946 86.2419 30.4799C86.1568 30.5652 86.0414 30.6131 85.921 30.6131H62.3908C62.1709 30.6166 61.9527 30.5752 61.7493 30.4914C61.546 30.4076 61.3617 30.2833 61.2078 30.1259L45.4238 14.2428C45.3031 14.1201 45.1593 14.0226 45.0007 13.9561C44.8421 13.8895 44.672 13.8553 44.5 13.8553C44.3281 13.8553 44.1579 13.8895 43.9994 13.9561C43.8408 14.0226 43.697 14.1201 43.5763 14.2428L27.7761 30.0772C27.6222 30.2346 27.4379 30.3589 27.2345 30.4426C27.0312 30.5264 26.813 30.5678 26.5931 30.5644H3.06284C2.9425 30.5644 2.82707 30.5165 2.74198 30.4312C2.65688 30.346 2.60904 30.2303 2.60904 30.1097V27.6411C2.60904 27.5205 2.65688 27.4048 2.74198 27.3196C2.82707 27.2343 2.9425 27.1863 3.06284 27.1863H25.3453C25.5173 27.1861 25.6877 27.1515 25.8462 27.0845C26.0048 27.0176 26.1485 26.9197 26.269 26.7966L43.3009 9.72796C43.4526 9.56311 43.6367 9.43156 43.8417 9.34157C44.0467 9.25159 44.2681 9.20518 44.4919 9.20518C44.7157 9.20518 44.9371 9.25159 45.1421 9.34157C45.3471 9.43156 45.5313 9.56311 45.683 9.72796L62.7149 26.7966C62.8353 26.9197 62.979 27.0176 63.1376 27.0845C63.2962 27.1515 63.4665 27.1861 63.6386 27.1863H85.921C86.0414 27.1863 86.1568 27.2343 86.2419 27.3196C86.327 27.4048 86.3747 27.5205 86.3747 27.6411V30.1097V30.1583Z" fill="#596667"/>
<path d="M78.3842 69.4628C78.728 69.4628 79.0577 69.3259 79.3009 69.0823C79.544 68.8386 79.6806 68.5082 79.6806 68.1636V44.9399C79.6806 44.5954 79.544 44.2648 79.3009 44.0212C79.0577 43.7775 78.728 43.6406 78.3842 43.6406H60.8823C60.5385 43.6406 60.2088 43.7775 59.9657 44.0212C59.7225 44.2648 59.5859 44.5954 59.5859 44.9399V68.1636C59.5859 68.5082 59.7225 68.8386 59.9657 69.0823C60.2088 69.3259 60.5385 69.4628 60.8823 69.4628H78.3842ZM77.0877 61.2127H70.9135V55.0251H77.0877V61.2127ZM68.3044 61.2127H62.1302V55.0251H68.3044V61.2127ZM77.0877 66.8482H62.1464V63.8275H77.0877V66.8482ZM77.0877 52.4267H70.9135V46.2391H77.0877V52.4267ZM68.3044 46.2391V52.4267H62.1302V46.2391H68.3044Z" fill="#596667"/>
<path d="M28.165 69.4628C28.5089 69.4628 28.8386 69.3259 29.0817 69.0823C29.3249 68.8386 29.4614 68.5082 29.4614 68.1636V44.9399C29.4614 44.5954 29.3249 44.2648 29.0817 44.0212C28.8386 43.7775 28.5089 43.6406 28.165 43.6406H10.647C10.3032 43.6406 9.97343 43.7775 9.7303 44.0212C9.48717 44.2648 9.35059 44.5954 9.35059 44.9399V68.1636C9.35059 68.5082 9.48717 68.8386 9.7303 69.0823C9.97343 69.3259 10.3032 69.4628 10.647 69.4628H28.165ZM26.8686 61.2127H20.6944V55.0251H26.8524L26.8686 61.2127ZM18.0853 61.2127H11.9111V55.0251H18.0853V61.2127ZM26.8524 66.8644H11.9111V63.8436H26.8524V66.8644ZM26.8524 52.443H20.6944V46.2391H26.8524V52.443ZM18.0691 46.2554V52.443H11.8948V46.2391L18.0691 46.2554Z" fill="#596667"/>
<path d="M48.7076 49.2539H40.2808C39.937 49.2539 39.6072 49.3908 39.3641 49.6344C39.121 49.8781 38.9844 50.2085 38.9844 50.5531V56.1886C38.9844 56.5331 39.121 56.8636 39.3641 57.1072C39.6072 57.3509 39.937 57.4878 40.2808 57.4878H48.7076C49.0514 57.4878 49.3812 57.3509 49.6243 57.1072C49.8674 56.8636 50.004 56.5331 50.004 56.1886V50.5531C50.004 50.2085 49.8674 49.8781 49.6243 49.6344C49.3812 49.3908 49.0514 49.2539 48.7076 49.2539ZM47.4112 54.8894H41.5934V51.8686H47.4112V54.8894Z" fill="#596667"/>
<path d="M51.4224 32.8057C51.4224 31.4341 51.0166 30.0935 50.2563 28.9531C49.4959 27.8127 48.4152 26.9238 47.1508 26.399C45.8864 25.8741 44.495 25.7368 43.1528 26.0043C41.8105 26.2719 40.5775 26.9323 39.6098 27.9022C38.6421 28.872 37.983 30.1077 37.716 31.4529C37.449 32.798 37.586 34.1924 38.1097 35.4595C38.6335 36.7267 39.5204 37.8096 40.6583 38.5716C41.7963 39.3336 43.1342 39.7404 44.5028 39.7404C46.3367 39.7361 48.0942 39.004 49.391 37.7045C50.6878 36.4049 51.4181 34.6435 51.4224 32.8057ZM40.1921 32.8057C40.1921 31.9513 40.4449 31.1161 40.9186 30.4057C41.3922 29.6953 42.0655 29.1416 42.8532 28.8146C43.6408 28.4876 44.5075 28.4021 45.3437 28.5688C46.1799 28.7355 46.9479 29.1469 47.5508 29.751C48.1536 30.3552 48.5643 31.125 48.7306 31.9629C48.8969 32.8009 48.8115 33.6695 48.4853 34.4589C48.159 35.2482 47.6065 35.9229 46.8976 36.3976C46.1887 36.8723 45.3553 37.1257 44.5028 37.1257C43.3608 37.1214 42.2669 36.6648 41.4594 35.8556C40.6519 35.0464 40.1964 33.9501 40.1921 32.8057Z" fill="#596667"/>
<path d="M87.6907 71.4283H85.4868V42.7966C85.4868 42.4499 85.3493 42.1173 85.1047 41.8722C84.86 41.627 84.5282 41.4893 84.1823 41.4893C83.8363 41.4893 83.5045 41.627 83.2598 41.8722C83.0152 42.1173 82.8777 42.4499 82.8777 42.7966V71.4283H55.6365V44.9403C55.6365 44.5958 55.4999 44.2652 55.2567 44.0216C55.0136 43.7779 54.6839 43.641 54.34 43.641H34.6667C34.3228 43.641 33.9931 43.7779 33.75 44.0216C33.5069 44.2652 33.3703 44.5958 33.3703 44.9403V71.4283H6.129V67.9691C6.129 67.6224 5.99156 67.2899 5.74691 67.0447C5.50226 66.7995 5.17046 66.6618 4.82447 66.6618C4.47849 66.6618 4.14659 66.7995 3.90194 67.0447C3.65729 67.2899 3.51985 67.6224 3.51985 67.9691V71.4283H1.31594C0.972108 71.4283 0.642374 71.5652 0.399246 71.8089C0.156118 72.0525 0.0195313 72.383 0.0195312 72.7276V78.704C0.0195313 79.0486 0.156118 79.379 0.399246 79.6227C0.642374 79.8663 0.972108 80.0032 1.31594 80.0032H87.6907C88.0345 80.0032 88.3643 79.8663 88.6075 79.6227C88.8506 79.379 88.9871 79.0486 88.9871 78.704V72.7113C88.9828 72.3695 88.8444 72.0433 88.6017 71.8031C88.3591 71.563 88.0317 71.4283 87.6907 71.4283ZM35.9793 61.8953H37.843C38.189 61.8953 38.5208 61.7575 38.7654 61.5124C39.01 61.2672 39.1475 60.9346 39.1475 60.5878C39.1475 60.2411 39.01 59.9086 38.7654 59.6634C38.5208 59.4182 38.189 59.2805 37.843 59.2805H35.9793V46.2882H53.0274V71.477H35.9631L35.9793 61.8953ZM86.3943 77.4048H2.54757V74.043H86.3133L86.3943 77.4048Z" fill="#596667"/>
</svg>
