<svg width="80" height="80" viewBox="0 0 80 80" fill="none" xmlns="http://www.w3.org/2000/svg">
<path d="M78.8171 60.3867H70.9863V50.6401C70.9863 50.3235 70.8609 50.0198 70.6377 49.7959C70.4144 49.572 70.1116 49.4462 69.7959 49.4462C69.4802 49.4462 69.1775 49.572 68.9542 49.7959C68.731 50.0198 68.6056 50.3235 68.6056 50.6401V77.6723H48.2126V42.2151H68.6056V45.0835C68.6056 45.4002 68.731 45.7039 68.9542 45.9278C69.1775 46.1517 69.4802 46.2775 69.7959 46.2775C70.1116 46.2775 70.4144 46.1517 70.6377 45.9278C70.8609 45.7039 70.9863 45.4002 70.9863 45.0835V41.0137C70.9863 40.6991 70.8617 40.3972 70.6399 40.1748C70.418 39.9523 70.1171 39.8273 69.8034 39.8273H53.5579V1.18638C53.5579 0.871721 53.4333 0.569984 53.2114 0.347489C52.9896 0.124994 52.6888 0 52.3751 0H27.6549C27.3412 0 27.0403 0.124994 26.8184 0.347489C26.5966 0.569984 26.472 0.871721 26.472 1.18638V19.0126H11.0949C10.7812 19.0126 10.4803 19.1375 10.2585 19.36C10.0366 19.5825 9.91202 19.8843 9.91202 20.1989V49.5138H1.18291C0.869201 49.5138 0.568276 49.6388 0.346448 49.8613C0.12462 50.0838 0 50.3855 0 50.7002V78.8136C0 79.1283 0.12462 79.43 0.346448 79.6525C0.568276 79.875 0.869201 80 1.18291 80H78.8171C79.1308 80 79.4316 79.875 79.6535 79.6525C79.8753 79.43 79.9999 79.1283 79.9999 78.8136V61.5881C80.0019 61.431 79.9728 61.2752 79.9143 61.1295C79.8557 60.9838 79.7689 60.8513 79.6588 60.7395C79.5488 60.6277 79.4177 60.539 79.2732 60.4785C79.1287 60.4179 78.9737 60.3867 78.8171 60.3867ZM9.94199 77.6273H2.45557V51.9017H9.94199V77.6273ZM34.6472 77.5822H12.2778V70.9893H34.6472V77.5822ZM34.6472 60.5819H23.9416C23.6259 60.5819 23.3231 60.7077 23.0999 60.9316C22.8767 61.1555 22.7512 61.4592 22.7512 61.7758C22.7512 62.0925 22.8767 62.3962 23.0999 62.6201C23.3231 62.844 23.6259 62.9698 23.9416 62.9698H34.6472V68.6165H12.2778V63.0148H18.3567C18.6724 63.0148 18.9752 62.889 19.1984 62.6651C19.4216 62.4412 19.547 62.1376 19.547 61.8209C19.547 61.5043 19.4216 61.2006 19.1984 60.9767C18.9752 60.7528 18.6724 60.627 18.3567 60.627H12.2778V55.0554H34.6472V60.5819ZM34.6472 52.5625H12.2778V46.9157H34.6472V52.5625ZM34.6472 44.5429H12.2778V38.8962H34.6472V44.5429ZM34.6472 36.5233H12.2778V30.8767H34.6472V36.5233ZM34.6472 28.5038H12.2778V21.3854H34.6472V28.5038ZM45.8618 40.9987V77.5822H37.0279V20.214C37.0279 19.8993 36.9033 19.5976 36.6815 19.3751C36.4596 19.1526 36.1587 19.0276 35.845 19.0276H34.2279V16.6397C34.2279 16.3231 34.1025 16.0194 33.8793 15.7955C33.656 15.5716 33.3533 15.4458 33.0376 15.4458C32.7219 15.4458 32.4191 15.5716 32.1959 15.7955C31.9727 16.0194 31.8473 16.3231 31.8473 16.6397V19.0126H28.8527V2.37275H51.1173V39.8273H46.9548C46.6516 39.8427 46.366 39.9744 46.1569 40.1953C45.9479 40.4161 45.8315 40.7092 45.8319 41.0137L45.8618 40.9987ZM77.6343 77.5822H70.9863V62.7295H77.6343V77.5822Z" fill="#596667"/>
<path d="M47.0345 25.8185C46.7208 25.8185 46.4198 25.9434 46.198 26.1659C45.9762 26.3884 45.8516 26.6902 45.8516 27.0048V30.5791C45.8516 30.8957 45.977 31.1994 46.2002 31.4233C46.4234 31.6472 46.7263 31.773 47.042 31.773C47.3577 31.773 47.6604 31.6472 47.8836 31.4233C48.1069 31.1994 48.2323 30.8957 48.2323 30.5791V27.0048C48.2323 26.8478 48.2012 26.6923 48.1408 26.5473C48.0804 26.4024 47.992 26.2709 47.8805 26.1605C47.7691 26.0502 47.6369 25.9631 47.4917 25.9043C47.3464 25.8456 47.1911 25.8165 47.0345 25.8185Z" fill="#596667"/>
<path d="M40.0032 25.8185C39.6895 25.8185 39.3886 25.9434 39.1668 26.1659C38.9449 26.3884 38.8203 26.6902 38.8203 27.0048V30.5791C38.8203 30.8957 38.9457 31.1994 39.169 31.4233C39.3922 31.6472 39.695 31.773 40.0107 31.773C40.3264 31.773 40.6292 31.6472 40.8524 31.4233C41.0756 31.1994 41.201 30.8957 41.201 30.5791V27.0048C41.201 26.8478 41.1699 26.6923 41.1096 26.5473C41.0492 26.4024 40.9607 26.2709 40.8493 26.1605C40.7379 26.0502 40.6057 25.9631 40.4604 25.9043C40.3152 25.8456 40.1598 25.8165 40.0032 25.8185Z" fill="#596667"/>
<path d="M47.0345 15.4435C46.7208 15.4435 46.4198 15.5684 46.198 15.7909C45.9762 16.0134 45.8516 16.3152 45.8516 16.6298V20.2041C45.8516 20.5207 45.977 20.8245 46.2002 21.0484C46.4234 21.2723 46.7263 21.3981 47.042 21.3981C47.3577 21.3981 47.6604 21.2723 47.8836 21.0484C48.1069 20.8245 48.2323 20.5207 48.2323 20.2041V16.6298C48.2323 16.4728 48.2012 16.3173 48.1408 16.1723C48.0804 16.0274 47.992 15.896 47.8805 15.7856C47.7691 15.6753 47.6369 15.5882 47.4917 15.5294C47.3464 15.4707 47.1911 15.4415 47.0345 15.4435Z" fill="#596667"/>
<path d="M40.0032 15.4435C39.6895 15.4435 39.3886 15.5684 39.1668 15.7909C38.9449 16.0134 38.8203 16.3152 38.8203 16.6298V20.2041C38.8203 20.5207 38.9457 20.8245 39.169 21.0484C39.3922 21.2723 39.695 21.3981 40.0107 21.3981C40.3264 21.3981 40.6292 21.2723 40.8524 21.0484C41.0756 20.8245 41.201 20.5207 41.201 20.2041V16.6298C41.201 16.4728 41.1699 16.3173 41.1096 16.1723C41.0492 16.0274 40.9607 15.896 40.8493 15.7856C40.7379 15.6753 40.6057 15.5882 40.4604 15.5294C40.3152 15.4707 40.1598 15.4415 40.0032 15.4435Z" fill="#596667"/>
<path d="M33.0032 5.0626C32.6895 5.0626 32.3886 5.18759 32.1668 5.41008C31.9449 5.63258 31.8203 5.93432 31.8203 6.24897V9.82323C31.8203 10.1399 31.9457 10.4435 32.169 10.6674C32.3922 10.8913 32.695 11.0171 33.0107 11.0171C33.3264 11.0171 33.6292 10.8913 33.8524 10.6674C34.0756 10.4435 34.201 10.1399 34.201 9.82323V6.24897C34.201 6.0919 34.1699 5.93642 34.1096 5.79149C34.0492 5.64656 33.9607 5.51504 33.8493 5.40468C33.7379 5.29431 33.6057 5.20721 33.4604 5.14848C33.3152 5.08975 33.1598 5.06061 33.0032 5.0626Z" fill="#596667"/>
<path d="M47.0345 5.0626C46.7208 5.0626 46.4198 5.18759 46.198 5.41008C45.9762 5.63258 45.8516 5.93432 45.8516 6.24897V9.82323C45.8516 10.1399 45.977 10.4435 46.2002 10.6674C46.4234 10.8913 46.7263 11.0171 47.042 11.0171C47.3577 11.0171 47.6604 10.8913 47.8836 10.6674C48.1069 10.4435 48.2323 10.1399 48.2323 9.82323V6.24897C48.2323 6.0919 48.2012 5.93642 48.1408 5.79149C48.0804 5.64656 47.992 5.51504 47.8805 5.40468C47.7691 5.29431 47.6369 5.20721 47.4917 5.14848C47.3464 5.08975 47.1911 5.06061 47.0345 5.0626Z" fill="#596667"/>
<path d="M40.0032 5.0626C39.6895 5.0626 39.3886 5.18759 39.1668 5.41008C38.9449 5.63258 38.8203 5.93432 38.8203 6.24897V9.82323C38.8203 10.1399 38.9457 10.4435 39.169 10.6674C39.3922 10.8913 39.695 11.0171 40.0107 11.0171C40.3264 11.0171 40.6292 10.8913 40.8524 10.6674C41.0756 10.4435 41.201 10.1399 41.201 9.82323V6.24897C41.201 6.0919 41.1699 5.93642 41.1096 5.79149C41.0492 5.64656 40.9607 5.51504 40.8493 5.40468C40.7379 5.29431 40.6057 5.20721 40.4604 5.14848C40.3152 5.08975 40.1598 5.06061 40.0032 5.0626Z" fill="#596667"/>
<path d="M46.3847 36.4347C46.2276 36.5383 46.0974 36.6779 46.0049 36.842C45.9123 37.0061 45.8601 37.1899 45.8525 37.3783C45.8449 37.5667 45.8822 37.7541 45.9613 37.9252C46.0403 38.0962 46.1589 38.2459 46.3071 38.3618C46.4553 38.4778 46.629 38.5565 46.8136 38.5917C46.9983 38.6269 47.1886 38.6174 47.3689 38.5641C47.5492 38.5108 47.7142 38.4152 47.8502 38.2852C47.9863 38.1552 48.0896 37.9945 48.1515 37.8165C48.2233 37.5835 48.2228 37.334 48.15 37.1013C48.0772 36.8686 47.9355 36.6637 47.7437 36.5138C47.5519 36.3638 47.3191 36.2759 47.0764 36.2618C46.8336 36.2477 46.5924 36.308 46.3847 36.4347Z" fill="#596667"/>
<path d="M40.0032 36.256C39.6895 36.256 39.3886 36.3809 39.1668 36.6034C38.9449 36.8259 38.8203 37.1278 38.8203 37.4424V41.0167C38.8203 41.3333 38.9457 41.637 39.169 41.8609C39.3922 42.0848 39.695 42.2106 40.0107 42.2106C40.3264 42.2106 40.6292 42.0848 40.8524 41.8609C41.0756 41.637 41.201 41.3333 41.201 41.0167V37.4424C41.201 37.2853 41.1699 37.1298 41.1096 36.9848C41.0492 36.8399 40.9607 36.7085 40.8493 36.5981C40.7379 36.4878 40.6057 36.4007 40.4604 36.3419C40.3152 36.2832 40.1598 36.254 40.0032 36.256Z" fill="#596667"/>
<path d="M40.0032 67.5313C39.6895 67.5313 39.3886 67.6563 39.1668 67.8788C38.9449 68.1013 38.8203 68.4031 38.8203 68.7177V72.292C38.8203 72.6086 38.9457 72.9124 39.169 73.1363C39.3922 73.3602 39.695 73.486 40.0107 73.486C40.3264 73.486 40.6292 73.3602 40.8524 73.1363C41.0756 72.9124 41.201 72.6086 41.201 72.292V68.7177C41.201 68.5606 41.1699 68.4052 41.1096 68.2602C41.0492 68.1153 40.9607 67.9839 40.8493 67.8735C40.7379 67.7632 40.6057 67.6761 40.4604 67.6173C40.3152 67.5586 40.1598 67.5294 40.0032 67.5313Z" fill="#596667"/>
<path d="M40.0032 57.1153C39.6895 57.1153 39.3886 57.2403 39.1668 57.4628C38.9449 57.6853 38.8203 57.9871 38.8203 58.3017V61.876C38.8203 62.1926 38.9457 62.4964 39.169 62.7203C39.3922 62.9442 39.695 63.0699 40.0107 63.0699C40.3264 63.0699 40.6292 62.9442 40.8524 62.7203C41.0756 62.4964 41.201 62.1926 41.201 61.876V58.3017C41.201 58.1446 41.1699 57.9892 41.1096 57.8442C41.0492 57.6993 40.9607 57.5679 40.8493 57.4575C40.7379 57.3471 40.6057 57.26 40.4604 57.2013C40.3152 57.1426 40.1598 57.1133 40.0032 57.1153Z" fill="#596667"/>
<path d="M40.0032 46.672C39.6895 46.672 39.3886 46.797 39.1668 47.0195C38.9449 47.242 38.8203 47.5438 38.8203 47.8584V51.4327C38.8203 51.7493 38.9457 52.053 39.169 52.2769C39.3922 52.5008 39.695 52.6266 40.0107 52.6266C40.3264 52.6266 40.6292 52.5008 40.8524 52.2769C41.0756 52.053 41.201 51.7493 41.201 51.4327V47.8584C41.201 47.7014 41.1699 47.5458 41.1096 47.4009C41.0492 47.2559 40.9607 47.1245 40.8493 47.0141C40.7379 46.9038 40.6057 46.8167 40.4604 46.7579C40.3152 46.6992 40.1598 46.67 40.0032 46.672Z" fill="#596667"/>
<path d="M64.985 67.1777H51.8388C51.5231 67.1777 51.2203 67.3035 50.9971 67.5274C50.7738 67.7513 50.6484 68.055 50.6484 68.3716C50.6484 68.6883 50.7738 68.9919 50.9971 69.2158C51.2203 69.4397 51.5231 69.5655 51.8388 69.5655H64.985C65.3007 69.5655 65.6034 69.4397 65.8266 69.2158C66.0499 68.9919 66.1753 68.6883 66.1753 68.3716C66.1753 68.055 66.0499 67.7513 65.8266 67.5274C65.6034 67.3035 65.3007 67.1777 64.985 67.1777Z" fill="#596667"/>
<path d="M64.985 72.8066H51.8388C51.5231 72.8066 51.2203 72.9324 50.9971 73.1563C50.7738 73.3802 50.6484 73.6839 50.6484 74.0005C50.6484 74.3172 50.7738 74.6208 50.9971 74.8447C51.2203 75.0686 51.5231 75.1944 51.8388 75.1944H64.985C65.3007 75.1944 65.6034 75.0686 65.8266 74.8447C66.0499 74.6208 66.1753 74.3172 66.1753 74.0005C66.1753 73.6839 66.0499 73.3802 65.8266 73.1563C65.6034 72.9324 65.3007 72.8066 64.985 72.8066Z" fill="#596667"/>
<path d="M64.985 61.541H51.8388C51.5231 61.541 51.2203 61.6668 50.9971 61.8907C50.7738 62.1146 50.6484 62.4183 50.6484 62.7349C50.6484 63.0516 50.7738 63.3552 50.9971 63.5791C51.2203 63.803 51.5231 63.9288 51.8388 63.9288H64.985C65.3007 63.9288 65.6034 63.803 65.8266 63.5791C66.0499 63.3552 66.1753 63.0516 66.1753 62.7349C66.1753 62.4183 66.0499 62.1146 65.8266 61.8907C65.6034 61.6668 65.3007 61.541 64.985 61.541Z" fill="#596667"/>
<path d="M64.985 44.6309H51.8388C51.5231 44.6309 51.2203 44.7566 50.9971 44.9805C50.7738 45.2045 50.6484 45.5081 50.6484 45.8248C50.6484 46.1414 50.7738 46.4451 50.9971 46.669C51.2203 46.893 51.5231 47.0187 51.8388 47.0187H64.985C65.3007 47.0187 65.6034 46.893 65.8266 46.669C66.0499 46.4451 66.1753 46.1414 66.1753 45.8248C66.1753 45.5081 66.0499 45.2045 65.8266 44.9805C65.6034 44.7566 65.3007 44.6309 64.985 44.6309Z" fill="#596667"/>
<path d="M64.985 55.9121H51.8388C51.5231 55.9121 51.2203 56.0379 50.9971 56.2618C50.7738 56.4857 50.6484 56.7894 50.6484 57.106C50.6484 57.4226 50.7738 57.7263 50.9971 57.9502C51.2203 58.1741 51.5231 58.2999 51.8388 58.2999H64.985C65.3007 58.2999 65.6034 58.1741 65.8266 57.9502C66.0499 57.7263 66.1753 57.4226 66.1753 57.106C66.1753 56.7894 66.0499 56.4857 65.8266 56.2618C65.6034 56.0379 65.3007 55.9121 64.985 55.9121Z" fill="#596667"/>
<path d="M64.985 50.2812H51.8388C51.5231 50.2812 51.2203 50.407 50.9971 50.6309C50.7738 50.8548 50.6484 51.1585 50.6484 51.4751C50.6484 51.7918 50.7738 52.0954 50.9971 52.3193C51.2203 52.5433 51.5231 52.669 51.8388 52.669H64.985C65.3007 52.669 65.6034 52.5433 65.8266 52.3193C66.0499 52.0954 66.1753 51.7918 66.1753 51.4751C66.1753 51.1585 66.0499 50.8548 65.8266 50.6309C65.6034 50.407 65.3007 50.2812 64.985 50.2812Z" fill="#596667"/>
<path d="M6.20626 53.797C5.89255 53.797 5.59171 53.922 5.36989 54.1445C5.14806 54.367 5.02344 54.6688 5.02344 54.9835V58.0621C5.02344 58.3788 5.14885 58.6824 5.37208 58.9063C5.59531 59.1302 5.89805 59.256 6.21375 59.256C6.52945 59.256 6.83219 59.1302 7.05543 58.9063C7.27866 58.6824 7.40407 58.3788 7.40407 58.0621V55.0585C7.41441 54.8953 7.391 54.7316 7.33525 54.5779C7.27951 54.4241 7.19268 54.2836 7.08019 54.1651C6.9677 54.0466 6.83195 53.9528 6.68156 53.8895C6.53117 53.8261 6.36935 53.7946 6.20626 53.797Z" fill="#596667"/>
<path d="M6.20626 62.0255C5.89255 62.0255 5.59171 62.1505 5.36989 62.373C5.14806 62.5955 5.02344 62.8972 5.02344 63.2119V66.3055C5.02344 66.6222 5.14885 66.9258 5.37208 67.1497C5.59531 67.3736 5.89806 67.4994 6.21375 67.4994C6.52945 67.4994 6.8322 67.3736 7.05543 67.1497C7.27866 66.9258 7.40407 66.6222 7.40407 66.3055V63.2119C7.40408 63.0548 7.37306 62.8993 7.31268 62.7544C7.2523 62.6094 7.16375 62.4779 7.05232 62.3676C6.94089 62.2572 6.8088 62.1702 6.66356 62.1115C6.51832 62.0527 6.36285 62.0235 6.20626 62.0255Z" fill="#596667"/>
<path d="M6.20626 70.256C5.89255 70.256 5.59171 70.381 5.36989 70.6035C5.14806 70.8259 5.02344 71.1277 5.02344 71.4423V74.5811C5.02344 74.8978 5.14885 75.2014 5.37208 75.4253C5.59531 75.6492 5.89806 75.775 6.21375 75.775C6.52945 75.775 6.8322 75.6492 7.05543 75.4253C7.27866 75.2014 7.40407 74.8978 7.40407 74.5811V71.4874C7.41018 71.3266 7.38358 71.1662 7.32593 71.016C7.26828 70.8658 7.18082 70.729 7.06877 70.6138C6.95672 70.4986 6.82244 70.4075 6.67416 70.346C6.52589 70.2845 6.3667 70.2538 6.20626 70.256Z" fill="#596667"/>
<path d="M74.3078 65.5685C73.9941 65.5685 73.6933 65.6934 73.4714 65.9159C73.2496 66.1384 73.125 66.4402 73.125 66.7548V70.1338C73.125 70.4505 73.2504 70.7542 73.4736 70.9781C73.6969 71.202 73.9996 71.3278 74.3153 71.3278C74.631 71.3278 74.9338 71.202 75.157 70.9781C75.3802 70.7542 75.5056 70.4505 75.5056 70.1338V66.7548C75.5056 66.5978 75.4746 66.4423 75.4142 66.2973C75.3539 66.1524 75.2654 66.021 75.154 65.9106C75.0425 65.8003 74.9104 65.7132 74.7651 65.6544C74.6199 65.5957 74.4644 65.5665 74.3078 65.5685Z" fill="#596667"/>
<path d="M70.8168 22.959H56.3231C56.0074 22.959 55.7047 23.0848 55.4815 23.3087C55.2582 23.5326 55.1328 23.8362 55.1328 24.1529C55.1328 24.4695 55.2582 24.7732 55.4815 24.9971C55.7047 25.221 56.0074 25.3468 56.3231 25.3468H70.8168C71.1325 25.3468 71.4354 25.221 71.6586 24.9971C71.8818 24.7732 72.0072 24.4695 72.0072 24.1529C72.0072 23.8362 71.8818 23.5326 71.6586 23.3087C71.4354 23.0848 71.1325 22.959 70.8168 22.959Z" fill="#596667"/>
<path d="M75.3432 28.0254H64.8622C64.5465 28.0254 64.2437 28.1512 64.0205 28.3751C63.7973 28.599 63.6719 28.9026 63.6719 29.2193C63.6719 29.5359 63.7973 29.8397 64.0205 30.0636C64.2437 30.2875 64.5465 30.4133 64.8622 30.4133H75.3432C75.6589 30.4133 75.9616 30.2875 76.1849 30.0636C76.4081 29.8397 76.5335 29.5359 76.5335 29.2193C76.5335 28.9026 76.4081 28.599 76.1849 28.3751C75.9616 28.1512 75.6589 28.0254 75.3432 28.0254Z" fill="#596667"/>
<path d="M21.3823 8.89648H10.9013C10.5856 8.89648 10.2828 9.02227 10.0596 9.24617C9.83635 9.47008 9.71094 9.77373 9.71094 10.0904C9.71094 10.407 9.83635 10.7107 10.0596 10.9346C10.2828 11.1585 10.5856 11.2843 10.9013 11.2843H21.3823C21.698 11.2843 22.0008 11.1585 22.224 10.9346C22.4472 10.7107 22.5727 10.407 22.5727 10.0904C22.5727 9.77373 22.4472 9.47008 22.224 9.24617C22.0008 9.02227 21.698 8.89648 21.3823 8.89648Z" fill="#596667"/>
<path d="M15.4369 12.8691H4.95594C4.64024 12.8691 4.3375 12.9949 4.11427 13.2188C3.89103 13.4427 3.76562 13.7465 3.76562 14.0631C3.76562 14.3798 3.89103 14.6834 4.11427 14.9073C4.3375 15.1312 4.64024 15.257 4.95594 15.257H15.4369C15.7526 15.257 16.0555 15.1312 16.2787 14.9073C16.5019 14.6834 16.6273 14.3798 16.6273 14.0631C16.6273 13.7465 16.5019 13.4427 16.2787 13.2188C16.0555 12.9949 15.7526 12.8691 15.4369 12.8691Z" fill="#596667"/>
</svg>
