<svg width="80" height="80" viewBox="0 0 80 80" fill="none" xmlns="http://www.w3.org/2000/svg">
<path d="M58.7378 63.3243V50.5205C58.7378 50.0638 58.6469 49.6116 58.4704 49.1897C58.2939 48.7678 58.0352 48.3844 57.709 48.0615C57.3829 47.7386 56.9959 47.4824 56.5698 47.3076C56.1436 47.1328 55.6869 47.043 55.2257 47.043H9.88614C9.42491 47.043 8.96817 47.1328 8.54205 47.3076C8.11593 47.4824 7.72872 47.7386 7.40258 48.0615C7.07644 48.3844 6.81769 48.7678 6.64118 49.1897C6.46468 49.6116 6.37381 50.0638 6.37381 50.5205V63.3243C5.55497 63.6083 4.86365 64.169 4.4211 64.9079C3.97856 65.6468 3.81328 66.5166 3.95437 67.3642C4.09545 68.2118 4.53382 68.9831 5.19244 69.5423C5.85106 70.1015 6.68779 70.4129 7.55537 70.4217H57.5564C58.424 70.4129 59.2607 70.1015 59.9194 69.5423C60.578 68.9831 61.0164 68.2118 61.1574 67.3642C61.2985 66.5166 61.1333 65.6468 60.6907 64.9079C60.2482 64.169 59.5566 63.6083 58.7378 63.3243ZM8.73673 50.5205C8.73673 50.2186 8.85773 49.9292 9.07329 49.7157C9.28886 49.5023 9.58128 49.3824 9.88614 49.3824H55.2257C55.5305 49.3824 55.8228 49.5023 56.0383 49.7157C56.2539 49.9292 56.3751 50.2186 56.3751 50.5205V63.1662H8.73673V50.5205ZM57.5564 68.0823H7.55537C7.23105 68.0469 6.93119 67.8942 6.71348 67.6535C6.49578 67.4129 6.37537 67.1012 6.37537 66.7782C6.37537 66.4551 6.49578 66.1434 6.71348 65.9027C6.93119 65.6621 7.23105 65.5095 7.55537 65.4741H57.5564C57.7416 65.4538 57.929 65.4725 58.1064 65.5289C58.2838 65.5852 58.4471 65.6779 58.5858 65.8009C58.7245 65.924 58.8355 66.0746 58.9114 66.243C58.9874 66.4114 59.0268 66.5937 59.0268 66.7782C59.0268 66.9626 58.9874 67.145 58.9114 67.3133C58.8355 67.4817 58.7245 67.6324 58.5858 67.7554C58.4471 67.8785 58.2838 67.9712 58.1064 68.0275C57.929 68.0838 57.7416 68.1025 57.5564 68.0823Z" fill="#596667"/>
<path d="M61.0824 51.5446H60.0606V53.884H61.0824C62.4234 53.884 62.4235 54.2003 62.4235 54.6429V70.2919C62.4235 71.351 61.705 72.6156 61.0824 72.6156H4.02487C3.32242 72.6156 2.42841 71.2719 2.42841 70.2919V54.6429C2.42841 54.4057 2.42841 53.884 4.02487 53.884H5.04663V51.5446H4.02487C3.13433 51.5074 2.24914 51.6979 1.45459 52.0978C0.999002 52.3482 0.622175 52.7184 0.365791 53.1675C0.109408 53.6166 -0.016603 54.1273 0.0017543 54.6429V70.2919C0.0368267 71.3857 0.416481 72.4414 1.08743 73.3111C1.42205 73.7798 1.86101 74.166 2.37033 74.4401C2.87965 74.7142 3.44566 74.8687 4.02487 74.8918H5.04663V79.9975H7.40936V74.9392H58.7995V79.9975H61.1623V74.9392C63.4931 74.9392 64.7863 72.1571 64.7863 70.197V54.548C64.7863 53.4573 64.3072 51.5446 61.0824 51.5446Z" fill="#596667"/>
<path d="M15.1386 54.0273H12.6162V56.3668H15.1386V54.0273Z" fill="#596667"/>
<path d="M52.6518 54.0273H49.9697V56.3668H52.6518V54.0273Z" fill="#596667"/>
<path d="M33.8984 54.0273H31.376V56.3668H33.8984V54.0273Z" fill="#596667"/>
<path d="M0.0830078 27.0935H38.7013V0H0.0830078V27.0935ZM2.44574 2.33943H36.3386V24.754H2.4777L2.44574 2.33943Z" fill="#596667"/>
<path d="M3.86621 3.71875V23.3828H34.9812V3.71875H3.86621ZM32.6025 21.1066H6.21296V6.12147H32.6025V21.1066Z" fill="#596667"/>
<path d="M40.1211 27.2383V44.4365H62.4715V27.2383H40.1211ZM60.1248 42.097H42.5637V29.5777H60.1248V42.097Z" fill="#596667"/>
<path d="M43.8701 30.9961V40.7649H58.7331V30.9961H43.8701ZM56.3703 38.4255H46.2328V33.3355H56.3703V38.4255Z" fill="#596667"/>
<path d="M51.3128 4.94531C49.3488 4.94531 47.4291 5.52189 45.7961 6.60225C44.1631 7.68261 42.8903 9.21815 42.1388 11.0147C41.3872 12.8113 41.1904 14.7883 41.5736 16.6955C41.9567 18.6027 42.9025 20.3546 44.2912 21.7296C45.6799 23.1046 47.4494 24.041 49.3756 24.4204C51.3019 24.7998 53.2985 24.6051 55.1129 23.8609C56.9274 23.1168 58.4781 21.8565 59.5693 20.2397C60.6604 18.6228 61.2429 16.7219 61.2429 14.7773C61.2387 12.171 60.1909 9.67262 58.3296 7.82965C56.4683 5.98669 53.9451 4.94949 51.3128 4.94531ZM52.4941 22.1909V20.9421H50.1314V22.1909C48.5771 21.9465 47.1381 21.2294 46.0139 20.1389C44.8898 19.0485 44.1361 17.6388 43.8574 16.1052H45.2463V13.7656H43.8254C44.0645 12.1731 44.8142 10.6989 45.9641 9.56039C47.1139 8.42192 48.6029 7.67949 50.2113 7.44277V9.13415H52.574V7.44277C54.1824 7.67949 55.6714 8.42192 56.8212 9.56039C57.9711 10.6989 58.7208 12.1731 58.9599 13.7656H57.3634V16.1052H58.9599C58.67 17.6659 57.8882 19.0955 56.7265 20.1889C55.5649 21.2823 54.0831 21.9832 52.4941 22.1909Z" fill="#596667"/>
<path d="M50.1308 10.9531V13.7668H46.1875V16.1063H52.4935V10.9531H50.1308Z" fill="#596667"/>
<path d="M73.7736 73.8022V46.2188H71.4109V73.8022H65.1367V79.8563H79.9999V73.8022H73.7736ZM77.6369 77.5169H67.4994V76.1417H77.6369V77.5169Z" fill="#596667"/>
<path d="M67.624 16.0898V43.1833H71.4076V45.1276H73.7704V43.1833H77.49V16.0898H67.624ZM75.1273 37.1608H71.4076V39.5002H75.1113V40.8438H69.9708V18.4293H75.1113V37.1608H75.1273Z" fill="#596667"/>
<path d="M16.7059 9.01461L14.2109 11.4846L15.8818 13.1386L18.3767 10.6687L16.7059 9.01461Z" fill="#596667"/>
<path d="M22.9599 7.7793L14.2109 16.4415L15.8817 18.0957L24.6306 9.43348L22.9599 7.7793Z" fill="#596667"/>
<path d="M22.9673 13.9707L20.4727 16.4412L22.1433 18.0957L24.6379 15.6252L22.9673 13.9707Z" fill="#596667"/>
</svg>
