<svg width="80" height="80" viewBox="0 0 80 80" fill="none" xmlns="http://www.w3.org/2000/svg">
<path d="M7.75637 72.25H10.3106V74.7592H7.72656L7.75637 72.25Z" fill="#7EA935"/>
<path d="M12.918 72.25H15.502V74.7592H12.918V72.25Z" fill="#7EA935"/>
<path d="M18.0742 72.25H20.6582V74.7592H18.0742V72.25Z" fill="#7EA935"/>
<path d="M61.9414 72.25H72.2625V74.7592H61.9414V72.25Z" fill="#7EA935"/>
<path d="M77.431 67.096V24.516C77.431 22.8048 76.7511 21.1637 75.541 19.9538C74.3309 18.7438 72.6897 18.0641 70.9784 18.0641H67.065C67.065 13.2732 65.1617 8.67849 61.7737 5.29083C58.3857 1.90317 53.7907 0 48.9993 0C44.208 0 39.6129 1.90317 36.2249 5.29083C32.8369 8.67849 30.9336 13.2732 30.9336 18.0641H9.03667C8.1893 18.0641 7.35023 18.231 6.56737 18.5552C5.7845 18.8795 5.07311 19.3546 4.47394 19.9538C3.87476 20.5529 3.39946 21.2641 3.07519 22.0469C2.75092 22.8297 2.58408 23.6687 2.58408 24.516V67.096H0V73.5479C0 75.2591 0.679855 76.9003 1.88995 78.1103C3.10004 79.3203 4.74126 80 6.45259 80H73.5475C75.2588 80 76.9001 79.3203 78.1101 78.1103C79.3202 76.9003 80 75.2591 80 73.5479V67.096H77.431ZM70.9784 20.6478C71.4864 20.6478 71.9895 20.7479 72.4588 20.9423C72.9282 21.1367 73.3547 21.4215 73.7139 21.7807C74.0731 22.1399 74.3581 22.5665 74.5525 23.0358C74.7469 23.5051 74.847 24.008 74.847 24.516V67.096H72.2629V25.8153C72.2629 25.1301 71.9906 24.4729 71.506 23.9884C71.0214 23.5038 70.3642 23.2316 69.6789 23.2316H66.3331C66.5807 22.3851 66.7654 21.5215 66.8858 20.6478H70.9784ZM34.3092 13.3296L48.006 19.0347L52.6961 33.1037C50.0225 33.7587 47.2226 33.688 44.5855 32.8989C41.9484 32.1099 39.5698 30.6312 37.6955 28.6155C35.8212 26.5997 34.5191 24.1201 33.9238 21.4329C33.3285 18.7456 33.4615 15.9482 34.3092 13.3296ZM55.1457 32.2971L50.5153 18.4225L60.8515 8.08734C62.4168 9.93255 63.527 12.1194 64.0928 14.472C64.6587 16.8245 64.6643 19.277 64.1093 21.6321C63.5542 23.9873 62.454 26.1792 60.8971 28.0315C59.3403 29.8839 57.3703 31.3449 55.1457 32.2971ZM49.0366 2.59131C52.6982 2.59043 56.2404 3.89279 59.0292 6.2653L48.7379 16.5556L35.295 10.9549C36.5979 8.43347 38.5686 6.31848 40.992 4.84088C43.4154 3.36328 46.1982 2.57992 49.0366 2.57636V2.59131ZM5.16807 24.5309C5.16807 23.505 5.57567 22.5211 6.30116 21.7957C7.02666 21.0702 8.01066 20.6628 9.03667 20.6628H31.2174C31.3372 21.5366 31.5219 22.4002 31.77 23.2465H10.3062C9.62091 23.2465 8.9637 23.5188 8.4791 24.0033C7.9945 24.4879 7.72225 25.145 7.72225 25.8303V67.111H5.13817L5.16807 24.5309ZM77.431 73.5629C77.431 74.5888 77.0234 75.5727 76.2979 76.2981C75.5724 77.0236 74.5884 77.4312 73.5624 77.4312H6.46754C5.44153 77.4312 4.45753 77.0236 3.73203 76.2981C3.00654 75.5727 2.59903 74.5888 2.59903 73.5629V69.6947H29.186C31.0367 71.3658 33.4437 72.287 35.9373 72.2785H44.1225C46.6161 72.287 49.0232 71.3658 50.8738 69.6947H67.065V67.111H49.7535L49.3801 67.4844C48.683 68.1836 47.8541 68.7378 46.9414 69.1146C46.0286 69.4915 45.0502 69.6835 44.0627 69.6798H35.8776C34.8901 69.6835 33.9116 69.4915 32.9989 69.1146C32.0862 68.7378 31.2573 68.1836 30.5602 67.4844L30.1867 67.111H10.3062V25.8303H32.711C34.1715 28.9162 36.4785 31.524 39.3633 33.3502C42.2482 35.1764 45.5923 36.1459 49.0067 36.1459C52.4211 36.1459 55.7653 35.1764 58.6502 33.3502C61.535 31.524 63.842 28.9162 65.3025 25.8303H69.649V69.6947H77.3861L77.431 73.5629Z" fill="#7EA935"/>
<path d="M63.2412 54.1933C62.4799 54.1966 61.7367 54.4254 61.1052 54.8506L56.6243 51.4752C56.7477 51.1041 56.8132 50.7162 56.8185 50.3252C56.8185 49.2993 56.4109 48.3154 55.6854 47.5899C54.9599 46.8645 53.9759 46.457 52.9499 46.457C51.9239 46.457 50.9399 46.8645 50.2144 47.5899C49.4889 48.3154 49.0814 49.2993 49.0814 50.3252C49.0856 50.7529 49.1613 51.1769 49.3054 51.5797L42.0761 57.3596C41.4192 56.9422 40.6497 56.7371 39.8722 56.7718C39.0947 56.8065 38.3466 57.0795 37.7296 57.5537L32.1732 53.8498C32.2575 53.5431 32.3026 53.227 32.3076 52.9089C32.3076 51.883 31.9001 50.8991 31.1746 50.1737C30.4491 49.4482 29.4651 49.0408 28.4391 49.0408C27.4131 49.0408 26.4291 49.4482 25.7036 50.1737C24.9781 50.8991 24.5705 51.883 24.5705 52.9089C24.5755 53.227 24.6207 53.5431 24.705 53.8498L19.1485 57.5537C18.4824 57.0488 17.6693 56.776 16.8334 56.7771C16.0683 56.7771 15.3203 57.004 14.6842 57.429C14.048 57.8541 13.5521 58.4582 13.2593 59.165C12.9665 59.8718 12.8899 60.6496 13.0392 61.4C13.1884 62.1504 13.5568 62.8395 14.0979 63.3805C14.6389 63.9214 15.3283 64.2899 16.0787 64.4392C16.8291 64.5884 17.6069 64.5119 18.3138 64.2191C19.0207 63.9263 19.6249 63.4305 20.05 62.7943C20.475 62.1582 20.702 61.4105 20.702 60.6454C20.697 60.3274 20.6517 60.0112 20.5675 59.7045L26.1239 56.0004C26.7862 56.5079 27.5973 56.7829 28.4316 56.7829C29.266 56.7829 30.077 56.5079 30.7393 56.0004L36.2957 59.7045C36.2116 60.0112 36.1664 60.3274 36.1612 60.6454C36.1612 61.6713 36.5688 62.655 37.2943 63.3805C38.0198 64.1059 39.0038 64.5135 40.0298 64.5135C41.0558 64.5135 42.0398 64.1059 42.7653 63.3805C43.4907 62.655 43.8983 61.6713 43.8983 60.6454C43.8941 60.2177 43.8184 59.7935 43.6744 59.3907L50.9036 53.6108C51.5254 54.017 52.252 54.2333 52.9947 54.2333C53.7374 54.2333 54.464 54.017 55.0858 53.6108L59.5667 56.9862C59.4434 57.3573 59.3779 57.7452 59.3726 58.1362C59.3726 58.9013 59.5995 59.6492 60.0246 60.2853C60.4497 60.9215 61.0538 61.4172 61.7607 61.7099C62.4676 62.0027 63.2455 62.0794 63.9959 61.9302C64.7463 61.7809 65.4356 61.4124 65.9767 60.8715C66.5177 60.3305 66.8861 59.6412 67.0354 58.8908C67.1846 58.1405 67.108 57.3628 66.8152 56.656C66.5224 55.9492 66.0266 55.3451 65.3904 54.92C64.7542 54.495 64.0063 54.2681 63.2412 54.2681V54.1933ZM16.7886 61.9298C16.5346 61.9298 16.2861 61.8543 16.0749 61.7132C15.8636 61.5721 15.6991 61.3716 15.6018 61.1369C15.5046 60.9022 15.4792 60.6439 15.5287 60.3947C15.5783 60.1456 15.7006 59.9167 15.8802 59.7371C16.0599 59.5575 16.2888 59.4352 16.538 59.3856C16.7872 59.3361 17.0455 59.3615 17.2802 59.4587C17.5149 59.5559 17.7155 59.7206 17.8566 59.9318C17.9978 60.143 18.0731 60.3914 18.0731 60.6454C18.0693 60.9848 17.9327 61.3093 17.6926 61.5493C17.4526 61.7894 17.1281 61.9259 16.7886 61.9298ZM28.3942 54.1933C28.1402 54.1933 27.8918 54.1181 27.6806 53.9769C27.4693 53.8358 27.3048 53.6351 27.2075 53.4004C27.1103 53.1657 27.0849 52.9076 27.1344 52.6584C27.184 52.4093 27.3063 52.1803 27.486 52.0006C27.6656 51.821 27.8944 51.6987 28.1436 51.6491C28.3928 51.5996 28.6511 51.625 28.8858 51.7222C29.1205 51.8195 29.3212 51.9841 29.4623 52.1953C29.6035 52.4066 29.6788 52.6549 29.6788 52.9089C29.6749 53.2484 29.5383 53.5728 29.2982 53.8128C29.0582 54.0529 28.7337 54.1894 28.3942 54.1933ZM39.9999 61.9298C39.7459 61.9298 39.4975 61.8543 39.2863 61.7132C39.0751 61.5721 38.9104 61.3716 38.8131 61.1369C38.7159 60.9022 38.6905 60.6439 38.74 60.3947C38.7896 60.1456 38.912 59.9167 39.0917 59.7371C39.2713 59.5575 39.5001 59.4352 39.7493 59.3856C39.9985 59.3361 40.2568 59.3615 40.4915 59.4587C40.7262 59.5559 40.9269 59.7206 41.068 59.9318C41.2092 60.143 41.2845 60.3914 41.2845 60.6454C41.2807 60.9823 41.1462 61.3046 40.9093 61.5442C40.6724 61.7838 40.3518 61.9221 40.0149 61.9298H39.9999ZM52.9051 51.6096C52.6511 51.6096 52.4027 51.5343 52.1915 51.3932C51.9802 51.252 51.8155 51.0514 51.7183 50.8167C51.6211 50.582 51.5956 50.3236 51.6452 50.0745C51.6948 49.8253 51.8171 49.5965 51.9967 49.4169C52.1764 49.2373 52.4053 49.115 52.6545 49.0654C52.9037 49.0158 53.162 49.0413 53.3967 49.1385C53.6314 49.2357 53.832 49.4004 53.9731 49.6116C54.1143 49.8228 54.1896 50.0711 54.1896 50.3252C54.1858 50.6621 54.0514 50.9844 53.8145 51.224C53.5776 51.4636 53.2569 51.6019 52.9201 51.6096H52.9051ZM63.2262 59.3461C62.9721 59.3461 62.7238 59.2706 62.5126 59.1295C62.3013 58.9883 62.1366 58.7877 62.0394 58.553C61.9422 58.3183 61.9168 58.0601 61.9664 57.811C62.016 57.5618 62.1383 57.333 62.3179 57.1534C62.4976 56.9737 62.7264 56.8514 62.9756 56.8019C63.2248 56.7523 63.4831 56.7778 63.7178 56.875C63.9525 56.9722 64.1532 57.1367 64.2943 57.3479C64.4354 57.5591 64.5107 57.8074 64.5107 58.0615C64.5069 58.3984 64.3724 58.7206 64.1356 58.9603C63.8987 59.1999 63.578 59.3383 63.2412 59.3461H63.2262Z" fill="#7EA935"/>
<path d="M33.5603 28.457H12.918V46.3792H33.5603V28.457ZM30.9763 43.9447H15.487V31.0408H30.9763V43.9447Z" fill="#7EA935"/>
<path d="M18.0742 33.5508H28.3953V36.1345H18.0742V33.5508Z" fill="#7EA935"/>
<path d="M18.0742 38.7031H28.3953V41.2869H18.0742V38.7031Z" fill="#7EA935"/>
<path d="M36.1455 41.2891H38.6847V43.8728H36.1455V41.2891Z" fill="#7EA935"/>
<path d="M41.2969 41.2891H67.0624V43.8728H41.2969V41.2891Z" fill="#7EA935"/>
</svg>
