<svg width="16" height="16" viewBox="0 0 16 16" fill="none" xmlns="http://www.w3.org/2000/svg">
<path d="M0.771918 8.64355L15.3566 8.64355C15.7119 8.64355 16 8.3553 16 8.00011C16 7.64491 15.712 7.35666 15.3566 7.35666L0.771918 7.35666C0.416538 7.35666 0.128472 7.64469 0.128472 8.00011C0.128472 8.35552 0.416507 8.64355 0.771918 8.64355Z" fill="white"/>
<path d="M0.188436 8.45511L6.49393 14.7608C6.7453 15.012 7.15237 15.012 7.40375 14.7608C7.65513 14.5095 7.65513 14.102 7.40375 13.8508L1.55317 8.00001L7.40375 2.14918C7.65513 1.89802 7.65513 1.49051 7.40375 1.23935C7.27806 1.11367 7.11356 1.05082 6.94884 1.05082C6.78412 1.05082 6.61962 1.11367 6.49393 1.23935L0.188436 7.54506C-0.0629424 7.79644 -0.0629424 8.20398 0.188436 8.45511Z" fill="white"/>
</svg>
