<svg width="16" height="16" viewBox="0 0 16 16" fill="none" xmlns="http://www.w3.org/2000/svg">
<path d="M15.2281 7.35645H0.643446C0.288066 7.35645 0 7.6447 0 7.99989C0 8.35509 0.288035 8.64334 0.643446 8.64334H15.2281C15.5835 8.64334 15.8715 8.3553 15.8715 7.99989C15.8715 7.64448 15.5835 7.35645 15.2281 7.35645Z" fill="white"/>
<path d="M15.8116 7.54489L9.50607 1.23915C9.2547 0.987991 8.84763 0.987991 8.59625 1.23915C8.34487 1.49053 8.34487 1.89803 8.59625 2.14919L14.4468 7.99999L8.59625 13.8508C8.34487 14.102 8.34487 14.5095 8.59625 14.7606C8.72194 14.8863 8.88644 14.9492 9.05116 14.9492C9.21588 14.9492 9.38038 14.8863 9.50607 14.7606L15.8116 8.45494C16.0629 8.20356 16.0629 7.79602 15.8116 7.54489Z" fill="white"/>
</svg>
