<svg width="61" height="58" viewBox="0 0 61 58" fill="none" xmlns="http://www.w3.org/2000/svg">
<path d="M55.8493 32.6862C55.8493 31.4264 56.8706 30.4052 58.1304 30.4052C59.3902 30.4052 60.4115 31.4264 60.4115 32.6862V43.2662C60.4115 44.526 59.3902 45.5473 58.1304 45.5473C56.8706 45.5473 55.8493 44.526 55.8493 43.2662V32.6862Z" fill="white"/>
<path d="M52.7034 35.6901H57.2656V40.2623H52.7034V35.6901Z" fill="white"/>
<path d="M4.56212 32.6862C4.56212 31.4264 3.54085 30.4052 2.28106 30.4052C1.02127 30.4052 0 31.4264 0 32.6862V43.2662C0 44.526 1.02127 45.5473 2.28106 45.5473C3.54085 45.5473 4.56212 44.526 4.56212 43.2662V32.6862Z" fill="white"/>
<path d="M7.80017 35.6901H3.23805V40.2623H7.80017V35.6901Z" fill="white"/>
<path d="M36.2412 6.26138C36.2412 9.59594 33.538 12.2991 30.2034 12.2991C26.8689 12.2991 24.1657 9.59594 24.1657 6.26138C24.1657 2.92682 26.8689 0.223633 30.2034 0.223633C33.538 0.223633 36.2412 2.92682 36.2412 6.26138Z" fill="white"/>
<path d="M27.8602 10.6272H32.5467V19.9885H27.8602V10.6272Z" fill="white"/>
<path fill-rule="evenodd" clip-rule="evenodd" d="M14.5564 18.4539C9.87608 18.4539 6.08193 22.2481 6.08193 26.9284V49.1569C6.08193 53.8372 9.87607 57.6314 14.5564 57.6314H45.8505C50.5308 57.6314 54.325 53.8372 54.325 49.1569V26.9284C54.325 22.2481 50.5308 18.4539 45.8505 18.4539H14.5564ZM21.1327 39.5635C24.5038 39.5635 27.2367 36.8306 27.2367 33.4594C27.2367 30.0882 24.5038 27.3554 21.1327 27.3554C17.7615 27.3554 15.0286 30.0882 15.0286 33.4594C15.0286 36.8306 17.7615 39.5635 21.1327 39.5635ZM45.3783 33.4594C45.3783 36.8306 42.6454 39.5635 39.2742 39.5635C35.903 39.5635 33.1702 36.8306 33.1702 33.4594C33.1702 30.0882 35.903 27.3554 39.2742 27.3554C42.6454 27.3554 45.3783 30.0882 45.3783 33.4594ZM22.0559 44.4354C20.8138 44.2639 19.6814 45.2211 19.6814 46.475C19.6814 47.4702 20.4058 48.3154 21.392 48.4492C23.6169 48.751 27.5333 49.2247 30.1954 49.2247C32.8575 49.2247 36.7738 48.751 38.9988 48.4492C39.985 48.3154 40.7094 47.4702 40.7094 46.475C40.7094 45.2211 39.5769 44.2639 38.3348 44.4354C36.2124 44.7284 33.0118 45.0919 30.1954 45.0919C27.379 45.0919 24.1784 44.7284 22.0559 44.4354Z" fill="white"/>
</svg>
