<svg width="56" height="58" viewBox="0 0 56 58" fill="none" xmlns="http://www.w3.org/2000/svg">
<path fill-rule="evenodd" clip-rule="evenodd" d="M18.8051 8.66404C20.4882 8.0474 21.6893 6.43117 21.6893 4.53441C21.6893 2.10617 19.7208 0.137695 17.2926 0.137695C14.8643 0.137695 12.8959 2.10617 12.8959 4.53441C12.8959 6.42441 14.0884 8.03589 15.7621 8.65741V11.6711H14.5951C10.5319 11.6711 7.23793 14.9651 7.23793 19.0283V43.15C7.23793 47.2133 10.5319 50.5072 14.5951 50.5072H18.5857V56.0069C18.5857 57.3516 20.0676 58.1689 21.2049 57.4514L32.2115 50.5072H40.2527C44.3159 50.5072 47.6098 47.2133 47.6098 43.15V19.0283C47.6098 14.9651 44.3159 11.6711 40.2527 11.6711H39.0451V8.61954C40.6669 7.97229 41.813 6.38718 41.813 4.53441C41.813 2.10617 39.8445 0.137695 37.4162 0.137695C34.988 0.137695 33.0195 2.10617 33.0195 4.53441C33.0195 6.46791 34.2676 8.10991 36.002 8.69874V11.6711H18.8051V8.66404ZM30.4332 25.2524C30.5352 26.042 31.4269 26.3408 32.141 25.9888L32.7536 25.6868C33.1294 25.5016 33.261 25.0348 33.2824 24.6163C33.2953 24.3624 33.3731 24.116 33.5081 23.9005C33.6432 23.6851 33.8312 23.5078 34.0541 23.3855C34.277 23.2632 34.5275 23.2 34.7818 23.2019C35.0361 23.2037 35.2856 23.2706 35.5068 23.3962C35.7279 23.5217 35.9132 23.7017 36.0451 23.9191C36.1771 24.1365 36.2512 24.384 36.2604 24.6381C36.2757 25.0568 36.4005 25.5255 36.7735 25.7162L37.3816 26.0271C38.0905 26.3895 38.9865 26.1037 39.1 25.3157C39.1371 25.0576 39.1513 24.7957 39.1417 24.5331C39.1146 23.7875 38.8971 23.0612 38.51 22.4233C38.1229 21.7854 37.5791 21.2572 36.9302 20.8888C36.2813 20.5205 35.549 20.3242 34.8029 20.3188C34.0568 20.3133 33.3217 20.4988 32.6675 20.8577C32.0133 21.2165 31.4618 21.7368 31.0654 22.3689C30.669 23.0011 30.441 23.7241 30.4029 24.4693C30.3895 24.7317 30.3998 24.9937 30.4332 25.2524ZM17.7043 25.9888C16.9902 26.3408 16.0985 26.042 15.9965 25.2524C15.9631 24.9937 15.9528 24.7317 15.9662 24.4693C16.0043 23.7241 16.2323 23.0011 16.6287 22.3689C17.0251 21.7368 17.5766 21.2165 18.2308 20.8577C18.885 20.4988 19.6201 20.3133 20.3662 20.3188C21.1123 20.3242 21.8446 20.5205 22.4935 20.8888C23.1424 21.2572 23.6862 21.7854 24.0733 22.4233C24.4604 23.0612 24.6779 23.7875 24.705 24.5331C24.7146 24.7957 24.7004 25.0576 24.6633 25.3157C24.5498 26.1037 23.6538 26.3895 22.9449 26.0271L22.3368 25.7162C21.9638 25.5255 21.839 25.0568 21.8237 24.6381C21.8145 24.384 21.7404 24.1365 21.6084 23.9191C21.4765 23.7017 21.2912 23.5217 21.0701 23.3962C20.8489 23.2706 20.5994 23.2037 20.3451 23.2019C20.0908 23.2 19.8403 23.2632 19.6174 23.3855C19.3945 23.5078 19.2065 23.6851 19.0714 23.9005C18.9364 24.116 18.8586 24.3624 18.8457 24.6163C18.8243 25.0348 18.6927 25.5016 18.3169 25.6868L17.7043 25.9888ZM18.0218 35.7394C17.1228 35.4835 16.2082 36.1539 16.2082 37.0886C16.2082 37.637 16.5328 38.1304 17.0483 38.3176C18.7682 38.9424 22.9247 40.2492 27.6007 40.2492C32.2767 40.2492 36.4331 38.9424 38.153 38.3176C38.6685 38.1304 38.9931 37.637 38.9931 37.0886C38.9931 36.1539 38.0786 35.4835 37.1796 35.7394C34.8331 36.4074 30.6814 37.4486 27.6007 37.4486C24.52 37.4486 20.3682 36.4074 18.0218 35.7394Z" fill="white"/>
<path d="M4.46686 24.1874C1.99988 24.1874 0 26.1872 0 28.6542V34.4879C0 36.9549 1.99988 38.9548 4.46686 38.9548H5.24758V24.1874H4.46686Z" fill="white"/>
<path d="M50.6383 24.1874C53.1053 24.1874 55.1051 26.1872 55.1051 28.6542V34.4879C55.1051 36.9549 53.1053 38.9548 50.6383 38.9548H49.8576V24.1874H50.6383Z" fill="white"/>
</svg>
