<svg width="58" height="58" viewBox="0 0 58 58" fill="none" xmlns="http://www.w3.org/2000/svg">
<path d="M3.59484 49.4733H28.8455C29.933 51.6572 31.5242 53.5512 33.488 54.9989C35.4517 56.4466 37.7316 57.4065 40.1395 57.7993C42.5474 58.1921 45.0141 58.0066 47.3362 57.2581C49.6582 56.5096 51.7689 55.2195 53.4941 53.4944C55.2192 51.7693 56.5094 49.6587 57.2579 47.3367C58.0065 45.0147 58.1921 42.5479 57.7994 40.14C57.4066 37.7322 56.4468 35.4522 54.9992 33.4884C53.5515 31.5247 51.6576 29.9333 49.4737 28.8458V7.98443C49.4726 7.03053 49.0931 6.11602 48.4186 5.44152C47.7441 4.76702 46.8296 4.3876 45.8757 4.3865H41.9869V1.15987C41.987 1.00755 41.957 0.856715 41.8987 0.715986C41.8404 0.575257 41.755 0.447387 41.6472 0.339681C41.5395 0.231974 41.4117 0.146539 41.2709 0.0882565C41.1302 0.0299736 40.9794 -1.60757e-05 40.8271 6.46479e-09H35.1302C34.9779 -1.60759e-05 34.827 0.0299738 34.6863 0.0882568C34.5456 0.14654 34.4177 0.231974 34.31 0.339681C34.2023 0.447388 34.1169 0.575257 34.0586 0.715986C34.0003 0.856716 33.9703 1.00755 33.9703 1.15987V4.38649H15.5034V1.15987C15.5034 1.00755 15.4734 0.856716 15.4151 0.715986C15.3568 0.575257 15.2714 0.447388 15.1637 0.339681C15.056 0.231974 14.9281 0.14654 14.7874 0.0882568C14.6466 0.0299738 14.4958 -1.60759e-05 14.3435 6.46479e-09H8.64661C8.49429 -1.60759e-05 8.34346 0.0299738 8.20273 0.0882568C8.062 0.14654 7.93413 0.231974 7.82642 0.339681C7.71871 0.447388 7.63327 0.575257 7.57499 0.715986C7.5167 0.856716 7.48671 1.00755 7.48673 1.15987V4.38649H3.59798C2.64408 4.38759 1.72957 4.76701 1.05505 5.44151C0.380541 6.11601 0.00111036 7.03052 0 7.98442V45.8782C0.000994458 46.8313 0.380047 47.7451 1.05399 48.4191C1.72793 49.0931 2.64171 49.4722 3.59484 49.4733ZM2.31978 29.7401H15.718V37.2902H2.31978V29.7401ZM31.4384 19.8764V27.4203H18.0377V19.8764H31.4384ZM31.4384 29.7401V32.0513C30.0087 33.5598 28.8989 35.3418 28.1756 37.2902H18.0377V29.7401H31.4384ZM33.7582 29.7401H34.1984C34.0498 29.8376 33.903 29.9377 33.7582 30.0406L33.7582 29.7401ZM2.31978 45.8782V39.61H15.718V47.1535H3.59484C3.25675 47.1531 2.93263 47.0186 2.69359 46.7795C2.45455 46.5404 2.32012 46.2163 2.31978 45.8782ZM18.0377 47.1535V39.61H27.5219C27.0226 42.1177 27.1559 44.7103 27.91 47.1535H18.0377ZM55.6803 42.6129C55.6803 45.1974 54.9139 47.7239 53.4781 49.8728C52.0422 52.0218 50.0013 53.6967 47.6136 54.6857C45.2258 55.6748 42.5983 55.9336 40.0635 55.4293C37.5286 54.9251 35.2002 53.6806 33.3727 51.853C31.5451 50.0255 30.3006 47.6971 29.7964 45.1622C29.2922 42.6273 29.5511 39.9999 30.5401 37.6121C31.5292 35.2244 33.2042 33.1835 35.3531 31.7477C37.5021 30.3119 40.0286 29.5455 42.6132 29.5456C46.0776 29.5495 49.399 30.9275 51.8488 33.3772C54.2985 35.827 55.6764 39.1484 55.6803 42.6129ZM47.1539 27.9103C44.8973 27.2136 42.5106 27.0459 40.1788 27.4203H33.7582V19.8764H47.1539V27.9103ZM36.2901 2.31974H39.6672V9.04329H36.2901V2.31974ZM9.8065 2.31974H13.1836V9.04329H9.8065V2.31974ZM2.31978 7.9844C2.32014 7.64551 2.45493 7.32061 2.69456 7.08098C2.93419 6.84135 3.25909 6.70657 3.59798 6.70621H7.48673V10.2031C7.48671 10.3555 7.5167 10.5063 7.57499 10.647C7.63327 10.7877 7.71871 10.9156 7.82642 11.0233C7.93413 11.131 8.062 11.2165 8.20273 11.2747C8.34346 11.333 8.49429 11.363 8.64661 11.363H14.3435C14.4958 11.363 14.6466 11.333 14.7874 11.2747C14.9281 11.2165 15.056 11.131 15.1637 11.0233C15.2714 10.9156 15.3568 10.7877 15.4151 10.647C15.4734 10.5063 15.5034 10.3555 15.5034 10.2031V6.70624H33.9703V10.2032C33.9703 10.3555 34.0003 10.5063 34.0586 10.647C34.1169 10.7878 34.2023 10.9156 34.31 11.0233C34.4177 11.1311 34.5456 11.2165 34.6863 11.2748C34.827 11.3331 34.9779 11.363 35.1302 11.363H40.8271C40.9794 11.363 41.1302 11.3331 41.2709 11.2748C41.4117 11.2165 41.5395 11.1311 41.6472 11.0233C41.755 10.9156 41.8404 10.7878 41.8987 10.647C41.957 10.5063 41.987 10.3555 41.9869 10.2032V6.70624H45.8757C46.2146 6.7066 46.5395 6.84138 46.7791 7.08101C47.0187 7.32064 47.1535 7.64554 47.1539 7.98443V17.5567H2.31978V7.9844ZM2.31978 19.8764H15.718V27.4203H2.31978V19.8764ZM42.615 32.3745C42.7674 32.3744 42.9182 32.4044 43.0589 32.4627C43.1996 32.521 43.3275 32.6064 43.4352 32.7141C43.5429 32.8219 43.6284 32.9497 43.6867 33.0905C43.7449 33.2312 43.7749 33.382 43.7749 33.5343V41.4555H50.5668C50.7194 41.4552 50.8705 41.4849 51.0115 41.543C51.1526 41.6011 51.2808 41.6865 51.3888 41.7943C51.4968 41.902 51.5824 42.03 51.6409 42.1709C51.6994 42.3118 51.7295 42.4628 51.7295 42.6154C51.7295 42.7679 51.6994 42.919 51.6409 43.0599C51.5824 43.2008 51.4968 43.3288 51.3888 43.4365C51.2808 43.5443 51.1526 43.6296 51.0115 43.6878C50.8705 43.7459 50.7194 43.7756 50.5668 43.7753H42.615C42.4627 43.7753 42.3119 43.7453 42.1712 43.687C42.0304 43.6287 41.9025 43.5433 41.7948 43.4356C41.6871 43.3279 41.6017 43.2 41.5434 43.0593C41.4851 42.9185 41.4551 42.7677 41.4551 42.6154V33.5343C41.4551 33.382 41.4851 33.2312 41.5434 33.0905C41.6017 32.9497 41.6871 32.8218 41.7948 32.7141C41.9025 32.6064 42.0304 32.521 42.1712 32.4627C42.3119 32.4044 42.4627 32.3744 42.615 32.3745Z" fill="#7EA935"/>
</svg>
