<svg width="24" height="24" viewBox="0 0 24 24" fill="none" xmlns="http://www.w3.org/2000/svg">
<path d="M12 0C5.38278 0 0 5.3833 0 12C0 18.6167 5.38278 24 12 24C18.6172 24 24 18.6167 24 12C24 5.3833 18.6172 0 12 0ZM12 22.9565C5.95878 22.9565 1.04348 18.0417 1.04348 12C1.04348 5.95826 5.95878 1.04348 12 1.04348C18.0412 1.04348 22.9565 5.95826 22.9565 12C22.9565 18.0417 18.0412 22.9565 12 22.9565Z" fill="#7EA935"/>
<path d="M19.6079 11.5742L12.303 6.35682C12.1439 6.24361 11.9352 6.22795 11.761 6.31769C11.5872 6.40691 11.4782 6.58587 11.4782 6.78152V9.39021H5.21678C4.64131 9.39021 4.17383 9.85821 4.17383 10.4337V13.5641C4.17383 14.1396 4.64131 14.6076 5.21678 14.6076H11.4782V17.2163C11.4782 17.412 11.5872 17.5909 11.761 17.6801C11.8366 17.7187 11.9185 17.738 11.9999 17.738C12.1069 17.738 12.2128 17.7052 12.303 17.641L19.6079 12.4236C19.7451 12.3255 19.8265 12.1674 19.8265 11.9989C19.8265 11.8304 19.7451 11.6723 19.6079 11.5742ZM12.5217 16.2026V14.0859C12.5217 13.7979 12.2884 13.5641 11.9999 13.5641H5.21731L5.21678 10.4337H11.9999C12.2884 10.4337 12.5217 10.2 12.5217 9.91195V7.79526L18.4069 11.9989L12.5217 16.2026Z" fill="#7EA935"/>
</svg>
