<svg width="1737" height="809" viewBox="0 0 1737 809" fill="none" xmlns="http://www.w3.org/2000/svg">
<g opacity="0.1" clip-path="url(#clip0)">
<path d="M1611.4 519.309C1548.92 228.567 1279.6 -126.784 986.583 -8.33325C714.909 101.489 876.701 293.177 659.092 463.315C441.483 633.453 146.984 371.165 -49.75 588.225C-163.94 714.213 -165.556 929.039 -28.7431 1103.75C108.07 1278.47 383.312 1413.07 822.838 1378.61C1238.02 1346.06 1444.24 1173.46 1542.12 987.887C1640 802.312 1629.55 603.761 1611.4 519.309Z" stroke="white" stroke-width="2" stroke-miterlimit="10"/>
<path d="M834.338 1352.77C1215.35 1323.47 1405.98 1165.92 1497.09 995.517C1587.33 826.096 1579.04 644.407 1562.92 565.195C1507.22 295.76 1259.78 -33.988 987.623 67.8273C736.329 161.836 875.867 334.91 674.35 490.087C668.598 494.486 662.793 498.579 656.938 502.386C498.394 605.57 302.736 496.371 141.584 541.465C97.8381 553.707 56.5293 577.109 19.4206 619.048C-87.3195 739.684 -87.2327 938.758 40.3319 1099.54C168.709 1260.98 426.339 1383.79 834.338 1352.77Z" stroke="white" stroke-width="2" stroke-miterlimit="10"/>
<path d="M846.36 1325.61C1192.86 1299.56 1367.72 1157.09 1451.99 1001.88C1534.49 848.635 1528.62 683.789 1514.31 609.873C1466.26 361.62 1240.16 57.6973 989.046 142.845C758.412 221.048 876.002 376.103 690.271 515.652C684.918 519.674 679.492 523.391 674.036 526.876C526.795 621.148 347.474 528.812 201.067 574.709C161.09 587.242 123.377 609.668 89.8456 648.652C-9.33198 763.958 -7.55915 947.215 110.644 1094.05C230.469 1242.18 470.254 1353.18 846.36 1325.61Z" stroke="white" stroke-width="2" stroke-miterlimit="10"/>
<path d="M857.752 1299.76C1170.02 1276.97 1329.67 1149.82 1406.76 1009.62C1481.99 872.797 1478.01 724.648 1465.63 656.012C1424.71 429.1 1220.31 150.98 989.957 219.414C779.86 281.83 875.244 418.441 705.433 542.694C700.466 546.327 695.422 549.679 690.361 552.84C554.298 638.181 391.154 562.771 259.381 609.419C223.136 622.249 189.007 643.71 159.007 679.708C67.3351 789.709 70.769 957.064 179.707 1089.92C291.083 1224.72 513.224 1323.89 857.752 1299.76Z" stroke="white" stroke-width="2" stroke-miterlimit="10"/>
<path d="M868.459 1273.74C1146.23 1254.77 1290.17 1142.12 1360.29 1016.98C1427.89 896.324 1426.07 764.917 1415.64 701.502C1381.83 495.783 1199.51 243.282 990.05 295C800.794 341.729 873.748 459.895 720.072 568.982C715.496 572.23 710.839 575.217 706.179 578.059C581.435 654.531 434.621 596.053 317.629 643.434C285.149 656.588 254.668 677.111 228.206 710.123C144.169 814.966 148.92 966.744 248.789 1085.46C351.282 1207.3 555.907 1295.09 868.459 1273.74Z" stroke="white" stroke-width="2" stroke-miterlimit="10"/>
<path d="M879.821 1246.55C1123.35 1230.94 1251.77 1133.46 1315.01 1023.59C1375.03 919.302 1375.36 804.874 1366.9 746.78C1340.08 562.627 1179.85 336.238 990.924 371.066C822.417 402.13 872.863 501.504 735.207 595.289C731.014 598.144 726.742 600.765 722.478 603.281C608.919 670.756 478.271 629.383 375.937 677.341C347.184 690.815 320.35 710.377 297.369 740.316C220.934 839.895 227.21 975.552 317.854 1080.14C411.845 1188.59 598.867 1264.55 879.821 1246.55Z" stroke="white" stroke-width="2" stroke-miterlimit="10"/>
<path d="M891.682 1220.67C1100.67 1208.38 1213.38 1126.04 1269.68 1031.37C1322.02 943.371 1324.52 845.864 1318.05 793.05C1298.16 630.378 1160.46 430.094 992.159 447.91C844.744 463.516 872.426 543.927 751.032 622.55C747.227 625.013 743.347 627.269 739.483 629.462C637.252 687.982 522.942 663.776 435.38 712.225C410.39 726.052 387.274 744.672 367.763 771.521C299.114 865.985 306.841 985.493 388.124 1076.03C473.513 1171.15 642.673 1235.32 891.682 1220.67Z" stroke="white" stroke-width="2" stroke-miterlimit="10"/>
<path d="M903.617 1193.48C1078.58 1184.46 1175.83 1117.31 1225.38 1037.9C1270.13 966.198 1274.79 885.676 1270.35 838.157C1257.18 697.064 1141.75 515.253 993.722 523.758C867.381 531.018 871.919 585.241 766.568 648.784C763.139 650.851 759.644 652.745 756.17 654.616C665.007 704.159 566.789 697.243 493.744 746.015C472.464 760.224 453.047 777.898 436.908 801.601C376.015 891.026 385.102 994.186 457.198 1070.67C534.234 1152.39 685.924 1204.71 903.617 1193.48Z" stroke="white" stroke-width="2" stroke-miterlimit="10"/>
<path d="M914.598 1167.61C1055.21 1161.75 1136.76 1109.66 1179.55 1045.32C1216.55 989.674 1223.38 925.959 1221.04 883.588C1214.44 763.701 1122.25 616.337 994.178 599.03C888.797 584.789 870.368 625.971 781.365 674.775C778.314 676.449 775.211 677.989 772.134 679.541C692.198 720.248 610.346 730.785 551.852 779.852C534.35 794.533 518.708 811.31 505.903 831.887C453.116 916.706 463.347 1003.6 526.089 1066.28C594.682 1134.8 728.594 1175.37 914.598 1167.61Z" stroke="white" stroke-width="2" stroke-miterlimit="10"/>
<path d="M926.532 1141.73C1032.72 1138.92 1098.41 1102.07 1134.54 1053.03C1163.66 1013.51 1172.67 966.832 1172.54 929.706C1172.21 831.307 1103.13 711.624 995.547 675.62C911.195 647.391 869.655 667.633 797.184 701.856C794.508 703.121 791.806 704.315 789.127 705.545C720.456 737.316 655.22 765.493 611.092 814.572C597.442 829.753 585.608 845.587 576.048 862.943C531.832 943.212 542.823 1013.33 596.121 1062.12C656.308 1117.21 772.299 1145.82 926.532 1141.73Z" stroke="white" stroke-width="2" stroke-miterlimit="10"/>
<path d="M996.188 750.857C929.462 707.624 862.967 707.405 805.623 730.234C748.28 753.063 700.089 798.942 669.97 847.908C608.17 948.379 613.962 1014.99 665.787 1056.49C717.611 1097.98 815.469 1114.36 937.802 1114.36C1060.13 1114.36 1117.7 1051.32 1123.19 974.364C1128.69 897.408 1082.12 806.532 996.188 750.857Z" stroke="white" stroke-width="2" stroke-miterlimit="10"/>
</g>
<defs>
<clipPath id="clip0">
<rect width="1737" height="809" fill="white" transform="matrix(-1 0 0 1 1737 0)"/>
</clipPath>
</defs>
</svg>
