<svg width="32" height="32" viewBox="0 0 32 32" fill="none" xmlns="http://www.w3.org/2000/svg">
<mask id="mask0" mask-type="alpha" maskUnits="userSpaceOnUse" x="0" y="0" width="32" height="32">
<path d="M0 0H32V32H0V0Z" fill="white"/>
</mask>
<g mask="url(#mask0)">
<path d="M24.6261 9.25312C25.0166 8.8626 25.0166 8.22943 24.6261 7.83891L24.1603 7.37312C23.7698 6.9826 23.1366 6.9826 22.7461 7.37312L15.9998 14.1193L9.25361 7.37312C8.86309 6.9826 8.22992 6.9826 7.8394 7.37312L7.37361 7.83891C6.98309 8.22943 6.98309 8.8626 7.37361 9.25312L14.1198 15.9993L7.37361 22.7456C6.98309 23.1361 6.98309 23.7693 7.37361 24.1598L7.8394 24.6256C8.22992 25.0161 8.86309 25.0161 9.25361 24.6256L15.9998 17.8793L22.7461 24.6256C23.1366 25.0161 23.7698 25.0161 24.1603 24.6256L24.6261 24.1598C25.0166 23.7693 25.0166 23.1361 24.6261 22.7456L17.8798 15.9993L24.6261 9.25312Z" fill="#333333"/>
</g>
</svg>
