<svg width="79" height="55" viewBox="0 0 79 55" fill="none" xmlns="http://www.w3.org/2000/svg">
<path d="M76.9062 6.51318C77.534 6.51318 78.043 7.02211 78.043 7.6499C78.043 8.27769 77.534 8.78662 76.9062 8.78662L31.5199 8.78662C30.8922 8.78662 30.3832 8.27769 30.3832 7.6499C30.3832 7.02211 30.8922 6.51318 31.5199 6.51318L76.9062 6.51318Z" fill="#7EA935"/>
<path d="M76.9062 36.605C77.534 36.605 78.043 37.1139 78.043 37.7417C78.043 38.3695 77.534 38.8784 76.9062 38.8784L31.5199 38.8784C30.8922 38.8784 30.3832 38.3695 30.3832 37.7417C30.3832 37.1139 30.8922 36.605 31.5199 36.605L76.9062 36.605Z" fill="#7EA935"/>
<path d="M61.5619 16.0728C62.1897 16.0728 62.6986 16.5817 62.6986 17.2095C62.6986 17.8373 62.1897 18.3462 61.5619 18.3462L31.5199 18.3462C30.8922 18.3462 30.3832 17.8373 30.3832 17.2095C30.3832 16.5817 30.8922 16.0728 31.5199 16.0728L61.5619 16.0728Z" fill="#7EA935"/>
<path d="M61.5619 46.1646C62.1897 46.1646 62.6986 46.6735 62.6986 47.3013C62.6986 47.9291 62.1897 48.438 61.5619 48.438H31.5199C30.8922 48.438 30.3832 47.9291 30.3832 47.3013C30.3832 46.6735 30.8922 46.1646 31.5199 46.1646H61.5619Z" fill="#7EA935"/>
<path fill-rule="evenodd" clip-rule="evenodd" d="M1.2022 30.043C0.538241 30.043 0 30.5801 0 31.2432V53.7998C0 54.4629 0.538241 55 1.2022 55H22.421C23.085 55 23.6232 54.4629 23.6232 53.7998V31.2432C23.6232 30.5801 23.085 30.043 22.421 30.043H1.2022ZM21.3357 32.3086H2.28752V52.7349H21.3357V32.3086Z" fill="#7EA935"/>
<path fill-rule="evenodd" clip-rule="evenodd" d="M1.2022 0.178711C0.538241 0.178711 0 0.71582 0 1.37891V23.9355C0 24.5986 0.538241 25.1357 1.2022 25.1357H22.421C23.085 25.1357 23.6232 24.5986 23.6232 23.9355V1.37891C23.6232 0.71582 23.085 0.178711 22.421 0.178711H1.2022ZM21.3357 2.44434H2.28752V22.8706H21.3357V2.44434Z" fill="#7EA935"/>
<path fill-rule="evenodd" clip-rule="evenodd" d="M8.42117 5.0957C9.42499 4.42041 10.6059 4.05957 11.8147 4.05957C12.6176 4.05957 13.4122 4.21875 14.1535 4.52783C14.8947 4.8374 15.5677 5.29053 16.1342 5.86084C16.7004 6.43164 17.1495 7.1084 17.4555 7.85303C17.7615 8.59766 17.9184 9.39551 17.918 10.2007C17.9174 11.4126 17.5601 12.5977 16.89 13.6069C16.6182 14.0161 16.2998 14.3887 15.9428 14.7188C16.9753 15.0664 17.9637 15.5508 18.8807 16.1641C20.9771 17.5654 22.6018 19.5723 23.5421 21.9194L23.6235 22.1226V22.3721H22.4125L21.4349 22.7637C20.6642 20.8394 19.3334 19.1968 17.6192 18.0513C15.9051 16.9053 13.8876 16.3096 11.832 16.3408L11.8145 16.3413L11.797 16.3408C9.74164 16.3091 7.72412 16.9048 6.01007 18.0503C4.29593 19.1958 2.96518 20.8384 2.19415 22.7617L1.22107 22.3721H0.00561523V22.1206L0.0870972 21.9175C1.02774 19.5708 2.65237 17.564 4.74875 16.1631C5.66568 15.5503 6.65396 15.0659 7.6864 14.7183C7.62143 14.6582 7.55768 14.5967 7.49518 14.5337C6.64249 13.6748 6.0629 12.5811 5.82828 11.3921C5.59363 10.2031 5.71426 8.9707 6.17529 7.8501C6.63635 6.72998 7.41742 5.771 8.42117 5.0957ZM11.8147 6.3291C11.0584 6.3291 10.3184 6.55518 9.68829 6.979C9.05807 7.40283 8.5657 8.00635 8.27454 8.71436C7.98334 9.42188 7.90695 10.2012 8.05533 10.9526C8.20367 11.7046 8.56982 12.394 9.10629 12.9346C9.6427 13.4751 10.3253 13.8423 11.0673 13.9912C11.8092 14.1401 12.5782 14.064 13.2777 13.7725C13.9774 13.481 14.5767 12.9868 14.9991 12.3506C15.4215 11.7148 15.6476 10.9663 15.648 10.1992C15.6482 9.68994 15.549 9.18604 15.3558 8.71582C15.1628 8.24609 14.8796 7.81934 14.5231 7.45996C14.1668 7.10107 13.744 6.81689 13.2794 6.62305C12.8147 6.4292 12.3171 6.3291 11.8147 6.3291Z" fill="#7EA935"/>
<path fill-rule="evenodd" clip-rule="evenodd" d="M8.42117 34.96C9.42499 34.2847 10.6059 33.9238 11.8147 33.9238C12.6176 33.9238 13.4122 34.083 14.1535 34.3921C14.8947 34.7017 15.5677 35.1548 16.1342 35.7251C16.7004 36.2959 17.1495 36.9727 17.4555 37.7173C17.7615 38.4619 17.9184 39.2598 17.918 40.0649C17.9174 41.2769 17.5601 42.4619 16.89 43.4712C16.6182 43.8804 16.2998 44.2529 15.9428 44.583C16.9753 44.9307 17.9637 45.415 18.8807 46.0283C20.9771 47.4297 22.6018 49.4365 23.5421 51.7837L23.6235 51.9868V52.2363H22.4125L21.4349 52.6279C20.6642 50.7036 19.3334 49.061 17.6192 47.9155C15.9051 46.7695 13.8876 46.1738 11.832 46.2051L11.8145 46.2056L11.797 46.2051C9.74164 46.1733 7.72412 46.769 6.01007 47.9146C4.29593 49.0601 2.96518 50.7026 2.19415 52.626L1.22107 52.2363H0.00561523V51.9849L0.0870972 51.7817C1.02774 49.4351 2.65237 47.4282 4.74875 46.0273C5.66568 45.4146 6.65396 44.9302 7.6864 44.5825C7.62143 44.5225 7.55768 44.4609 7.49518 44.3979C6.64249 43.5391 6.0629 42.4453 5.82828 41.2563C5.59363 40.0674 5.71426 38.835 6.17529 37.7144C6.63635 36.5942 7.41742 35.6353 8.42117 34.96ZM11.8147 36.1934C11.0584 36.1934 10.3184 36.4194 9.68829 36.8433C9.05807 37.2671 8.5657 37.8706 8.27454 38.5786C7.98334 39.2861 7.90695 40.0654 8.05533 40.8169C8.20367 41.5688 8.56982 42.2583 9.10629 42.7988C9.6427 43.3394 10.3253 43.7065 11.0673 43.8555C11.8092 44.0044 12.5782 43.9282 13.2777 43.6367C13.9774 43.3452 14.5767 42.8511 14.9991 42.2148C15.4215 41.5791 15.6476 40.8306 15.648 40.0635C15.6482 39.5542 15.549 39.0503 15.3558 38.5801C15.1628 38.1104 14.8796 37.6836 14.5231 37.3242C14.1668 36.9653 13.744 36.6812 13.2794 36.4873C12.8147 36.2935 12.3171 36.1934 11.8147 36.1934Z" fill="#7EA935"/>
</svg>
