<svg width="149" height="29" viewBox="0 0 149 29" fill="none" xmlns="http://www.w3.org/2000/svg">
<path d="M66.63 21.1613C66.5715 21.0674 66.4803 20.9963 66.3723 20.9604C66.2644 20.9244 66.1466 20.9261 66.0398 20.9649L65.8898 21.0179L65.805 21.0429L65.6681 21.0803L65.6029 21.0959L65.4529 21.1301L65.2866 21.1644H65.2409H65.1594L65.2605 21.0896L65.3094 21.0491L65.3322 21.0304L65.3551 21.0086L65.4007 20.968L65.4431 20.9244C65.5454 20.8208 65.6341 20.7057 65.7072 20.5815C65.7639 20.4823 65.8098 20.3779 65.8442 20.2697L65.8735 20.1762L65.8996 20.0577V20.0047C65.9131 19.8902 65.8815 19.7749 65.8111 19.6814C65.7406 19.5878 65.6363 19.5226 65.5184 19.4985C65.4005 19.4744 65.2774 19.4931 65.1731 19.551C65.0688 19.6088 64.9907 19.7016 64.954 19.8114C64.954 19.8114 64.954 19.8301 64.9377 19.8644C64.9279 19.8923 64.9159 19.9194 64.9018 19.9455C64.8795 19.9881 64.8533 20.0288 64.8235 20.0671C64.7834 20.1185 64.7375 20.1656 64.6866 20.2074C64.6564 20.2329 64.6249 20.2568 64.592 20.2791C64.5542 20.3039 64.515 20.3268 64.4746 20.3477L64.3573 20.4038C64.084 20.2519 63.7734 20.1722 63.4573 20.1731C63.1412 20.1724 62.8306 20.252 62.5573 20.4038L62.4399 20.3477C62.3996 20.3268 62.3604 20.3039 62.3226 20.2791C62.2897 20.2568 62.2581 20.2329 62.228 20.2074C62.1771 20.1656 62.1311 20.1185 62.091 20.0671C62.0614 20.0287 62.0352 19.9881 62.0128 19.9455C61.9987 19.9194 61.9867 19.8923 61.9769 19.8644C61.9769 19.8333 61.9606 19.8114 61.9606 19.8114C61.9239 19.7016 61.8458 19.6088 61.7415 19.551C61.6372 19.4931 61.5141 19.4744 61.3962 19.4985C61.2783 19.5226 61.174 19.5878 61.1035 19.6814C61.0331 19.7749 61.0015 19.8902 61.015 20.0047V20.0577L61.0411 20.1762L61.0672 20.2697C61.1018 20.3777 61.1477 20.4822 61.2041 20.5815C61.2772 20.7056 61.3659 20.8208 61.4682 20.9244L61.5106 20.968L61.5563 21.0086L61.5791 21.0304L61.6019 21.0491L61.6508 21.0896L61.7519 21.1644H61.6704H61.6248L61.4585 21.1301L61.3085 21.0959L61.2432 21.0803L61.1063 21.0429L61.0215 21.0179L60.8715 20.9649C60.7583 20.9253 60.6338 20.9274 60.5221 20.9707C60.4104 21.0139 60.3196 21.0953 60.2671 21.1991C60.2147 21.3028 60.2045 21.4215 60.2384 21.532C60.2724 21.6426 60.3481 21.7371 60.4509 21.7973L60.5063 21.8285L60.5846 21.8721L60.627 21.8908L60.6889 21.9189L60.7574 21.9501L60.8291 21.9781L60.9889 22.0405L61.1715 22.1028L61.3737 22.1621L61.4813 22.1901L61.6378 22.2275L61.6019 22.2493C61.4315 22.3534 61.2768 22.4792 61.1422 22.6234C61.1096 22.6577 61.0802 22.692 61.0509 22.7294L60.9726 22.8385L60.9041 22.9477C60.8813 22.982 60.865 23.0225 60.8487 23.0568L60.803 23.1628C60.7897 23.1952 60.7788 23.2286 60.7704 23.2625L60.7443 23.3561C60.7443 23.3561 60.7443 23.3903 60.7443 23.4215C60.7443 23.4527 60.728 23.5525 60.728 23.5525C60.728 23.5525 60.728 23.6117 60.728 23.6865C60.725 23.7134 60.725 23.7406 60.728 23.7676C60.7237 23.8916 60.7711 24.0122 60.8598 24.1028C60.9484 24.1934 61.0711 24.2466 61.2009 24.2508C61.3306 24.2549 61.4567 24.2096 61.5515 24.1248C61.6463 24.0401 61.7019 23.9228 61.7063 23.7987C61.7063 23.7987 61.7063 23.7364 61.7063 23.7083C61.712 23.6798 61.7196 23.6517 61.7291 23.6242C61.7475 23.575 61.7716 23.528 61.8008 23.4839C61.8444 23.4237 61.8935 23.3673 61.9476 23.3155C61.9733 23.2922 62.0006 23.2703 62.0291 23.2501L62.091 23.2064L62.1628 23.1659L62.2215 23.1347C62.5551 23.4446 63.0019 23.618 63.4671 23.6179C63.9322 23.618 64.3791 23.4446 64.7127 23.1347L64.7714 23.1659L64.8431 23.2064L64.9051 23.2501C64.9336 23.2703 64.9608 23.2922 64.9866 23.3155C65.0407 23.3673 65.0898 23.4237 65.1333 23.4839C65.1624 23.528 65.1865 23.5751 65.2051 23.6242C65.2147 23.6517 65.2223 23.6798 65.2279 23.7083C65.2279 23.7364 65.2279 23.7987 65.2279 23.7987C65.2322 23.9228 65.2879 24.0401 65.3827 24.1248C65.4774 24.2096 65.6036 24.2549 65.7333 24.2508C65.863 24.2466 65.9857 24.1934 66.0744 24.1028C66.163 24.0122 66.2104 23.8916 66.2061 23.7676C66.2091 23.7406 66.2091 23.7134 66.2061 23.6865C66.2061 23.6117 66.2061 23.5712 66.2061 23.5587C66.2061 23.5462 66.2061 23.4527 66.1865 23.4215C66.167 23.3903 66.1865 23.3716 66.1865 23.3561L66.1605 23.2625C66.1521 23.2286 66.1412 23.1952 66.1278 23.1628L66.0822 23.0568C66.0659 23.0194 66.0463 22.982 66.0268 22.9477L65.9583 22.8385L65.88 22.7294C65.8507 22.692 65.8213 22.6577 65.7887 22.6234C65.6541 22.4792 65.4994 22.3533 65.329 22.2493L65.2931 22.2275L65.4496 22.1901L65.5572 22.1621L65.7594 22.1028L65.942 22.0405L66.1018 21.9781L66.1735 21.9501L66.242 21.9189L66.3039 21.8908L66.3463 21.8721L66.4246 21.8285L66.48 21.7973C66.5877 21.735 66.6658 21.6352 66.6981 21.5189C66.7303 21.4026 66.7141 21.2789 66.6528 21.1738" fill="#7EA935"/>
<path d="M20.3666 21.3544C20.3829 22.4427 20.1445 23.5206 19.6688 24.5094C19.2034 25.4549 18.5079 26.2801 17.6407 26.9161C16.678 27.6129 15.5892 28.134 14.4288 28.453C13.0514 28.8324 11.6232 29.0162 10.1898 28.9986C8.37084 29.0046 6.56097 28.7524 4.81939 28.2504C3.09205 27.7481 1.46356 26.976 0 25.9652L1.18365 24.4283C3.84533 26.2514 7.03953 27.2276 10.3138 27.2185C11.3832 27.2249 12.4491 27.1024 13.4865 26.8537C14.4021 26.6421 15.2695 26.2723 16.0462 25.7626C16.7563 25.288 17.3367 24.6572 17.7385 23.9233C18.163 23.1157 18.3735 22.2207 18.3515 21.317C18.3954 20.3475 18.1463 19.3865 17.6341 18.5487C17.1611 17.8401 16.5241 17.245 15.7723 16.8091C14.973 16.3493 14.1118 15.9958 13.2126 15.7585C12.2669 15.5029 11.3431 15.2951 10.4409 15.135C9.34096 14.948 8.26274 14.7194 7.20626 14.4492C6.20332 14.2028 5.24711 13.8073 4.37267 13.277C3.53935 12.765 2.84351 12.0731 2.34122 11.2568C1.8195 10.4255 1.55864 9.33334 1.55864 7.98034C1.54191 6.8976 1.76412 5.82365 2.21079 4.82855C2.63411 3.90259 3.27054 3.07991 4.07268 2.42183C4.92266 1.73743 5.90712 1.22231 6.96823 0.906724C8.2001 0.542521 9.48422 0.365779 10.7735 0.382981C14.0343 0.382981 16.8396 1.09689 19.1895 2.52471L18.133 4.14269C17.0166 3.52596 15.828 3.0373 14.5919 2.68682C13.3329 2.33318 12.027 2.15572 10.7148 2.15996C9.80283 2.15772 8.89468 2.27306 8.01493 2.50288C7.19023 2.70881 6.4151 3.06559 5.7324 3.55349C5.07885 4.03427 4.54627 4.64892 4.17376 5.35229C3.75897 6.17023 3.55652 7.07171 3.58357 7.98034C3.53974 8.85779 3.77508 9.72734 4.25854 10.4744C4.71091 11.1097 5.31871 11.6298 6.02913 11.9895C6.82203 12.3889 7.6661 12.6875 8.53991 12.878C9.48118 13.0858 10.4442 13.2884 11.4289 13.4859C12.5528 13.6937 13.6495 13.9566 14.719 14.2746C15.7425 14.5632 16.7112 15.0063 17.5885 15.5871C18.4402 16.162 19.1347 16.9244 19.6134 17.8098C20.1199 18.7264 20.3732 19.9121 20.3732 21.3669" fill="white"/>
<path d="M46.8833 4.85745H46.8409L42.4356 13.7517L37.0978 24.3512H35.4022L30.0643 13.6769L25.6167 4.86368C25.6179 4.86925 25.6176 4.87502 25.6159 4.88046C25.6142 4.88591 25.6111 4.89086 25.6069 4.89488C25.6027 4.8989 25.5975 4.90186 25.5918 4.90349C25.5861 4.90512 25.5801 4.90536 25.5743 4.90421V28.7563H23.7124V0.614523H25.6689L32.2914 13.8764C32.9697 15.2252 33.6414 16.5658 34.3066 17.898C34.9718 19.2302 35.6294 20.5811 36.2793 21.9507H36.3217L40.339 13.8639L46.9355 0.602051H48.8397V28.7407H46.8833V4.85745Z" fill="white"/>
<path d="M148.984 21.3547C149 22.4429 148.761 23.5208 148.286 24.5096C147.819 25.4554 147.123 26.2807 146.254 26.9163C145.291 27.6134 144.201 28.1344 143.039 28.4533C141.662 28.8327 140.234 29.0165 138.8 28.9988C136.981 29.0049 135.171 28.7527 133.43 28.2506C131.702 27.7484 130.074 26.9763 128.61 25.9655L129.794 24.4286C132.456 26.2516 135.65 27.2278 138.924 27.2187C139.994 27.2252 141.059 27.1026 142.097 26.854C143.012 26.6425 143.88 26.2727 144.656 25.7628C145.366 25.288 145.947 24.6572 146.349 23.9235C146.773 23.1159 146.984 22.2209 146.962 21.3173C147.005 20.3475 146.755 19.3864 146.241 18.5489C145.768 17.8404 145.131 17.2452 144.379 16.8094C143.581 16.3497 142.721 15.9962 141.823 15.7588C140.877 15.5031 139.954 15.2953 139.055 15.1353C137.955 14.9482 136.876 14.7196 135.82 14.4494C134.817 14.203 133.861 13.8075 132.986 13.2772C132.153 12.7653 131.457 12.0733 130.955 11.2571C130.433 10.4258 130.172 9.33358 130.172 7.98059C130.155 6.89782 130.378 5.82383 130.824 4.82879C131.248 3.90283 131.884 3.08015 132.686 2.42208C133.536 1.73767 134.521 1.22255 135.582 0.906967C136.812 0.538862 138.095 0.357916 139.384 0.370755C142.645 0.370755 145.45 1.08467 147.8 2.51249L146.743 4.13046C145.627 3.51386 144.438 3.0252 143.202 2.67459C141.943 2.32095 140.637 2.14349 139.325 2.14773C138.413 2.14549 137.505 2.26084 136.625 2.49066C135.801 2.69658 135.025 3.05336 134.343 3.54126C133.689 4.02204 133.157 4.63668 132.784 5.34006C132.374 6.16028 132.178 7.06283 132.21 7.97123C132.166 8.8487 132.402 9.71831 132.885 10.4652C133.338 11.1006 133.945 11.6207 134.656 11.9804C135.449 12.3798 136.293 12.6785 137.167 12.8688C138.108 13.0767 139.071 13.2793 140.056 13.4768C141.179 13.6846 142.276 13.9475 143.346 14.2655C144.369 14.5541 145.338 14.9972 146.215 15.5779C147.067 16.1528 147.761 16.9152 148.24 17.8007C148.747 18.7173 149 19.903 149 21.3578" fill="white"/>
<path d="M123.348 0.495684L125.291 0V2.25084L123.348 2.74652V0.495684Z" fill="#7EA935"/>
<path d="M109.604 9.35882V28.996H111.55V8.6792L109.604 9.35882Z" fill="#AAADAE"/>
<path d="M123.348 28.7527V4.5764L125.291 3.8999V28.7527H123.348Z" fill="white"/>
<path d="M109.604 6.37804L111.55 5.86677V2.27228H120.302V0.61377H100.725V2.27228H109.604V6.37804Z" fill="white"/>
<path d="M80.4983 14.0348H80.4233V2.26928H89.2795C90.1402 2.26407 90.9978 2.36892 91.8295 2.58104C92.6131 2.7769 93.3503 3.11448 94.0011 3.57552C94.634 4.0382 95.1463 4.63467 95.4978 5.31822C95.8973 6.12167 96.0928 7.00394 96.0684 7.89327C96.0671 8.61463 95.9461 9.33123 95.7097 10.0163L98.0379 9.39279C98.1315 8.88748 98.1784 8.37527 98.1781 7.86209C98.1953 6.81312 97.9786 5.77268 97.5423 4.81006C97.1427 3.93792 96.551 3.15847 95.8076 2.52492C95.0289 1.8813 94.123 1.39365 93.1435 1.09087C92.0518 0.746787 90.9084 0.57618 89.7589 0.585837H78.4082V14.5616L80.4983 14.0348Z" fill="white"/>
<path d="M57.7056 18.3212C58.0447 17.4047 58.4328 16.3603 58.8697 15.1881L60.2653 11.4471C60.7588 10.1274 61.2164 8.88035 61.6381 7.70609C62.0598 6.53183 62.4337 5.51449 62.7598 4.65406C63.0837 3.79155 63.3011 3.21169 63.4119 2.91449H63.5391C63.963 4.10122 64.3978 5.2734 64.8434 6.43103C65.289 7.58867 65.7336 8.76085 66.1771 9.94758L68.828 17.1178L70.6573 16.6378C70.4095 15.9924 70.165 15.3378 69.9171 14.6924C68.1172 10.0245 66.3162 5.3316 64.5141 0.61377H62.4305L51.7319 28.7524H53.8449L56.9752 20.2229C57.1165 19.8737 57.3556 19.2398 57.6926 18.3212" fill="white"/>
<path d="M78.3984 20.2138V28.7527H80.4266V19.5093L78.3984 20.2138Z" fill="#AAADAE"/>
<path d="M89.2729 16.4292L95.4423 28.7527H97.8063L91.1479 15.7808L89.2729 16.4292Z" fill="#AAADAE"/>
<path d="M70.9082 22.82L73.0994 28.7433H75.2548C74.4233 26.5392 73.5885 24.3601 72.7538 22.1685L70.9082 22.82Z" fill="#AAADAE"/>
</svg>
