<svg width="59" height="56" viewBox="0 0 59 56" fill="none" xmlns="http://www.w3.org/2000/svg">
<path d="M3.71913 23.7716L28.688 42.4305C29.1718 42.7895 29.8311 42.7895 30.3142 42.4305L55.2859 23.7716V51.06C55.2859 51.6801 54.7025 52.2894 53.7507 52.2894H5.2507C4.30324 52.2894 3.71842 51.6801 3.71842 51.06V23.7716H3.71913ZM49.4771 20.5042C49.5602 20.5193 49.6462 20.5258 49.7315 20.5258H53.7493C54.1908 20.5258 54.5506 20.6646 54.8121 20.8668C54.6409 20.9121 54.476 20.9905 54.3334 21.0948L49.4764 24.7247L49.4771 20.5042ZM9.7329 20.4848V24.878L4.6709 21.0948C4.52828 20.9862 4.37132 20.9085 4.19788 20.8588C4.46019 20.661 4.81209 20.5258 5.2507 20.5258H9.37742C9.49711 20.5301 9.61751 20.5157 9.7329 20.4848ZM12.4477 3.71417H46.7587V26.7548L29.5007 39.653L12.4477 26.908V3.71417ZM11.0925 1.00432C10.3399 1 9.7329 1.61002 9.7329 2.35745V17.8569C9.6168 17.8274 9.49711 17.8116 9.37742 17.8159H5.2507C2.99671 17.8159 1 19.51 1 21.7573V51.06C1 53.3059 2.99671 55 5.2507 55H53.75C56.004 55 58 53.3059 58 51.06V21.7573C58 19.51 56.004 17.8159 53.75 17.8159H49.7322C49.6469 17.8123 49.5645 17.8202 49.4778 17.8353V2.35745C49.4778 1.61002 48.8715 1.00432 48.119 1L11.0925 1.00432Z" fill="#7EA935"/>
<path d="M37.0683 15.1838C38.8321 15.1838 40.2282 16.5779 40.2282 18.3396C40.2282 20.097 38.8321 21.4991 37.0683 21.4991C35.3088 21.4991 33.912 20.097 33.912 18.3396C33.912 16.5779 35.3088 15.1838 37.0683 15.1838ZM21.9324 15.1838C23.6926 15.1838 25.0888 16.5779 25.0888 18.3396C25.0888 20.097 23.6919 21.4991 21.9324 21.4991C20.1722 21.4991 18.769 20.097 18.769 18.3396C18.7697 16.5779 20.1722 15.1838 21.9324 15.1838ZM21.9324 12.4732C18.7009 12.4732 16.0541 15.1125 16.0541 18.3389C16.0541 21.494 18.5962 24.0931 21.7296 24.201V24.2125H37.0224V24.2089C37.0375 24.2089 37.0525 24.2125 37.0676 24.2125C40.2998 24.2125 42.9423 21.5653 42.9423 18.3389C42.9423 15.1169 40.2991 12.4732 37.0676 12.4732C33.8396 12.4732 31.1928 15.1169 31.1928 18.3389C31.1928 19.5014 31.5411 20.5819 32.1295 21.4984H26.8719C27.4632 20.5826 27.8072 19.5021 27.8072 18.3389C27.8072 15.1169 25.1619 12.4732 21.9324 12.4732Z" fill="#7EA935"/>
<path d="M3.71913 23.7716L28.688 42.4305C29.1718 42.7895 29.8311 42.7895 30.3142 42.4305L55.2859 23.7716V51.06C55.2859 51.6801 54.7025 52.2894 53.7507 52.2894H5.2507C4.30324 52.2894 3.71842 51.6801 3.71842 51.06V23.7716H3.71913ZM49.4771 20.5042C49.5602 20.5193 49.6462 20.5258 49.7315 20.5258H53.7493C54.1908 20.5258 54.5506 20.6646 54.8121 20.8668C54.6409 20.9121 54.476 20.9905 54.3334 21.0948L49.4764 24.7247L49.4771 20.5042ZM9.7329 20.4848V24.878L4.6709 21.0948C4.52828 20.9862 4.37132 20.9085 4.19788 20.8588C4.46019 20.661 4.81209 20.5258 5.2507 20.5258H9.37742C9.49711 20.5301 9.61751 20.5157 9.7329 20.4848ZM12.4477 3.71417H46.7587V26.7548L29.5007 39.653L12.4477 26.908V3.71417ZM11.0925 1.00432C10.3399 1 9.7329 1.61002 9.7329 2.35745V17.8569C9.6168 17.8274 9.49711 17.8116 9.37742 17.8159H5.2507C2.99671 17.8159 1 19.51 1 21.7573V51.06C1 53.3059 2.99671 55 5.2507 55H53.75C56.004 55 58 53.3059 58 51.06V21.7573C58 19.51 56.004 17.8159 53.75 17.8159H49.7322C49.6469 17.8123 49.5645 17.8202 49.4778 17.8353V2.35745C49.4778 1.61002 48.8715 1.00432 48.119 1L11.0925 1.00432Z" stroke="#F7F7F7" stroke-width="0.43"/>
<path d="M37.0683 15.1838C38.8321 15.1838 40.2282 16.5779 40.2282 18.3396C40.2282 20.097 38.8321 21.4991 37.0683 21.4991C35.3088 21.4991 33.912 20.097 33.912 18.3396C33.912 16.5779 35.3088 15.1838 37.0683 15.1838ZM21.9324 15.1838C23.6926 15.1838 25.0888 16.5779 25.0888 18.3396C25.0888 20.097 23.6919 21.4991 21.9324 21.4991C20.1722 21.4991 18.769 20.097 18.769 18.3396C18.7697 16.5779 20.1722 15.1838 21.9324 15.1838ZM21.9324 12.4732C18.7009 12.4732 16.0541 15.1125 16.0541 18.3389C16.0541 21.494 18.5962 24.0931 21.7296 24.201V24.2125H37.0224V24.2089C37.0375 24.2089 37.0525 24.2125 37.0676 24.2125C40.2998 24.2125 42.9423 21.5653 42.9423 18.3389C42.9423 15.1169 40.2991 12.4732 37.0676 12.4732C33.8396 12.4732 31.1928 15.1169 31.1928 18.3389C31.1928 19.5014 31.5411 20.5819 32.1295 21.4984H26.8719C27.4632 20.5826 27.8072 19.5021 27.8072 18.3389C27.8072 15.1169 25.1619 12.4732 21.9324 12.4732Z" stroke="#F7F7F7" stroke-width="0.43"/>
</svg>
