<svg width="272" height="281" viewBox="0 0 272 281" fill="none" xmlns="http://www.w3.org/2000/svg">
    <rect width="272" height="281" rx="8" fill="white"/>
    <path opacity="0.2" d="M45.5001 134.5C44.0001 106.833 59.9001 51.5 135.5 51.5C211.1 51.5 227.667 106.833 226.5 134.5" stroke="#AAADAE" stroke-linecap="round" stroke-linejoin="round" stroke-dasharray="4 4"/>
    <circle cx="136" cy="128" r="35" fill="#7EA935"/>
    <circle cx="136" cy="52" r="22" fill="#EEEFEF"/>
    <circle cx="205" cy="71" r="22" fill="#EEEFEF"/>
    <circle cx="67" cy="71" r="22" fill="#EEEFEF"/>
    <circle cx="45" cy="134" r="22" fill="#EEEFEF"/>
    <circle cx="227" cy="134" r="22" fill="#EEEFEF"/>
    <path d="M147.702 125.972C147.494 125.637 147.171 125.383 146.789 125.254C146.407 125.126 145.99 125.132 145.612 125.271V125.271L145.081 125.46L144.78 125.549L144.296 125.682L144.065 125.738L143.533 125.86L142.945 125.983H142.783H142.494L142.852 125.716L143.025 125.571L143.106 125.504L143.187 125.426L143.349 125.282L143.499 125.126C143.861 124.756 144.175 124.345 144.434 123.902C144.635 123.548 144.797 123.175 144.919 122.789L145.023 122.455L145.115 122.033V121.843C145.163 121.435 145.051 121.023 144.802 120.689C144.552 120.355 144.183 120.123 143.765 120.037C143.348 119.951 142.912 120.017 142.543 120.224C142.173 120.43 141.897 120.762 141.767 121.154C141.767 121.154 141.767 121.22 141.709 121.343C141.674 121.442 141.632 121.539 141.582 121.632C141.503 121.784 141.41 121.929 141.305 122.066C141.163 122.25 141.001 122.418 140.82 122.567C140.713 122.658 140.602 122.743 140.485 122.823C140.351 122.911 140.213 122.993 140.07 123.067L139.654 123.268C138.686 122.725 137.587 122.441 136.467 122.444V122.444C135.348 122.442 134.248 122.726 133.281 123.268L132.865 123.067C132.722 122.993 132.583 122.911 132.449 122.823C132.333 122.743 132.221 122.658 132.115 122.567C131.934 122.418 131.772 122.25 131.63 122.066C131.525 121.929 131.432 121.784 131.352 121.632C131.303 121.539 131.26 121.442 131.225 121.343C131.225 121.231 131.168 121.154 131.168 121.154C131.038 120.762 130.761 120.43 130.392 120.224C130.023 120.017 129.587 119.951 129.169 120.037C128.752 120.123 128.382 120.355 128.133 120.689C127.883 121.023 127.772 121.435 127.819 121.843V122.033L127.912 122.455L128.004 122.789C128.127 123.175 128.289 123.548 128.489 123.902C128.748 124.345 129.062 124.756 129.424 125.126L129.574 125.282L129.736 125.426L129.817 125.504L129.898 125.571L130.071 125.716L130.429 125.983H130.14H129.979L129.39 125.86L128.859 125.738L128.628 125.682L128.143 125.549L127.842 125.46L127.311 125.271C126.911 125.129 126.47 125.137 126.074 125.291C125.679 125.446 125.357 125.736 125.171 126.106C124.986 126.477 124.949 126.9 125.07 127.295C125.19 127.69 125.458 128.027 125.822 128.242L126.018 128.353L126.295 128.509L126.445 128.576L126.665 128.676L126.907 128.787L127.161 128.887L127.727 129.11L128.374 129.332L129.089 129.544L129.47 129.644L130.025 129.777L129.898 129.855C129.294 130.226 128.746 130.676 128.27 131.191C128.154 131.313 128.05 131.435 127.946 131.569L127.669 131.958L127.427 132.348C127.346 132.47 127.288 132.615 127.231 132.737L127.069 133.116C127.022 133.231 126.983 133.35 126.953 133.472L126.861 133.805C126.861 133.805 126.861 133.928 126.861 134.039C126.861 134.15 126.803 134.507 126.803 134.507C126.803 134.507 126.803 134.718 126.803 134.985C126.793 135.081 126.793 135.178 126.803 135.274C126.788 135.717 126.956 136.147 127.27 136.471C127.584 136.794 128.018 136.984 128.478 136.999C128.937 137.014 129.383 136.852 129.719 136.55C130.055 136.247 130.252 135.828 130.267 135.386C130.267 135.386 130.267 135.163 130.267 135.063C130.287 134.961 130.314 134.861 130.348 134.762C130.413 134.587 130.499 134.419 130.602 134.262C130.756 134.047 130.93 133.846 131.122 133.661C131.213 133.577 131.309 133.499 131.41 133.427L131.63 133.271L131.884 133.127L132.091 133.015C133.273 134.122 134.855 134.74 136.502 134.74V134.74C138.149 134.74 139.731 134.122 140.913 133.015L141.12 133.127L141.374 133.271L141.594 133.427C141.695 133.499 141.791 133.577 141.882 133.661C142.074 133.846 142.248 134.047 142.402 134.262C142.505 134.419 142.59 134.587 142.656 134.762C142.69 134.861 142.717 134.961 142.737 135.063C142.737 135.163 142.737 135.386 142.737 135.386C142.752 135.828 142.949 136.247 143.285 136.55C143.621 136.852 144.067 137.014 144.526 136.999C144.986 136.984 145.42 136.794 145.734 136.471C146.048 136.147 146.216 135.717 146.201 135.274V135.274C146.211 135.178 146.211 135.081 146.201 134.985C146.201 134.718 146.201 134.573 146.201 134.529C146.201 134.484 146.201 134.15 146.131 134.039C146.062 133.928 146.131 133.861 146.131 133.805L146.039 133.472C146.01 133.35 145.971 133.231 145.923 133.116L145.762 132.737C145.704 132.604 145.635 132.47 145.566 132.348L145.323 131.958L145.046 131.569C144.942 131.435 144.838 131.313 144.723 131.191C144.246 130.676 143.698 130.226 143.095 129.855L142.968 129.777L143.522 129.644L143.903 129.544L144.619 129.332L145.265 129.11L145.831 128.887L146.085 128.787L146.328 128.676L146.547 128.576L146.697 128.509L146.974 128.353L147.17 128.242C147.552 128.019 147.828 127.663 147.943 127.248C148.057 126.833 147.999 126.391 147.782 126.016" fill="white"/>
    <path d="M38.8123 136.396L41.2998 142.614L44.5382 139.376L50.0905 143.789L54 126.211L34 134.542L38.8123 136.396ZM48.285 131.254L42.1633 136.838L41.4008 139.712L39.9923 136.19L48.285 131.254Z" fill="#7EA935"/>
    <path d="M68.7416 81V71.8777H71.8023L72.2615 68.3216H68.7416V66.0515C68.7416 65.0222 69.0262 64.3208 70.5039 64.3208L72.3854 64.32V61.1392C72.06 61.0969 70.9431 61 69.6431 61C66.9285 61 65.07 62.657 65.07 65.6993V68.3216H62V71.8777H65.07V81H68.7416Z" fill="#7EA935"/>
    <path d="M145.425 54.1225C145.57 53.4712 145.645 52.7963 145.645 52.1038C145.645 46.91 141.375 42.6988 136.106 42.6988C135.551 42.6988 135.006 42.7463 134.475 42.8363C133.623 42.3075 132.614 42 131.533 42C128.476 42 126 44.4412 126 47.455C126 48.4612 126.277 49.4025 126.76 50.2138C126.634 50.8238 126.566 51.4563 126.566 52.1038C126.566 57.2988 130.837 61.51 136.105 61.51C136.702 61.51 137.286 61.455 137.853 61.3525C138.633 61.765 139.522 62 140.469 62C143.524 62 146 59.5575 146 56.5463C146 55.675 145.792 54.8537 145.425 54.1225ZM140.999 56.5987C140.557 57.215 139.906 57.7025 139.06 58.0475C138.224 58.3913 137.223 58.5663 136.08 58.5663C134.71 58.5663 133.561 58.3288 132.664 57.8588C132.022 57.5175 131.495 57.0562 131.094 56.4837C130.687 55.9087 130.484 55.3375 130.484 54.785C130.484 54.4412 130.617 54.1425 130.881 53.8988C131.142 53.655 131.478 53.5338 131.878 53.5338C132.205 53.5338 132.488 53.63 132.718 53.8212C132.936 54.005 133.125 54.2775 133.276 54.6262C133.445 55.0087 133.629 55.3313 133.822 55.5825C134.011 55.8288 134.28 56.0337 134.624 56.195C134.97 56.355 135.436 56.4387 136.009 56.4387C136.797 56.4387 137.445 56.2725 137.93 55.945C138.406 55.6263 138.636 55.2412 138.636 54.7713C138.636 54.4013 138.515 54.1087 138.269 53.88C138.009 53.64 137.666 53.4538 137.251 53.325C136.818 53.1925 136.229 53.0475 135.501 52.8975C134.51 52.6888 133.669 52.4413 133.001 52.16C132.317 51.8725 131.765 51.475 131.362 50.9775C130.952 50.4713 130.745 49.8375 130.745 49.0925C130.745 48.3825 130.963 47.7425 131.393 47.19C131.819 46.6412 132.441 46.2125 133.245 45.9213C134.036 45.6325 134.977 45.4863 136.044 45.4863C136.895 45.4863 137.644 45.5837 138.27 45.7762C138.899 45.9687 139.429 46.2288 139.845 46.55C140.265 46.875 140.577 47.2187 140.772 47.5787C140.97 47.9412 141.071 48.3025 141.071 48.6513C141.071 48.9875 140.94 49.2937 140.68 49.5587C140.418 49.8275 140.088 49.9625 139.7 49.9625C139.348 49.9625 139.07 49.8763 138.879 49.71C138.7 49.5538 138.514 49.31 138.309 48.9625C138.071 48.5175 137.782 48.1663 137.452 47.9175C137.131 47.6763 136.596 47.5563 135.859 47.5563C135.176 47.5563 134.619 47.6913 134.206 47.9588C133.809 48.215 133.615 48.51 133.615 48.86C133.615 49.0737 133.677 49.2525 133.806 49.4063C133.941 49.5713 134.132 49.7125 134.375 49.8325C134.625 49.9562 134.884 50.0562 135.143 50.1262C135.408 50.1987 135.851 50.3075 136.462 50.4462C137.235 50.6087 137.944 50.7925 138.571 50.9912C139.208 51.19 139.755 51.4363 140.205 51.725C140.661 52.0188 141.022 52.3938 141.28 52.8438C141.537 53.2975 141.668 53.8538 141.668 54.5013C141.666 55.275 141.441 55.9812 140.999 56.5987Z" fill="#7EA935"/>
    <path d="M214.822 75.4723C214.768 75.3823 214.435 74.6597 212.835 73.1746C211.16 71.6195 211.385 71.872 213.403 69.1831C214.632 67.5455 215.123 66.5454 214.969 66.1179C214.823 65.7103 213.919 65.8178 213.919 65.8178L210.914 65.8353C210.914 65.8353 210.691 65.8053 210.525 65.9041C210.364 66.0016 210.26 66.2266 210.26 66.2266C210.26 66.2266 209.784 67.4942 209.149 68.5718C207.81 70.8457 207.274 70.9657 207.055 70.8245C206.546 70.4957 206.674 69.5019 206.674 68.7968C206.674 66.5929 207.007 65.6741 206.022 65.4366C205.695 65.3578 205.455 65.3053 204.618 65.2966C203.546 65.2853 202.637 65.3003 202.123 65.5516C201.781 65.7191 201.517 66.0929 201.678 66.1141C201.877 66.1404 202.327 66.2354 202.566 66.5604C202.875 66.9792 202.863 67.9217 202.863 67.9217C202.863 67.9217 203.041 70.5157 202.45 70.8382C202.043 71.0595 201.487 70.6082 200.293 68.5443C199.682 67.488 199.219 66.3191 199.219 66.3191C199.219 66.3191 199.131 66.1016 198.972 65.9854C198.779 65.8441 198.509 65.7991 198.509 65.7991L195.652 65.8166C195.652 65.8166 195.223 65.8291 195.065 66.0154C194.925 66.1816 195.054 66.5241 195.054 66.5241C195.054 66.5241 197.292 71.7583 199.824 74.3972C202.148 76.8162 204.786 76.6574 204.786 76.6574H205.981C205.981 76.6574 206.342 76.6174 206.526 76.4186C206.696 76.2361 206.69 75.8936 206.69 75.8936C206.69 75.8936 206.666 74.2897 207.411 74.0535C208.145 73.8209 209.088 75.6036 210.086 76.2899C210.841 76.8087 211.415 76.6949 211.415 76.6949L214.087 76.6574C214.087 76.6574 215.484 76.5711 214.822 75.4723Z" fill="#7EA935"/>
    <path d="M227.002 124H226.998C221.484 124 217 128.485 217 134C217 136.188 217.705 138.215 218.904 139.861L217.658 143.576L221.501 142.348C223.083 143.395 224.969 144 227.002 144C232.516 144 237 139.514 237 134C237 128.486 232.516 124 227.002 124ZM232.821 138.121C232.58 138.802 231.622 139.367 230.859 139.532C230.336 139.644 229.654 139.733 227.356 138.78C224.417 137.563 222.525 134.576 222.378 134.382C222.236 134.189 221.19 132.801 221.19 131.366C221.19 129.931 221.919 129.233 222.213 128.933C222.454 128.686 222.852 128.574 223.235 128.574C223.359 128.574 223.47 128.58 223.57 128.585C223.864 128.597 224.011 128.615 224.205 129.079C224.446 129.66 225.034 131.095 225.104 131.243C225.175 131.39 225.246 131.59 225.146 131.784C225.053 131.984 224.97 132.072 224.822 132.242C224.675 132.412 224.535 132.543 224.387 132.725C224.252 132.884 224.1 133.054 224.27 133.348C224.44 133.635 225.027 134.594 225.892 135.364C227.009 136.357 227.914 136.675 228.237 136.81C228.479 136.91 228.766 136.886 228.942 136.699C229.166 136.458 229.442 136.058 229.724 135.664C229.924 135.381 230.176 135.346 230.441 135.446C230.711 135.54 232.14 136.246 232.434 136.392C232.728 136.54 232.921 136.61 232.992 136.734C233.062 136.858 233.062 137.439 232.821 138.121Z" fill="#7EA935"/>
    <circle cx="227" cy="135" r="22" fill="#EEEFEF"/>
    <g clip-path="url(#clip0_718_9601)">
        <path d="M231.727 125.625H218.758C217.788 125.625 217 126.414 217 127.383V136.758C217 137.727 217.788 138.516 218.758 138.516C219.988 138.516 220.153 138.516 220.153 138.516H220.516V141.445C220.516 141.968 221.149 142.226 221.516 141.86C223.152 140.224 222.003 141.373 224.688 138.688C224.798 138.577 224.947 138.516 225.102 138.516H231.727C232.696 138.516 233.484 137.727 233.484 136.758C233.484 131.287 233.484 132.867 233.484 127.383C233.485 126.414 232.696 125.625 231.727 125.625ZM219.93 129.141H228.211C228.535 129.141 228.797 129.403 228.797 129.727C228.797 130.05 228.535 130.313 228.211 130.313H219.93C219.606 130.313 219.344 130.05 219.344 129.727C219.344 129.403 219.606 129.141 219.93 129.141ZM225.867 135H219.93C219.606 135 219.344 134.738 219.344 134.414C219.344 134.09 219.606 133.828 219.93 133.828H225.867C226.191 133.828 226.453 134.09 226.453 134.414C226.453 134.738 226.191 135 225.867 135ZM230.555 132.656H219.93C219.606 132.656 219.344 132.394 219.344 132.07C219.344 131.747 219.606 131.484 219.93 131.484H230.555C230.879 131.484 231.141 131.747 231.141 132.07C231.141 132.394 230.879 132.656 230.555 132.656Z" fill="#7EA935"/>
        <path d="M235.243 127.968H234.665V136.757C234.665 138.372 233.342 139.687 231.727 139.687H225.424L224.174 140.851H229.141L232.485 144.203C232.852 144.57 233.485 144.312 233.485 143.788V140.851H235.243C236.212 140.851 237 140.07 237 139.101V129.726C237.001 128.756 236.212 127.968 235.243 127.968Z" fill="#7EA935"/>
    </g>
    <circle cx="67" cy="71" r="22" fill="#EEEFEF"/>
    <g clip-path="url(#clip1_718_9601)">
        <path d="M71.7267 61.625H58.7578C57.7883 61.625 57 62.4137 57 63.3828V72.7579C57 73.7274 57.7883 74.5157 58.7578 74.5157C59.9879 74.5157 60.1531 74.5157 60.1531 74.5157H60.5156V77.4455C60.5156 77.9681 61.1492 78.2263 61.5156 77.8599C63.1516 76.2236 62.0027 77.3728 64.6879 74.6876C64.7981 74.5774 64.9465 74.5157 65.1024 74.5157H71.7267C72.6958 74.5157 73.4845 73.7274 73.4845 72.7579C73.4845 67.2868 73.4845 68.8672 73.4845 63.3828C73.4845 62.4137 72.6958 61.625 71.7267 61.625ZM59.9297 65.1406H68.2111C68.5349 65.1406 68.797 65.4027 68.797 65.7266C68.797 66.0504 68.5349 66.3125 68.2111 66.3125H59.9297C59.6059 66.3125 59.3438 66.0504 59.3438 65.7266C59.3438 65.4027 59.6059 65.1406 59.9297 65.1406ZM65.8673 71.0001H59.9297C59.6059 71.0001 59.3438 70.738 59.3438 70.4142C59.3438 70.0903 59.6059 69.8282 59.9297 69.8282H65.8673C66.1911 69.8282 66.4532 70.0903 66.4532 70.4142C66.4532 70.738 66.1911 71.0001 65.8673 71.0001ZM70.5548 68.6563H59.9297C59.6059 68.6563 59.3438 68.3942 59.3438 68.0704C59.3438 67.7465 59.6059 67.4844 59.9297 67.4844H70.5548C70.8787 67.4844 71.1408 67.7465 71.1408 68.0704C71.1408 68.3942 70.8787 68.6563 70.5548 68.6563Z" fill="#7EA935"/>
        <path d="M75.2427 63.9678H74.6646V72.7569C74.6646 74.3723 73.3424 75.6867 71.727 75.6867H65.4236L64.1736 76.8507H69.1407L72.4847 80.2025C72.852 80.5699 73.4849 80.3121 73.4849 79.7883V76.8507H75.2427C76.212 76.8507 77.0005 76.07 77.0005 75.1007V65.7256C77.0005 64.7563 76.212 63.9678 75.2427 63.9678Z" fill="#7EA935"/>
    </g>
    <defs>
        <clipPath id="clip0_718_9601">
            <rect width="20" height="20" fill="white" transform="translate(217 125)"/>
        </clipPath>
        <clipPath id="clip1_718_9601">
            <rect width="20" height="20" fill="white" transform="translate(57 61)"/>
        </clipPath>
    </defs>
</svg>
