<svg width="272" height="281" viewBox="0 0 272 281" fill="none" xmlns="http://www.w3.org/2000/svg">
<rect width="272" height="281" rx="8" fill="white"/>
<rect opacity="0.2" x="36" y="39" width="3" height="124" rx="1.5" fill="#AAADAE"/>
<rect opacity="0.2" x="90" y="39" width="3" height="124" rx="1.5" fill="#AAADAE"/>
<rect opacity="0.2" x="144" y="39" width="3" height="124" rx="1.5" fill="#AAADAE"/>
<rect opacity="0.2" x="198" y="39" width="3" height="124" rx="1.5" fill="#AAADAE"/>
<rect opacity="0.2" x="54" y="39" width="3" height="124" rx="1.5" fill="#AAADAE"/>
<rect opacity="0.2" x="108" y="39" width="3" height="124" rx="1.5" fill="#AAADAE"/>
<rect opacity="0.2" x="162" y="39" width="3" height="124" rx="1.5" fill="#AAADAE"/>
<rect opacity="0.2" x="216" y="39" width="3" height="124" rx="1.5" fill="#AAADAE"/>
<rect opacity="0.2" x="72" y="39" width="3" height="124" rx="1.5" fill="#AAADAE"/>
<rect opacity="0.2" x="126" y="39" width="3" height="124" rx="1.5" fill="#AAADAE"/>
<rect opacity="0.2" x="180" y="39" width="3" height="124" rx="1.5" fill="#AAADAE"/>
<rect opacity="0.2" x="234" y="39" width="3" height="124" rx="1.5" fill="#AAADAE"/>
<rect x="36" y="156" width="3" height="7" rx="1.5" fill="#7EA935"/>
<rect x="90" y="139" width="3" height="24" rx="1.5" fill="#7EA935"/>
<rect x="144" y="107" width="3" height="56" rx="1.5" fill="#7EA935"/>
<rect x="198" y="67" width="3" height="96" rx="1.5" fill="#7EA935"/>
<rect x="54" y="151" width="3" height="12" rx="1.5" fill="#7EA935"/>
<rect x="108" y="129" width="3" height="34" rx="1.5" fill="#7EA935"/>
<rect x="162" y="95" width="3" height="68" rx="1.5" fill="#7EA935"/>
<rect x="216" y="56" width="3" height="107" rx="1.5" fill="#7EA935"/>
<rect x="72" y="145" width="3" height="18" rx="1.5" fill="#7EA935"/>
<rect x="126" y="119" width="3" height="44" rx="1.5" fill="#7EA935"/>
<rect x="180" y="80" width="3" height="83" rx="1.5" fill="#7EA935"/>
<rect x="234" y="45" width="3" height="118" rx="1.5" fill="#7EA935"/>
</svg>
