<svg width="272" height="281" viewBox="0 0 272 281" fill="none" xmlns="http://www.w3.org/2000/svg">
<rect width="272" height="281" rx="8" fill="white"/>
<path opacity="0.2" d="M67 144.004C66.9993 140.569 67.93 137.197 69.6931 134.249C71.4562 131.3 73.9857 128.885 77.0124 127.26C80.0392 125.635 83.4498 124.861 86.8815 125.02C90.3132 125.18 93.6374 126.267 96.5005 128.165C99.3636 130.064 101.658 132.703 103.141 135.802C104.623 138.901 105.237 142.345 104.918 145.765C104.599 149.186 103.358 152.456 101.328 155.227C99.2983 157.999 96.5549 160.168 93.39 161.504L99.08 168.684L81.31 162.414C77.2182 161.372 73.5902 158.996 70.9988 155.662C68.4075 152.328 67.0005 148.226 67 144.004Z" fill="#AAADAE"/>
<path d="M85.9857 149.876C87.6214 149.876 88 150.512 88 151.95C88 153.387 87.6214 154 85.9857 154C84.35 154 84 153.395 84 151.95C84 150.504 84.35 149.876 85.9857 149.876ZM87.9 139.255L86.9429 148.462H85.0571L84.0786 139.255V134H87.9V139.255Z" fill="#7EA935"/>
<path opacity="0.2" d="M175 111.966C174.994 107.99 173.91 104.09 171.865 100.681C169.819 97.272 166.888 94.4809 163.383 92.6045C159.878 90.7281 155.93 89.8365 151.959 90.0246C147.988 90.2127 144.142 91.4734 140.83 93.6727C137.518 95.872 134.864 98.9276 133.15 102.515C131.436 106.102 130.726 110.087 131.095 114.045C131.465 118.003 132.9 121.788 135.249 124.996C137.597 128.204 140.771 130.715 144.433 132.263L137.841 140.574L158.42 133.347C163.17 132.138 167.38 129.379 170.384 125.505C173.387 121.632 175.012 116.867 175 111.966Z" fill="#AAADAE"/>
<path d="M146 108.463C146.057 103.293 148.619 102 152.943 102C157.153 102 160 103.234 160 108.029C160 111.389 158.608 112.224 156.486 113.458C154.98 114.351 154.774 114.839 154.774 117.077H151.18C151.18 113.029 151.848 112.512 153.998 111.102C155.282 110.267 156.035 109.78 156.035 107.917C156.035 105.937 155.196 105.273 153.08 105.273C150.627 105.273 150.153 106.166 149.902 108.463H146ZM153.057 118.717C154.871 118.717 155.288 119.375 155.288 120.873C155.288 122.371 154.871 123 153.057 123C151.243 123 150.855 122.365 150.855 120.873C150.855 119.381 151.243 118.711 153.051 118.711L153.057 118.717Z" fill="#7EA935"/>
<path opacity="0.2" d="M180.738 31H226.329C227.586 31 228.791 31.4991 229.679 32.3876C230.568 33.2761 231.067 34.4811 231.067 35.7376V66.0109C231.067 67.2674 230.568 68.4724 229.679 69.3609C228.791 70.2493 227.586 70.7485 226.329 70.7485H223.297L212.985 83.54L213.775 70.7485H180.738C179.481 70.7485 178.276 70.2493 177.388 69.3609C176.499 68.4724 176 67.2674 176 66.0109V35.7692C175.996 35.1444 176.115 34.5249 176.352 33.9465C176.588 33.368 176.936 32.842 177.377 32.3988C177.817 31.9555 178.341 31.6037 178.917 31.3636C179.494 31.1236 180.113 31 180.738 31Z" fill="#AAADAE"/>
<path fill-rule="evenodd" clip-rule="evenodd" d="M193.798 37.6432C193.182 37.2151 192.454 36.9775 191.704 36.96C191.654 36.9665 191.601 36.9723 191.546 36.9783C191.365 36.9983 191.163 37.0205 190.94 37.0803C190.104 37.274 189.357 37.739 188.814 38.4026C188.27 39.0661 187.962 39.891 187.938 40.7481C187.902 41.8399 188.11 42.9259 188.546 43.9274C188.817 44.5704 189.223 45.1476 189.736 45.6197C190.227 46.0928 190.869 46.3785 191.549 46.4269C192.277 46.4589 192.988 46.2047 193.531 45.7188C194.214 45.1315 194.725 44.3707 195.011 43.5167C195.234 42.8759 195.377 42.21 195.436 41.5341C195.53 40.8007 195.437 40.0555 195.167 39.3674C194.889 38.6708 194.413 38.0712 193.798 37.6432ZM195.854 46.2357C195.493 46.1054 195.117 46.0244 194.735 45.995C194.707 46.2164 194.627 46.4281 194.501 46.6126C194.376 46.7972 194.208 46.9495 194.013 47.0571C193.912 47.1251 193.805 47.1844 193.694 47.2341C193.08 47.5068 192.415 47.6477 191.743 47.6477C191.071 47.6477 190.407 47.5068 189.793 47.2341C189.518 47.1487 189.273 46.988 189.085 46.7702C188.897 46.5524 188.775 46.2863 188.731 46.0021H188.603C187.689 46.1084 186.823 46.4705 186.106 47.0466C185.388 47.6228 184.847 48.3897 184.546 49.2592C184.509 49.3402 184.494 49.4299 184.504 49.5185C184.514 49.6071 184.548 49.6913 184.603 49.762C185.379 50.9572 186.443 51.9379 187.698 52.6139C188.953 53.2899 190.358 53.6393 191.783 53.6302C193.208 53.621 194.608 53.2535 195.854 52.5614C197.1 51.8694 198.152 50.875 198.913 49.6699C198.944 49.6304 198.964 49.5835 198.971 49.5339C198.979 49.4842 198.973 49.4335 198.955 49.3867C198.721 48.6554 198.318 47.9894 197.779 47.4421C197.241 46.8949 196.581 46.4817 195.854 46.2357ZM223.412 57.1612H185.679C185.354 57.1612 185.091 57.4244 185.091 57.7489V58.0038C185.091 58.3284 185.354 58.5915 185.679 58.5915H223.412C223.737 58.5915 224 58.3284 224 58.0038V57.7489C224 57.4244 223.737 57.1612 223.412 57.1612ZM185.679 61.4239H223.412C223.737 61.4239 224 61.687 224 62.0116V62.2665C224 62.591 223.737 62.8542 223.412 62.8542H185.679C185.354 62.8542 185.091 62.591 185.091 62.2665V62.0116C185.091 61.687 185.354 61.4239 185.679 61.4239ZM223.412 47.9209H202.687C202.362 47.9209 202.099 48.1841 202.099 48.5087V48.7636C202.099 49.0881 202.362 49.3513 202.687 49.3513H223.412C223.737 49.3513 224 49.0881 224 48.7636V48.5087C224 48.1841 223.737 47.9209 223.412 47.9209ZM202.687 43.446H223.412C223.737 43.446 224 43.7091 224 44.0337V44.2886C224 44.6131 223.737 44.8763 223.412 44.8763H202.687C202.362 44.8763 202.099 44.6131 202.099 44.2886V44.0337C202.099 43.7091 202.362 43.446 202.687 43.446ZM223.412 38.6807H202.687C202.362 38.6807 202.099 38.9438 202.099 39.2684V39.5233C202.099 39.8478 202.362 40.111 202.687 40.111H223.412C223.737 40.111 224 39.8478 224 39.5233V39.2684C224 38.9438 223.737 38.6807 223.412 38.6807ZM202.687 52.1765H223.412C223.737 52.1765 224 52.4396 224 52.7642V53.0191C224 53.3436 223.737 53.6068 223.412 53.6068H202.687C202.362 53.6068 202.099 53.3436 202.099 53.0191V52.7642C202.099 52.4396 202.362 52.1765 202.687 52.1765Z" fill="#7EA935"/>
<path opacity="0.2" d="M224 150C235.046 150 244 141.046 244 130C244 118.954 235.046 110 224 110C212.954 110 204 118.954 204 130C204 141.046 212.954 150 224 150Z" fill="#AAADAE"/>
<path fill-rule="evenodd" clip-rule="evenodd" d="M224.358 119.807L223.802 119.743L223.586 119.76H223.548C223.399 119.795 223.269 119.882 223.18 120.006C223.092 120.13 223.051 120.282 223.066 120.434C223.081 120.585 223.151 120.726 223.262 120.83C223.373 120.934 223.519 120.994 223.671 120.999C225.167 121.093 226.627 121.495 227.961 122.179C229.322 122.865 230.52 123.838 231.472 125.029C232.424 126.22 233.108 127.603 233.477 129.082C233.571 129.426 233.633 129.783 233.695 130.138L233.695 130.139C233.711 130.231 233.728 130.323 233.744 130.415C233.761 130.556 233.824 130.687 233.923 130.789C234.022 130.891 234.151 130.958 234.292 130.979C234.436 130.999 234.583 130.967 234.707 130.889C234.831 130.812 234.924 130.694 234.97 130.555C234.979 130.536 234.989 130.518 235 130.5V130.215C234.993 130.176 234.983 130.137 234.973 130.098C234.955 130.025 234.936 129.953 234.936 129.88C234.519 127.275 233.258 124.878 231.347 123.059C229.436 121.239 226.981 120.097 224.358 119.807ZM225.279 123.121C224.754 122.968 224.215 122.866 223.671 122.815C223.61 122.818 223.549 122.825 223.488 122.836C223.343 122.869 223.213 122.952 223.124 123.072C223.035 123.192 222.991 123.339 223.002 123.488C223.012 123.637 223.075 123.777 223.18 123.884C223.285 123.99 223.424 124.055 223.573 124.067C223.638 124.077 223.704 124.084 223.769 124.092L223.769 124.092C223.878 124.105 223.986 124.118 224.095 124.139C225.663 124.404 227.11 125.152 228.233 126.279C229.355 127.405 230.098 128.854 230.358 130.423C230.384 130.573 230.463 130.708 230.581 130.803C230.699 130.898 230.847 130.947 230.999 130.941C231.149 130.938 231.293 130.88 231.403 130.777C231.513 130.675 231.58 130.535 231.593 130.385C231.596 130.225 231.577 130.065 231.538 129.91C231.223 128.311 230.471 126.83 229.366 125.632C228.262 124.434 226.847 123.565 225.279 123.121ZM223.628 125.981C224.033 126.024 224.431 126.118 224.812 126.261C225.691 126.567 226.476 127.092 227.094 127.787C227.712 128.483 228.142 129.324 228.343 130.232C228.388 130.38 228.378 130.54 228.313 130.68C228.249 130.821 228.134 130.933 227.992 130.994C227.85 131.056 227.691 131.063 227.544 131.014C227.397 130.965 227.273 130.863 227.197 130.729C227.161 130.661 227.136 130.588 227.121 130.512C226.933 129.671 226.493 128.907 225.86 128.322C225.227 127.737 224.431 127.358 223.577 127.237C223.422 127.225 223.277 127.157 223.169 127.045C223.061 126.933 222.998 126.785 222.992 126.63C222.987 126.484 223.034 126.341 223.124 126.225C223.214 126.11 223.341 126.029 223.484 125.998C223.532 125.99 223.58 125.984 223.628 125.981ZM227.99 141.125H228.101L227.992 141.124C228.071 141.11 228.149 141.098 228.226 141.087C228.358 141.067 228.486 141.048 228.606 141.019C229.341 140.871 230.028 140.541 230.604 140.06C231.18 139.579 231.626 138.962 231.903 138.265C232.047 137.922 232.089 137.545 232.026 137.178C232 136.803 231.85 136.446 231.6 136.165C231.349 135.884 231.013 135.694 230.642 135.625C229.526 135.376 228.397 135.16 227.272 134.944L227.197 134.93C226.714 134.832 226.22 134.799 225.729 134.832C225.575 134.83 225.423 134.868 225.289 134.942C225.154 135.017 225.041 135.125 224.961 135.256C224.928 135.313 224.895 135.37 224.862 135.426C224.75 135.62 224.638 135.813 224.536 136.003L224.205 136.559C221.508 135.342 219.286 133.271 217.883 130.665C217.893 130.659 217.904 130.652 217.914 130.646C218.025 130.577 218.131 130.511 218.24 130.453C218.592 130.272 218.928 130.059 219.241 129.816C219.399 129.694 219.503 129.514 219.529 129.316C219.58 128.93 219.568 128.539 219.495 128.157C219.251 126.787 218.937 125.43 218.554 124.092C218.5 123.856 218.393 123.635 218.24 123.447C217.957 123.157 217.6 122.95 217.208 122.849C216.816 122.748 216.404 122.757 216.016 122.875C215.498 123.061 215.024 123.349 214.62 123.723C213.797 124.483 213.262 125.504 213.105 126.613C213.08 126.763 213.062 126.913 213.044 127.063C213.035 127.138 213.026 127.213 213.016 127.288V128.081C213.016 128.201 213.034 128.322 213.053 128.442C213.061 128.496 213.069 128.549 213.076 128.603C213.224 129.726 213.564 130.815 214.081 131.824C214.997 133.626 216.264 135.227 217.807 136.533C219.441 137.975 221.273 139.175 223.246 140.098C224.205 140.552 225.222 140.87 226.268 141.044C226.324 141.053 226.381 141.06 226.437 141.068C226.546 141.083 226.657 141.098 226.768 141.12L227.992 141.124C227.992 141.124 227.991 141.125 227.99 141.125Z" fill="#7EA935"/>
<path opacity="0.2" d="M91.9109 44.0001H39.0647C37.7214 44.0001 36.4332 44.5337 35.4834 45.4835C34.5336 46.4333 34 47.7215 34 49.0647V78.6953C34 80.0385 34.5336 81.3267 35.4834 82.2765C36.4332 83.2264 37.7214 83.7599 39.0647 83.7599H42.3088L53.2629 97.3533L52.4198 83.7599H91.9353C93.2785 83.7599 94.5668 83.2264 95.5166 82.2765C96.4664 81.3267 97 80.0385 97 78.6953V49.0647C97 48.3976 96.8682 47.737 96.6121 47.1209C96.3561 46.5048 95.9808 45.9454 95.508 45.4748C95.0351 45.0042 94.4738 44.6316 93.8565 44.3785C93.2393 44.1255 92.578 43.9968 91.9109 44.0001Z" fill="#AAADAE"/>
<path fill-rule="evenodd" clip-rule="evenodd" d="M47.3884 52.7537C47.3884 53.7099 46.6133 54.485 45.6571 54.485C44.701 54.485 43.9259 53.7099 43.9259 52.7537C43.9259 51.7976 44.701 51.0225 45.6571 51.0225C46.6133 51.0225 47.3884 51.7976 47.3884 52.7537ZM54.898 52.7537C54.898 53.7099 54.1229 54.485 53.1667 54.485C52.2106 54.485 51.4355 53.7099 51.4355 52.7537C51.4355 51.7976 52.2106 51.0225 53.1667 51.0225C54.1229 51.0225 54.898 51.7976 54.898 52.7537ZM60.6763 54.485C61.6325 54.485 62.4076 53.7099 62.4076 52.7537C62.4076 51.7976 61.6325 51.0225 60.6763 51.0225C59.7202 51.0225 58.9451 51.7976 58.9451 52.7537C58.9451 53.7099 59.7202 54.485 60.6763 54.485ZM43.8752 60.8704H87.1061C87.3431 60.8704 87.5705 60.7763 87.7381 60.6087C87.9057 60.441 87.9998 60.2137 87.9998 59.9767C87.9998 59.7397 87.9057 59.5123 87.7381 59.3447C87.5705 59.1771 87.3431 59.0829 87.1061 59.0829H43.8752C43.6381 59.0829 43.4108 59.1771 43.2432 59.3447C43.0756 59.5123 42.9814 59.7397 42.9814 59.9767C42.9814 60.2137 43.0756 60.441 43.2432 60.6087C43.4108 60.7763 43.6381 60.8704 43.8752 60.8704ZM87.1061 66.8062H43.8752C43.6381 66.8062 43.4108 66.712 43.2432 66.5444C43.0756 66.3768 42.9814 66.1495 42.9814 65.9125C42.9814 65.6754 43.0756 65.4481 43.2432 65.2805C43.4108 65.1129 43.6381 65.0187 43.8752 65.0187H87.1061C87.3431 65.0187 87.5705 65.1129 87.7381 65.2805C87.9057 65.4481 87.9998 65.6754 87.9998 65.9125C87.9998 66.1495 87.9057 66.3768 87.7381 66.5444C87.5705 66.712 87.3431 66.8062 87.1061 66.8062ZM43.8752 73.2983H87.1061C87.3431 73.2983 87.5705 73.2042 87.7381 73.0366C87.9057 72.869 87.9998 72.6416 87.9998 72.4046C87.9998 72.1676 87.9057 71.9403 87.7381 71.7727C87.5705 71.605 87.3431 71.5109 87.1061 71.5109H43.8752C43.6381 71.5109 43.4108 71.605 43.2432 71.7727C43.0756 71.9403 42.9814 72.1676 42.9814 72.4046C42.9814 72.6416 43.0756 72.869 43.2432 73.0366C43.4108 73.2042 43.6381 73.2983 43.8752 73.2983Z" fill="#7EA935"/>
<path opacity="0.2" d="M179.5 175C184.747 175 189 170.747 189 165.5C189 160.253 184.747 156 179.5 156C174.253 156 170 160.253 170 165.5C170 170.747 174.253 175 179.5 175Z" fill="#AAADAE"/>
<path opacity="0.2" d="M133.5 69C137.642 69 141 65.6421 141 61.5C141 57.3579 137.642 54 133.5 54C129.358 54 126 57.3579 126 61.5C126 65.6421 129.358 69 133.5 69Z" fill="#AAADAE"/>
<path opacity="0.2" d="M244 94C246.209 94 248 92.2091 248 90C248 87.7909 246.209 86 244 86C241.791 86 240 87.7909 240 90C240 92.2091 241.791 94 244 94Z" fill="#AAADAE"/>
<path opacity="0.2" d="M38.5 138C43.1944 138 47 134.194 47 129.5C47 124.806 43.1944 121 38.5 121C33.8056 121 30 124.806 30 129.5C30 134.194 33.8056 138 38.5 138Z" fill="#AAADAE"/>
</svg>
