<svg width="272" height="281" viewBox="0 0 272 281" fill="none" xmlns="http://www.w3.org/2000/svg">
<rect width="272" height="281" rx="8" fill="white"/>
<mask id="mask0" mask-type="alpha" maskUnits="userSpaceOnUse" x="0" y="0" width="272" height="281">
<rect width="272" height="281" rx="8" fill="white"/>
</mask>
<g mask="url(#mask0)">
<path opacity="0.47" d="M-74 298C-53.5779 239.079 -29.0751 129.406 -14.5858 134.897C-0.0964584 140.389 21.0609 167.115 45.0259 114.463C68.9909 61.8111 98.0865 76.7536 107.128 89.457C119.244 106.379 136.524 147.271 154.205 147.271C176.616 147.436 196.487 57.2152 221.555 50.946C246.623 44.6768 265.557 71.5685 281.166 72.9354C288.455 73.5858 302.685 66.1219 308.934 62.6007C310.293 61.8349 312 62.8178 312 64.3775V298H-74Z" fill="url(#paint0_linear)"/>
<path d="M-67 152C-44.6081 152 -33.3872 117.983 -12.3252 112.013C8.73683 106.043 19.2595 143.918 43.6462 143.199C76.8933 142.216 71.3577 59.5871 98.5039 52.7369C125.65 45.8866 126.897 88.8512 138.899 96.7576C156.636 108.493 164.366 70.618 191.546 69.2685C233.653 67.1709 242.53 118.629 262.478 117.22C282.427 115.812 283.457 52.6782 312 52.6782" stroke="#7EA935" stroke-width="2" stroke-linecap="round" stroke-linejoin="round"/>
</g>
<g filter="url(#filter0_d)">
<circle cx="204" cy="69" r="15" fill="white"/>
</g>
<circle cx="204" cy="69" r="6" fill="#7EA935"/>
<defs>
<filter id="filter0_d" x="179" y="48" width="50" height="50" filterUnits="userSpaceOnUse" color-interpolation-filters="sRGB">
<feFlood flood-opacity="0" result="BackgroundImageFix"/>
<feColorMatrix in="SourceAlpha" type="matrix" values="0 0 0 0 0 0 0 0 0 0 0 0 0 0 0 0 0 0 127 0"/>
<feOffset dy="4"/>
<feGaussianBlur stdDeviation="5"/>
<feColorMatrix type="matrix" values="0 0 0 0 0 0 0 0 0 0 0 0 0 0 0 0 0 0 0.07 0"/>
<feBlend mode="normal" in2="BackgroundImageFix" result="effect1_dropShadow"/>
<feBlend mode="normal" in="SourceGraphic" in2="effect1_dropShadow" result="shape"/>
</filter>
<linearGradient id="paint0_linear" x1="121.5" y1="61.3235" x2="124" y2="213.5" gradientUnits="userSpaceOnUse">
<stop stop-color="#7EA935" stop-opacity="0.54"/>
<stop offset="1" stop-color="#7EA935" stop-opacity="0"/>
</linearGradient>
</defs>
</svg>
