<svg width="272" height="281" viewBox="0 0 272 281" fill="none" xmlns="http://www.w3.org/2000/svg">
<mask id="mask0" mask-type="alpha" maskUnits="userSpaceOnUse" x="0" y="0" width="272" height="281">
<rect width="272" height="281" rx="8" fill="white"/>
</mask>
<g mask="url(#mask0)">
<path opacity="0.2" d="M237.546 14.2349C236.385 14.2349 235.227 14.3499 234.089 14.5791C233.232 10.316 230.459 6.67945 226.565 4.71111C222.673 2.74276 218.088 2.6602 214.126 4.48657C210.54 -5.34974 199.627 -10.4284 189.75 -6.85745C179.873 -3.28649 174.773 7.58299 178.359 17.4185C169.707 17.6909 162.872 24.8228 163.002 33.4423C163.132 42.0626 170.179 48.9861 178.835 49H237.546C247.185 49 255 41.2177 255 31.6175C255 22.0173 247.185 14.2349 237.546 14.2349Z" fill="#AAADAE"/>
<path opacity="0.2" d="M46.5456 74.2349C45.385 74.2349 44.2267 74.3499 43.0893 74.5791C42.2316 70.316 39.4586 66.6795 35.5653 64.7111C31.6728 62.7428 27.0884 62.6602 23.1261 64.4866C19.5404 54.6503 8.62676 49.5716 -1.25023 53.1426C-11.1272 56.7135 -16.2269 67.583 -12.6411 77.4185C-21.2932 77.6909 -28.1276 84.8228 -27.9982 93.4423C-27.868 102.063 -20.8213 108.986 -12.1646 109H46.5456C56.1847 109 64 101.218 64 91.6175C64 82.0173 56.1847 74.2349 46.5456 74.2349Z" fill="#AAADAE"/>
<path d="M0.673623 85.381L-7.6471 93.8978C-8.56498 92.7651 -9.04541 91.3238 -8.99662 89.8494C-8.94782 88.375 -8.37323 86.9708 -7.38258 85.905C-6.35258 84.7856 -4.94915 84.1094 -3.45453 84.0121C-1.95992 83.9149 -0.484993 84.404 0.673623 85.381Z" fill="#7EA935"/>
<path d="M1.79498 96.0616C-0.740917 98.3766 -5.08241 98.6075 -7.96045 96.0616L-3.07268 90.9551L1.79498 96.0616ZM-1.51721 94.3683C-1.54933 94.3201 -1.58388 94.2737 -1.62072 94.2292C-2.07212 93.7644 -2.52352 93.3026 -2.97204 92.8349C-3.06692 92.7372 -3.12442 92.7579 -3.2078 92.8349C-3.6477 93.2937 -4.09335 93.7467 -4.53325 94.2055C-4.57063 94.244 -4.59938 94.2884 -4.65689 94.3594L-1.51721 94.3683Z" fill="#7EA935"/>
<path d="M-2.1499 90.0523L1.4958 86.2246C2.36477 87.3003 2.84196 88.6544 2.84511 90.0535C2.84826 91.4527 2.37716 92.8091 1.51305 93.8889L-2.1499 90.0523Z" fill="#7EA935"/>
<path d="M11.441 91.2277L12.016 92.0211C11.4301 92.6283 10.6462 92.9902 9.81608 93.0367C8.98595 93.0832 8.16859 92.8109 7.52214 92.2727C7.20651 91.9753 6.95111 91.6165 6.77063 91.217C6.59016 90.8176 6.48817 90.3853 6.47053 89.9451C6.4529 89.5049 6.51997 89.0655 6.66787 88.6521C6.81578 88.2386 7.04161 87.8594 7.33238 87.5362C8.66071 86.1241 10.889 86.435 11.8579 87.4415L11.3346 88.2733L11.1765 88.1549C10.8943 87.9305 10.5685 87.7712 10.2212 87.688C9.87393 87.6047 9.51331 87.5994 9.16386 87.6724C8.71893 87.7686 8.32037 88.0212 8.03656 88.3868C7.75275 88.7525 7.60137 89.2085 7.6084 89.6765C7.56409 90.1785 7.69279 90.6805 7.97194 91.0946C8.25108 91.5087 8.66286 91.8084 9.13511 91.9412C9.51466 92.0304 9.9096 92.0231 10.2858 91.9199C10.662 91.8168 11.0082 91.6209 11.2944 91.3491L11.4094 91.2455L11.441 91.2277Z" fill="#7EA935"/>
<path d="M45 92.9295H43.9132V92.7312C43.9132 91.92 43.9132 91.1119 43.9132 90.3007C43.9145 90.1426 43.899 89.9848 43.8672 89.83C43.8453 89.7072 43.7836 89.5955 43.6923 89.5133C43.6009 89.4311 43.4852 89.3831 43.364 89.3771C43.2022 89.3553 43.0377 89.3672 42.8804 89.4122C42.7231 89.4573 42.5762 89.5344 42.4485 89.6391C42.3208 89.7438 42.2149 89.8739 42.137 90.0216C42.0592 90.1694 42.011 90.3318 41.9954 90.4991C41.9494 91.0112 41.9667 91.5293 41.9609 92.0473C41.9609 92.3434 41.9609 92.6394 41.9609 92.9354H40.8799V86.7188H41.9523V89.2261C41.9983 89.1669 42.0271 89.1403 42.0501 89.1048C42.3014 88.759 42.6609 88.5131 43.0679 88.4085C43.4748 88.3038 43.9044 88.3469 44.2841 88.5305C44.4751 88.6319 44.6378 88.782 44.7566 88.9665C44.8753 89.1509 44.9463 89.3636 44.9626 89.5843C44.9868 89.7529 44.9983 89.9231 44.9971 90.0935C45 91.0201 45 91.9674 45 92.9295Z" fill="#7EA935"/>
<path d="M27.6512 88.3322C28.1782 88.3153 28.6955 88.4812 29.1199 88.8034C29.5443 89.1255 29.8513 89.5851 29.9916 90.1084C30.074 90.4302 30.0886 90.7665 30.0342 91.0946C29.9798 91.4227 29.8578 91.7349 29.6764 92.0104C29.4949 92.2858 29.2583 92.5181 28.9824 92.6914C28.7064 92.8648 28.3976 92.9753 28.0767 93.0155C27.7057 93.087 27.3238 93.071 26.9597 92.9684C26.5956 92.8658 26.2589 92.6795 25.975 92.4234C25.6556 92.1424 25.4236 91.7707 25.3081 91.3548C25.1925 90.9389 25.1985 90.4972 25.3252 90.0847C25.4315 89.6579 25.657 89.2725 25.9738 88.9762C26.2906 88.68 26.6849 88.4859 27.1078 88.4181C27.2861 88.3618 27.4701 88.3559 27.6512 88.3322ZM26.3516 90.7005C26.3634 90.9631 26.4498 91.2163 26.6 91.4289C26.7501 91.6414 26.9575 91.804 27.1965 91.8964C27.4355 91.9889 27.6956 92.0071 27.9445 91.9489C28.1935 91.8907 28.4204 91.7587 28.5972 91.569C28.774 91.3794 28.8929 91.1406 28.9392 90.8821C28.9855 90.6236 28.9572 90.3568 28.8578 90.1147C28.7583 89.8726 28.5921 89.6659 28.3797 89.5201C28.1673 89.3743 27.918 89.2958 27.6627 89.2943C27.4849 89.2917 27.3084 89.3266 27.1443 89.397C26.9801 89.4674 26.8317 89.5717 26.7082 89.7035C26.5848 89.8353 26.489 89.9918 26.4266 90.1633C26.3643 90.3348 26.3368 90.5176 26.3459 90.7005H26.3516Z" fill="#7EA935"/>
<path d="M15.2479 90.1267C15.2696 90.0259 15.2693 89.9214 15.2471 89.8208C15.2249 89.7201 15.1813 89.6257 15.1194 89.5445C15.0575 89.4633 14.979 89.3971 14.8893 89.3509C14.7997 89.3047 14.7012 89.2795 14.6009 89.2771C14.1791 89.2429 13.7576 89.3465 13.3963 89.5731L13.218 89.6738L12.8097 88.8834C13.1311 88.6462 13.4976 88.4818 13.885 88.4008C14.3243 88.2921 14.7832 88.2992 15.2191 88.4216C15.5246 88.4902 15.799 88.6621 15.9986 88.91C16.1982 89.1579 16.3114 89.4674 16.3203 89.7892C16.3692 90.8224 16.3203 91.8614 16.3203 92.9094H15.3427V92.2966C15.3197 92.2966 15.3054 92.2966 15.3025 92.2966C15.0853 92.6315 14.7556 92.872 14.3767 92.972C13.9979 93.0719 13.5965 93.0244 13.2496 92.8384C13.0285 92.7361 12.8413 92.5696 12.7111 92.3592C12.5808 92.1488 12.5131 91.9037 12.5165 91.6542C12.502 91.4149 12.5564 91.1766 12.6731 90.9691C12.7897 90.7616 12.9633 90.5941 13.172 90.4879C13.6949 90.2224 14.2709 90.0865 14.854 90.0912C14.992 90.1208 15.1329 90.1267 15.2479 90.1267ZM15.2824 90.9023C15.0843 90.8856 14.8853 90.8856 14.6872 90.9023C14.4195 90.9458 14.1573 91.0192 13.9052 91.1214C13.8064 91.1649 13.7254 91.2425 13.6761 91.3408C13.6268 91.4391 13.6122 91.552 13.6349 91.6601C13.6441 91.7696 13.6861 91.8734 13.7551 91.9572C13.8242 92.041 13.9168 92.1007 14.0202 92.1279C14.1473 92.1743 14.2838 92.187 14.417 92.1648C14.5502 92.1425 14.6757 92.0861 14.7821 92.0006C14.945 91.8726 15.0754 91.7057 15.162 91.5145C15.2487 91.3232 15.289 91.1131 15.2795 90.9023H15.2824Z" fill="#7EA935"/>
<path d="M34.9943 92.933H33.9593V92.1366C33.8845 92.2432 33.8357 92.3202 33.781 92.3912C33.523 92.7043 33.1723 92.9216 32.7828 93.0099C32.3933 93.0981 31.9865 93.0524 31.6247 92.8797C31.4399 92.7796 31.2817 92.6345 31.1639 92.457C31.0462 92.2794 30.9724 92.075 30.949 91.8613C30.9253 91.7345 30.9127 91.6057 30.9116 91.4765C30.9116 90.5085 30.9116 89.5404 30.9116 88.5724C30.9116 88.5399 30.9116 88.5043 30.9116 88.4629H31.9927V88.6583C31.9927 89.4724 31.9927 90.2894 31.9927 91.1035C31.9917 91.2265 32.0014 91.3493 32.0214 91.4706C32.0255 91.5522 32.046 91.6321 32.0815 91.7052C32.1171 91.7783 32.1669 91.8431 32.228 91.8953C32.289 91.9476 32.3599 91.9863 32.4362 92.009C32.5125 92.0317 32.5925 92.0379 32.6712 92.0271C32.9829 92.0193 33.2803 91.8905 33.5037 91.6665C33.7271 91.4426 33.86 91.1399 33.8759 90.8193C33.8979 90.5861 33.9075 90.3519 33.9047 90.1177C33.9047 89.5849 33.9047 89.049 33.9047 88.5162C33.9031 88.4994 33.9031 88.4826 33.9047 88.4659H34.9713L34.9943 92.933Z" fill="#7EA935"/>
<path d="M39.9457 88.9929L39.454 89.7745C39.173 89.5108 38.8173 89.3468 38.4391 89.3067C38.1882 89.2683 37.932 89.3095 37.7044 89.4247C37.4769 89.54 37.2888 89.724 37.1654 89.9521C37.0243 90.1862 36.9533 90.4579 36.9615 90.7333C36.9697 91.0087 37.0566 91.2755 37.2114 91.5003C37.3496 91.7233 37.5493 91.8988 37.7849 92.0042C38.0205 92.1097 38.2813 92.1404 38.534 92.0924C38.9464 92.0276 39.3296 91.8344 39.6323 91.5388L40.052 92.3263C39.8246 92.5628 39.5499 92.7456 39.247 92.8621C38.6018 93.1323 37.8796 93.1323 37.2344 92.8621C36.7914 92.6633 36.4215 92.3245 36.1781 91.8947C35.9348 91.4649 35.8307 90.9665 35.881 90.4717C35.9313 89.9769 36.1334 89.5114 36.4579 89.1428C36.7824 88.7742 37.2125 88.5216 37.6858 88.4216C38.2815 88.2889 38.9037 88.3769 39.4425 88.6703C39.6154 88.769 39.7834 88.8767 39.9457 88.9929Z" fill="#7EA935"/>
<path d="M22.5129 89.4072H21.958V88.5191H22.533V87.2373H23.6026V88.5191H24.5945V89.4072H23.6055V89.8276C23.6055 90.2381 23.6055 90.6486 23.6055 91.0591C23.6055 91.7015 23.893 91.9975 24.5169 91.9916H24.675C24.675 92.2876 24.675 92.5836 24.675 92.8797C24.675 92.9122 24.606 92.9714 24.5658 92.9744C24.1503 93.0214 23.7302 92.9561 23.3467 92.7849C23.1132 92.684 22.913 92.5158 22.7701 92.3005C22.6273 92.0851 22.548 91.8319 22.5417 91.5712C22.51 90.9466 22.5244 90.316 22.5187 89.6884C22.5129 89.6026 22.5129 89.5227 22.5129 89.4072Z" fill="#7EA935"/>
<path d="M19.0978 92.0031C19.0978 92.2991 19.0978 92.5774 19.0978 92.8556C19.0903 92.882 19.0763 92.906 19.0572 92.9252C19.038 92.9444 19.0144 92.9581 18.9886 92.9652C18.7385 92.9729 18.4883 92.9571 18.241 92.9178C18.0294 92.8727 17.8375 92.7584 17.694 92.592C17.5505 92.4256 17.463 92.2159 17.4446 91.9942C17.4199 91.8555 17.4074 91.7148 17.4072 91.5738C17.4072 89.995 17.4072 88.4112 17.4072 86.8225C17.4072 86.787 17.4072 86.7515 17.4072 86.7041H18.4854V86.9054C18.4854 88.3303 18.4854 89.7562 18.4854 91.1831C18.4854 91.2304 18.4854 91.2778 18.4854 91.3252C18.4912 91.8758 18.5515 91.9468 19.0978 92.0031Z" fill="#7EA935"/>
<path d="M21.5326 92.0002V92.9386C20.67 93.208 19.9196 92.6988 19.8621 91.79C19.842 91.4732 19.8449 91.1565 19.8449 90.8397C19.8449 89.5313 19.8449 88.2228 19.8449 86.9143V86.6982H20.9259V86.9025C20.9259 88.3274 20.9259 89.7523 20.9259 91.1772C20.9259 91.2246 20.9259 91.2719 20.9259 91.3193C20.9374 91.8758 21.0438 92.0031 21.5326 92.0002Z" fill="#7EA935"/>
<path d="M193.975 30.3564V40.0004H220.562L223.261 35.2004L220.562 30.3711L193.975 30.3564ZM220.238 39.4466H194.528V30.9065H220.238L222.627 35.2004L220.238 39.4466Z" fill="#7EA935"/>
<path d="M205.586 26.3003H208.639V27.7413H209.479V25.5412H208.945V19.5752H205.958V20.1656C205.958 20.5811 205.952 21.0187 205.94 21.4783C205.925 21.9444 205.887 22.4095 205.825 22.8717C205.763 23.3413 205.672 23.8067 205.553 24.2651C205.437 24.7124 205.269 25.1444 205.051 25.5522H204.638V27.7523H205.586V26.3003ZM206.426 24.5072C206.546 24.0916 206.639 23.6691 206.707 23.2421C206.779 22.7901 206.828 22.3349 206.854 21.878C206.881 21.4135 206.895 20.9735 206.895 20.5579V20.4259H207.894V25.5595H205.988C206.18 25.2297 206.328 24.8758 206.426 24.5072Z" fill="#7EA935"/>
<path d="M212.441 26.5641C212.751 26.5685 213.06 26.5214 213.355 26.4247C213.61 26.338 213.857 26.2288 214.093 26.0984L213.971 25.343C213.804 25.4097 213.633 25.4649 213.458 25.508C213.252 25.5634 213.038 25.5918 212.824 25.5924C212.587 25.6081 212.351 25.559 212.14 25.4504C211.93 25.3417 211.753 25.1778 211.63 24.9763C211.353 24.4479 211.226 23.8549 211.261 23.2602H214.129V22.6735C214.182 21.8293 214.008 20.9864 213.624 20.2314C213.499 19.985 213.309 19.7774 213.074 19.6312C212.838 19.4851 212.567 19.406 212.29 19.4027C211.941 19.3954 211.602 19.511 211.331 19.729C211.05 19.9644 210.825 20.2587 210.671 20.5907C210.493 20.9831 210.369 21.3975 210.302 21.8228C210.216 22.3069 210.174 22.7979 210.177 23.2896C210.125 24.144 210.344 24.9932 210.804 25.717C210.986 25.9812 211.23 26.1967 211.516 26.3444C211.801 26.4922 212.119 26.5676 212.441 26.5641ZM211.36 21.5258C211.398 21.2958 211.461 21.0707 211.549 20.8547C211.614 20.6875 211.714 20.5362 211.843 20.4111C211.951 20.3091 212.093 20.2526 212.242 20.2534C212.456 20.2534 212.629 20.3976 212.762 20.6861C212.917 21.0727 213.003 21.4835 213.016 21.8998C213.016 21.9609 213.016 22.0184 213.016 22.0722C213.016 22.1235 213.016 22.1748 213.016 22.2188V22.3655H211.268C211.283 22.0829 211.314 21.8013 211.36 21.5221V21.5258Z" fill="#7EA935"/>
<path d="M221.732 26.5642C222.024 26.5686 222.315 26.5214 222.591 26.4248C222.829 26.3384 223.059 26.2291 223.277 26.0985L223.17 25.3431C223.009 25.4083 222.844 25.4634 222.676 25.5081C222.48 25.5648 222.278 25.5944 222.075 25.5961C221.837 25.605 221.601 25.5444 221.398 25.4219C221.194 25.2994 221.031 25.1204 220.928 24.9067C220.652 24.3138 220.526 23.6633 220.559 23.011C220.559 22.6708 220.586 22.3311 220.64 21.9952C220.686 21.6937 220.763 21.3976 220.869 21.1115C220.949 20.8814 221.074 20.6695 221.238 20.4881C221.3 20.4154 221.378 20.3565 221.465 20.3155C221.552 20.2744 221.646 20.252 221.743 20.2498C221.911 20.2529 222.075 20.3038 222.215 20.3965C222.372 20.4975 222.514 20.6211 222.635 20.7632L223.181 19.8464C222.986 19.7097 222.772 19.6022 222.547 19.5274C222.291 19.4442 222.023 19.4033 221.754 19.4064C221.427 19.4064 221.107 19.5035 220.836 19.6851C220.534 19.8868 220.282 20.1538 220.098 20.4661C219.876 20.8468 219.712 21.2583 219.612 21.6872C219.486 22.2084 219.426 22.7428 219.431 23.2786C219.431 24.3396 219.642 25.1524 220.065 25.7171C220.251 25.9845 220.5 26.2019 220.791 26.3497C221.082 26.4976 221.405 26.5713 221.732 26.5642Z" fill="#7EA935"/>
<path d="M194.938 26.3003L197.069 22.6334H197.762V26.3003H198.816V16.1944H197.109C196.736 16.1926 196.366 16.2649 196.022 16.407C195.679 16.5493 195.372 16.7646 195.122 17.0377C194.852 17.3367 194.644 17.6856 194.51 18.0645C194.352 18.5157 194.276 18.9912 194.285 19.4689C194.268 20.0873 194.408 20.7 194.691 21.251C195 21.7851 195.475 22.2056 196.044 22.4501L193.725 26.3003H194.938ZM195.963 21.2327C195.782 21.0271 195.644 20.7878 195.557 20.5286C195.446 20.1903 195.394 19.8357 195.402 19.4799C195.394 19.1083 195.441 18.7376 195.542 18.3798C195.618 18.1147 195.743 17.866 195.911 17.6465C196.052 17.4647 196.236 17.32 196.446 17.2248C196.64 17.138 196.852 17.093 197.065 17.0927H197.758V21.7607H197.198C196.969 21.7615 196.743 21.7192 196.53 21.636C196.313 21.5479 196.119 21.4112 195.963 21.2363V21.2327Z" fill="#7EA935"/>
<path d="M201.338 23.1687H202.854V26.3039H203.908V19.5752H202.854V22.2667H201.338V19.5752H200.269V26.3039H201.338V23.1687Z" fill="#7EA935"/>
<path d="M216.249 22.8901L216.37 23.0367L218.011 26.4029H219.198L217.277 22.6517L218.955 19.5752H217.823L216.37 22.5454L216.249 22.6774V19.5752H215.183V26.4029H216.249V22.8901Z" fill="#7EA935"/>
<path d="M200.273 36.0831L199.2 33.4209H198.64V36.6844H199.071V35.412L199.03 34.0479L200.103 36.6844H200.435L201.516 34.0406L201.475 35.412V36.6844H201.906V33.4209H201.346L200.273 36.0831Z" fill="#7EA935"/>
<path d="M203.561 34.2139C203.369 34.2138 203.182 34.2699 203.023 34.3752C202.854 34.489 202.721 34.6479 202.639 34.8336C202.544 35.0353 202.496 35.256 202.499 35.4789V35.5559C202.483 35.8738 202.594 36.185 202.809 36.4213C202.913 36.5286 203.039 36.6128 203.178 36.6684C203.317 36.724 203.466 36.7498 203.616 36.744C203.797 36.7535 203.978 36.7151 204.139 36.6327C204.3 36.5502 204.437 36.4267 204.534 36.2746L204.28 36.0766C204.206 36.1726 204.115 36.2535 204.011 36.315C203.898 36.3758 203.771 36.4061 203.642 36.403C203.546 36.4055 203.45 36.3872 203.361 36.3492C203.273 36.3112 203.194 36.2545 203.13 36.183C202.99 36.0222 202.915 35.8159 202.919 35.6036H204.571V35.4313C204.592 35.1124 204.497 34.7966 204.306 34.5402C204.215 34.4323 204.101 34.3467 203.972 34.2901C203.843 34.2335 203.702 34.2074 203.561 34.2139ZM204.147 35.2479H202.927C202.94 35.0589 203.014 34.879 203.137 34.7346C203.19 34.6756 203.256 34.6287 203.329 34.597C203.402 34.5654 203.481 34.5498 203.561 34.5512C203.638 34.5478 203.715 34.5615 203.787 34.5913C203.858 34.6211 203.922 34.6663 203.974 34.7236C204.084 34.8637 204.144 35.0368 204.143 35.2149L204.147 35.2479Z" fill="#7EA935"/>
<path d="M204.801 34.5944H205.605V36.6846H206.021V34.5944H206.84V34.2607H204.801V34.5944Z" fill="#7EA935"/>
<path d="M208.355 34.2138C208.22 34.2075 208.086 34.2328 207.963 34.2875C207.84 34.3423 207.732 34.4251 207.647 34.5292L207.625 34.2615H207.256V37.6204H207.673V36.4506C207.762 36.545 207.871 36.6188 207.992 36.6669C208.113 36.715 208.243 36.7363 208.374 36.7293C208.507 36.7338 208.64 36.7054 208.761 36.6466C208.881 36.5877 208.985 36.5003 209.063 36.392C209.242 36.1301 209.332 35.8175 209.317 35.5009V35.4643C209.337 35.1391 209.248 34.8165 209.063 34.5475C208.982 34.4385 208.874 34.351 208.751 34.2928C208.627 34.2346 208.492 34.2075 208.355 34.2138ZM208.724 36.1536C208.67 36.2286 208.598 36.2892 208.515 36.3301C208.433 36.371 208.341 36.391 208.248 36.3883C208.131 36.393 208.015 36.3645 207.914 36.306C207.813 36.2476 207.731 36.1616 207.677 36.0583V34.8996C207.729 34.7958 207.811 34.7093 207.912 34.6501C208.012 34.591 208.128 34.5618 208.244 34.5659C208.339 34.5627 208.432 34.5828 208.516 34.6244C208.601 34.666 208.673 34.7278 208.727 34.8042C208.855 34.9961 208.917 35.2236 208.904 35.4533C208.92 35.6998 208.857 35.945 208.724 36.1536Z" fill="#7EA935"/>
<path d="M210.287 36.0318V34.2607H209.87V36.6846H210.287L211.411 34.9171V36.6846H211.828V34.2607H211.411L210.287 36.0318Z" fill="#7EA935"/>
<path d="M214.552 34.2607H214.047L213.225 35.2875H212.952V34.2607H212.536V36.6846H212.952V35.6505H213.258L214.103 36.6846H214.634L213.586 35.4268L214.552 34.2607Z" fill="#7EA935"/>
<path d="M216.835 35.0022C216.837 34.8942 216.817 34.787 216.774 34.6877C216.731 34.5884 216.668 34.4993 216.588 34.4265C216.401 34.2781 216.166 34.2036 215.928 34.2175C215.76 34.2158 215.594 34.2496 215.441 34.3165C215.297 34.3721 215.17 34.4644 215.072 34.5841C214.988 34.6877 214.942 34.8174 214.943 34.9508H215.364C215.365 34.8967 215.379 34.8437 215.405 34.7964C215.432 34.7491 215.469 34.7089 215.515 34.6795C215.622 34.6028 215.752 34.5629 215.884 34.5658C216.018 34.5601 216.15 34.606 216.252 34.6941C216.296 34.7399 216.33 34.794 216.352 34.8533C216.375 34.9125 216.384 34.9757 216.381 35.0388V35.2002H215.976C215.689 35.1827 215.404 35.2559 215.161 35.4092C215.067 35.4751 214.991 35.5633 214.94 35.6658C214.89 35.7682 214.865 35.8817 214.87 35.9959C214.868 36.0932 214.887 36.1898 214.928 36.2786C214.968 36.3674 215.027 36.4462 215.102 36.5093C215.266 36.6476 215.477 36.7196 215.692 36.7109C215.822 36.7119 215.951 36.6857 216.071 36.6339C216.19 36.5821 216.297 36.5059 216.385 36.4102C216.391 36.4983 216.411 36.5849 216.444 36.6669H216.883C216.819 36.4971 216.79 36.3163 216.798 36.1352L216.835 35.0022ZM216.418 36.0069C216.363 36.1188 216.274 36.2109 216.164 36.2709C216.052 36.3368 215.925 36.3722 215.795 36.3736C215.674 36.3786 215.554 36.3395 215.46 36.2636C215.416 36.2264 215.381 36.1795 215.359 36.1267C215.336 36.0738 215.327 36.0165 215.331 35.9592C215.331 35.661 215.586 35.5119 216.097 35.5119H216.426L216.418 36.0069Z" fill="#7EA935"/>
<path opacity="0.2" d="M180.909 87.7737C180.039 87.7737 179.17 87.8604 178.317 88.0333C177.674 84.8173 175.594 82.074 172.674 80.5891C169.755 79.1042 166.316 79.0419 163.345 80.4197C160.655 72.9993 152.47 69.1681 145.062 71.8619C137.655 74.5558 133.83 82.7556 136.519 90.1754C130.03 90.3809 124.904 95.761 125.001 102.263C125.099 108.767 130.384 113.99 136.877 114H180.909C188.139 114 194 108.129 194 100.887C194 93.6446 188.139 87.7737 180.909 87.7737Z" fill="#AAADAE"/>
<path d="M153.926 102.762C154.972 102.081 156.092 101.166 156.092 99.3827C156.092 97.265 154.508 96.1064 152.519 96.1064C151.591 96.1064 149.12 96.3998 149.12 99.7757H151.109C151.109 99.0073 151.168 97.834 152.605 97.834C152.797 97.8289 152.989 97.8637 153.168 97.936C153.347 98.0083 153.508 98.1167 153.643 98.2544C153.778 98.392 153.883 98.556 153.951 98.736C154.02 98.916 154.05 99.1082 154.041 99.3006C154.041 100.474 153.301 100.996 151.412 102.36C149.162 103.999 149.062 105.275 149 106.492H156.092V104.692H151.573C151.82 104.213 152.519 103.694 153.926 102.762Z" fill="#7EA935"/>
<path d="M162.234 96.1064H159.91L156.091 102.427V104.187H160.186V106.492H162.243V104.187H163.418V102.547H162.243L162.234 96.1064ZM160.178 102.559H157.622L160.192 98.1361H160.222C160.233 98.4558 160.186 100.037 160.186 102.559H160.178Z" fill="#7EA935"/>
<path d="M152.375 93.2945C152.55 93.1534 152.689 92.9742 152.784 92.7709C152.878 92.5675 152.924 92.3453 152.919 92.1212C152.92 91.7932 152.807 91.4749 152.6 91.2204C152.393 90.9658 152.104 90.7908 151.782 90.7251V90.7075C152.047 90.6289 152.281 90.4686 152.449 90.2494C152.617 90.0302 152.712 89.7635 152.719 89.4873C152.726 89.2752 152.675 89.0652 152.571 88.8798C152.468 88.6943 152.316 88.5404 152.131 88.4344C151.747 88.1675 151.28 88.0765 150.516 88.0765C150.014 88.0719 149.513 88.1112 149.018 88.1939V93.7315C149.437 93.7836 149.859 93.8091 150.281 93.8077C151.315 93.8195 151.976 93.6435 152.375 93.2945ZM150.043 88.8949C150.237 88.8606 150.434 88.8468 150.63 88.8538C151.283 88.8538 151.685 89.0972 151.685 89.6223C151.685 90.0974 151.283 90.4318 150.572 90.4318H150.046L150.043 88.8949ZM150.043 91.1827H150.539C151.25 91.1827 151.82 91.4496 151.82 92.1007C151.82 92.7518 151.233 93.0451 150.575 93.0451C150.393 93.0472 150.212 93.0384 150.031 93.0188L150.043 91.1827Z" fill="#7EA935"/>
<path d="M154.834 89.6953H153.797V93.7635H154.834V89.6953Z" fill="#7EA935"/>
<path d="M154.308 89.1085C154.417 89.1056 154.523 89.0706 154.613 89.0078C154.702 88.945 154.771 88.8573 154.811 88.7556C154.851 88.654 154.859 88.5428 154.836 88.4362C154.813 88.3296 154.758 88.2322 154.68 88.1563C154.601 88.0803 154.502 88.0292 154.395 88.0093C154.287 87.9894 154.176 88.0016 154.076 88.0444C153.975 88.0872 153.89 88.1587 153.83 88.2499C153.77 88.3411 153.738 88.448 153.738 88.5571C153.737 88.6312 153.752 88.7048 153.78 88.7733C153.809 88.8417 153.851 88.9036 153.904 88.9552C153.958 89.0068 154.021 89.0471 154.091 89.0734C154.16 89.0998 154.234 89.1117 154.308 89.1085Z" fill="#7EA935"/>
<path d="M156.121 92.3736C156.08 92.7783 156.193 93.1834 156.438 93.5087C156.554 93.6214 156.693 93.7092 156.844 93.7667C156.996 93.8242 157.157 93.8502 157.319 93.843C157.571 93.8514 157.822 93.8177 158.063 93.7433L158.045 92.9573C157.914 92.9918 157.778 93.0085 157.642 93.0071C157.249 93.0071 157.117 92.749 157.117 92.2563V90.4612H158.095V89.6928H157.12V88.5195L156.115 88.763V89.681H155.527V90.4495H156.115L156.121 92.3736Z" fill="#7EA935"/>
<path d="M158.876 93.7607H159.904V91.6694C159.905 91.5631 159.916 91.457 159.937 91.3526C159.968 91.1332 160.079 90.933 160.249 90.7897C160.418 90.6465 160.634 90.5702 160.856 90.5754C160.955 90.576 161.053 90.5868 161.15 90.6076V89.6163C161.07 89.5983 160.988 89.5894 160.906 89.5899C160.651 89.6016 160.407 89.6929 160.207 89.8507C160.008 90.0086 159.862 90.2252 159.793 90.4698H159.76L159.728 89.6925H158.847C158.873 90.0592 158.879 90.4522 158.879 91.0036L158.876 93.7607Z" fill="#7EA935"/>
<path d="M162.889 89.6953H161.852V93.7635H162.889V89.6953Z" fill="#7EA935"/>
<path d="M162.363 89.1085C162.472 89.1056 162.578 89.0706 162.668 89.0078C162.757 88.945 162.826 88.8573 162.866 88.7556C162.905 88.654 162.914 88.5428 162.891 88.4362C162.867 88.3296 162.813 88.2322 162.735 88.1563C162.656 88.0803 162.557 88.0292 162.449 88.0093C162.342 87.9894 162.231 88.0016 162.13 88.0444C162.03 88.0872 161.944 88.1587 161.884 88.2499C161.824 88.3411 161.792 88.448 161.793 88.5571C161.792 88.6312 161.806 88.7048 161.835 88.7733C161.864 88.8417 161.906 88.9036 161.959 88.9552C162.012 89.0068 162.076 89.0471 162.145 89.0734C162.215 89.0998 162.289 89.1117 162.363 89.1085Z" fill="#7EA935"/>
<path d="M164.622 93.7605L165.089 92.951C165.224 92.7252 165.339 92.5257 165.457 92.2911H165.474C165.592 92.5169 165.709 92.734 165.841 92.951L166.344 93.7605H167.519L166.129 91.6487L167.492 89.6953H166.37L165.918 90.4462C165.8 90.6544 165.683 90.8627 165.565 91.0885H165.521C165.404 90.8803 165.286 90.6779 165.154 90.4608L164.669 89.6924H163.524L164.887 91.6898L163.474 93.7605H164.622Z" fill="#7EA935"/>
<path d="M167.551 95.2207C166.869 95.2207 166.202 95.4227 165.635 95.801C165.068 96.1794 164.626 96.7172 164.365 97.3464C164.104 97.9756 164.036 98.6679 164.169 99.3359C164.302 100.004 164.63 100.617 165.113 101.099C165.595 101.581 166.21 101.909 166.879 102.041C167.548 102.174 168.241 102.106 168.871 101.845C169.501 101.585 170.04 101.143 170.419 100.577C170.798 100.011 171 99.3452 171 98.6641C170.999 97.7511 170.636 96.8757 169.989 96.2301C169.343 95.5845 168.466 95.2215 167.551 95.2207ZM167.551 101.465C166.996 101.465 166.454 101.301 165.993 100.993C165.531 100.685 165.172 100.248 164.959 99.7361C164.747 99.2242 164.692 98.661 164.8 98.1177C164.908 97.5743 165.175 97.0752 165.568 96.6835C165.96 96.2917 166.46 96.0249 167.004 95.9169C167.548 95.8088 168.112 95.8643 168.625 96.0763C169.138 96.2883 169.576 96.6473 169.884 97.1079C170.192 97.5686 170.357 98.1101 170.357 98.6641C170.356 99.4068 170.06 100.119 169.534 100.644C169.008 101.169 168.295 101.464 167.551 101.465Z" fill="#7EA935"/>
<path d="M167.742 97.0215H167.102V98.9221H169.009V98.2827H167.742V97.0215Z" fill="#7EA935"/>
<path opacity="0.2" d="M112.15 135.554C111.229 135.554 110.31 135.645 109.408 135.826C108.727 132.46 106.527 129.589 103.438 128.035C100.349 126.481 96.7114 126.416 93.5675 127.858C90.7223 120.092 82.0625 116.083 74.2254 118.902C66.3882 121.721 62.3417 130.302 65.1869 138.067C58.3217 138.282 52.8988 143.913 53.0014 150.718C53.1047 157.523 58.6961 162.989 65.565 163H112.15C119.799 163 126 156.856 126 149.277C126 141.698 119.799 135.554 112.15 135.554Z" fill="#AAADAE"/>
<path d="M90.4811 152.154C89.9612 152.117 89.4463 152.028 88.9442 151.887C88.8599 151.863 88.504 151.729 88.417 151.689C87.6646 151.336 87.0194 150.786 86.5486 150.095C86.0778 149.404 85.7987 148.597 85.7402 147.76C85.6817 146.923 85.846 146.085 86.216 145.334C86.586 144.583 87.1482 143.945 87.844 143.489C88.5399 143.032 89.344 142.773 90.1726 142.737C91.0011 142.702 91.824 142.892 92.5553 143.288C93.2867 143.683 93.9 144.27 94.3312 144.987C94.7624 145.704 94.9959 146.525 95.0073 147.364H96.6839C96.677 146.233 96.3741 145.124 95.806 144.149C95.2379 143.175 94.4248 142.37 93.4496 141.817C92.4743 141.264 91.3717 140.982 90.254 141.001C89.1363 141.019 88.0434 141.337 87.0865 141.922C86.1296 142.507 85.3429 143.338 84.8065 144.331C84.2702 145.324 84.0032 146.442 84.0329 147.573C84.0625 148.704 84.3877 149.807 84.9754 150.77C85.5631 151.732 86.3922 152.52 87.3784 153.053C87.7185 153.227 88.071 153.375 88.4328 153.496C89.0441 153.67 89.6712 153.781 90.3045 153.827C90.5127 153.843 91.2429 153.851 91.4565 153.851H103V152.162H91.4538C91.3009 152.162 90.6314 152.162 90.4811 152.146V152.154ZM91.4538 149.491C91.3326 149.491 90.6946 149.491 90.576 149.478C90.3495 149.461 90.1241 149.431 89.9011 149.387C89.7304 149.343 89.5643 149.282 89.4056 149.205C89.0979 149.037 88.8394 148.789 88.656 148.488C88.4726 148.186 88.3709 147.841 88.3609 147.487C88.3509 147.133 88.433 146.782 88.599 146.471C88.7651 146.159 89.0092 145.897 89.3068 145.711C89.6045 145.525 89.9453 145.421 90.2951 145.41C90.6448 145.4 90.9912 145.482 91.2994 145.65C91.6077 145.817 91.8671 146.064 92.0515 146.365C92.2359 146.666 92.3389 147.01 92.3501 147.364H93.9608C93.9505 146.717 93.7704 146.084 93.439 145.531C93.1077 144.977 92.6369 144.522 92.0748 144.213C91.5128 143.904 90.8797 143.752 90.2405 143.772C89.6012 143.792 88.9787 143.984 88.4367 144.328C87.8946 144.671 87.4526 145.154 87.1558 145.728C86.8589 146.301 86.718 146.944 86.7474 147.591C86.7767 148.238 86.9754 148.865 87.323 149.408C87.6705 149.951 88.1545 150.392 88.7254 150.683C88.9223 150.786 89.129 150.869 89.3423 150.929C89.7163 151.02 90.0973 151.079 90.4811 151.105C90.6155 151.105 91.2719 151.121 91.4064 151.121H102.979V149.491H91.4538ZM83.0077 153.843H81.3206V142.743H78.8558V141.036H83.0077V153.843ZM77 143.597V145.24H78.8453V153.843H80.477V143.597H77Z" fill="#7EA935"/>
<path opacity="0.2" d="M107.289 23.9935C106.443 23.9935 105.6 24.0762 104.772 24.2411C104.147 21.1747 102.127 18.5589 99.2921 17.1431C96.4574 15.7273 93.1187 15.6679 90.2332 16.9816C87.6218 9.90632 79.6738 6.25326 72.4808 8.82184C65.2878 11.3904 61.5739 19.2088 64.1853 26.2835C57.8843 26.4794 52.9071 31.6094 53.0013 37.8094C53.0961 44.0099 58.2279 48.99 64.5323 49H107.289C114.308 49 120 43.4022 120 36.4968C120 29.5914 114.308 23.9935 107.289 23.9935Z" fill="#AAADAE"/>
<path d="M93.9999 32.8604C94.0061 34.0843 93.7664 35.2969 93.295 36.4263C92.8855 37.4208 92.3065 38.3365 91.5836 39.1327C90.9042 39.8745 90.0969 40.4879 89.2002 40.9435C88.4176 41.3543 87.581 41.6525 86.7151 41.8292C86.0163 41.9704 85.3027 42.0244 84.5906 41.9899C83.25 41.9231 81.9409 41.5589 80.7581 40.9238C79.9209 40.4846 79.1585 39.9155 78.4992 39.2376C77.9177 38.6331 77.4294 37.9455 77.0501 37.1972C76.6511 36.4303 76.3588 35.6125 76.1813 34.7664C76.0361 34.0776 75.9777 33.3734 76.0076 32.6701C76.0875 30.7869 76.7471 28.9743 77.896 27.4805C78.6299 26.5075 79.5676 25.707 80.6433 25.1349C81.3839 24.7322 82.1743 24.4289 82.994 24.2328C83.8922 24.0201 84.8186 23.9525 85.7381 24.0327C87.5342 24.1945 89.2437 24.8787 90.6558 26.001C91.4373 26.6279 92.0974 27.3929 92.6032 28.2579C92.9361 28.7886 93.2151 29.3513 93.436 29.9375C93.6418 30.5011 93.7922 31.0834 93.8851 31.6762C93.951 32.0678 93.9893 32.4635 93.9999 32.8604ZM84.8628 35.885L84.9054 35.9145L87.0298 37.4924C87.1282 37.5629 87.2397 37.6131 87.3577 37.64C87.4512 37.6752 87.5547 37.6718 87.6457 37.6306C87.7367 37.5894 87.8076 37.5137 87.8429 37.4203C87.8806 37.3429 87.9092 37.2614 87.9281 37.1775C88.0265 36.7281 88.1216 36.2787 88.2166 35.8292L88.833 32.926L89.4133 30.1967C89.4487 30.0652 89.4566 29.9278 89.4362 29.7932C89.4215 29.6846 89.3649 29.586 89.2785 29.5186C89.1921 29.4512 89.0828 29.4202 88.974 29.4323C88.9099 29.4412 88.8472 29.4577 88.7871 29.4815L84.7709 31.0299L80.6302 32.6308C80.4117 32.7183 80.1865 32.809 79.9549 32.9031C79.8622 32.9393 79.7831 33.0035 79.7286 33.0868C79.7045 33.1137 79.6874 33.1462 79.6791 33.1814C79.6707 33.2165 79.6712 33.2533 79.6807 33.2882C79.6902 33.3231 79.7082 33.355 79.7332 33.3812C79.7582 33.4073 79.7893 33.4268 79.8237 33.4378C79.8926 33.4686 79.9639 33.4939 80.0368 33.5132L82.1875 34.1693C82.2067 34.1794 82.2281 34.1846 82.2498 34.1846C82.2715 34.1846 82.2929 34.1794 82.3121 34.1693L87.2659 31.0299C87.3314 30.9873 87.4003 30.9446 87.4659 30.9053C87.4968 30.886 87.5317 30.8736 87.5679 30.8691C87.6041 30.8646 87.6409 30.868 87.6757 30.879C87.6858 30.8808 87.6953 30.8851 87.7032 30.8916C87.7112 30.8982 87.7172 30.9067 87.7209 30.9163C87.7245 30.9259 87.7256 30.9363 87.724 30.9464C87.7224 30.9566 87.7182 30.9661 87.7117 30.9741C87.6869 31.0079 87.6583 31.0387 87.6265 31.066L85.2332 33.2541L83.5251 34.8188C83.508 34.833 83.4964 34.8528 83.4923 34.8746C83.4661 35.2027 83.4399 35.5307 83.4137 35.8588L83.3383 36.8134C83.3383 36.9184 83.3383 37.0266 83.3153 37.1414H83.3973C83.5527 37.1048 83.6947 37.0252 83.8071 36.9118C84.0792 36.6559 84.3448 36.3935 84.6136 36.131L84.8628 35.885Z" fill="#7EA935"/>
<path opacity="0.2" d="M263.443 132.574C262.408 132.574 261.376 132.675 260.362 132.877C259.598 129.124 257.126 125.923 253.656 124.19C250.187 122.457 246.101 122.385 242.569 123.992C239.373 115.333 229.646 110.862 220.842 114.006C212.039 117.149 207.493 126.718 210.689 135.377C202.978 135.617 196.886 141.895 197.002 149.483C197.118 157.072 203.398 163.167 211.114 163.179H263.443C272.034 163.179 279 156.328 279 147.877C279 139.425 272.034 132.574 263.443 132.574Z" fill="#AAADAE"/>
<path d="M256.461 144.565C256.41 144.376 256.294 144.212 256.133 144.103C255.972 143.995 255.778 143.948 255.587 143.972H252.65C252.028 143.996 251.423 144.177 250.888 144.499C250.354 144.821 249.908 145.272 249.59 145.813C249.272 146.354 249.094 146.967 249.07 147.595C249.046 148.224 249.179 148.848 249.455 149.412C249.744 149.965 250.16 150.44 250.67 150.795C250.608 151.254 250.608 151.719 250.67 152.178C250.721 152.321 250.717 152.478 250.659 152.618C250.601 152.759 250.494 152.872 250.357 152.936C250.027 153.144 249.748 153.424 249.54 153.756C249.332 154.088 249.201 154.463 249.156 154.853C249.111 155.244 249.155 155.639 249.282 156.01C249.409 156.382 249.618 156.719 249.892 156.997C250.69 157.759 251.745 158.183 252.841 158.183C253.937 158.183 254.992 157.759 255.79 156.997C256.265 156.516 256.533 155.863 256.533 155.182C256.533 154.501 256.265 153.848 255.79 153.367C255.097 152.649 254.16 152.226 253.169 152.181C252.951 152.203 252.731 152.203 252.513 152.181C252.376 152.181 252.283 152.004 252.173 151.905C252.281 151.798 252.405 151.71 252.54 151.644C252.759 151.625 252.978 151.625 253.196 151.644C254.064 151.559 254.874 151.168 255.485 150.54C256.096 149.911 256.469 149.086 256.539 148.207C256.602 147.342 256.377 146.482 255.899 145.762L256.008 145.679C256.107 145.644 256.197 145.59 256.275 145.52C256.353 145.449 256.415 145.364 256.46 145.269C256.504 145.173 256.529 145.07 256.534 144.965C256.538 144.859 256.521 144.754 256.485 144.655L256.461 144.565ZM254.536 154.354C254.663 154.45 254.766 154.573 254.837 154.716C254.908 154.859 254.945 155.016 254.945 155.176C254.945 155.336 254.908 155.493 254.837 155.636C254.766 155.779 254.663 155.903 254.536 155.998C254.044 156.366 253.449 156.565 252.837 156.565C252.225 156.565 251.63 156.366 251.138 155.998C250.998 155.901 250.883 155.772 250.804 155.62C250.725 155.469 250.683 155.3 250.683 155.129C250.683 154.957 250.725 154.788 250.804 154.637C250.883 154.485 250.998 154.356 251.138 154.26C251.64 153.903 252.243 153.721 252.855 153.741C253.468 153.761 254.058 153.982 254.536 154.37V154.354ZM252.79 149.906C252.322 149.899 251.876 149.705 251.549 149.366C251.222 149.028 251.041 148.572 251.045 148.099C251.048 147.625 251.237 147.173 251.569 146.839C251.901 146.506 252.35 146.319 252.818 146.319C253.285 146.319 253.734 146.506 254.067 146.839C254.399 147.173 254.587 147.625 254.591 148.099C254.594 148.572 254.413 149.028 254.086 149.366C253.759 149.705 253.313 149.899 252.845 149.906H252.79Z" fill="#7EA935"/>
<path d="M240.387 142.107C240.409 141.933 240.409 141.756 240.387 141.582C240.36 141.463 240.305 141.353 240.227 141.261C240.149 141.169 240.05 141.097 239.939 141.053C239.827 141.008 239.706 140.991 239.587 141.004C239.468 141.017 239.353 141.06 239.254 141.128C239.08 141.276 238.946 141.466 238.863 141.681C238.168 143.352 237.497 145.035 236.79 146.706L236.009 148.626L235.845 148.255L233.579 142.98C233.376 142.483 233.189 141.985 232.966 141.503C232.902 141.336 232.782 141.197 232.627 141.111C232.472 141.025 232.292 140.997 232.119 141.033C231.942 141.065 231.782 141.159 231.665 141.297C231.549 141.435 231.482 141.61 231.478 141.791V150.506C231.471 150.612 231.471 150.717 231.478 150.823C231.495 151.006 231.575 151.179 231.704 151.309C231.833 151.44 232.003 151.521 232.185 151.538C232.374 151.54 232.557 151.472 232.701 151.348C232.845 151.224 232.939 151.051 232.966 150.862C232.976 150.73 232.976 150.598 232.966 150.467V146.007C233.055 146.072 233.122 146.163 233.158 146.267L235.067 150.921C235.115 151.095 235.217 151.248 235.357 151.357C235.498 151.467 235.671 151.528 235.848 151.53C236.027 151.53 236.201 151.471 236.342 151.361C236.483 151.251 236.584 151.096 236.63 150.921C236.778 150.55 236.93 150.19 237.079 149.831L238.688 145.924C238.691 145.974 238.691 146.024 238.688 146.074V150.688C238.679 150.793 238.692 150.899 238.724 150.999C238.757 151.099 238.809 151.192 238.877 151.271C238.945 151.351 239.029 151.416 239.122 151.462C239.216 151.509 239.318 151.536 239.422 151.542H239.465C239.677 151.535 239.878 151.445 240.024 151.289C240.17 151.134 240.25 150.926 240.246 150.712V150.38C240.34 147.617 240.387 144.86 240.387 142.107Z" fill="#7EA935"/>
<path d="M222.632 148.638C222.483 148.559 222.311 148.535 222.147 148.57C221.982 148.605 221.835 148.698 221.73 148.831C221.22 149.376 220.559 149.754 219.834 149.915C219.109 150.076 218.353 150.014 217.663 149.736C216.974 149.458 216.383 148.977 215.966 148.356C215.55 147.734 215.327 147 215.327 146.25C215.327 145.499 215.55 144.765 215.966 144.144C216.383 143.522 216.974 143.041 217.663 142.763C218.353 142.485 219.109 142.423 219.834 142.584C220.559 142.745 221.22 143.123 221.73 143.668C221.876 143.815 222.074 143.898 222.281 143.898C222.487 143.898 222.685 143.815 222.831 143.668C222.964 143.518 223.032 143.321 223.021 143.12C223.01 142.919 222.921 142.731 222.773 142.597H222.753L222.644 142.475C222.033 141.894 221.29 141.474 220.481 141.251C219.672 141.028 218.822 141.009 218.004 141.195C217.186 141.382 216.425 141.768 215.789 142.321C215.153 142.873 214.66 143.575 214.354 144.364C214.048 145.154 213.938 146.007 214.033 146.85C214.129 147.693 214.427 148.499 214.901 149.198C215.376 149.897 216.013 150.468 216.756 150.861C217.499 151.253 218.326 151.456 219.164 151.451C219.852 151.46 220.534 151.327 221.168 151.058C221.802 150.79 222.375 150.392 222.851 149.89C222.989 149.75 223.084 149.573 223.124 149.38C223.152 149.216 223.117 149.048 223.025 148.909C222.934 148.771 222.793 148.674 222.632 148.638Z" fill="#7EA935"/>
<path d="M248.353 147.038C248.197 146.133 247.713 145.319 246.996 144.754C246.28 144.19 245.381 143.915 244.475 143.984C243.558 144.043 242.696 144.443 242.053 145.106C241.409 145.77 241.031 146.65 240.99 147.578C240.95 148.507 241.25 149.417 241.832 150.136C242.415 150.854 243.239 151.329 244.147 151.47C245.103 151.627 246.082 151.405 246.881 150.85L246.963 150.973C247.026 151.154 247.153 151.306 247.319 151.4C247.485 151.494 247.679 151.523 247.865 151.482C248.054 151.437 248.219 151.323 248.332 151.164C248.445 151.004 248.497 150.809 248.478 150.613V149.882C248.491 148.933 248.449 147.983 248.353 147.038ZM244.721 149.926C244.295 149.926 243.879 149.798 243.526 149.559C243.172 149.32 242.896 148.98 242.733 148.582C242.57 148.184 242.527 147.747 242.611 147.324C242.694 146.902 242.898 146.514 243.199 146.21C243.5 145.905 243.884 145.698 244.301 145.614C244.719 145.53 245.151 145.573 245.545 145.738C245.938 145.903 246.274 146.182 246.51 146.54C246.747 146.898 246.873 147.318 246.873 147.749C246.872 148.326 246.645 148.878 246.241 149.286C245.838 149.693 245.291 149.922 244.721 149.922V149.926Z" fill="#7EA935"/>
<path d="M227.178 144.067C226.458 144.067 225.754 144.283 225.156 144.688C224.557 145.093 224.091 145.668 223.815 146.34C223.54 147.013 223.468 147.753 223.608 148.468C223.748 149.182 224.095 149.838 224.604 150.353C225.113 150.868 225.762 151.219 226.468 151.361C227.174 151.503 227.906 151.43 228.571 151.151C229.236 150.872 229.804 150.401 230.204 149.795C230.604 149.19 230.818 148.478 230.818 147.749C230.818 146.773 230.434 145.836 229.752 145.146C229.069 144.455 228.143 144.067 227.178 144.067ZM227.178 149.993C226.742 149.999 226.314 149.873 225.948 149.633C225.583 149.393 225.295 149.049 225.122 148.645C224.949 148.24 224.899 147.792 224.976 147.358C225.054 146.924 225.257 146.523 225.56 146.206C225.862 145.888 226.251 145.668 226.677 145.574C227.103 145.479 227.547 145.514 227.953 145.674C228.359 145.834 228.71 146.111 228.96 146.472C229.211 146.833 229.35 147.261 229.361 147.702C229.365 148.29 229.144 148.857 228.744 149.284C228.345 149.711 227.798 149.965 227.217 149.993H227.178Z" fill="#7EA935"/>
<path d="M265.772 149.167C265.626 149.02 265.428 148.938 265.221 148.938C265.015 148.938 264.817 149.02 264.671 149.167L264.44 149.373C264.143 149.612 263.788 149.767 263.413 149.824C263.037 149.882 262.653 149.838 262.3 149.698C261.946 149.558 261.635 149.327 261.397 149.027C261.159 148.727 261.003 148.37 260.945 147.99C260.871 147.561 260.926 147.119 261.104 146.723C261.282 146.326 261.573 145.993 261.941 145.766C262.312 145.534 262.744 145.42 263.18 145.44C263.616 145.459 264.036 145.612 264.386 145.877L264.671 146.125C264.819 146.272 265.019 146.353 265.227 146.35C265.435 146.348 265.633 146.262 265.778 146.112C265.923 145.961 266.003 145.759 266 145.549C265.998 145.339 265.913 145.138 265.764 144.992C265.357 144.565 264.856 144.241 264.302 144.047C263.748 143.853 263.157 143.794 262.576 143.875C261.996 143.956 261.442 144.174 260.96 144.512C260.478 144.85 260.082 145.298 259.804 145.82C259.526 146.341 259.373 146.922 259.359 147.515C259.344 148.108 259.468 148.696 259.72 149.231C259.973 149.766 260.346 150.234 260.811 150.596C261.275 150.957 261.818 151.203 262.394 151.313C263.006 151.44 263.641 151.405 264.236 151.211C264.831 151.017 265.367 150.671 265.792 150.206C265.913 150.06 265.978 149.874 265.974 149.683C265.971 149.492 265.899 149.309 265.772 149.167Z" fill="#7EA935"/>
<path d="M258.687 144.936C258.687 144.726 258.604 144.525 258.458 144.377C258.312 144.229 258.113 144.146 257.906 144.146C257.699 144.146 257.5 144.229 257.353 144.377C257.207 144.525 257.125 144.726 257.125 144.936V150.708C257.1 150.914 257.158 151.122 257.284 151.287C257.411 151.451 257.596 151.558 257.8 151.585H257.886C258 151.586 258.112 151.562 258.216 151.515C258.32 151.468 258.412 151.399 258.486 151.312C258.561 151.225 258.615 151.123 258.647 151.012C258.678 150.902 258.685 150.786 258.667 150.672V147.907C258.671 147.049 258.687 145.832 258.687 144.936Z" fill="#7EA935"/>
<path d="M257.91 142.961C258.117 142.961 258.316 142.878 258.462 142.729C258.609 142.581 258.691 142.38 258.691 142.171C258.691 141.968 258.615 141.774 258.478 141.627C258.34 141.48 258.153 141.392 257.953 141.381H257.91C257.811 141.376 257.713 141.392 257.62 141.426C257.527 141.461 257.442 141.514 257.369 141.582C257.296 141.649 257.238 141.731 257.197 141.822C257.155 141.913 257.132 142.011 257.129 142.111C257.129 142.111 257.129 142.139 257.129 142.155C257.129 142.357 257.205 142.552 257.342 142.699C257.48 142.846 257.667 142.934 257.867 142.945L257.91 142.961Z" fill="#7EA935"/>
</g>
</svg>
