<svg width="54" height="53" viewBox="0 0 54 53" fill="none" xmlns="http://www.w3.org/2000/svg">
<path fill-rule="evenodd" clip-rule="evenodd" d="M28.0092 17.2209C32.8191 17.2209 36.7322 21.134 36.7322 25.9439C36.7322 26.6419 37.298 27.2078 37.9961 27.2078C38.6941 27.2078 39.2599 26.6419 39.2599 25.9439C39.2599 19.7404 34.2128 14.6932 28.0092 14.6932C27.3112 14.6932 26.7453 15.259 26.7453 15.9571C26.7453 16.6547 27.3116 17.2209 28.0092 17.2209ZM28.0092 10.2238C36.6774 10.2238 43.729 17.2757 43.729 25.9439C43.729 26.6419 44.2948 27.2078 44.9928 27.2078C45.6909 27.2078 46.2567 26.6419 46.2567 25.9439C46.2567 15.882 38.0707 7.696 28.0092 7.696C27.3112 7.696 26.7453 8.26186 26.7453 8.95988C26.7453 9.65788 27.3116 10.2238 28.0092 10.2238ZM28.0092 0.661133C27.3112 0.661133 26.7453 1.22699 26.7453 1.92501C26.7453 2.62304 27.3112 3.18889 28.0092 3.18889C40.5563 3.18889 50.7638 13.3968 50.7638 25.9439C50.7638 26.6419 51.3297 27.2078 52.0277 27.2078C52.7257 27.2078 53.2916 26.6419 53.2916 25.9439C53.292 12.0027 41.95 0.661133 28.0092 0.661133Z" fill="#7EA935"/>
<path fill-rule="evenodd" clip-rule="evenodd" d="M18.8299 15.7253L18.7425 15.636C19.1692 15.2092 19.4033 14.6424 19.4033 14.0388C19.4033 13.4531 19.1823 12.9018 18.7799 12.4799L18.775 12.4747L18.7707 12.469L11.6231 3.01866C11.5785 2.95957 11.5287 2.90468 11.474 2.85401C11.055 2.46587 10.51 2.252 9.93873 2.252C9.33457 2.252 8.76719 2.48685 8.33987 2.91455L6.99342 4.26139L6.98794 4.26688C1.55276 9.06812 -0.331021 16.7901 2.29999 23.4971C4.71518 29.6534 8.31776 35.1983 13.0081 39.9793L12.9189 40.0668C17.7101 44.9509 23.4339 48.7255 29.9318 51.2866C32.0913 52.1381 34.3421 52.5512 36.5731 52.5512C41.4004 52.5512 46.1357 50.6167 49.6519 46.9965L51.0368 45.6128C51.4876 45.162 51.736 44.5628 51.736 43.9255C51.736 43.3219 51.5106 42.7465 51.1007 42.3045C51.0464 42.2454 50.9864 42.1914 50.9225 42.1426L41.3028 34.8276C40.8635 34.4268 40.2972 34.2073 39.6976 34.2073C39.0603 34.2077 38.4611 34.4557 38.0119 34.9049L34.6338 38.2252C34.1358 38.7371 33.3711 38.8791 32.7286 38.5783C31.0624 37.8061 29.3914 36.8601 27.7664 35.7708C25.8577 34.4787 24.0386 32.9776 22.3648 31.3137C20.693 29.6328 19.1914 27.8137 17.9049 25.9114C16.8474 24.3348 15.8998 22.6642 15.0935 20.955C14.7927 20.3054 14.9379 19.5304 15.4577 19.0245L18.8299 15.7253ZM47.7633 45.1334C43.3552 49.6706 36.738 51.1179 30.9042 48.8187C24.7558 46.395 19.3414 42.8255 14.8126 38.2087C10.3617 33.6727 6.94368 28.4121 4.65335 22.5737C2.40377 16.8393 4.02729 10.2335 8.69095 6.13488C8.71067 6.11762 8.73093 6.0985 8.75118 6.07863L9.79835 5.03144L9.89985 4.92995L9.98643 5.04442L16.711 13.9344L16.7774 14.0222L16.6987 14.0992L13.6053 17.1256C12.283 18.4135 11.9138 20.4001 12.6909 22.0783C13.558 23.9161 14.5714 25.7029 15.7055 27.3936C17.0878 29.4371 18.6958 31.3853 20.4899 33.1897C22.2866 34.9757 24.2342 36.5831 26.2844 37.9709C28.0289 39.1409 29.8225 40.1553 31.6087 40.9834C33.2701 41.7616 35.2505 41.3961 36.5132 40.0979L36.5152 40.0959L39.639 37.0288L39.7162 36.9531L39.8023 37.0185L48.8208 43.876L48.9348 43.9627L48.8335 44.0639L47.7633 45.1334Z" fill="#7EA935"/>
<path d="M18.8299 15.7253C19.2803 15.2749 19.5283 14.6757 19.5283 14.0388C19.5283 13.421 19.295 12.8388 18.8704 12.3936L11.7228 2.94326C11.6736 2.87818 11.6189 2.81786 11.559 2.76231M18.8299 15.7253L18.7425 15.636C19.1692 15.2092 19.4033 14.6424 19.4033 14.0388C19.4033 13.4531 19.1823 12.9018 18.7799 12.4799L18.775 12.4747L18.7707 12.469L11.6231 3.01866C11.5785 2.95957 11.5287 2.90468 11.474 2.85401M18.8299 15.7253L15.4577 19.0245C14.9379 19.5304 14.7927 20.3054 15.0935 20.955C15.8998 22.6642 16.8474 24.3348 17.9049 25.9114C19.1914 27.8137 20.693 29.6328 22.3648 31.3137C24.0386 32.9776 25.8577 34.4787 27.7664 35.7708C29.3914 36.8601 31.0624 37.8061 32.7286 38.5783C33.3711 38.8791 34.1358 38.7371 34.6338 38.2252L38.0119 34.9049C38.4611 34.4557 39.0603 34.2077 39.6976 34.2073C40.2972 34.2073 40.8635 34.4268 41.3028 34.8276L50.9225 42.1426C50.9864 42.1914 51.0464 42.2454 51.1007 42.3045C51.5106 42.7465 51.736 43.3219 51.736 43.9255C51.736 44.5628 51.4876 45.162 51.0368 45.6128L49.6519 46.9965C46.1357 50.6167 41.4004 52.5512 36.5731 52.5512C34.3421 52.5512 32.0913 52.1381 29.9318 51.2866C23.4339 48.7255 17.7101 44.9509 12.9189 40.0668M11.559 2.76231L11.474 2.85401M11.559 2.76231C11.1169 2.35279 10.5415 2.127 9.93873 2.127C9.30143 2.127 8.70223 2.37501 8.25144 2.8262L6.90502 4.17301C1.43085 9.00869 -0.466751 16.7864 2.18363 23.5427C4.60504 29.7149 8.21692 35.274 12.9189 40.0668M11.474 2.85401C11.055 2.46587 10.51 2.252 9.93873 2.252C9.33457 2.252 8.76719 2.48685 8.33987 2.91455L6.99342 4.26139L6.98794 4.26688C1.55276 9.06812 -0.331021 16.7901 2.29999 23.4971C4.71518 29.6534 8.31776 35.1983 13.0081 39.9793M13.0081 39.9793L12.9189 40.0668M13.0081 39.9793C17.7868 44.8506 23.4957 48.6155 29.9777 51.1703M29.9777 51.1703L29.9337 51.2817M29.9777 51.1703C32.1224 52.016 34.3576 52.4262 36.5731 52.4262C41.367 52.4262 46.0698 50.5051 49.5623 46.9094L49.5636 46.9081L50.9484 45.5244C51.3757 45.097 51.611 44.5296 51.611 43.9255C51.611 43.3534 51.3975 42.8084 51.0091 42.3895C50.9601 42.3362 50.9053 42.2868 50.8469 42.2421L41.2271 34.9271L41.2182 34.9203C40.802 34.5406 40.267 34.3323 39.6984 34.3323C39.0941 34.3327 38.526 34.5676 38.1003 34.9933L38.0996 34.9941L34.7234 38.3123L34.7224 38.3134C34.1876 38.8621 33.3666 39.0149 32.6759 38.6916C31.0033 37.9165 29.3267 36.9672 27.6968 35.8746C25.7815 34.5781 23.9559 33.0716 22.2767 31.4023C20.5995 29.716 19.0924 27.8904 17.8014 25.9814C16.7404 24.3996 15.7894 22.7232 14.9804 21.0084C14.6571 20.31 14.8132 19.4775 15.3704 18.9351L18.7415 15.6369M30.9042 48.8187L30.9501 48.7025M30.9042 48.8187C36.738 51.1179 43.3552 49.6706 47.7633 45.1334L48.8335 44.0639L48.9348 43.9627L48.8208 43.876L39.8023 37.0185L39.7162 36.9531L39.639 37.0288L36.5152 40.0959L36.5132 40.0979C35.2505 41.3961 33.2701 41.7616 31.6087 40.9834C29.8225 40.1553 28.0289 39.1409 26.2844 37.9709C24.2342 36.5831 22.2866 34.9757 20.4899 33.1897C18.6958 31.3853 17.0878 29.4371 15.7055 27.3936C14.5714 25.7029 13.558 23.9161 12.6909 22.0783C11.9138 20.4001 12.283 18.4135 13.6053 17.1256L16.6987 14.0992L16.7774 14.0222L16.711 13.9344L9.98643 5.04442L9.89985 4.92995L9.79835 5.03144L8.75118 6.07863C8.73093 6.0985 8.71067 6.11762 8.69095 6.13488C4.02729 10.2335 2.40377 16.8393 4.65335 22.5737C6.94368 28.4121 10.3617 33.6727 14.8126 38.2087C19.3414 42.8255 24.7558 46.395 30.9042 48.8187ZM36.7322 25.9439C36.7322 21.134 32.8191 17.2209 28.0092 17.2209C27.3116 17.2209 26.7453 16.6547 26.7453 15.9571C26.7453 15.259 27.3112 14.6932 28.0092 14.6932C34.2128 14.6932 39.2599 19.7404 39.2599 25.9439C39.2599 26.6419 38.6941 27.2078 37.9961 27.2078C37.298 27.2078 36.7322 26.6419 36.7322 25.9439ZM43.729 25.9439C43.729 17.2757 36.6774 10.2238 28.0092 10.2238C27.3116 10.2238 26.7453 9.65788 26.7453 8.95988C26.7453 8.26186 27.3112 7.696 28.0092 7.696C38.0707 7.696 46.2567 15.882 46.2567 25.9439C46.2567 26.6419 45.6909 27.2078 44.9928 27.2078C44.2948 27.2078 43.729 26.6419 43.729 25.9439ZM26.7453 1.92501C26.7453 1.22699 27.3112 0.661133 28.0092 0.661133C41.95 0.661133 53.292 12.0027 53.2916 25.9439C53.2916 26.6419 52.7257 27.2078 52.0277 27.2078C51.3297 27.2078 50.7638 26.6419 50.7638 25.9439C50.7638 13.3968 40.5563 3.18889 28.0092 3.18889C27.3112 3.18889 26.7453 2.62304 26.7453 1.92501Z" stroke="#F7F7F7" stroke-width="0.25"/>
</svg>
