<svg width="24" height="24" viewBox="0 0 24 24" fill="none" xmlns="http://www.w3.org/2000/svg">
<path d="M20.6955 4.33931C16.4346 -0.531543 9.21726 -0.974347 4.43465 3.36514C-0.261002 7.61606 -0.695784 15.0552 3.47813 19.926C5.47813 22.2286 8.34769 23.6456 11.3912 23.8227C11.652 23.8227 11.826 23.8227 12.0868 23.8227C14.5216 23.8227 16.8694 23.0257 18.8694 21.6087L18.9564 23.2028L20.2607 23.1142L19.9999 19.5718L16.6086 18.7747L16.2607 20.1031L17.9999 20.5459C16.0868 21.9629 13.739 22.6714 11.3912 22.5829C8.69552 22.4057 6.17378 21.1659 4.34769 19.129C0.608563 14.8781 0.95639 8.23599 5.21726 4.42787C9.39117 0.619749 15.9129 0.973993 19.652 5.31348C22.8694 8.94447 23.1303 14.3467 20.3477 18.2434L21.3912 19.0404C24.6086 14.4352 24.2607 8.41311 20.6955 4.33931Z" fill="white"/>
<path d="M10.6954 5.93359C9.47801 5.93359 8.52148 6.90776 8.52148 8.14762V16.1181C8.52148 17.358 9.47801 18.3321 10.6954 18.3321H13.3041C14.5215 18.3321 15.478 17.358 15.478 16.1181V8.14762C15.478 6.90776 14.5215 5.93359 13.3041 5.93359H10.6954ZM14.6084 8.14762V16.1181C14.6084 16.8266 13.9997 17.4465 13.3041 17.4465H10.6954C9.99975 17.4465 9.39105 16.8266 9.39105 16.1181V8.14762C9.39105 7.43913 9.99975 6.8192 10.6954 6.8192H13.3041C13.9997 6.8192 14.6084 7.35057 14.6084 8.14762Z" fill="white"/>
<path d="M11.9997 16.118C12.2398 16.118 12.4345 15.9198 12.4345 15.6752C12.4345 15.4307 12.2398 15.2324 11.9997 15.2324C11.7596 15.2324 11.5649 15.4307 11.5649 15.6752C11.5649 15.9198 11.7596 16.118 11.9997 16.118Z" fill="white"/>
</svg>
