<svg width="96" height="26" viewBox="0 0 96 26" fill="none" xmlns="http://www.w3.org/2000/svg">
<path d="M11.9998 1C11.7998 1 11.5998 1.09999 11.4998 1.29999C10.9998 1.99999 10.4998 2.69999 9.99983 3.39999C8.19983 5.89999 6.3998 8.39999 4.5998 10.9C4.4998 11 4.49982 11.1 4.29982 11.2V1H0.799816C0.699816 1.4 0.799816 16.5 0.799816 16.7H0.899852C1.79985 16.7 2.79984 16.7 3.69984 16.7C3.79984 16.7 3.89983 16.6 3.99983 16.5C4.19983 16.2 4.49984 15.8 4.69984 15.5C6.79984 12.6 8.89983 9.69999 10.9998 6.79999C11.0998 6.69999 11.0998 6.6 11.2998 6.5V9V11.5C11.2998 12.3 11.2998 13.2 11.2998 14C11.2998 14.8 11.2998 15.7 11.2998 16.5H14.7998V1C14.6998 1 14.5998 1 14.4998 1C13.6998 1 12.7998 1 11.9998 1Z" fill="#D8E5C2"/>
<path d="M87.1998 17.2C91.8998 17.2 95.5998 13.5 95.5998 8.89999C95.5998 4.49999 92.1998 0.6 87.1998 0.5C82.4998 0.5 78.7998 4.19999 78.7998 8.79999C78.7998 13.5 82.4998 17.2 87.1998 17.2ZM83.1998 5.89999C84.2998 4.39999 85.7998 3.79999 87.4998 3.89999C87.9998 3.89999 88.4998 4.00001 88.8998 4.20001C90.5998 4.80001 91.5998 6.09999 91.8998 7.89999C92.0998 9.09999 91.9998 10.2 91.3998 11.3C90.6998 12.8 89.3998 13.5 87.8998 13.8C86.9998 13.9 86.1998 13.9 85.2998 13.6C83.5998 13 82.5998 11.7 82.2998 10C82.1998 9.7 82.1998 9.3 82.1998 9C82.2998 7.8 82.5998 6.79999 83.1998 5.89999Z" fill="#D8E5C2"/>
<path d="M53.3999 13.6V10.5H61.7999V7.39999H60.3999H58.9999H57.5999H56.1999C55.6999 7.39999 55.2999 7.39999 54.7999 7.39999C54.2999 7.39999 53.8999 7.39999 53.3999 7.39999V4.29999H62.0999V1H49.8999V16.7C49.9999 16.7 49.9999 16.7 49.9999 16.7C53.9999 16.7 57.8999 16.7 61.8999 16.7H61.9999C61.9999 15.7 61.9999 14.6 61.9999 13.6H53.3999Z" fill="#D8E5C2"/>
<path d="M28.8 7H22V1H18.5V16.7H22V10.4H28.9V16.7C29.4 16.8 32.1 16.8 32.4 16.7V1H28.9V7H28.8Z" fill="#D8E5C2"/>
<path d="M70.0999 10.6C70.3999 10.6 70.4999 10.7 70.6999 10.9C72.0999 12.8 73.4999 14.7 74.7999 16.6C74.8999 16.8 75.0999 16.9 75.2999 16.9C76.4999 16.9 77.5999 16.9 78.7999 16.9C78.8999 16.9 78.9999 16.9 79.1999 16.9C77.1999 14.2 75.2999 11.6 73.2999 9C75.2999 6.4 77.1999 3.80001 79.1999 1.10001C78.9999 1.10001 78.8999 1.10001 78.7999 1.10001C77.6999 1.10001 76.4999 1.10001 75.3999 1.10001C75.0999 1.10001 74.9999 1.19999 74.8999 1.39999C73.5999 3.19999 72.1999 4.99999 70.8999 6.79999C70.5999 7.19999 70.3999 7.39999 69.8999 7.29999C69.5999 7.29999 69.2999 7.29999 68.8999 7.29999V1H65.3999V16.7C65.8999 16.8 68.5999 16.8 68.8999 16.7V10.6C69.2999 10.6 69.6999 10.6 70.0999 10.6Z" fill="#D8E5C2"/>
<path d="M94.7997 22.1C88.4997 22.1 82.0997 22.1 75.7997 22.1C73.6997 22.1 71.5997 22.1 69.5997 22.1C69.2997 22.1 69.1997 22.0999 69.1997 22.3999C69.1997 23.2999 69.1997 24.2 69.1997 25.1C69.1997 25.2 69.1997 25.2999 69.1997 25.3999H69.5997H94.7997C94.8997 25.3999 94.9997 25.3999 95.0997 25.3999C95.1997 25.3999 95.2997 25.3 95.2997 25.2C95.2997 25.1 95.2997 24.9999 95.2997 24.8999C95.2997 24.0999 95.2997 23.3 95.2997 22.5C95.2997 22 95.2997 22.1 94.7997 22.1Z" fill="#D8E5C2"/>
<path d="M42.8 16.8004V10.5004V4.2004H43.2C44.5 4.2004 45.8 4.2004 47.2 4.2004C47.3 4.2004 47.5 4.2004 47.6 4.2004V1.10039C47.2 1.00039 34.7 1.00039 34.5 1.10039V4.30037H34.9C36.2 4.30037 37.5 4.30037 38.9 4.30037C39 4.30037 39.2 4.30037 39.3 4.30037V16.8004H42.8Z" fill="#D8E5C2"/>
<path d="M61.6998 22.0996H61.5998H39.7998C39.6998 22.0996 39.6998 22.0996 39.5998 22.0996C39.3998 22.0996 39.3998 22.0996 39.2998 22.3996C39.2998 22.4996 39.2998 22.4996 39.2998 22.5996C39.2998 23.3996 39.2998 24.2996 39.2998 25.0996C39.2998 25.5996 39.2998 25.5996 39.7998 25.5996H50.6998H61.3998C61.4998 25.5996 61.5998 25.5996 61.6998 25.5996C61.8998 25.5996 61.9998 25.5996 61.9998 25.2996C61.9998 24.3996 61.9998 23.3996 61.9998 22.4996C61.9998 22.0996 61.9998 22.0996 61.6998 22.0996Z" fill="#D8E5C2"/>
<path d="M31.8998 22.0996C31.0998 22.0996 30.3998 22.0996 29.5998 22.0996C24.7998 22.0996 19.9998 22.0996 15.1998 22.0996C14.7998 22.0996 14.7998 22.0996 14.7998 22.4996C14.7998 23.3996 14.7998 24.2996 14.7998 25.0996C14.7998 25.1996 14.7998 25.2996 14.7998 25.4996H15.1998H19.9998C23.8998 25.4996 27.7998 25.4996 31.7998 25.4996C32.1998 25.4996 32.1998 25.4996 32.1998 25.0996C32.1998 24.1996 32.1998 23.2996 32.1998 22.4996C32.2998 22.0996 32.2998 22.0996 31.8998 22.0996Z" fill="#D8E5C2"/>
<path d="M7.39984 22.0996C5.29984 22.0996 3.29983 22.0996 1.19983 22.0996C0.899829 22.0996 0.799805 22.0996 0.799805 22.4996C0.799805 23.3996 0.799805 24.2996 0.799805 25.1996C0.799805 25.2996 0.799805 25.3996 0.799805 25.4996C0.899805 25.4996 0.999792 25.4996 1.09979 25.4996C3.19979 25.4996 5.29984 25.4996 7.39984 25.4996C7.69984 25.4996 7.69983 25.4996 7.69983 25.1996C7.69983 24.2996 7.69983 23.3996 7.69983 22.4996C7.79983 22.0996 7.69984 22.0996 7.39984 22.0996Z" fill="#D8E5C2"/>
</svg>
