<svg width="127" height="28" viewBox="0 0 127 28" fill="none" xmlns="http://www.w3.org/2000/svg">
<path d="M36.0002 0.5C36.1002 0.5 36.2002 0.5 36.3002 0.5C39.1002 0.7 41.5002 1.7 43.5002 3.7C44.7002 4.9 45.4002 6.4 45.5002 8.2C45.7002 10 45.3002 11.7 44.3002 13.2C43.4002 14.5 42.3002 15.4 41.0002 16.1C40.0002 16.7 38.9002 17 37.7002 17.2C37.6002 17.2 37.5002 17.2 37.4002 17.3H40.7002C42.6002 20.8 44.6002 24.2 46.6002 27.7C46.5002 27.7 46.5002 27.7 46.4002 27.7C44.3002 27.7 42.3002 27.7 40.2002 27.7C40.0002 27.7 40.0002 27.6 39.9002 27.5C38.9002 25.7 37.9002 23.9 36.9002 22.1C36.1002 20.6 35.2002 19.1 34.4002 17.6C34.4002 17.5 34.3002 17.5 34.3002 17.4H29.0002V27.7H23.0002V3.60001H22.9002C19.9002 11.6 16.9002 19.6 13.8002 27.7C13.7002 27.7 13.6002 27.7 13.6002 27.7C13.2002 27.7 12.7002 27.7 12.3002 27.7C12.0002 27.7 12.0002 27.7 11.9002 27.4C10.7002 24.5 9.6002 21.6 8.4002 18.6C6.4002 13.6 4.5002 8.6 2.5002 3.7C2.5002 3.6 2.4002 3.5 2.4002 3.5V27.7C2.3002 27.7 2.3002 27.7 2.3002 27.7C1.8002 27.7 1.4002 27.7 0.9002 27.7C0.8002 27.7 0.800195 27.7 0.700195 27.7V0.5C2.8002 0.5 5.0002 0.5 7.1002 0.5C7.1002 0.6 7.1002 0.599997 7.2002 0.699997C9.7002 7.1 12.2002 13.5 14.8002 19.9C14.8002 20 14.9002 20 14.9002 20.2C14.9002 20.1 15.0002 20 15.0002 19.9C16.8002 15.2 18.6002 10.5 20.4002 5.8C21.1002 4 21.8002 2.3 22.4002 0.5H36.0002ZM29.0002 16.1H29.3002C30.7002 16.1 32.1002 16.1 33.5002 16.1C35.0002 16.1 36.2002 15.5 37.2002 14.4C37.9002 13.6 38.3002 12.7 38.5002 11.6C38.9002 10.1 38.9002 8.5 38.6002 7C38.4002 6 38.1002 5 37.6002 4.2C36.6002 2.7 35.3002 1.9 33.4002 1.8C32.0002 1.8 30.6002 1.8 29.2002 1.8C29.1002 1.8 29.1002 1.8 29.0002 1.8V16.1Z" fill="#D8E5C2"/>
<path d="M75.9004 15.8H77.4004C78.4004 17.5 79.3004 19.2 80.3004 21H77.0004C76.9004 20.9 76.9004 20.8 76.8004 20.7C75.9004 19.2 75.1004 17.6 74.3004 16.1C74.2004 15.9 74.1004 15.9 73.9004 15.9C73.2004 15.9 72.5004 15.9 71.7004 15.9H71.4004V21C71.2004 21.1 68.8004 21.1 68.4004 21V7.5H68.5004C70.7004 7.5 72.8004 7.5 75.0004 7.5C76.3004 7.5 77.5004 8 78.5004 9C80.1004 10.4 80.1004 13 78.6004 14.4C77.9004 15.1 77.0004 15.6 75.9004 15.8ZM71.5004 15.2H71.6004C72.3004 15.2 73.1004 15.2 73.8004 15.2C74.6004 15.2 75.2004 14.8 75.7004 14.2C75.9004 14 76.0004 13.7 76.1004 13.4C76.4004 12.7 76.4004 11.9 76.4004 11.1C76.4004 10.5 76.2004 9.89999 75.9004 9.39999C75.4004 8.49999 74.7004 8.10001 73.7004 8.10001C73.1004 8.10001 72.5004 8.10001 71.8004 8.10001C71.7004 8.10001 71.6004 8.10001 71.5004 8.10001V15.2Z" fill="#D8E5C2"/>
<path d="M109.2 7.40039H112.2V21.0004C112 21.0004 111.7 21.0004 111.5 20.8004C110.9 20.3004 110.3 19.7004 109.8 19.2004C109.7 19.1004 109.7 19.1004 109.6 19.0004C109.6 19.0004 109.6 19.1004 109.5 19.1004C108.8 20.0004 107.9 20.6004 106.7 20.9004C105.2 21.2004 103.7 21.2004 102.2 20.6004C100.8 20.0004 99.8003 19.1004 99.2003 17.7004C98.9003 17.1004 98.8003 16.4004 98.8003 15.7004C98.8003 13.0004 98.8003 10.3004 98.8003 7.6004C98.8003 7.5004 98.8003 7.50039 98.8003 7.40039H101.8V7.70039C101.8 10.4004 101.8 13.2004 101.8 15.9004C101.8 16.5004 101.9 17.2004 102.1 17.8004C102.6 19.1004 103.6 19.9004 105 20.1004C105.9 20.2004 106.7 20.2004 107.5 19.9004C108.1 19.7004 108.5 19.3004 108.9 18.9004C109 18.8004 109.1 18.6004 109.1 18.4004C109.1 15.9004 109.1 13.4004 109.1 10.9004C109.1 9.80039 109.1 8.80039 109.1 7.70039C109.2 7.60039 109.2 7.50039 109.2 7.40039Z" fill="#D8E5C2"/>
<path d="M89.2 7.2998C90.5 7.2998 91.8 7.4998 92.9 8.1998C94.7 9.2998 95.9 10.7998 96.3 12.8998C97 17.2998 94.2 20.1998 91.2 20.8998C89.5 21.2998 87.8 21.2998 86.2 20.5998C84 19.5998 82.6 17.9998 82.1 15.5998C81.4 11.6998 83.6 8.8998 86.3 7.7998C87.2 7.3998 88.2 7.2998 89.2 7.2998ZM93.2 14.0998C93.2 13.3998 93.1 12.5998 93 11.8998C92.8 10.8998 92.4 9.9998 91.8 9.1998C91.4 8.6998 91 8.29981 90.4 8.09981C89.3 7.59981 87.7 7.6998 86.5 8.9998C86 9.5998 85.7 10.1998 85.5 10.8998C85.1 11.9998 85 13.1998 85 14.3998C85 15.3998 85.1 16.3998 85.4 17.3998C85.7 18.1998 86.1 18.9998 86.7 19.5998C87.5 20.3998 88.5 20.6998 89.6 20.4998C90.5 20.3998 91.1 19.8998 91.6 19.1998C92.1 18.5998 92.4 17.9998 92.6 17.1998C93.1 16.2998 93.2 15.2998 93.2 14.0998Z" fill="#D8E5C2"/>
<path d="M118.1 21.0004H115.1V7.40039H115.2C117.4 7.40039 119.6 7.40039 121.7 7.40039C123.1 7.40039 124.3 8.0004 125.3 9.0004C125.8 9.5004 126.2 10.1004 126.3 10.9004C126.5 12.3004 126.2 13.5004 125.2 14.5004C124.3 15.3004 123.3 15.8004 122.2 15.9004C121.9 15.9004 121.5 16.0004 121.2 16.0004C120.3 16.0004 119.3 16.0004 118.4 16.0004H118.1V21.0004ZM118.1 15.2004C118.2 15.2004 118.2 15.2004 118.2 15.2004C118.9 15.2004 119.7 15.2004 120.4 15.2004C121 15.2004 121.6 14.9004 122 14.4004C122.3 14.0004 122.5 13.6004 122.7 13.2004C123 12.3004 123 11.5004 122.8 10.6004C122.7 10.1004 122.5 9.6004 122.2 9.1004C121.7 8.4004 121.1 8.1004 120.2 8.1004C119.5 8.1004 118.9 8.1004 118.2 8.1004C118.1 8.1004 118.1 8.1004 118 8.1004V15.2004H118.1Z" fill="#D8E5C2"/>
<path d="M64.9001 10.8998H64.4001C64.4001 10.6998 64.4001 10.4998 64.3001 10.2998C64.2001 9.7998 63.9001 9.3998 63.5001 8.9998C62.8001 8.3998 62.1001 8.0998 61.2001 7.9998C60.4001 7.8998 59.6001 7.9998 58.8001 8.1998C57.5001 8.5998 56.6001 9.3998 56.0001 10.6998C55.6001 11.4998 55.4001 12.2998 55.3001 13.0998C55.2001 13.9998 55.2001 14.8998 55.3001 15.7998C55.5001 17.1998 55.9001 18.4998 56.8001 19.4998C57.5001 20.2998 58.3001 20.6998 59.4001 20.6998C60.0001 20.6998 60.6001 20.5998 61.1001 20.3998C61.7001 20.0998 62.2001 19.6998 62.5001 18.9998C62.6001 18.7998 62.6001 18.6998 62.6001 18.4998C62.6001 17.4998 62.6001 16.4998 62.6001 15.5998V15.2998H65.6001V21.0998C65.3001 21.0998 65.1001 21.0998 64.9001 20.8998C64.5001 20.4998 64.0001 20.0998 63.6001 19.6998C63.6001 19.6998 63.6001 19.6998 63.5001 19.6998C62.9001 20.3998 62.2001 20.7998 61.3001 20.9998C58.7001 21.5998 55.5001 20.9998 53.5001 18.3998C52.7001 17.3998 52.3001 16.2998 52.2001 14.9998C52.1001 13.8998 52.2001 12.7998 52.6001 11.6998C53.5001 9.5998 55.1001 8.1998 57.3001 7.5998C58.8001 7.1998 60.4001 7.1998 61.9001 7.5998C62.7001 7.7998 63.4001 8.29979 64.0001 8.89979C64.4001 9.39979 64.7001 9.9998 64.8001 10.6998C64.9001 10.6998 64.9001 10.7998 64.9001 10.8998Z" fill="#D8E5C2"/>
</svg>
