<svg width="58" height="51" viewBox="0 0 58 51" fill="none" xmlns="http://www.w3.org/2000/svg">
<path d="M4.09982 28.2002H0.299805V50.3002H13.9998V47.1002H4.09982V28.2002Z" fill="#D8E5C2"/>
<path d="M21.3997 37.7002C17.7997 37.7002 15.1997 40.5002 15.1997 44.3002C15.1997 48.2002 17.6997 50.7002 21.4997 50.7002C24.2997 50.7002 26.4997 49.2002 27.2997 46.5002H23.9997C23.4997 47.7002 22.6997 48.3002 21.4997 48.3002C19.6997 48.3002 18.6997 47.2002 18.5997 45.0002H27.3997V44.7002C27.4997 40.4002 25.0997 37.7002 21.3997 37.7002ZM18.6997 42.9002C18.8997 41.2002 19.8997 40.1002 21.3997 40.1002C23.0997 40.1002 23.8997 41.4002 23.9997 42.9002H18.6997Z" fill="#D8E5C2"/>
<path d="M34.0999 46.4L31.4999 38H27.8999L32.0999 50.3H35.8999L40.0999 38H36.6999L34.0999 46.4Z" fill="#D8E5C2"/>
<path d="M46.3997 37.7002C42.7997 37.7002 40.1997 40.5002 40.1997 44.3002C40.1997 48.2002 42.6997 50.7002 46.4997 50.7002C49.2997 50.7002 51.4997 49.2002 52.2997 46.5002H48.9997C48.4997 47.7002 47.6997 48.3002 46.4997 48.3002C44.6997 48.3002 43.6997 47.2002 43.5997 45.0002H52.3997V44.7002C52.3997 40.4002 50.0997 37.7002 46.3997 37.7002ZM43.5997 42.9002C43.7997 41.2002 44.7997 40.1002 46.2997 40.1002C47.9997 40.1002 48.7997 41.4002 48.8997 42.9002H43.5997Z" fill="#D8E5C2"/>
<path d="M57.4 28.2002H54V50.3002H57.4V28.2002Z" fill="#D8E5C2"/>
<path d="M57.3998 0.200195H0.299805V3.6002V24.7002H3.69983V3.6002H53.9998V24.7002H57.3998V3.6002V0.200195Z" fill="#D8E5C2"/>
</svg>
