<svg width="153" height="32" viewBox="0 0 153 32" fill="none" xmlns="http://www.w3.org/2000/svg">
<path d="M152.6 14.8H151.8C147.4 14.8 143 14.8 138.6 14.8C137.9 14.8 137.8 14.6 137.8 13.9C137.8 10.3 137.8 6.6 137.8 3C137.8 1.4 138.4 0.499998 139.7 0.0999985C139.9 -1.52737e-06 140.2 0 140.4 0C143.6 0 146.8 0 150 0C151.4 0 152.6 1.2 152.6 2.6C152.6 6.5 152.6 10.4 152.6 14.3C152.6 14.4 152.6 14.6 152.6 14.8Z" fill="#D8E5C2"/>
<path d="M136.2 23.8001C136.2 26.0001 136.2 28.2001 136.2 30.4001C136.2 31.0001 136 31.2001 135.5 31.2001C131.1 31.2001 126.6 31.2001 122.2 31.2001C121.7 31.2001 121.5 31.0001 121.5 30.5001C121.5 26.0001 121.5 21.6001 121.5 17.1001C121.5 16.6001 121.7 16.4001 122.2 16.4001C125.2 16.4001 124.6 16.2001 126.1 18.6001C126.6 19.5001 127.2 20.4001 127.7 21.4001C128.5 22.8001 129.4 22.8001 130.2 21.4001C131 20.1001 131.8 18.8001 132.5 17.4001C132.9 16.7001 133.4 16.4001 134.2 16.4001C134.6 16.4001 135.1 16.4001 135.5 16.4001C136.1 16.3001 136.4 16.5001 136.3 17.2001C136.2 19.4001 136.2 21.6001 136.2 23.8001Z" fill="#D8E5C2"/>
<path d="M145.9 16.4004H152.6V31.3004H137.6C137.6 30.6004 137.6 30.0004 137.6 29.3004C137.6 28.4004 137.6 27.4004 137.6 26.5004C137.6 25.1004 138.9 24.2004 140 24.3004C141.1 24.4004 142.3 24.3004 143.4 24.2004C144.8 24.1004 145.9 22.8004 145.9 21.4004C145.9 19.8004 145.9 18.1004 145.9 16.4004Z" fill="#D8E5C2"/>
<path d="M101.5 23.1002C102.7 23.1002 103.8 23.1002 105 23.1002C105.1 23.1002 105.4 23.3002 105.4 23.4002C105.8 24.4002 106.7 24.5002 107.6 24.5002C108.5 24.5002 109.2 24.1002 109.4 23.3002C109.6 22.4002 109.7 21.4002 109.8 20.3002C109.5 20.5002 109.4 20.5002 109.4 20.6002C107.8 22.6002 103.2 22.2002 101.6 19.8002C100.6 18.2002 100.5 16.5002 100.7 14.7002C100.8 13.5002 101.1 12.4002 101.8 11.4002C103.2 9.50016 106.5 8.70016 108.5 9.90016C109 10.2002 109.3 10.6002 109.8 11.0002C110.1 10.4002 110.6 9.90016 111.4 9.90016C112.1 9.90016 112.9 9.90016 113.6 9.90016C113.6 10.1002 113.6 10.3002 113.6 10.5002C113.6 14.1002 113.6 17.7002 113.6 21.3002C113.6 22.1002 113.5 22.9002 113.3 23.7002C112.9 25.4002 111.8 26.5002 110.1 26.9002C108.1 27.4002 106.1 27.4002 104.1 26.8002C102.8 26.4002 101.9 25.6002 101.6 24.2002C101.5 23.7002 101.5 23.4002 101.5 23.1002ZM104.5 15.6002C104.7 16.4002 104.8 17.2002 105.1 18.0002C105.5 19.0002 106.4 19.4002 107.4 19.3002C108.4 19.2002 109 18.8002 109.3 17.9002C109.8 16.3002 109.8 14.7002 109.3 13.2002C109 12.3002 108.3 11.8002 107.3 11.8002C106.2 11.8002 105.4 12.2002 105.1 13.1002C104.8 13.9002 104.7 14.7002 104.5 15.6002Z" fill="#D8E5C2"/>
<path d="M30.1001 21.5004C30.1001 21.3004 30.1001 21.0004 30.1001 20.8004C30.1001 15.7004 30.1001 10.7004 30.1001 5.60039C30.1001 5.10039 30.2001 4.80039 30.6001 4.60039C31.6001 4.00039 32.7001 3.50039 34.0001 3.40039V11.0004H38.2001C38.2001 10.8004 38.2001 10.5004 38.2001 10.3004C38.2001 8.70039 38.2001 7.10039 38.2001 5.50039C38.2001 5.20039 38.4001 4.90039 38.6001 4.70039C39.6001 4.00039 40.8001 3.50039 42.1001 3.40039V21.5004H38.2001V13.6004H34.0001V21.5004H30.1001Z" fill="#D8E5C2"/>
<path d="M73.6 10.4996C73.6 8.69961 73.6 7.19961 73.6 5.69961C73.6 5.09961 73.8 4.79961 74.2 4.59961C75.2 4.09961 76.1999 3.59961 77.3999 3.59961V21.5996H73.9999C73.9999 21.0996 73.8999 20.5996 73.8999 19.9996C71.5999 22.3996 68.1999 22.3996 65.9999 20.0996C65.0999 19.1996 64.8 17.9996 64.6 16.7996C64.4 15.1996 64.5 13.6996 65.1 12.1996C65.8 10.4996 67.1999 9.69961 68.8999 9.39961C70.6999 9.09961 72.2 9.29961 73.6 10.4996ZM73.8999 15.4996C73.6999 14.6996 73.6999 13.8996 73.3999 13.0996C73.0999 12.0996 72.2999 11.4996 71.2999 11.4996C70.2999 11.4996 69.5 11.9996 69.1 12.9996C68.5 14.6996 68.5 16.2996 69.1 17.9996C69.5 18.8996 70.2999 19.3996 71.2999 19.3996C72.2999 19.3996 72.9999 18.8996 73.3999 17.8996C73.5999 17.0996 73.6999 16.2996 73.8999 15.4996Z" fill="#D8E5C2"/>
<path d="M17.8999 3.69969C17.3999 5.09969 16.9999 6.49969 16.5999 7.79969C15.1999 12.1997 13.6999 16.5997 12.2999 20.8997C12.0999 21.3997 11.8999 21.5997 11.3999 21.5997C10.2999 21.5997 9.19991 21.5997 8.09991 21.5997C7.59991 21.5997 7.39992 21.3997 7.19992 20.9997C5.69992 15.9997 4.09991 10.8997 2.59991 5.89969C2.39991 5.19969 1.9999 4.79969 1.3999 4.59969C1.1999 4.49969 1.0999 4.29969 0.899902 4.09969C0.899902 3.99969 0.999908 3.99969 0.999908 3.89969C2.49991 3.89969 3.99991 3.89969 5.49991 3.89969C5.59991 3.89969 5.7999 4.19969 5.8999 4.39969C7.0999 8.29969 8.39991 12.1997 9.59991 16.0997C9.69991 16.2997 9.6999 16.4997 9.8999 16.8997C10.0999 16.3997 10.1999 16.0997 10.2999 15.6997C11.3999 12.1997 12.4999 8.69969 13.6999 5.09969C13.7999 4.79969 14.0999 4.39969 14.4999 4.19969C15.4999 3.69969 16.6999 3.49969 17.8999 3.69969Z" fill="#D8E5C2"/>
<path d="M90.6001 21.6004H86.6001C86.6001 21.3004 86.6001 21.1004 86.6001 20.8004C86.6001 17.9004 86.6001 15.0004 86.6001 12.0004C86.6001 11.1004 86.4001 10.9004 85.6001 10.5004C85.4001 10.4004 85.3001 10.2004 85.1001 10.1004C85.3001 10.0004 85.5001 9.90039 85.7001 9.90039C86.8001 9.90039 87.9001 9.90039 89.0001 9.90039C89.7001 9.90039 90.3001 9.90039 90.6001 10.7004C91.8001 9.70039 93.2001 9.40039 94.7001 9.40039C97.0001 9.50039 98.4001 10.6004 98.5001 12.9004C98.6001 15.8004 98.5001 18.7004 98.5001 21.6004H94.6001C94.6001 21.4004 94.6001 21.1004 94.6001 20.9004C94.6001 18.7004 94.6001 16.5004 94.6001 14.3004C94.6001 14.0004 94.6001 13.6004 94.5001 13.3004C94.3001 12.4004 93.9001 11.9004 93.2001 11.8004C92.1001 11.7004 91.3001 12.0004 91.0001 12.9004C90.8001 13.5004 90.7001 14.2004 90.7001 14.8004C90.6001 17.0004 90.6001 19.2004 90.6001 21.6004Z" fill="#D8E5C2"/>
<path d="M56.7002 15.5002C56.7002 17.1002 56.4002 18.6002 55.4002 19.8002C53.9002 21.5002 51.9002 21.8002 49.8002 21.6002C49.0002 21.5002 48.1002 21.3002 47.3002 20.9002C45.6002 20.1002 44.7002 18.6002 44.5002 16.7002C44.4002 15.5002 44.5002 14.2002 44.7002 13.0002C45.2002 10.9002 46.7002 9.8002 48.7002 9.3002C50.0002 9.0002 51.3002 9.0002 52.5002 9.3002C55.0002 9.9002 56.6002 12.0002 56.6002 14.6002C56.7002 15.0002 56.7002 15.2002 56.7002 15.5002ZM53.0002 15.7002C52.9002 14.9002 52.9002 14.3002 52.8002 13.7002C52.5002 12.3002 51.8002 11.6002 50.7002 11.5002C49.5002 11.5002 48.7002 12.0002 48.4002 13.3002C48.0002 14.8002 48.0002 16.4002 48.5002 17.9002C48.9002 18.9002 49.5002 19.3002 50.5002 19.3002C51.5002 19.3002 52.2002 18.9002 52.5002 17.9002C52.8002 17.2002 52.9002 16.3002 53.0002 15.7002Z" fill="#D8E5C2"/>
<path d="M62.6998 21.5996H58.7998V20.8996C58.7998 15.7996 58.7998 10.7996 58.7998 5.69961C58.7998 5.19961 58.9998 4.89961 59.3998 4.69961C60.3998 4.19961 61.3998 3.69961 62.6998 3.59961V21.5996Z" fill="#D8E5C2"/>
<path d="M22.1999 9.7998V21.4998H18.3999C18.3999 21.2998 18.3999 21.0998 18.3999 20.8998C18.3999 17.4998 18.3999 14.0998 18.3999 10.6998C18.3999 10.0998 18.5999 9.7998 19.1999 9.7998C20.1999 9.7998 21.1999 9.7998 22.1999 9.7998Z" fill="#D8E5C2"/>
<path d="M83.3 9.8002V21.5002H79.5C79.5 21.2002 79.5 21.0002 79.5 20.7002C79.5 17.4002 79.5 14.1002 79.5 10.7002C79.5 10.1002 79.8 9.8002 80.3 9.7002C81.4 9.8002 82.3 9.8002 83.3 9.8002Z" fill="#D8E5C2"/>
<path d="M22.5001 6.10039C22.5001 7.30039 21.5001 8.30039 20.3001 8.30039C19.1001 8.30039 18.1001 7.40039 18.1001 6.10039C18.1001 4.80039 19.1001 3.90039 20.3001 3.90039C21.6001 3.90039 22.6001 4.80039 22.5001 6.10039Z" fill="#D8E5C2"/>
<path d="M81.5998 3.90039C82.7998 3.90039 83.6998 4.80039 83.6998 6.10039C83.6998 7.40039 82.6998 8.30039 81.4998 8.30039C80.2998 8.30039 79.2998 7.30039 79.2998 6.10039C79.2998 4.80039 80.2998 3.90039 81.5998 3.90039Z" fill="#D8E5C2"/>
<path d="M121.4 14.8H136.2V0H121.4V14.8ZM128.8 11.2C126.7 11.2 125.1 9.5 125.1 7.5C125.1 5.4 126.8 3.8 128.8 3.8C130.9 3.8 132.5 5.5 132.5 7.5C132.5 9.5 130.9 11.2 128.8 11.2Z" fill="#D8E5C2"/>
</svg>
