<svg width="109" height="37" viewBox="0 0 109 37" fill="none" xmlns="http://www.w3.org/2000/svg">
<path d="M17.8 36.0999C17.5 36.0999 17.3 35.9999 17 35.9999C16.9 35.9999 16.8 35.9999 16.6 35.9999C16.7 35.8999 16.7 35.8999 16.8 35.8999C18.6 34.4999 20.2 32.9999 21.8 31.3999C23.9 29.2999 25.8 26.8999 27.6 24.4999C27.8 24.1999 28 23.9999 28.1 23.5999C28.2 22.7999 27.6 22.0999 26.9 21.9999C25.5 21.8999 24.1 21.7999 22.7 21.7999C20.6 21.7999 18.4 21.6999 16.3 21.6999C14.7 21.6999 13.1 21.7999 11.5 21.8999C9.69999 21.9999 7.89999 22.1999 5.99999 22.2999C4.49999 22.3999 3.09999 22.5999 1.59999 22.7999H1.49999C0.299988 17.2999 1.09999 12.1999 4.59999 7.69992C8.49999 2.59992 13.8 0.399925 20.2 0.799925C20.2 0.799925 20.2 0.799923 20.2 0.899923L20.1 0.999922C18 2.59992 16.1 4.29992 14.2 6.09992C12.5 7.79992 10.9 9.59992 9.49999 11.4999C8.79999 12.3999 9.49999 13.6999 10.4 13.7999C10.8 13.7999 11.1 13.7999 11.5 13.7999C12.4 13.7999 13.2 13.6999 14.1 13.6999C15.6 13.6999 17.2 13.5999 18.7 13.5999C20 13.5999 21.4 13.5999 22.7 13.6999C24.4 13.7999 26.2 13.7999 27.9 13.9999C29.7 14.0999 31.5 14.2999 33.4 14.4999C34.2 14.5999 35 14.6999 35.9 14.7999C36.1 14.7999 36.1 14.8999 36.1 14.9999C36.3 15.9999 36.4 17.0999 36.5 18.0999C36.6 20.7999 36.1 23.2999 35 25.7999C33.3 29.5999 30.6 32.3999 26.9 34.2999C25.1 35.1999 23.2 35.7999 21.2 36.0999C20.7 36.1999 20.2 36.1999 19.7 36.1999C19.6 36.1999 19.6 36.1999 19.5 36.1999H17.8V36.0999Z" fill="#D8E5C2"/>
<path d="M58.3001 27.0998V34.0998H53.7001V27.0998C50.3001 26.9998 47.6001 25.5998 45.6001 22.8998C44.2001 20.9998 43.6001 18.7998 43.7001 16.4998C44.0001 10.9998 48.6001 6.9998 53.7001 7.0998V2.7998H58.4001V22.5998C59.4001 22.5998 60.2001 22.3998 61.1001 21.8998C62.4001 21.1998 63.3001 20.0998 63.7001 18.6998C64.2001 17.0998 64.0001 15.4998 63.0001 14.0998C62.1001 12.6998 60.7001 11.8998 59.0001 11.5998C59.3001 11.1998 59.6001 10.6998 59.9001 10.2998C60.5001 9.4998 61.1001 8.5998 61.7001 7.7998C61.8001 7.6998 61.8001 7.6998 62.0001 7.6998C65.5001 9.0998 67.7001 11.6998 68.3001 15.4998C69.0001 19.7998 66.8001 23.9998 62.9001 25.9998C61.6001 26.5998 60.3001 26.9998 58.9001 26.9998C58.6001 26.9998 58.4001 27.0998 58.3001 27.0998ZM53.6001 22.5998V11.5998C52.2001 11.4998 50.2001 12.2998 49.0001 14.0998C47.8001 15.9998 47.8001 17.9998 49.0001 19.8998C50.0001 21.5998 51.6001 22.4998 53.6001 22.5998Z" fill="#D8E5C2"/>
<path d="M86.3002 8.9C85.4002 10.2 84.4002 11.5 83.5002 12.8C80.9002 11 77.6002 12 76.2002 14.2C74.8002 16.4 75.3002 19.3 77.2002 20.9C79.2002 22.6 82.3002 22.5 84.3002 20.4C85.2002 21.7 86.2002 23.1 87.1002 24.4C83.9002 27.4 78.3002 28.1 74.1002 24.6C69.8002 21.1 69.3002 14.6 72.9002 10.4C76.6002 6.3 82.5002 6.2 86.3002 8.9Z" fill="#D8E5C2"/>
<path d="M23.9998 24.6002C23.5998 25.2002 23.0998 25.7002 22.6998 26.2002C20.7998 28.5002 18.6998 30.7002 16.3998 32.6002C15.2998 33.5002 14.1998 34.3002 13.1998 35.1002C13.0998 35.2002 12.8998 35.2002 12.7998 35.2002C8.7998 33.8002 5.6998 31.3002 3.4998 27.8002C3.0998 27.1002 2.7998 26.4002 2.3998 25.8002C2.3998 25.8002 2.3998 25.7002 2.2998 25.6002C9.4998 24.6002 16.6998 24.3002 23.9998 24.6002Z" fill="#D8E5C2"/>
<path d="M13.3999 10.9C13.4999 10.8 13.5999 10.7 13.5999 10.6C15.8999 7.9 18.4999 5.5 21.2999 3.4C22.0999 2.8 22.8999 2.3 23.6999 1.7C23.7999 1.6 23.8999 1.6 23.9999 1.7C28.8999 3.4 32.4999 6.6 34.6999 11.4C34.7999 11.5 34.7999 11.7 34.8999 11.8C34.5999 11.8 34.3999 11.7 34.0999 11.7C33.5999 11.6 32.9999 11.6 32.4999 11.5C31.8999 11.4 31.2999 11.4 30.6999 11.3C30.1999 11.3 29.6999 11.2 29.1999 11.2C28.5999 11.2 27.8999 11.1 27.2999 11.1C26.7999 11.1 26.2999 11 25.7999 11C24.7999 11 23.6999 10.9 22.6999 10.9C22.2999 10.9 21.8999 10.9 21.4999 10.9C19.6999 10.9 17.9999 10.9 16.1999 10.9C15.2999 10.9 14.4999 10.9 13.5999 11C13.4999 10.9 13.4999 10.9 13.3999 10.9Z" fill="#D8E5C2"/>
<path d="M101 16.9004C103.4 20.1004 105.8 23.4004 108.3 26.6004C108.2 26.6004 108.2 26.6004 108.1 26.6004C106.4 26.6004 104.8 26.6004 103.1 26.6004C103 26.6004 102.9 26.6004 102.8 26.5004C100.5 23.4004 98.0998 20.2004 95.7998 17.1004C95.7998 17.1004 95.8998 17.0004 95.8998 16.9004C98.0998 13.8004 100.3 10.7004 102.6 7.60039C102.7 7.50039 102.8 7.40039 102.9 7.40039C104.5 7.40039 106.2 7.40039 107.8 7.40039H108C105.6 10.6004 103.3 13.8004 101 16.9004Z" fill="#D8E5C2"/>
<path d="M95.1 7.5H90V26.7H95.1V7.5Z" fill="#D8E5C2"/>
<path d="M104.9 33.4V35.8H104.3V29.7H104.9V30.4H105C105.6 29.4 107.5 29.3 108.1 30.7C108.5 31.7 108.5 32.7 107.8 33.6C107.1 34.4 105.6 34.5 104.9 33.4ZM107.7 31.8C107.7 31.7 107.7 31.5 107.6 31.3C107.5 30.7 107 30.3 106.5 30.2C106 30.1 105.5 30.4 105.2 30.8C104.8 31.4 104.9 32.5 105.3 33.1C105.8 33.8 106.8 33.8 107.3 33.2C107.6 32.8 107.7 32.4 107.7 31.8Z" fill="#D8E5C2"/>
<path d="M83.8002 33.5998C83.9002 33.5998 84.0002 33.5998 84.2002 33.5998C84.3002 33.5998 84.4002 33.5998 84.4002 33.4998C84.7002 32.9998 84.9002 32.3998 85.0002 31.7998C85.1002 31.1998 85.1002 30.5998 85.1002 29.9998C85.1002 29.8998 85.1002 29.7998 85.1002 29.7998H87.8002V33.5998H88.4002V35.0998H87.8002V34.0998H84.3002V35.0998H83.7002V33.5998H83.8002ZM85.6002 30.2998C85.6002 31.4998 85.5002 32.5998 84.9002 33.5998H87.1002V30.2998H85.6002Z" fill="#D8E5C2"/>
<path d="M98.1001 31.9996H94.8001C94.8001 32.5996 95.0001 33.0996 95.5001 33.3996C96.1001 33.7996 96.8001 33.7996 97.8001 33.1996C97.9001 33.2996 98.0001 33.4996 98.1001 33.5996C97.8001 33.8996 97.4001 34.0996 97.0001 34.1996C95.6001 34.4996 94.4001 33.6996 94.2001 32.2996C94.1001 31.1996 94.6001 30.1996 95.6001 29.7996C96.3001 29.4996 97.1001 29.5996 97.6001 30.1996C98.0001 30.5996 98.1001 31.2996 98.1001 31.9996ZM94.8001 31.3996H97.5001C97.5001 30.5996 97.0001 30.0996 96.3001 30.0996C95.5001 30.0996 94.8001 30.7996 94.8001 31.3996Z" fill="#D8E5C2"/>
<path d="M74.1001 34.1002V29.8002H74.7001V33.2002C74.8001 33.1002 74.8001 33.1002 74.8001 33.1002C75.6001 32.0002 76.4001 31.0002 77.2001 29.9002C77.3001 29.8002 77.4001 29.7002 77.6001 29.7002C77.7001 29.7002 77.8001 29.7002 77.9001 29.7002V34.0002H77.3001V30.6002L77.2001 30.7002C76.4001 31.7002 75.6001 32.8002 74.9001 33.8002C74.8001 33.9002 74.7001 34.0002 74.5001 34.0002C74.3001 34.1002 74.2001 34.1002 74.1001 34.1002Z" fill="#D8E5C2"/>
<path d="M66.9999 30.3004H65.4999C65.4999 30.6004 65.4999 30.9004 65.4999 31.2004C65.4999 31.8004 65.4999 32.3004 65.2999 32.9004C65.1999 33.3004 65.0999 33.6004 64.7999 33.8004C64.5999 34.0004 64.2999 34.1004 63.8999 34.2004C63.8999 34.0004 63.8999 33.9004 63.8999 33.7004C63.8999 33.7004 63.8999 33.6004 63.9999 33.6004C64.3999 33.5004 64.5999 33.1004 64.7999 32.8004C64.9999 32.3004 64.9999 31.8004 64.9999 31.3004C64.9999 30.8004 64.9999 30.3004 64.9999 29.9004H67.6999V34.2004H66.9999V30.3004Z" fill="#D8E5C2"/>
</svg>
