<svg width="52" height="74" viewBox="0 0 52 74" fill="none" xmlns="http://www.w3.org/2000/svg">
<path d="M30.2001 42.4004C24.7001 46.4004 19.2001 50.5004 13.7001 54.5004C13.7001 54.5004 13.7001 54.5004 13.6001 54.5004V54.4004C13.6001 36.5004 13.6001 18.6004 13.6001 0.700381V0.600391C13.8001 0.500391 36.7001 0.500391 37.0001 0.600391V47.5004C36.2001 46.9004 35.5001 46.4004 34.7001 45.8004C33.9001 45.3004 33.2001 44.7004 32.5001 44.2004C31.8001 43.5004 31.0001 43.0004 30.2001 42.4004Z" fill="#D8E5C2"/>
<path d="M13.6001 63.0002V62.7002C13.6001 60.9002 13.6001 59.0002 13.6001 57.2002C13.6001 57.0002 13.7001 56.8002 13.8001 56.7002C16.0001 55.1002 18.1001 53.5002 20.3001 51.9002C22.2001 50.5002 24.2001 49.1002 26.1001 47.7002C27.4001 46.7002 28.7001 45.8002 30.0001 44.8002L30.1001 44.7002C30.2001 44.8002 30.3001 44.8002 30.4001 44.9002C32.5001 46.4002 34.6001 48.0002 36.6001 49.5002C36.6001 49.5002 36.6001 49.5002 36.7001 49.6002C36.9001 49.7002 37.0001 49.9002 37.0001 50.1002C37.0001 54.3002 37.0001 58.4002 37.0001 62.6002V62.9002C36.8001 63.1002 14.0001 63.1002 13.6001 63.0002Z" fill="#D8E5C2"/>
<path d="M12.7002 70.9006C12.7002 71.3006 12.7002 71.7006 12.5002 72.1006C12.1002 73.0006 11.2002 73.7006 10.2002 73.7006C9.8002 73.7006 9.40018 73.7006 9.00018 73.6006C7.90018 73.3006 7.2002 72.4006 7.2002 71.3006C7.2002 70.8006 7.20017 70.4006 7.30017 69.9006C7.60017 68.9006 8.50018 68.1006 9.50018 68.1006C9.80018 68.1006 10.1002 68.1006 10.3002 68.1006C11.6002 68.1006 12.7002 69.2006 12.6002 70.5006C12.7002 70.6006 12.7002 70.7006 12.7002 70.9006ZM11.4002 70.8006C11.4002 70.7006 11.4002 70.5006 11.4002 70.4006C11.4002 69.8006 10.9002 69.3006 10.3002 69.3006C10.0002 69.3006 9.80018 69.3006 9.50018 69.3006C9.00018 69.3006 8.50018 69.8006 8.50018 70.3006C8.50018 70.6006 8.50018 70.9006 8.50018 71.2006C8.50018 71.8006 9.00019 72.3006 9.60019 72.3006C9.90019 72.3006 10.1002 72.3006 10.4002 72.3006C11.0002 72.3006 11.4002 71.8006 11.5002 71.2006C11.4002 71.1006 11.4002 71.0006 11.4002 70.8006Z" fill="#D8E5C2"/>
<path d="M38 70.8C38 70.5 38 70.1 38.1 69.8C38.4 68.8 39.3 68 40.4 68C40.7 68 40.9 68 41.2 68C42.5 68 43.5 69.1 43.6 70.4C43.6 70.8 43.6 71.3 43.5 71.7C43.2 72.8 42.2 73.6 41.1 73.6C40.7 73.6 40.3 73.6 39.9 73.5C38.8 73.2 38 72.1 38.1 71.2C38 71.1 38 71 38 70.8ZM39.2 70.8C39.2 71 39.2 71.1 39.2 71.3C39.3 71.9 39.7 72.3 40.3 72.4C40.6 72.4 40.8 72.4 41.1 72.4C41.7 72.4 42.2 71.9 42.2 71.3C42.2 71 42.2 70.7 42.2 70.4C42.2 69.8 41.7 69.4 41.1 69.3C40.8 69.3 40.6 69.3 40.3 69.3C39.7 69.3 39.2 69.8 39.2 70.4C39.2 70.5 39.2 70.7 39.2 70.8Z" fill="#D8E5C2"/>
<path d="M32.1002 72.2V73.6C31.7002 73.6 31.3002 73.6 30.9002 73.6C30.8002 73.4 30.8002 68.4 30.9002 68C31.0002 68 31.1002 68 31.2002 68C32.0002 68 32.8002 68 33.7002 68C34.7002 68 35.5002 68.6 35.7002 69.5C35.9002 70.5 35.7002 71.4 34.7002 71.9C34.4002 72.1 34.0002 72.1 33.6002 72.1C33.2002 72.1 32.8002 72.1 32.5002 72.1C32.3002 72.2 32.2002 72.2 32.1002 72.2ZM33.0002 69.3C32.8002 69.3 32.6002 69.3 32.3002 69.3C32.1002 69.3 32.0002 69.3 32.0002 69.5C32.0002 69.9 32.0002 70.3 32.0002 70.6C32.0002 70.8 32.0002 70.9 32.3002 70.9C32.7002 70.9 33.1002 70.9 33.5002 70.9C33.6002 70.9 33.7002 70.9 33.8002 70.8C34.2002 70.7 34.4002 70.3 34.4002 69.9C34.4002 69.5 34.0002 69.2 33.6002 69.2C33.4002 69.3 33.2002 69.3 33.0002 69.3Z" fill="#D8E5C2"/>
<path d="M16.7004 73.6H15.6004C15.5004 73.4 15.5004 68.5 15.6004 68C15.7004 68 15.8004 68 15.9004 68C16.7004 68 17.5004 68 18.3004 68C19.3004 68 20.4004 68.7 20.3004 70.2C20.3004 70.9 20.0004 71.5 19.4004 71.9C19.1004 72.1 18.8004 72.2 18.4004 72.2C17.9004 72.2 17.5004 72.2 17.0004 72.2C16.7004 72.2 16.7004 72.2 16.7004 72.5C16.7004 72.8 16.7004 73.1 16.7004 73.4C16.7004 73.5 16.7004 73.5 16.7004 73.6ZM17.6004 69.3C17.4004 69.3 17.1004 69.3 16.9004 69.3C16.8004 69.3 16.7004 69.3 16.7004 69.5C16.7004 69.9 16.7004 70.3 16.7004 70.8C16.7004 70.9 16.8004 71 16.9004 71C17.4004 71 17.8004 71 18.3004 71C18.8004 71 19.1004 70.6 19.0004 70.1C19.0004 69.7 18.6004 69.4 18.2004 69.4C18.0004 69.3 17.8004 69.3 17.6004 69.3Z" fill="#D8E5C2"/>
<path d="M5.4002 68.1001C5.3002 68.3001 5.1002 68.5001 5.0002 68.7001C4.5002 69.3001 4.10021 70.0001 3.60021 70.6001C3.40021 70.8001 3.40021 70.8001 3.60021 71.1001C4.20021 71.9001 4.70019 72.6001 5.30019 73.4001C5.40019 73.5001 5.4002 73.6001 5.5002 73.7001C5.4002 73.7001 5.30021 73.7001 5.20021 73.7001C4.90021 73.7001 4.50021 73.7001 4.20021 73.7001C4.00021 73.7001 3.90019 73.6001 3.80019 73.5001C3.40019 72.9001 2.9002 72.3001 2.5002 71.7001C2.4002 71.5001 2.2002 71.5001 2.0002 71.5001C1.9002 71.5001 1.80021 71.5001 1.60021 71.5001C1.50021 72.2001 1.60021 72.9001 1.60021 73.7001C1.20021 73.7001 0.800195 73.7001 0.400195 73.7001C0.300195 73.5001 0.300195 68.6001 0.400195 68.2001C0.600195 68.1001 1.30021 68.1001 1.60021 68.2001V70.3001C1.80021 70.4001 2.00021 70.4001 2.20021 70.3001C2.30021 70.3001 2.4002 70.2001 2.4002 70.1001C2.8002 69.5001 3.30021 68.9001 3.70021 68.3001C3.80021 68.1001 4.00021 68.1001 4.20021 68.1001C4.60021 68.1001 5.0002 68.0001 5.4002 68.1001Z" fill="#D8E5C2"/>
<path d="M51.0003 71.7C50.7003 72.7 50.1003 73.4 49.1003 73.5C48.4003 73.6 47.7003 73.7 47.0003 73.3C46.2003 72.9 45.7003 72.3 45.6003 71.4C45.5003 70.8 45.5003 70.1 45.8003 69.5C46.2003 68.6 47.0003 68 48.0003 68C48.2003 68 48.4003 68 48.7003 68C49.8003 68 50.5003 68.5 51.0003 69.5V69.6C51.0003 69.7 51.1003 69.7 51.1003 69.8C51.0003 69.8 51.0003 69.8 50.9003 69.8C50.6003 69.8 50.3003 69.8 50.0003 69.8C49.9003 69.8 49.7003 69.8 49.7003 69.6C49.5003 69.3 49.2003 69.1 48.8003 69.1C48.6003 69.1 48.3003 69.1 48.1003 69.1C47.4003 69.1 47.0003 69.6 46.9003 70.3C46.9003 70.5 46.9003 70.7 46.9003 70.9C46.9003 71.6 47.4003 72.1 48.1003 72.1C48.3003 72.1 48.5003 72.1 48.7003 72.1C49.1003 72.1 49.4003 72 49.7003 71.7C49.8003 71.6 49.9003 71.5 50.1003 71.5C50.2003 71.8 50.6003 71.7 51.0003 71.7Z" fill="#D8E5C2"/>
<path d="M27.7 68.1004V69.3004H26C26 69.7004 26 70.0004 26 70.4004C26 70.8004 26 71.1004 26 71.5004V72.5004V73.6004C25.8 73.7004 25.1 73.7004 24.8 73.6004C24.8 73.5004 24.8 73.4004 24.8 73.3004C24.8 72.1004 24.8 70.9004 24.8 69.7004C24.8 69.6004 24.8 69.5004 24.8 69.3004H23C23 68.9004 23 68.5004 23 68.1004C23.2 68.0004 27.4 68.0004 27.7 68.1004Z" fill="#D8E5C2"/>
</svg>
