<svg width="128" height="38" viewBox="0 0 128 38" fill="none" xmlns="http://www.w3.org/2000/svg">
<g clip-path="url(#clip0_746_5292)">
<path fill-rule="evenodd" clip-rule="evenodd" d="M19.9476 22.8178L12.4715 6.1339L12.4571 6.10176C12.0058 5.09552 10.982 4.39355 9.79095 4.39355H8.36163C8.30271 4.39355 8.24946 4.42784 8.2259 4.48098L0.0091651 22.8178C0.00305503 22.8303 0 22.8444 0 22.8598C0 22.9168 0.0475712 22.9636 0.106053 22.9636H3.52856C3.58748 22.9636 3.64029 22.9297 3.66429 22.877L5.53223 18.7295H12.5636C12.5636 17.1498 11.2595 15.8693 9.65085 15.8693H6.80749L9.97076 8.48108L13.4282 16.5233L16.2772 22.8766C16.3012 22.9297 16.3545 22.9636 16.4134 22.9636H19.8507C19.9092 22.9636 19.9568 22.9168 19.9568 22.8598C19.9568 22.8444 19.9533 22.8303 19.9476 22.8178Z" fill="#D8E5C2"/>
<path fill-rule="evenodd" clip-rule="evenodd" d="M47.7947 15.5684C49.0368 15.0391 49.9201 14.1276 49.9201 12.3191C49.9201 10.1429 48.0343 8.77539 45.1608 8.77539H37.9012C37.8192 8.77539 37.7524 8.84096 37.7524 8.92153V22.8182C37.7524 22.8987 37.8192 22.9639 37.9012 22.9639H45.2507C48.7675 22.9639 50.5787 21.5081 50.5787 19.1266C50.5787 17.2886 49.5457 16.0535 47.7947 15.5684ZM41.0601 11.3488H44.607C45.8792 11.3488 46.5526 12.0101 46.5526 12.8779C46.5526 13.9214 45.8639 14.5244 44.607 14.5244H41.0601V11.3488ZM45.026 20.3909H41.0601V16.8476H45.026C46.433 16.8476 47.2112 17.4797 47.2112 18.6411C47.2112 19.6117 46.4627 20.3909 45.026 20.3909Z" fill="#D8E5C2"/>
<path fill-rule="evenodd" clip-rule="evenodd" d="M94.5633 8.48145C90.2081 8.48145 86.8411 11.6716 86.8411 15.8915C86.8411 20.1261 90.2086 23.3166 94.5633 23.3166C98.9185 23.3166 102.286 20.1261 102.286 15.8915C102.286 11.6716 98.9185 8.48145 94.5633 8.48145ZM94.5633 20.4642C91.9146 20.4642 90.1632 18.5233 90.1632 15.8915C90.1632 13.2744 91.9146 11.3189 94.5633 11.3189C97.212 11.3189 98.963 13.2744 98.963 15.8915C98.963 18.5233 97.212 20.4642 94.5633 20.4642Z" fill="#D8E5C2"/>
<path fill-rule="evenodd" clip-rule="evenodd" d="M107.145 8.77539H105.457C105.375 8.77539 105.308 8.84053 105.308 8.9211V22.8182C105.308 22.8987 105.375 22.9635 105.457 22.9635H108.483C108.565 22.9635 108.631 22.8987 108.631 22.8182V10.2338C108.631 9.42807 107.966 8.77539 107.145 8.77539Z" fill="#D8E5C2"/>
<path fill-rule="evenodd" clip-rule="evenodd" d="M117.278 8.77539H115.604C115.522 8.77539 115.455 8.84053 115.455 8.9211V14.5308H109.928C109.928 16.0295 111.165 17.2444 112.691 17.2444H115.455V22.8182C115.455 22.8987 115.522 22.9635 115.604 22.9635H118.614C118.696 22.9635 118.763 22.8987 118.763 22.8182V10.2338C118.763 9.42807 118.098 8.77539 117.278 8.77539Z" fill="#D8E5C2"/>
<path fill-rule="evenodd" clip-rule="evenodd" d="M82.3319 8.77539H75.0286C75.0125 8.77539 74.9959 8.77582 74.9797 8.77668C74.3469 8.79639 73.8144 9.2048 73.6211 9.76663L73.6202 9.76706L73.6137 9.78806C73.6115 9.79492 73.6093 9.8022 73.6067 9.80906L69.4043 22.8285C69.4008 22.8375 69.399 22.849 69.399 22.8597C69.399 22.9172 69.4471 22.963 69.5051 22.963H71.744C72.3921 22.963 72.9651 22.5512 73.1602 21.9444L76.499 11.5691H80.5098V22.8182C80.5098 22.8987 80.5766 22.9635 80.6582 22.9635H83.6683C83.7503 22.9635 83.8171 22.8987 83.8171 22.8182V10.2342C83.8179 9.42808 83.1524 8.77539 82.3319 8.77539Z" fill="#D8E5C2"/>
<path fill-rule="evenodd" clip-rule="evenodd" d="M66.8926 8.77582H64.0274C63.9558 8.77582 63.8886 8.80925 63.8472 8.86624L57.0445 18.0681V10.2342C57.0445 9.4285 56.3794 8.77539 55.5584 8.77539H53.8851C53.8031 8.77539 53.7368 8.84053 53.7368 8.9211V22.8182C53.7368 22.8987 53.8031 22.9635 53.8851 22.9635H56.7364C56.8075 22.9635 56.8743 22.9305 56.9166 22.8735L63.7193 13.6716V22.8182C63.7193 22.8987 63.7852 22.9635 63.8677 22.9635H66.8931C66.9751 22.9635 67.0414 22.8987 67.0414 22.8182V8.9211C67.0406 8.84053 66.9747 8.77582 66.8926 8.77582Z" fill="#D8E5C2"/>
<path fill-rule="evenodd" clip-rule="evenodd" d="M30.4268 15.5139L34.8457 8.93653C34.8566 8.92024 34.8632 8.90053 34.8632 8.87953C34.8632 8.8221 34.8156 8.77539 34.7571 8.77539H31.4123C31.3621 8.77539 31.3158 8.79982 31.2883 8.84096L27.5062 14.4657H25.2861V10.2342C25.2861 9.4285 24.6209 8.77539 23.8004 8.77539H22.1267C22.0451 8.77539 21.9783 8.84096 21.9783 8.92153V22.8182C21.9783 22.8983 22.0451 22.9639 22.1267 22.9639H25.1372C25.2193 22.9639 25.2861 22.8983 25.2861 22.8182V17.0533H27.8331L31.6925 22.8975C31.7195 22.9395 31.7667 22.9639 31.8173 22.9639H35.1329H35.1337C35.1922 22.9639 35.2394 22.9176 35.2394 22.8602C35.2394 22.8387 35.2328 22.819 35.2219 22.8027L30.4268 15.5139Z" fill="#D8E5C2"/>
<path d="M118.763 4.29837C121.181 4.29837 123.141 2.37375 123.141 0H123.322C123.322 2.37375 125.282 4.29837 127.7 4.29837V4.47665C125.282 4.47665 123.322 6.40085 123.322 8.77502H123.141C123.141 6.40085 121.181 4.47665 118.763 4.47665V4.29837Z" fill="#D8E5C2"/>
<path d="M14.7925 30.9102C15.3315 30.9102 15.7583 31.061 16.073 31.3623C16.3872 31.6636 16.5443 32.0762 16.5443 32.6016C16.5443 33.1262 16.3872 33.538 16.073 33.8372C15.7583 34.1359 15.3315 34.2854 14.7925 34.2854H13.5011V35.8376C13.5011 35.9302 13.4823 35.9945 13.4452 36.0305C13.4081 36.0669 13.3422 36.0849 13.2488 36.0849H12.8255C12.7312 36.0849 12.6644 36.0669 12.6252 36.0305C12.585 35.9945 12.5658 35.9302 12.5658 35.8376V31.1579C12.5658 31.0662 12.585 31.0019 12.6252 30.9654C12.6644 30.9286 12.7312 30.9106 12.8255 30.9106H14.7925V30.9102ZM14.7034 33.4322C14.9753 33.4322 15.187 33.3593 15.338 33.2136C15.489 33.0671 15.5645 32.8639 15.5645 32.6012C15.5645 32.3385 15.489 32.1332 15.338 31.985C15.187 31.8367 14.9753 31.7621 14.7034 31.7621H13.5011V33.4318H14.7034V33.4322Z" fill="#D8E5C2"/>
<path d="M21.4433 35.844C21.5031 36.0043 21.4459 36.0848 21.2726 36.0848H20.8868C20.7336 36.0848 20.6258 36.0702 20.5639 36.0407C20.5019 36.012 20.4561 35.9537 20.4264 35.8663L20.0851 34.926H18.0365L17.6878 35.8663C17.6577 35.9537 17.6123 36.012 17.5503 36.0407C17.4883 36.0698 17.3805 36.0848 17.2273 36.0848H16.8856C16.7123 36.0848 16.6552 36.0043 16.715 35.844L18.5702 31.1063C18.6051 31.0241 18.6431 30.9688 18.6855 30.9422C18.7274 30.9152 18.7933 30.9023 18.8823 30.9023H19.2755C19.3645 30.9023 19.4318 30.9152 19.4763 30.9422C19.5208 30.9688 19.5579 31.0211 19.5876 31.099L21.4433 35.844ZM19.2611 32.6371C19.2166 32.5056 19.1795 32.3658 19.1498 32.2176C19.1201 32.0697 19.1005 31.9544 19.0905 31.8717L19.083 31.7479H19.0311C19.0311 32.0247 18.9766 32.3187 18.8679 32.6294L18.2962 34.1748H19.8254L19.2611 32.6371Z" fill="#D8E5C2"/>
<path d="M25.6745 32.2879C25.6745 32.8077 25.4763 33.1745 25.0809 33.3875C25.5855 33.6014 25.8377 34.0201 25.8377 34.6419C25.8377 35.133 25.6754 35.514 25.3515 35.7861C25.0273 36.0587 24.5389 36.1945 23.8855 36.1945C22.7028 36.1945 21.9657 35.7861 21.6737 34.9702C21.6144 34.8146 21.6663 34.7075 21.8295 34.6492L22.2376 34.5108C22.327 34.482 22.3934 34.4782 22.4379 34.5C22.4829 34.5223 22.5221 34.5768 22.5566 34.6642C22.6408 34.8977 22.7844 35.0687 22.9874 35.178C23.1903 35.2873 23.4897 35.3421 23.8855 35.3421C24.5337 35.3421 24.8579 35.0944 24.8579 34.599C24.8579 34.3702 24.7959 34.1915 24.6724 34.0633C24.5485 33.9344 24.3682 33.8696 24.1304 33.8696H23.0917C22.9974 33.8696 22.9319 33.8512 22.8948 33.8152C22.8573 33.7788 22.839 33.7145 22.839 33.6224V33.2941C22.839 33.202 22.8573 33.1372 22.8948 33.1008C22.9319 33.0648 22.9974 33.0464 23.0917 33.0464H24.0195C24.2469 33.0464 24.4211 32.9855 24.5424 32.8643C24.6637 32.7425 24.7244 32.575 24.7244 32.3611C24.7244 31.8897 24.425 31.654 23.8262 31.654C23.4648 31.654 23.1916 31.7076 23.0061 31.8147C22.8202 31.9214 22.6854 32.0916 22.6011 32.3247C22.5666 32.4121 22.5274 32.4666 22.4829 32.4888C22.4379 32.5107 22.3716 32.5068 22.2825 32.4773L21.874 32.3389C21.7108 32.2797 21.6589 32.173 21.7182 32.0179C22.0102 31.2062 22.7325 30.8008 23.8855 30.8008C24.4647 30.8008 24.9077 30.9311 25.2141 31.1899C25.5209 31.4509 25.6745 31.816 25.6745 32.2879Z" fill="#D8E5C2"/>
<path d="M30.3727 30.9102C30.5259 30.9102 30.5683 30.9929 30.4989 31.1579L28.287 35.8659C28.2473 35.9589 28.2015 36.0181 28.1495 36.0451C28.0976 36.0721 28.0046 36.0849 27.8711 36.0849H27.3666C27.1981 36.0849 27.1558 36.0026 27.24 35.8372L27.8859 34.5691L26.0896 31.1579C26.0005 30.9929 26.0424 30.9102 26.2157 30.9102H26.6539C26.7726 30.9102 26.8542 30.9127 26.8987 30.9174C26.9432 30.9226 26.9864 30.941 27.0288 30.9723C27.0707 31.004 27.1091 31.0559 27.1436 31.1287L28.3686 33.5487L29.4894 31.1287C29.5339 31.0267 29.581 30.965 29.6304 30.9427C29.6797 30.9209 29.7836 30.9102 29.942 30.9102H30.3727Z" fill="#D8E5C2"/>
<path d="M35.7247 30.9096C35.8185 30.9096 35.8844 30.9276 35.9215 30.9645C35.9586 31.0009 35.9769 31.0652 35.9769 31.1573V35.8367C35.9769 35.9292 35.9586 35.9935 35.9215 36.0299C35.8844 36.0664 35.8185 36.0844 35.7247 36.0844H35.3459C35.252 36.0844 35.1866 36.0664 35.1495 36.0299C35.1124 35.9935 35.0936 35.9292 35.0936 35.8367V33.6133C35.0936 33.1758 35.153 32.6928 35.2717 32.1631H35.2197C35.0761 32.5857 34.8732 33.0301 34.6113 33.4968L33.8838 34.7571C33.8096 34.8737 33.7132 34.9324 33.5945 34.9324H33.3566C33.2776 34.9324 33.2196 34.9213 33.1825 34.8994C33.1454 34.8776 33.1065 34.8304 33.0672 34.7571L32.3249 33.4891C32.0971 33.1102 31.9068 32.6675 31.7531 32.1627H31.7012C31.8055 32.6581 31.8575 33.1441 31.8575 33.6202V35.8358C31.8575 35.9284 31.8387 35.9927 31.8016 36.0291C31.7645 36.0655 31.6986 36.0835 31.6052 36.0835H31.2486C31.1544 36.0835 31.0876 36.0655 31.0483 36.0291C31.0086 35.9927 30.989 35.9284 30.989 35.8358V31.1573C30.989 31.0652 31.0086 31.0009 31.0483 30.9645C31.0876 30.9276 31.1544 30.9096 31.2486 30.9096H31.5751C31.679 30.9096 31.7545 30.9216 31.8016 30.946C31.8487 30.9705 31.8919 31.0215 31.9316 31.099L33.4753 33.8105L35.0194 31.1059C35.0639 31.0236 35.1071 30.97 35.1495 30.9456C35.1914 30.9212 35.2616 30.9092 35.3611 30.9092H35.7247V30.9096Z" fill="#D8E5C2"/>
<path d="M40.7127 30.9102C40.8065 30.9102 40.8737 30.9282 40.913 30.965C40.9527 31.0014 40.9728 31.0657 40.9728 31.1579V35.8372C40.9728 35.9298 40.9527 35.9941 40.913 36.0305C40.8737 36.0669 40.8065 36.0849 40.7127 36.0849H40.2898C40.1955 36.0849 40.13 36.0669 40.0929 36.0305C40.0558 35.9941 40.0375 35.9298 40.0375 35.8372V33.8912H37.8401V35.8372C37.8401 35.9298 37.8213 35.9941 37.7846 36.0305C37.7475 36.0669 37.6816 36.0849 37.5878 36.0849H37.1649C37.0706 36.0849 37.0039 36.0669 36.9641 36.0305C36.9244 35.9941 36.9048 35.9298 36.9048 35.8372V31.1579C36.9048 31.0657 36.9244 31.0014 36.9641 30.965C37.0039 30.9282 37.0706 30.9102 37.1649 30.9102H37.5878C37.6816 30.9102 37.7475 30.9282 37.7846 30.965C37.8213 31.0014 37.8401 31.0657 37.8401 31.1579V33.0383H40.0375V31.1579C40.0375 31.0657 40.0558 31.0014 40.0929 30.965C40.13 30.9282 40.1955 30.9102 40.2898 30.9102H40.7127Z" fill="#D8E5C2"/>
<path d="M42.1529 36.0849C42.0587 36.0849 41.9919 36.0669 41.9522 36.0305C41.9125 35.9941 41.8928 35.9298 41.8928 35.8372V31.1579C41.8928 31.0657 41.9125 31.0014 41.9522 30.965C41.9919 30.9282 42.0587 30.9102 42.1529 30.9102H42.5758C42.6697 30.9102 42.7356 30.9282 42.7727 30.965C42.8098 31.0014 42.8281 31.0657 42.8281 31.1579V32.7105H44.1199C44.6589 32.7105 45.0858 32.8601 45.4 33.1588C45.7142 33.4575 45.8714 33.8693 45.8714 34.3943C45.8714 34.9193 45.7142 35.332 45.4 35.6337C45.0858 35.9345 44.6589 36.0854 44.1199 36.0854H42.1529V36.0849ZM42.8281 33.5633V35.2325H44.0305C44.3028 35.2325 44.5145 35.1584 44.6655 35.0101C44.8161 34.8618 44.8916 34.6566 44.8916 34.3939C44.8916 34.1312 44.8161 33.9272 44.6655 33.7815C44.5145 33.6357 44.3028 33.5629 44.0305 33.5629H42.8281V33.5633ZM46.6582 31.1579C46.6582 31.0657 46.677 31.0014 46.7141 30.965C46.7512 30.9282 46.8167 30.9102 46.9109 30.9102H47.3338C47.4277 30.9102 47.4936 30.9282 47.5307 30.965C47.5678 31.0014 47.5861 31.0657 47.5861 31.1579V35.8372C47.5861 35.9298 47.5678 35.9941 47.5307 36.0305C47.4936 36.0669 47.4277 36.0849 47.3338 36.0849H46.9109C46.8167 36.0849 46.7512 36.0669 46.7141 36.0305C46.677 35.9941 46.6582 35.9298 46.6582 35.8372V31.1579Z" fill="#D8E5C2"/>
<path d="M52.4183 30.9094C52.5126 30.9094 52.578 30.9274 52.6156 30.9642C52.6522 31.0006 52.671 31.0649 52.671 31.1566V35.8364C52.671 35.929 52.6522 35.9933 52.6156 36.0297C52.578 36.0661 52.5126 36.0841 52.4183 36.0841H51.9954C51.9016 36.0841 51.8356 36.0661 51.7986 36.0297C51.7615 35.9933 51.7431 35.929 51.7431 35.8364V33.7009C51.7431 33.332 51.754 33.0491 51.7767 32.852C51.7986 32.6553 51.847 32.3819 51.9212 32.0317H51.8915C51.7235 32.4547 51.476 32.9163 51.1491 33.4168L49.4497 35.9603C49.3999 36.0434 49.3157 36.0846 49.197 36.0846H48.7666C48.6724 36.0846 48.6056 36.0666 48.5663 36.0301C48.5262 35.9937 48.5065 35.9294 48.5065 35.8369V31.1571C48.5065 31.0654 48.5262 31.0011 48.5663 30.9646C48.6056 30.9278 48.6724 30.9098 48.7666 30.9098H49.1896C49.2834 30.9098 49.3493 30.9278 49.3864 30.9646C49.4235 31.0011 49.4422 31.0654 49.4422 31.1571V33.2715C49.4422 33.6405 49.4309 33.9272 49.4086 34.1316C49.3864 34.3356 49.3379 34.6125 49.2637 34.9622H49.2934C49.4767 34.5006 49.7338 34.0198 50.0655 33.5192L51.7357 31.0268C51.7898 30.9488 51.8714 30.9102 51.9805 30.9102H52.4183V30.9094ZM51.9064 29.7724C51.8073 30.0154 51.6467 30.2053 51.4241 30.3411C51.2011 30.477 50.9314 30.5451 50.6149 30.5451C50.2981 30.5451 50.0284 30.4774 49.8058 30.3411C49.5832 30.2053 49.427 30.0154 49.3379 29.7724C49.2982 29.6657 49.3353 29.5929 49.4497 29.5539L49.7761 29.4373C49.9049 29.4034 49.9913 29.4296 50.0358 29.5174C50.1296 29.7797 50.323 29.9113 50.6149 29.9113C50.9065 29.9113 51.0998 29.7797 51.1937 29.5174C51.2382 29.4351 51.3102 29.406 51.4088 29.43L51.7876 29.5543C51.8518 29.5787 51.8928 29.6053 51.9098 29.6344C51.9273 29.6631 51.926 29.709 51.9064 29.7724Z" fill="#D8E5C2"/>
<path d="M59.2699 30.9102C59.3637 30.9102 59.4305 30.9282 59.4702 30.965C59.5099 31.0014 59.5295 31.0657 59.5295 31.1579V35.2325H59.9158C60.0096 35.2325 60.0751 35.2505 60.1122 35.287C60.1493 35.3234 60.1681 35.3881 60.1681 35.4802V36.9527C60.1681 37.0449 60.1493 37.1092 60.1122 37.1456C60.0751 37.182 60.0096 37.2004 59.9158 37.2004H59.5073C59.4135 37.2004 59.3476 37.182 59.3105 37.1456C59.2734 37.1092 59.255 37.0449 59.255 36.9527V36.0853H55.8626V36.9527C55.8626 37.0449 55.8439 37.1092 55.8068 37.1456C55.7701 37.182 55.7042 37.2004 55.6104 37.2004H55.2093C55.1155 37.2004 55.05 37.182 55.0129 37.1456C54.9758 37.1092 54.957 37.0449 54.957 36.9527V35.4802C54.957 35.3881 54.9758 35.3234 55.0129 35.287C55.05 35.2505 55.1155 35.2325 55.2093 35.2325H55.3799C55.4742 35.1695 55.5558 35.0915 55.6252 34.999C55.6946 34.9068 55.7649 34.7684 55.8364 34.5837C55.9085 34.399 55.9639 34.1453 56.0036 33.8222C56.0433 33.499 56.063 33.1142 56.063 32.6664V31.1579C56.063 31.0657 56.0817 31.0014 56.1188 30.965C56.1559 30.9282 56.2214 30.9102 56.3156 30.9102H59.2699ZM56.9611 31.763V32.6595C56.9611 33.8646 56.7953 34.7221 56.464 35.2325H58.5943V31.763H56.9611Z" fill="#D8E5C2"/>
<path d="M64.0571 30.9102C64.1509 30.9102 64.2177 30.9282 64.2574 30.965C64.2971 31.0014 64.3172 31.0657 64.3172 31.1579V31.5153C64.3172 31.6074 64.2971 31.6717 64.2574 31.7081C64.2177 31.7445 64.1509 31.763 64.0571 31.763H61.7859V33.0383H63.7084C63.8022 33.0383 63.8676 33.0568 63.9047 33.0932C63.9418 33.1296 63.9606 33.1939 63.9606 33.2865V33.6435C63.9606 33.736 63.9418 33.7999 63.9047 33.8367C63.8676 33.8732 63.8022 33.8912 63.7084 33.8912H61.7859V35.2325H64.1387C64.2325 35.2325 64.2984 35.2505 64.3355 35.287C64.3726 35.3234 64.3909 35.3881 64.3909 35.4802V35.8372C64.3909 35.9298 64.3726 35.9941 64.3355 36.0305C64.2984 36.0669 64.2325 36.0849 64.1387 36.0849H61.1103C61.016 36.0849 60.9492 36.0669 60.9099 36.0305C60.8702 35.9941 60.8506 35.9298 60.8506 35.8372V31.1579C60.8506 31.0657 60.8702 31.0014 60.9099 30.965C60.9492 30.9282 61.016 30.9102 61.1103 30.9102H64.0571Z" fill="#D8E5C2"/>
<path d="M67.5014 30.9102C67.982 30.9102 68.3551 31.028 68.6222 31.2637C68.8897 31.4994 69.0233 31.8358 69.0233 32.273C69.0233 32.7881 68.8352 33.1549 68.459 33.3735V33.4022C68.9639 33.577 69.2162 33.9979 69.2162 34.663C69.2162 35.1104 69.0621 35.4588 68.7558 35.7091C68.4485 35.9594 68.0452 36.0841 67.5464 36.0841H65.4454C65.3511 36.0841 65.2844 36.0661 65.2451 36.0296C65.2054 35.9932 65.1857 35.9289 65.1857 35.8364V31.1579C65.1857 31.0657 65.2054 31.0014 65.2451 30.9646C65.2844 30.9282 65.3511 30.9102 65.4454 30.9102H67.5014ZM68.0736 32.4041C68.0736 31.9768 67.8458 31.763 67.3906 31.763H66.1214V33.0456H67.3906C67.8454 33.0456 68.0736 32.8318 68.0736 32.4041ZM68.229 34.5618C68.229 34.105 67.9937 33.8762 67.5237 33.8762H66.121V35.2317H67.5237C67.9937 35.2321 68.229 35.0088 68.229 34.5618Z" fill="#D8E5C2"/>
<path d="M73.2545 30.9102C73.3483 30.9102 73.4151 30.9282 73.4548 30.965C73.4945 31.0014 73.5146 31.0657 73.5146 31.1579V31.5153C73.5146 31.6074 73.4945 31.6717 73.4548 31.7081C73.4151 31.7445 73.3483 31.763 73.2545 31.763H70.9828V33.0383H72.9053C72.9991 33.0383 73.0646 33.0568 73.1021 33.0932C73.1392 33.1296 73.1576 33.1939 73.1576 33.2865V33.6435C73.1576 33.736 73.1392 33.7999 73.1021 33.8367C73.0646 33.8732 72.9991 33.8912 72.9053 33.8912H70.9828V35.2325H73.3365C73.4299 35.2325 73.4962 35.2505 73.5333 35.287C73.5704 35.3234 73.5888 35.3881 73.5888 35.4802V35.8372C73.5888 35.9298 73.5704 35.9941 73.5333 36.0305C73.4962 36.0669 73.4299 36.0849 73.3365 36.0849H70.3076C70.2138 36.0849 70.147 36.0669 70.1073 36.0305C70.0676 35.9941 70.048 35.9298 70.048 35.8372V31.1579C70.048 31.0657 70.0676 31.0014 70.1073 30.965C70.147 30.9282 70.2138 30.9102 70.3076 30.9102H73.2545Z" fill="#D8E5C2"/>
<path d="M78.1159 30.9102C78.2102 30.9102 78.2752 30.9282 78.3123 30.965C78.3499 31.0014 78.3682 31.0657 78.3682 31.1579V35.8372C78.3682 35.9298 78.3499 35.9941 78.3123 36.0305C78.2752 36.0669 78.2102 36.0849 78.1159 36.0849H77.686C77.5913 36.0849 77.5263 36.0669 77.4892 36.0305C77.4521 35.9941 77.4338 35.9298 77.4338 35.8372V31.763H75.8596V32.7105C75.8596 33.2111 75.833 33.6503 75.7784 34.0296C75.7238 34.4089 75.6566 34.7123 75.5781 34.9407C75.4982 35.1687 75.3917 35.3684 75.2586 35.5385C75.1251 35.7086 74.9998 35.8329 74.8842 35.9105C74.7672 35.9881 74.6249 36.0682 74.4569 36.1509C74.3727 36.1899 74.305 36.2006 74.2526 36.1835C74.2007 36.1668 74.1575 36.1171 74.123 36.0339L73.9297 35.6692C73.8555 35.5188 73.8952 35.4074 74.0488 35.3345C74.1523 35.2861 74.2352 35.2394 74.2967 35.1961C74.3596 35.1515 74.4364 35.0684 74.5306 34.9445C74.6245 34.8207 74.6978 34.6737 74.7497 34.5036C74.8017 34.3339 74.8479 34.0943 74.8872 33.7857C74.9265 33.4772 74.9461 33.1185 74.9461 32.7105V31.1579C74.9461 31.0657 74.9662 31.0014 75.0059 30.965C75.0452 30.9282 75.112 30.9102 75.2062 30.9102H78.1159Z" fill="#D8E5C2"/>
<path d="M79.2812 32.7031C79.2812 32.1104 79.4654 31.645 79.835 31.3073C80.2034 30.9696 80.7267 30.8008 81.4044 30.8008C82.0774 30.8008 82.5985 30.9696 82.9669 31.3073C83.3357 31.645 83.5203 32.1104 83.5203 32.7031V34.2922C83.5203 34.8853 83.3357 35.3503 82.9669 35.6876C82.5985 36.0257 82.0774 36.195 81.4044 36.195C80.7267 36.195 80.2034 36.0257 79.835 35.6876C79.4654 35.3503 79.2812 34.8853 79.2812 34.2922V32.7031ZM82.592 32.6958C82.592 32.3607 82.4899 32.1027 82.2839 31.9232C82.0783 31.7432 81.785 31.6532 81.404 31.6532C81.023 31.6532 80.7297 31.7419 80.5246 31.9189C80.3186 32.0967 80.2169 32.3556 80.2169 32.6958V34.299C80.2169 34.6393 80.3186 34.8982 80.5246 35.0756C80.7297 35.253 81.023 35.3417 81.404 35.3417C81.785 35.3417 82.0783 35.2517 82.2839 35.0717C82.4899 34.8922 82.592 34.6346 82.592 34.299V32.6958Z" fill="#D8E5C2"/>
<path d="M88.2037 30.9102C88.2979 30.9102 88.363 30.9282 88.4001 30.965C88.4376 31.0014 88.4559 31.0657 88.4559 31.1579V35.8372C88.4559 35.9298 88.4376 35.9941 88.4001 36.0305C88.363 36.0669 88.2979 36.0849 88.2037 36.0849H87.7803C87.6865 36.0849 87.621 36.0669 87.5839 36.0305C87.5468 35.9941 87.5281 35.9298 87.5281 35.8372V31.763H85.3681V35.8372C85.3681 35.9298 85.3494 35.9941 85.3123 36.0305C85.2752 36.0669 85.2102 36.0849 85.1159 36.0849H84.6925C84.5987 36.0849 84.5319 36.0669 84.4922 36.0305C84.4525 35.9941 84.4329 35.9298 84.4329 35.8372V31.1579C84.4329 31.0657 84.4525 31.0014 84.4922 30.965C84.5319 30.9282 84.5987 30.9102 84.6925 30.9102H88.2037Z" fill="#D8E5C2"/>
<path d="M94.2605 30.9096C94.3543 30.9096 94.4198 30.9276 94.4569 30.9645C94.494 31.0009 94.5127 31.0652 94.5127 31.1573V35.8367C94.5127 35.9292 94.494 35.9935 94.4569 36.0299C94.4198 36.0664 94.3543 36.0844 94.2605 36.0844H93.8825C93.7878 36.0844 93.7228 36.0664 93.6857 36.0299C93.6486 35.9935 93.6298 35.9292 93.6298 35.8367V33.6133C93.6298 33.1758 93.6892 32.6928 93.8075 32.1631H93.756C93.6128 32.5857 93.4094 33.0301 93.1467 33.4968L92.4196 34.7571C92.345 34.8737 92.2489 34.9324 92.1298 34.9324H91.8924C91.8134 34.9324 91.7558 34.9213 91.7182 34.8994C91.6812 34.8776 91.6423 34.8304 91.603 34.7571L90.8607 33.4891C90.6333 33.1102 90.4425 32.6675 90.2889 32.1627H90.237C90.3413 32.6581 90.3932 33.1441 90.3932 33.6202V35.8358C90.3932 35.9284 90.3745 35.9927 90.3374 36.0291C90.3003 36.0655 90.2344 36.0835 90.141 36.0835H89.7844C89.6901 36.0835 89.6234 36.0655 89.5836 36.0291C89.5439 35.9927 89.5243 35.9284 89.5243 35.8358V31.1573C89.5243 31.0652 89.5439 31.0009 89.5836 30.9645C89.6234 30.9276 89.6901 30.9096 89.7844 30.9096H90.1109C90.2147 30.9096 90.2902 30.9216 90.3378 30.946C90.3841 30.9705 90.4281 31.0215 90.4679 31.099L92.012 33.8105L93.5556 31.1059C93.6001 31.0236 93.6429 30.97 93.6857 30.9456C93.7272 30.9212 93.7979 30.9092 93.8965 30.9092H94.2605V30.9096Z" fill="#D8E5C2"/>
<path d="M98.7884 30.9102C98.8827 30.9102 98.949 30.9282 98.9892 30.965C99.0285 31.0014 99.049 31.0657 99.049 31.1579V31.5153C99.049 31.6074 99.0285 31.6717 98.9892 31.7081C98.949 31.7445 98.8827 31.763 98.7884 31.763H96.5172V33.0383H98.4397C98.5336 33.0383 98.599 33.0568 98.6361 33.0932C98.6732 33.1296 98.692 33.1939 98.692 33.2865V33.6435C98.692 33.736 98.6732 33.7999 98.6361 33.8367C98.599 33.8732 98.5336 33.8912 98.4397 33.8912H96.5172V35.2325H98.8705C98.9643 35.2325 99.0302 35.2505 99.0673 35.287C99.1044 35.3234 99.1232 35.3881 99.1232 35.4802V35.8372C99.1232 35.9298 99.1044 35.9941 99.0673 36.0305C99.0302 36.0669 98.9643 36.0849 98.8705 36.0849H95.8421C95.7478 36.0849 95.6815 36.0669 95.6418 36.0305C95.602 35.9941 95.5824 35.9298 95.5824 35.8372V31.1579C95.5824 31.0657 95.602 31.0014 95.6418 30.965C95.6815 30.9282 95.7478 30.9102 95.8421 30.9102H98.7884Z" fill="#D8E5C2"/>
<path d="M103.725 30.9102C103.818 30.9102 103.885 30.9282 103.925 30.965C103.965 31.0014 103.985 31.0657 103.985 31.1579V35.8372C103.985 35.9298 103.965 35.9941 103.925 36.0305C103.885 36.0669 103.818 36.0849 103.725 36.0849H103.301C103.207 36.0849 103.142 36.0669 103.105 36.0305C103.068 35.9941 103.049 35.9298 103.049 35.8372V33.8912H100.852V35.8372C100.852 35.9298 100.833 35.9941 100.796 36.0305C100.759 36.0669 100.694 36.0849 100.6 36.0849H100.176C100.082 36.0849 100.016 36.0669 99.976 36.0305C99.9363 35.9941 99.9162 35.9298 99.9162 35.8372V31.1579C99.9162 31.0657 99.9363 31.0014 99.976 30.965C100.016 30.9282 100.082 30.9102 100.176 30.9102H100.6C100.694 30.9102 100.759 30.9282 100.796 30.965C100.833 31.0014 100.852 31.0657 100.852 31.1579V33.0383H103.049V31.1579C103.049 31.0657 103.068 31.0014 103.105 30.965C103.142 30.9282 103.207 30.9102 103.301 30.9102H103.725Z" fill="#D8E5C2"/>
<path d="M108.379 30.9102C108.473 30.9102 108.538 30.9282 108.575 30.965C108.612 31.0014 108.631 31.0657 108.631 31.1579V31.5153C108.631 31.6074 108.612 31.6717 108.575 31.7081C108.538 31.7445 108.473 31.763 108.379 31.763H107.102V35.8372C107.102 35.9298 107.083 35.9941 107.046 36.0305C107.009 36.0669 106.943 36.0849 106.849 36.0849H106.42C106.325 36.0849 106.26 36.0669 106.223 36.0305C106.186 35.9941 106.167 35.9298 106.167 35.8372V31.763H104.89C104.796 31.763 104.731 31.7445 104.694 31.7081C104.657 31.6717 104.638 31.6074 104.638 31.5153V31.1579C104.638 31.0657 104.657 31.0014 104.694 30.965C104.731 30.9282 104.796 30.9102 104.89 30.9102H108.379Z" fill="#D8E5C2"/>
</g>
<defs>
<clipPath id="clip0_746_5292">
<rect width="127.7" height="37.2" fill="white"/>
</clipPath>
</defs>
</svg>
