<svg width="101" height="50" viewBox="0 0 101 50" fill="none" xmlns="http://www.w3.org/2000/svg">
<path d="M89.5996 33.0996C89.5996 34.6996 89.5996 36.2996 89.5996 37.8996C89.5996 38.1996 89.5996 38.3996 89.9996 38.3996C91.0996 38.3996 92.1996 38.3996 93.2996 38.2996C94.8996 38.0996 96.1996 37.3996 96.8996 35.8996C97.4996 34.4996 97.4996 32.9996 97.1996 31.4996C96.7996 29.3996 95.3996 28.0996 93.2996 27.9996C92.2996 27.8996 91.1996 27.9996 90.0996 27.8996C89.6996 27.8996 89.5996 27.9996 89.5996 28.3996C89.5996 29.9996 89.5996 31.5996 89.5996 33.0996ZM86.0996 24.7996C89.0996 24.7996 92.0996 24.3996 94.9996 24.9996C97.9996 25.5996 100.1 27.5996 100.7 30.7996C101.1 32.8996 101 34.9996 100.2 36.9996C99.3996 38.9996 97.8996 40.3996 95.8996 40.9996C94.7996 41.2996 93.5996 41.4996 92.4996 41.4996C90.4996 41.5996 88.4996 41.4996 86.4996 41.4996C86.3996 41.4996 86.2996 41.4996 86.0996 41.4996V24.7996Z" fill="#D8E5C2"/>
<path d="M55 32.6998C56.1 32.6998 57.2 32.6998 58.3 32.6998C58.6 32.6998 58.9 32.6998 59.2 32.5998C60.6 32.2998 61.3 31.4998 61.3 30.1998C61.2 28.8998 60.4 28.0998 59 27.9998C57.8 27.8998 56.6 27.9998 55.4 27.8998C55.1 27.8998 55 27.9998 55 28.2998C55 28.9998 55 29.5998 55 30.2998V32.6998ZM66.1 41.5998C64.7 41.5998 63.4 41.5998 62.2 41.5998C62.1 41.5998 61.9 41.4998 61.8 41.3998C60.5 39.5998 59.1 37.8998 57.8 36.0998C57.6 35.8998 57.3 35.7998 57.1 35.6998C56.5 35.5998 55 35.6998 55 35.6998C55 35.6998 55 35.7998 55 36.1998C55 37.7998 55 39.2998 55 40.8998V41.5998H51.5V24.7998C51.6 24.7998 51.8 24.7998 51.9 24.7998C54.3 24.7998 56.8 24.7998 59.2 24.7998C60.4 24.7998 61.6 25.0998 62.6 25.7998C64 26.6998 64.7 27.9998 64.8 29.5998C64.9 30.2998 64.8 31.0998 64.6 31.7998C64.3 33.3998 63.2 34.3998 61.8 34.9998C61.6 35.0998 61.4 35.1998 61.2 35.2998C62.9 37.3998 64.5 39.3998 66.1 41.5998Z" fill="#D8E5C2"/>
<path d="M75.7996 28.3998C74.8996 30.6998 73.9996 32.9998 73.1996 35.3998H78.4996C77.4996 33.0998 76.6996 30.6998 75.7996 28.3998ZM84.3996 41.5998C83.1996 41.5998 82.0996 41.5998 80.9996 41.5998C80.8996 41.5998 80.6996 41.3998 80.5996 41.2998C80.2996 40.4998 79.9996 39.6998 79.6996 38.8998C79.5996 38.5998 79.3996 38.4998 79.0996 38.4998C76.8996 38.4998 74.5996 38.4998 72.3996 38.4998C72.0996 38.4998 71.8996 38.5998 71.7996 38.8998C71.4996 39.6998 71.1996 40.4998 70.7996 41.2998C70.6996 41.3998 70.5996 41.5998 70.4996 41.5998C69.3996 41.5998 68.2996 41.5998 67.0996 41.5998C67.4996 40.5998 67.7996 39.6998 68.1996 38.7998C69.9996 34.2998 71.8996 29.6998 73.6996 25.1998C73.7996 24.8998 73.9996 24.7998 74.2996 24.7998C75.2996 24.7998 76.2996 24.7998 77.2996 24.7998C77.5996 24.7998 77.6996 24.7998 77.7996 25.0998C79.9996 30.4998 82.0996 35.8998 84.2996 41.2998C84.3996 41.2998 84.3996 41.3998 84.3996 41.5998Z" fill="#D8E5C2"/>
<path d="M20.5996 41.5998H17.0996V24.7998C18.1996 24.7998 19.2996 24.7998 20.2996 24.7998C20.3996 24.7998 20.4996 24.9998 20.5996 25.0998C22.7996 28.1998 24.9996 31.3998 27.1996 34.4998C27.4996 34.8998 27.6996 35.1998 28.0996 35.6998V24.7998H31.5996V41.5998C30.4996 41.5998 29.4996 41.5998 28.3996 41.5998C28.2996 41.5998 28.0996 41.3998 27.9996 41.2998C25.5996 37.8998 23.2996 34.5998 20.8996 31.1998C20.7996 31.0998 20.6996 30.9998 20.5996 30.7998V41.5998Z" fill="#D8E5C2"/>
<path d="M12.2998 24.7998H8.7998V41.5998H12.2998V24.7998Z" fill="#D8E5C2"/>
<path d="M47.7997 32.4002C47.7997 32.3002 47.7997 32.1002 47.5997 32.1002C47.4997 32.1002 47.3997 32.1002 47.2997 32.1002H46.8997C46.0997 32.1002 45.2997 32.1002 44.4997 32.1002H41.5997V35.4002H44.3997C44.3997 36.2002 44.3997 37.1002 44.3997 37.9002C44.3997 38.8002 44.0997 38.8002 43.4997 38.9002C43.0997 39.0002 42.5997 39.0002 41.8997 38.9002C40.4997 38.8002 39.0997 38.3002 38.0997 37.2002C37.1997 36.2002 36.9997 35.0002 36.8997 33.6002C36.6997 31.1002 38.0997 29.0002 40.3997 28.3002C42.5997 27.6002 44.7997 27.9002 46.7997 29.0002C46.8997 29.1002 46.9997 29.1002 47.1997 29.2002C47.1997 28.2002 47.1997 27.3002 47.1997 26.4002C47.1997 26.0002 47.0997 25.8002 46.6997 25.7002C44.3997 24.8002 42.0997 24.5002 39.6997 25.1002C37.8997 25.5002 36.3997 26.3002 35.1997 27.7002C33.1997 30.0002 32.7997 32.8002 33.3997 35.7002C33.9997 39.0002 36.0997 41.0002 39.2997 41.9002C41.9997 42.6002 45.2997 42.3002 47.2997 41.3002C47.3997 41.2002 47.5997 41.0002 47.5997 40.9002C47.7997 38.0002 47.7997 34.9002 47.7997 32.4002Z" fill="#D8E5C2"/>
<path d="M4.2998 46.0998V18.8998L28.0998 6.09981V20.2998H31.5998V0.299805L0.799805 16.7998V49.5998H31.5998V46.0998H4.2998Z" fill="#D8E5C2"/>
</svg>
