<svg width="129" height="38" viewBox="0 0 129 38" fill="none" xmlns="http://www.w3.org/2000/svg">
<path d="M8.90009 18.7998H0.600098V37.0998H6.50009V30.2998H8.50009C10.4001 30.2998 11.8001 29.7998 13.1001 28.7998C14.3001 27.7998 15.0001 26.2998 15.0001 24.4998C15.0001 22.7998 14.4001 21.3998 13.3001 20.2998C12.0001 19.1998 10.6001 18.7998 8.90009 18.7998ZM7.50009 25.7998H6.50009V23.0998H7.50009C7.90009 23.0998 8.20009 23.1998 8.50009 23.4998C8.70009 23.7998 8.90009 24.0998 8.90009 24.4998C8.90009 25.3998 8.40009 25.7998 7.50009 25.7998ZM27.7001 29.2998C28.2001 28.5998 28.4001 27.5998 28.4001 26.2998C28.4001 24.5998 27.9001 23.2998 26.9001 22.4998C25.9001 21.5998 24.7001 21.2998 23.1001 21.2998H15.9001V37.2998H21.1001V32.2998L23.7001 37.2998H29.6001L25.8001 30.8998C26.7001 30.3998 27.3001 29.8998 27.7001 29.2998ZM22.0001 27.3998H21.1001V24.9998H22.0001C22.7001 24.9998 23.2001 25.3998 23.2001 26.0998C23.1001 27.0998 22.7001 27.3998 22.0001 27.3998ZM37.6001 21.0998C34.9001 21.0998 32.8001 21.9998 31.3001 23.5998C29.9001 25.0998 29.2001 26.8998 29.2001 29.1998C29.2001 31.3998 29.9001 33.2998 31.3001 34.7998C32.9001 36.4998 35.0001 37.2998 37.6001 37.2998C40.3001 37.2998 42.4001 36.3998 43.9001 34.7998C45.3001 33.2998 46.0001 31.4998 46.0001 29.1998C46.0001 26.9998 45.3001 25.0998 43.9001 23.5998C42.4001 21.7998 40.2001 21.0998 37.6001 21.0998ZM39.7001 31.4998C39.2001 32.1998 38.5001 32.5998 37.6001 32.5998C36.7001 32.5998 36.0001 32.1998 35.5001 31.4998C35.0001 30.8998 34.9001 30.0998 34.9001 29.0998C34.9001 28.1998 35.1001 27.3998 35.6001 26.6998C36.1001 26.0998 36.7001 25.6998 37.6001 25.6998C38.5001 25.6998 39.2001 26.0998 39.7001 26.7998C40.2001 27.3998 40.3001 28.1998 40.3001 29.1998C40.3001 30.1998 40.1001 30.8998 39.7001 31.4998ZM54.5001 21.1998H47.3001V37.1998H52.5001V31.2998H54.2001C55.8001 31.2998 57.2001 30.8998 58.2001 30.0998C59.2001 29.1998 59.8001 27.9998 59.8001 26.3998C59.8001 24.8998 59.3001 23.6998 58.3001 22.7998C57.1001 21.6998 55.8001 21.1998 54.5001 21.1998ZM53.2001 27.3998H52.3001V24.9998H53.2001C53.6001 24.9998 53.8001 25.0998 54.1001 25.3998C54.3001 25.6998 54.5001 25.8998 54.5001 26.2998C54.3001 27.0998 54.0001 27.3998 53.2001 27.3998ZM83.9001 29.2998C84.4001 28.5998 84.6001 27.5998 84.6001 26.2998C84.6001 24.5998 84.1001 23.2998 83.1001 22.4998C82.1001 21.5998 80.9001 21.2998 79.3001 21.2998H72.1001V37.2998H77.3001V32.2998L79.9001 37.2998H85.8001L82.0001 30.8998C83.0001 30.3998 83.6001 29.8998 83.9001 29.2998ZM78.2001 27.3998H77.3001V24.9998H78.2001C78.9001 24.9998 79.4001 25.3998 79.4001 26.0998C79.4001 27.0998 79.0001 27.3998 78.2001 27.3998ZM85.3001 25.5998H88.4001V37.1998H93.5001V25.5998H96.6001V21.2998H85.3001V25.5998ZM97.8001 37.1998H103V21.1998H97.8001V37.1998ZM104.4 37.1998H114.7V33.1998H109.5V31.1998H114.5V27.1998H109.5V25.1998H114.7V21.0998H104.4V37.1998ZM126.9 28.7998C126 27.8998 124.8 27.2998 123.1 27.0998C122.4 26.9998 121.9 26.8998 121.6 26.5998C121.4 26.3998 121.1 26.0998 121.1 25.8998C121.1 25.6998 121.2 25.3998 121.5 25.2998C121.7 25.1998 122 25.0998 122.2 25.0998C122.9 25.0998 123.7 25.1998 124.6 25.4998C125.3 25.6998 126.1 25.9998 126.6 26.3998L127.7 22.8998C127 22.3998 126.1 21.9998 125 21.7998C124 21.5998 122.8 21.3998 121.5 21.3998C119.8 21.3998 118.3 21.8998 117.3 22.9998C116.3 23.9998 115.8 25.0998 115.8 26.4998C115.8 27.8998 116.2 28.9998 117 29.7998C117.9 30.6998 119 31.2998 120.5 31.4998C122 31.7998 122.7 32.0998 122.7 32.6998C122.7 33.2998 122.1 33.6998 120.8 33.6998C120.2 33.6998 119.4 33.5998 118.6 33.1998C118.1 32.9998 117.4 32.5998 116.5 32.1998L115.4 35.3998C116.3 35.9998 117.1 36.4998 118.1 36.8998C119.2 37.2998 120.3 37.4998 121.6 37.4998C123.7 37.4998 125.4 36.9998 126.7 35.8998C127.8 34.8998 128.3 33.7998 128.3 32.2998C128.2 30.7998 127.8 29.6998 126.9 28.7998ZM60.5001 37.1998H70.8001V33.1998H65.6001V31.1998H69.3001V27.1998H65.6001V25.1998H70.8001V21.0998H60.5001V37.1998Z" fill="#D8E5C2"/>
<path d="M96.6002 2.89941V7.19943H93.5002V18.6994H88.3002V7.09943H85.2002V2.89941H96.6002Z" fill="#D8E5C2"/>
<path d="M54.0001 6.19983C52.9001 6.19983 52.1001 6.39982 51.5001 7.09982C50.9001 7.69982 50.6001 8.49982 50.6001 9.49982C50.6001 10.4998 50.8001 11.1998 51.5001 11.8998C52.1001 12.4998 52.9001 12.8998 54.0001 12.8998C54.6001 12.8998 55.2001 12.8998 55.5001 12.7998C55.9001 12.6998 56.2001 12.6998 56.5001 12.5998V18.8998C56.3001 18.8998 56.0001 18.9998 55.6001 18.9998C55.2001 18.9998 54.7001 19.0998 54.0001 19.0998C50.9001 19.0998 48.4001 18.0998 46.6001 16.0998C44.9001 14.3998 44.1001 12.0998 44.1001 9.69983C44.1001 7.19983 45.0001 4.9998 46.6001 3.2998C48.3001 1.2998 50.9001 0.299805 54.0001 0.299805C54.5001 0.299805 55.0001 0.299811 55.4001 0.399811C55.8001 0.499811 56.1001 0.499817 56.5001 0.499817V6.69983C56.1001 6.59983 55.9001 6.49982 55.6001 6.49982C55.1001 6.19982 54.6001 6.19983 54.0001 6.19983Z" fill="#D8E5C2"/>
<path d="M68.0002 2.89941V6.89941H62.8002V8.89941H66.5002V12.8994H62.8002V14.8994H68.0002V18.8994H57.7002V2.99942H68.0002V2.89941Z" fill="#D8E5C2"/>
<path d="M73.9001 2.89941L79.0001 10.5994V2.89941H84.1001V18.7994H79.0001L74.2001 11.4994V18.7994H69.1001V2.89941H73.9001Z" fill="#D8E5C2"/>
<path d="M123.1 14.7998V2.7998H115L109.1 14.6998L107.6 12.1998C108.5 11.7998 109.1 11.4998 109.5 10.7998C110 10.0998 110.2 9.0998 110.2 7.7998C110.2 6.0998 109.7 4.79982 108.7 3.99982C107.7 3.09982 106.5 2.7998 104.9 2.7998H97.7002V18.7998H102.9V13.7998L105.5 18.7998H111.4H112.3L113.5 16.2998H117.8V18.7998H128V14.7998H123.1ZM103.9 8.99982H103V6.7998H103.9C104.6 6.7998 105.1 7.19981 105.1 7.89981C105 8.59981 104.6 8.99982 103.9 8.99982ZM118 12.7998H115.4L118 7.59982V12.7998Z" fill="#D8E5C2"/>
</svg>
