<svg width="145" height="51" viewBox="0 0 145 51" fill="none" xmlns="http://www.w3.org/2000/svg">
<path d="M74.4996 3.30039C75.9996 3.80039 78.2997 4.70039 79.8997 5.30039C81.4997 6.00039 83.1996 6.60039 85.0996 7.30039V0.400391H60.0996V8.70039C60.8996 8.40039 61.3996 8.30039 61.7996 8.10039L74.4996 3.30039Z" fill="#D8E5C2"/>
<path d="M125.1 38.0009C122.6 37.7009 120 37.6009 117.4 37.9009C114.5 38.2009 113.6 39.4009 113.6 42.3009C113.6 43.7009 113.6 45.0009 113.6 46.4009C113.7 48.4009 114.7 49.6009 116.7 50.1009C116.9 50.1009 117.1 50.3009 117.3 50.4009H124.5C124.7 50.3009 124.8 50.2009 125 50.2009C127.2 49.7009 128.1 48.5009 128.2 46.3009C128.2 44.9009 128.2 43.4009 128.2 42.0009C128.2 39.7009 127.2 38.2009 125.1 38.0009ZM124.9 46.0009C124.8 46.9009 124.2 47.3009 123.3 47.3009C122.5 47.3009 121.7 47.3009 120.8 47.3009C120.2 47.3009 119.6 47.3009 119 47.3009C118.8 47.3009 118.6 47.3009 118.4 47.3009C117.3 47.4009 116.8 46.7009 116.7 45.8009C116.6 44.6009 116.7 43.3009 116.7 42.1009C116.7 41.2009 117.3 40.7009 118.2 40.7009C119.8 40.7009 121.5 40.7009 123.1 40.7009C124 40.7009 124.6 41.2009 124.7 42.1009C125 43.4009 125 44.7009 124.9 46.0009Z" fill="#D8E5C2"/>
<path d="M139.3 39.8999C138.4 41.0999 137.2 42.1999 136.1 43.2999C135.2 44.1999 134.3 45.0999 133.1 46.2999V37.9999C132.2 37.9999 131.4 37.8999 130.6 37.9999C130.3 37.9999 130 38.4999 130 38.6999C130 42.5999 130.1 46.4999 130.1 50.3999H130.3L130.4 50.2999C132.9 50.4999 134.4 49.0999 135.9 47.4999C137.6 45.6999 139.5 44.0999 141.3 42.3999V50.4999H144.6V37.8999C142.5 37.6999 140.7 37.9999 139.3 39.8999Z" fill="#D8E5C2"/>
<path d="M107.7 37.9004C104.8 37.9004 101.9 37.9004 98.8997 37.9004C98.3997 37.9004 97.7997 37.9004 97.1997 37.9004V50.3004H100.5V47.0004C101.1 47.0004 101.5 47.0004 102 47.0004C104 47.0004 106 47.0004 108.1 47.0004C110.4 47.0004 111.5 45.9004 111.5 43.6004C111.5 42.9004 111.5 42.3004 111.5 41.6004C111.4 39.1004 110.3 37.9004 107.7 37.9004ZM106.5 44.2004C104.8 44.2004 103.1 44.2004 101.4 44.2004C100.8 44.2004 100.5 44.0004 100.5 43.3004C100.3 40.6004 100.3 40.6004 103 40.6004C103.4 40.6004 103.8 40.6004 104.2 40.6004C105.2 40.6004 106.1 40.6004 107.1 40.6004C107.9 40.6004 108.2 41.0004 108.2 41.7004C108.2 41.9004 108.2 42.2004 108.2 42.4004C108.2 44.1004 108.1 44.2004 106.5 44.2004Z" fill="#D8E5C2"/>
<path d="M28.6999 39.2004C28.6999 38.8004 28.6998 38.4004 28.5998 37.9004C24.7998 37.9004 21.1998 37.9004 17.5998 37.9004C15.5998 37.9004 14.9999 38.6004 14.9999 40.6004C14.9999 42.6004 14.9999 44.6004 14.9999 46.5004C14.9999 47.3004 14.6999 47.8004 13.8999 48.0004C13.5999 48.1004 13.2999 48.5004 13.1999 48.9004C13.0999 49.3004 13.2999 49.8004 13.2999 50.3004H16.0998C17.7998 49.7004 18.2999 48.4004 18.1999 46.8004C18.0999 44.8004 18.1999 42.9004 18.1999 40.8004H25.3999V50.3004H26.0998C26.4998 50.2004 26.8999 50.1004 27.1999 50.2004C28.3999 50.4004 28.6999 49.8004 28.6999 48.7004C28.6999 45.5004 28.6999 42.4004 28.6999 39.2004Z" fill="#D8E5C2"/>
<path d="M78.1998 47.4C75.5998 47.4 72.9998 47.4 70.3998 47.4C69.2998 47.4 68.6998 47 68.5998 45.9C68.5998 44.8 68.4998 43.6 68.5998 42.5C68.6998 40.9 68.9998 40.7 70.5998 40.7C72.6998 40.7 74.6998 40.7 76.7998 40.7C77.7998 40.7 78.6998 40.7 79.6998 40.7C79.4998 39 78.8998 38.1 77.3998 38C74.4998 37.8 71.6998 37.7 68.7998 37.9C66.1998 38.1 65.2998 39.5 65.2998 42.1C65.2998 43.5 65.2998 45 65.2998 46.4C65.3998 48.5 66.2998 49.6 68.3998 50C68.4998 50 68.6998 50.1 68.7998 50.2H76.6998C78.0998 49.7 79.4998 49.2 79.6998 47.3C79.0998 47.4 78.5998 47.4 78.1998 47.4Z" fill="#D8E5C2"/>
<path d="M81.2998 40.7H86.6998V50.3H89.8998V40.6H95.4998V38H81.2998V40.7Z" fill="#D8E5C2"/>
<path d="M3.09985 37.9004C1.89985 37.9004 0.999902 38.2004 0.399902 39.3004V50.3004H3.69989V40.5004H12.6999V37.9004C9.49989 37.9004 6.29985 38.0004 3.09985 37.9004Z" fill="#D8E5C2"/>
<path d="M60.0996 23.8C60.0996 24.3 60.0996 24.7 60.1996 25.3C60.6996 25.3 61.0997 25.3 61.3997 25.3C64.6997 25.3 69.1997 25.3 72.3997 25.3C72.3997 25.3 72.3997 25 72.3997 24.1C72.3997 19.1 72.3997 13 72.3997 8L60.0996 12.8C60.0996 12.8 60.0996 13.3 60.0996 13.7C60.0996 17 60.0996 20.5 60.0996 23.8Z" fill="#D8E5C2"/>
<path d="M76.2998 25.3H84.8998C84.8998 24.8 84.8998 24.4 84.8998 24C84.8998 20.7 84.8998 14.7 84.8998 11.4L76.2998 8V25.3Z" fill="#D8E5C2"/>
<path d="M61.6 43.8008C63.4 43.1008 63.4 41.3008 63.1 39.7008C62.8 38.5008 61.9 37.9008 60.2 37.8008C58.8 37.8008 57.3 37.8008 55.9 37.8008C53.6 37.8008 51.4 37.8008 49.2 37.8008C49.1 38.0008 49 38.1008 49 38.2008C49 41.9008 49 45.6008 49 49.3008C49 49.5008 49.4 50.0008 49.7 50.0008C53.6 50.0008 57.4 50.0008 61.3 49.9008C61.9 49.9008 62.8 49.2008 63.1 48.7008C64 47.0008 63.3 44.8008 61.6 43.8008ZM52.3 40.5008C54.6 40.5008 56.9 40.5008 59.1 40.5008C59.4 40.5008 59.9 41.1008 59.9 41.4008C59.9 41.8008 59.6 42.5008 59.3 42.7008C58.9 42.9008 58.2 42.9008 57.7 42.9008C56 42.9008 54.2 42.9008 52.4 42.9008V40.5008H52.3ZM59 47.5008C56.8 47.5008 54.6 47.5008 52.3 47.5008V45.1008C54.6 45.1008 57 45.1008 59.3 45.1008C60.1 45.1008 60.2 45.7008 60.2 46.3008C60.1 47.0008 59.7 47.5008 59 47.5008Z" fill="#D8E5C2"/>
<path d="M42.0997 39.7007C41.3997 38.1007 40.3997 37.6007 38.6997 37.7007C37.1997 37.8007 36.0997 38.3007 35.3997 39.6007C33.7997 42.8007 32.0997 46.0007 30.3997 49.2007C30.2997 49.4007 30.2997 49.7007 30.1997 50.0007C30.6997 50.0007 31.1997 50.0007 31.5997 50.0007C32.9997 50.2007 33.9997 49.9007 34.4997 48.4007C34.5997 48.1007 35.1997 47.9007 35.4997 47.9007C37.5997 47.9007 39.7997 47.9007 41.8997 47.9007C42.1997 47.9007 42.7997 48.2007 42.8997 48.4007C43.3997 49.8007 44.3997 50.1007 45.6997 49.9007C46.1997 49.8007 46.5997 49.9007 47.2997 49.9007C47.0997 49.5007 46.9997 49.2007 46.8997 49.0007C45.2997 46.0007 43.5997 42.9007 42.0997 39.7007ZM36.0997 45.4007C36.9997 43.7007 37.7997 42.1007 38.6997 40.3007C39.5997 42.1007 40.4997 43.7007 41.3997 45.4007H36.0997Z" fill="#D8E5C2"/>
<path d="M141.3 34.3008H133.4V35.9008H141.3V34.3008Z" fill="#D8E5C2"/>
</svg>
