<svg width="75" height="39" viewBox="0 0 75 39" fill="none" xmlns="http://www.w3.org/2000/svg">
<path d="M9.9998 23.3006H0.799805V1.10059H15.9998V6.00058H6.2998V9.10059H9.9998C14.6998 9.10059 17.3998 12.1006 17.3998 16.2006C17.3998 20.3006 14.6998 23.3006 9.9998 23.3006ZM9.6998 13.9006H6.1998V18.4006H9.6998C11.0998 18.4006 11.8998 17.4006 11.8998 16.2006C11.9998 14.9006 11.0998 13.9006 9.6998 13.9006Z" fill="#D8E5C2"/>
<path d="M21.1997 23.3006V1.10059H36.2997V6.00058H26.6997V9.70059H34.8997V14.6006H26.6997V18.5006H36.2997V23.3006H21.1997Z" fill="#D8E5C2"/>
<path d="M47.8999 23.5004C45.1999 23.5004 43.2999 22.7004 41.6999 21.1004C39.3999 18.8004 39.3999 16.0004 39.3999 12.2004C39.3999 8.50041 39.3999 5.60038 41.6999 3.30038C43.2999 1.70038 45.1999 0.900391 47.8999 0.900391C52.0999 0.900391 55.4999 3.2004 56.2999 8.1004H50.6999C50.3999 6.9004 49.6999 5.70041 47.8999 5.70041C46.8999 5.70041 46.1999 6.1004 45.6999 6.6004C45.1999 7.3004 44.8999 8.0004 44.8999 12.1004C44.8999 16.2004 45.1999 16.9004 45.6999 17.6004C46.0999 18.1004 46.8999 18.5004 47.8999 18.5004C49.6999 18.5004 50.3999 17.4004 50.6999 16.1004H56.2999C55.4999 21.2004 52.0999 23.5004 47.8999 23.5004Z" fill="#D8E5C2"/>
<path d="M68.6997 6.00058V23.3006H63.1997V6.00058H57.6997V1.10059H74.0997V6.00058H68.6997Z" fill="#D8E5C2"/>
<path d="M5.4998 38.9002V35.3002H3.0998V38.9002H0.799805V29.7002H3.0998V33.2002H5.4998V29.7002H7.7998V38.9002H5.4998Z" fill="#D8E5C2"/>
<path d="M15.4999 38.0006C14.7999 38.7006 14.0999 39.0006 12.8999 39.0006C11.7999 39.0006 10.9999 38.6006 10.2999 38.0006C9.3999 37.1006 9.3999 35.9006 9.3999 34.3006C9.3999 32.7006 9.3999 31.6006 10.2999 30.6006C10.9999 29.9006 11.6999 29.6006 12.8999 29.6006C13.9999 29.6006 14.7999 30.0006 15.4999 30.6006C16.4999 31.5006 16.4999 32.7006 16.4999 34.3006C16.3999 35.9006 16.3999 37.0006 15.4999 38.0006ZM13.7999 32.0006C13.5999 31.8006 13.2999 31.6006 12.8999 31.6006C12.4999 31.6006 12.1999 31.8006 11.9999 32.0006C11.7999 32.3006 11.6999 32.6006 11.6999 34.3006C11.6999 36.0006 11.7999 36.3006 11.9999 36.6006C12.1999 36.8006 12.4999 37.0006 12.8999 37.0006C13.2999 37.0006 13.5999 36.8006 13.7999 36.6006C13.9999 36.3006 14.0999 36.0006 14.0999 34.3006C14.0999 32.6006 13.9999 32.3006 13.7999 32.0006Z" fill="#D8E5C2"/>
<path d="M22 38.9006H18V29.6006H21.8C23.6 29.6006 24.8 30.6006 24.8 32.2006C24.8 33.0006 24.5 33.6006 23.8 34.1006C24.6 34.6006 24.9 35.2006 24.9 36.1006C24.9 37.9006 23.8 38.9006 22 38.9006ZM21.7 31.7006H20.3V33.2006H21.7C22.2 33.2006 22.5 32.9006 22.5 32.4006C22.5 32.0006 22.2 31.7006 21.7 31.7006ZM21.8 35.3006H20.3V36.9006H21.8C22.3 36.9006 22.6 36.6006 22.6 36.1006C22.6 35.6006 22.3 35.3006 21.8 35.3006Z" fill="#D8E5C2"/>
<path d="M32.2 38.0006C31.5 38.7006 30.8 39.0006 29.6 39.0006C28.5 39.0006 27.7 38.6006 27 38.0006C26 37.1006 26 35.9006 26 34.3006C26 32.7006 26 31.6006 27 30.6006C27.7 29.9006 28.4 29.6006 29.6 29.6006C30.7 29.6006 31.5 30.0006 32.2 30.6006C33.2 31.5006 33.2 32.7006 33.2 34.3006C33.2 35.9006 33.2 37.0006 32.2 38.0006ZM30.6 32.0006C30.4 31.8006 30.1 31.6006 29.7 31.6006C29.3 31.6006 29 31.8006 28.8 32.0006C28.6 32.3006 28.5 32.6006 28.5 34.3006C28.5 36.0006 28.6 36.3006 28.8 36.6006C29 36.8006 29.3 37.0006 29.7 37.0006C30.1 37.0006 30.4 36.8006 30.6 36.6006C30.8 36.3006 30.9 36.0006 30.9 34.3006C30.9 32.6006 30.8 32.3006 30.6 32.0006Z" fill="#D8E5C2"/>
<path d="M38 39.0006C36.9 39.0006 36.1 38.6006 35.4 38.0006C34.5 37.1006 34.5 35.9006 34.5 34.3006C34.5 32.7006 34.5 31.6006 35.4 30.6006C36.1 29.9006 36.8 29.6006 38 29.6006C39.8 29.6006 41.2 30.6006 41.5 32.6006H39.2C39.1 32.1006 38.8 31.6006 38 31.6006C37.6 31.6006 37.3 31.8006 37.1 32.0006C36.9 32.3006 36.7 32.6006 36.7 34.3006C36.7 36.0006 36.8 36.3006 37.1 36.6006C37.3 36.8006 37.6 37.0006 38 37.0006C38.8 37.0006 39 36.5006 39.2 36.0006H41.5C41.1 38.0006 39.7 39.0006 38 39.0006Z" fill="#D8E5C2"/>
<path d="M46.5996 31.7002V38.9002H44.2996V31.7002H42.0996V29.7002H48.8996V31.7002H46.5996Z" fill="#D8E5C2"/>
<path d="M53.8997 35.6006H52.4997V38.9006H50.1997V29.6006H53.8997C55.9997 29.6006 57.0997 31.1006 57.0997 32.6006C56.9997 34.2006 55.8997 35.6006 53.8997 35.6006ZM53.7997 31.7006H52.4997V33.6006H53.7997C54.3997 33.6006 54.7997 33.1006 54.7997 32.7006C54.7997 32.2006 54.3997 31.7006 53.7997 31.7006Z" fill="#D8E5C2"/>
<path d="M64.2 38.0006C63.5 38.7006 62.8 39.0006 61.6 39.0006C60.5 39.0006 59.7 38.6006 59 38.0006C58 37.1006 58 35.9006 58 34.3006C58 32.7006 58 31.6006 59 30.6006C59.7 29.9006 60.4 29.6006 61.6 29.6006C62.7 29.6006 63.5 30.0006 64.2 30.6006C65.2 31.5006 65.2 32.7006 65.2 34.3006C65.1 35.9006 65.1 37.0006 64.2 38.0006ZM62.5 32.0006C62.3 31.8006 62 31.6006 61.6 31.6006C61.2 31.6006 60.9 31.8006 60.7 32.0006C60.5 32.3006 60.4 32.6006 60.4 34.3006C60.4 36.0006 60.5 36.3006 60.7 36.6006C60.9 36.8006 61.2 37.0006 61.6 37.0006C62 37.0006 62.3 36.8006 62.5 36.6006C62.7 36.3006 62.8 36.0006 62.8 34.3006C62.8 32.6006 62.7 32.3006 62.5 32.0006Z" fill="#D8E5C2"/>
<path d="M71.5996 38.9002V33.9002L68.5996 38.9002H66.5996V29.6002H68.8996V34.6002L71.8996 29.6002H73.8996V38.9002H71.5996ZM70.2996 29.2002C69.2996 29.2002 68.0996 28.8002 68.0996 27.2002H69.5996C69.5996 27.7002 69.8996 27.9002 70.2996 27.9002C70.6996 27.9002 70.9996 27.7002 70.9996 27.2002H72.4996C72.4996 28.8002 71.2996 29.2002 70.2996 29.2002Z" fill="#D8E5C2"/>
</svg>
