<svg width="305" height="320" viewBox="0 0 305 320" fill="none" xmlns="http://www.w3.org/2000/svg">
<g opacity="0.2" clip-path="url(#clip0)">
<path d="M296.861 205.413C285.35 90.4096 235.735 -50.1494 181.754 -3.29623C131.704 40.1439 161.511 115.966 121.421 183.264C81.3323 250.562 27.0779 146.814 -9.16552 232.673C-30.2023 282.507 -30.5 367.481 -5.2955 436.59C19.909 505.698 70.6157 558.94 151.588 545.31C228.075 532.435 266.065 464.163 284.098 390.759C302.13 317.355 300.204 238.818 296.861 205.413Z" stroke="white" stroke-width="1.04575" stroke-miterlimit="10"/>
<path d="M153.707 535.088C223.899 523.498 259.017 461.18 275.802 393.777C292.426 326.762 290.899 254.895 287.931 223.563C277.668 116.988 232.084 -13.4439 181.946 26.8291C135.651 64.0144 161.357 132.474 124.233 193.854C123.173 195.594 122.104 197.213 121.025 198.719C91.8172 239.533 55.772 196.34 26.0836 214.177C18.0244 219.019 10.4143 228.276 3.57793 244.865C-16.0863 292.582 -16.0703 371.326 7.43032 434.924C31.0807 498.78 78.5427 547.358 153.707 535.088Z" stroke="white" stroke-width="1.04575" stroke-miterlimit="10"/>
<path d="M155.921 524.343C219.755 514.04 251.97 457.686 267.493 396.292C282.693 335.678 281.611 270.473 278.975 241.236C270.122 143.039 228.469 22.8223 182.207 56.5024C139.719 87.4357 161.382 148.768 127.166 203.966C126.179 205.557 125.18 207.027 124.175 208.406C97.049 245.695 64.0136 209.172 37.0416 227.326C29.6768 232.284 22.7291 241.154 16.5518 256.575C-1.7193 302.184 -1.3927 374.671 20.3833 432.751C42.4582 491.344 86.6327 535.251 155.921 524.343Z" stroke="white" stroke-width="1.04575" stroke-miterlimit="10"/>
<path d="M158.02 514.121C215.548 505.105 244.959 454.811 259.161 399.355C273.021 345.235 272.287 286.634 270.007 259.486C262.467 169.731 224.812 59.7201 182.375 86.7895C143.67 111.478 161.242 165.514 129.959 214.663C129.044 216.1 128.114 217.425 127.182 218.676C102.116 252.433 72.0603 222.604 47.7844 241.056C41.1072 246.131 34.8197 254.62 29.2929 268.858C12.4046 312.369 13.0372 378.567 33.1064 431.117C53.6246 484.437 94.5487 523.664 158.02 514.121Z" stroke="white" stroke-width="1.04575" stroke-miterlimit="10"/>
<path d="M159.992 503.83C211.164 496.325 237.683 451.767 250.6 402.265C263.054 354.541 262.718 302.563 260.798 277.479C254.568 196.107 220.98 96.2304 182.392 116.687C147.527 135.171 160.967 181.912 132.656 225.061C131.813 226.346 130.955 227.527 130.096 228.651C107.115 258.9 80.0681 235.769 58.5153 254.511C52.5316 259.714 46.9163 267.831 42.0413 280.889C26.5595 322.36 27.4348 382.396 45.8331 429.353C64.7151 477.546 102.412 512.274 159.992 503.83Z" stroke="white" stroke-width="1.04575" stroke-miterlimit="10"/>
<path d="M162.086 493.072C206.95 486.899 230.608 448.341 242.258 404.879C253.315 363.63 253.377 318.368 251.818 295.389C246.877 222.547 217.358 132.999 182.554 146.775C151.51 159.062 160.804 198.37 135.444 235.467C134.672 236.596 133.885 237.632 133.099 238.628C112.179 265.317 88.1099 248.953 69.2574 267.922C63.9602 273.252 59.0168 280.989 54.7831 292.832C40.7018 332.221 41.858 385.879 58.5568 427.248C75.8726 470.146 110.327 500.194 162.086 493.072Z" stroke="white" stroke-width="1.04575" stroke-miterlimit="10"/>
<path d="M164.271 482.837C202.772 477.976 223.535 445.405 233.908 407.958C243.551 373.15 244.01 334.582 242.819 313.691C239.154 249.346 213.787 170.123 182.781 177.171C155.623 183.344 160.723 215.15 138.359 246.25C137.658 247.224 136.944 248.116 136.232 248.984C117.398 272.131 96.3393 262.557 80.2082 281.72C75.6043 287.19 71.3457 294.555 67.7513 305.175C55.1044 342.54 56.528 389.812 71.5023 425.625C87.2332 463.248 118.397 488.629 164.271 482.837Z" stroke="white" stroke-width="1.04575" stroke-miterlimit="10"/>
<path d="M166.469 472.082C198.702 468.512 216.618 441.953 225.747 410.542C233.99 382.18 234.849 350.329 234.032 331.533C231.606 275.724 210.339 203.808 183.069 207.173C159.794 210.044 160.63 231.492 141.221 256.626C140.59 257.444 139.946 258.193 139.306 258.933C122.511 278.53 104.417 275.794 90.9602 295.086C87.0398 300.706 83.4628 307.697 80.4896 317.073C69.2716 352.445 70.9455 393.25 84.2275 423.503C98.4195 455.828 126.365 476.522 166.469 472.082Z" stroke="white" stroke-width="1.04575" stroke-miterlimit="10"/>
<path d="M168.493 461.849C194.397 459.53 209.421 438.927 217.303 413.476C224.119 391.466 225.377 366.263 224.947 349.503C223.73 302.082 206.748 243.792 183.153 236.946C163.739 231.314 160.344 247.603 143.948 266.907C143.386 267.569 142.814 268.179 142.247 268.793C127.521 284.894 112.442 289.062 101.665 308.471C98.4411 314.278 95.5595 320.914 93.2003 329.053C83.4757 362.603 85.3604 396.974 96.9192 421.766C109.556 448.871 134.226 464.916 168.493 461.849Z" stroke="white" stroke-width="1.04575" stroke-miterlimit="10"/>
<path d="M170.691 451.613C190.254 450.5 202.356 435.923 209.012 416.526C214.376 400.893 216.035 382.43 216.012 367.745C215.95 328.823 203.224 281.483 183.405 267.242C167.866 256.075 160.213 264.082 146.862 277.619C146.369 278.119 145.871 278.592 145.378 279.078C132.727 291.645 120.708 302.791 112.579 322.204C110.064 328.209 107.884 334.472 106.123 341.337C97.9772 373.087 100.002 400.824 109.821 420.122C120.909 441.913 142.277 453.229 170.691 451.613Z" stroke="white" stroke-width="1.04575" stroke-miterlimit="10"/>
<path d="M183.523 297.001C171.231 279.901 158.981 279.814 148.416 288.844C137.852 297.874 128.974 316.021 123.426 335.39C112.04 375.131 113.108 401.48 122.655 417.893C132.202 434.306 150.23 440.784 172.767 440.784C195.304 440.784 205.908 415.85 206.921 385.41C207.934 354.97 199.354 319.024 183.523 297.001Z" stroke="white" stroke-width="1.04575" stroke-miterlimit="10"/>
</g>
<defs>
<clipPath id="clip0">
<rect width="320" height="320" fill="white" transform="matrix(-1 0 0 1 320 0)"/>
</clipPath>
</defs>
</svg>
