<svg width="1314" height="612" viewBox="0 0 1314 612" fill="none" xmlns="http://www.w3.org/2000/svg">
<g opacity="0.2" clip-path="url(#clip0)">
<path d="M1218.99 392.852C1171.72 172.908 967.987 -95.9106 746.327 -6.30394C540.811 76.7754 663.204 221.785 498.588 350.493C333.972 479.2 111.19 280.783 -37.635 444.986C-124.017 540.295 -125.24 702.808 -21.7438 834.978C81.7521 967.147 289.966 1068.97 622.458 1042.91C936.535 1018.28 1092.53 887.711 1166.58 747.326C1240.62 606.941 1232.71 456.739 1218.99 392.852Z" stroke="white" stroke-width="2" stroke-miterlimit="10"/>
<path d="M631.158 1023.36C919.384 1001.19 1063.59 882.007 1132.51 753.098C1200.77 624.933 1194.5 487.487 1182.31 427.564C1140.17 223.739 952.993 -25.7116 747.114 51.3106C557.016 122.428 662.573 253.356 510.13 370.746C505.779 374.073 501.388 377.17 496.958 380.049C377.024 458.108 229.013 375.5 107.105 409.613C74.0124 418.873 42.7632 436.577 14.6914 468.304C-66.055 559.563 -65.9893 710.161 30.5103 831.792C127.625 953.917 322.516 1046.82 631.158 1023.36Z" stroke="white" stroke-width="2" stroke-miterlimit="10"/>
<path d="M640.252 1002.81C902.367 983.1 1034.65 875.323 1098.39 757.908C1160.81 641.983 1156.37 517.279 1145.54 461.363C1109.19 273.562 938.15 43.6476 748.19 108.061C573.721 167.221 662.675 284.518 522.174 390.086C518.125 393.128 514.02 395.94 509.893 398.576C398.508 469.892 262.856 400.041 152.102 434.762C121.861 444.242 93.3317 461.208 67.966 490.699C-7.05956 577.926 -5.71845 716.558 83.6991 827.636C174.344 939.696 355.736 1023.67 640.252 1002.81Z" stroke="white" stroke-width="2" stroke-miterlimit="10"/>
<path d="M648.87 983.256C885.095 966.013 1005.87 869.827 1064.18 763.766C1121.09 660.262 1118.08 548.188 1108.72 496.266C1077.76 324.61 923.137 114.215 748.88 165.985C589.946 213.202 662.102 316.546 533.644 410.542C529.887 413.291 526.07 415.826 522.243 418.218C419.314 482.777 295.899 425.73 196.216 461.019C168.798 470.725 142.98 486.96 120.285 514.192C50.9377 597.407 53.5354 724.009 135.945 824.511C220.197 926.487 388.242 1001.51 648.87 983.256Z" stroke="white" stroke-width="2" stroke-miterlimit="10"/>
<path d="M656.969 963.575C867.094 949.222 975.984 864.004 1029.03 769.332C1080.17 678.06 1078.79 578.652 1070.9 530.679C1045.32 375.055 907.402 184.041 748.95 223.165C605.782 258.515 660.97 347.906 544.718 430.429C541.256 432.886 537.734 435.146 534.208 437.296C439.842 495.146 328.78 450.908 240.279 486.751C215.708 496.703 192.65 512.227 172.633 537.201C109.061 616.513 112.655 731.332 188.203 821.137C265.737 913.306 420.531 979.725 656.969 963.575Z" stroke="white" stroke-width="2" stroke-miterlimit="10"/>
<path d="M665.564 943C849.788 931.194 946.932 857.453 994.772 774.332C1040.18 695.442 1040.43 608.878 1034.03 564.931C1013.74 425.621 892.525 254.36 749.611 280.707C622.139 304.207 660.3 379.382 556.167 450.33C552.995 452.49 549.763 454.472 546.538 456.376C460.633 507.419 361.801 476.122 284.388 512.401C262.636 522.594 242.337 537.392 224.953 560.041C167.131 635.372 171.879 737.994 240.449 817.112C311.551 899.154 453.029 956.62 665.564 943Z" stroke="white" stroke-width="2" stroke-miterlimit="10"/>
<path d="M674.536 923.426C832.631 914.129 917.893 851.837 960.487 780.22C1000.08 713.65 1001.97 639.887 997.078 599.934C982.026 476.875 877.862 325.361 750.545 338.839C639.029 350.645 659.97 411.475 568.138 470.952C565.26 472.816 562.325 474.522 559.402 476.182C482.066 520.451 395.594 502.139 329.355 538.79C310.451 549.25 292.964 563.336 278.204 583.647C226.273 655.109 232.118 745.515 293.607 814.007C358.202 885.963 486.167 934.503 674.536 923.426Z" stroke="white" stroke-width="2" stroke-miterlimit="10"/>
<path d="M683.565 902.856C815.922 896.03 889.487 845.236 926.974 785.161C960.822 730.918 964.348 670.005 960.993 634.057C951.031 527.322 863.706 389.783 751.728 396.218C656.154 401.709 659.587 442.729 579.891 490.798C577.297 492.362 574.653 493.794 572.025 495.21C503.062 532.689 428.763 527.457 373.506 564.353C357.408 575.101 342.72 588.471 330.511 606.402C284.447 674.052 291.321 752.091 345.86 809.949C404.136 871.771 518.886 911.349 683.565 902.856Z" stroke="white" stroke-width="2" stroke-miterlimit="10"/>
<path d="M691.872 883.286C798.243 878.852 859.934 839.448 892.299 790.773C920.289 748.678 925.456 700.478 923.69 668.425C918.692 577.732 848.957 466.252 752.072 453.16C672.354 442.387 658.413 473.54 591.084 510.46C588.776 511.726 586.429 512.892 584.102 514.066C523.632 544.86 461.712 552.831 417.463 589.95C404.223 601.056 392.391 613.747 382.703 629.314C342.772 693.478 350.511 759.212 397.974 806.628C449.863 858.465 551.164 889.152 691.872 883.286Z" stroke="white" stroke-width="2" stroke-miterlimit="10"/>
<path d="M700.9 863.709C781.232 861.58 830.924 833.702 858.254 796.607C880.282 766.708 887.095 731.398 886.999 703.313C886.746 628.875 834.489 538.336 753.108 511.1C689.298 489.745 657.873 505.058 603.052 530.947C601.027 531.903 598.983 532.807 596.956 533.737C545.009 557.772 495.659 579.088 462.277 616.215C451.951 627.7 442.999 639.678 435.767 652.807C402.319 713.53 410.633 766.576 450.952 803.483C496.482 845.158 584.227 866.8 700.9 863.709Z" stroke="white" stroke-width="2" stroke-miterlimit="10"/>
<path d="M753.593 568.015C703.116 535.31 652.814 535.144 609.435 552.414C566.057 569.684 529.601 604.391 506.817 641.434C460.067 717.438 464.448 767.83 503.652 799.22C542.856 830.611 616.884 843 709.425 843C801.967 843 845.511 795.313 849.669 737.096C853.828 678.88 818.6 610.133 753.593 568.015Z" stroke="white" stroke-width="2" stroke-miterlimit="10"/>
</g>
<defs>
<clipPath id="clip0">
<rect width="1314" height="612" fill="white" transform="matrix(-1 0 0 1 1314 0)"/>
</clipPath>
</defs>
</svg>
