<svg width="68" height="57" viewBox="0 0 68 57" fill="none" xmlns="http://www.w3.org/2000/svg">
<path fill-rule="evenodd" clip-rule="evenodd" d="M58.3553 16.6406L67.422 21.7597C67.5971 21.8585 67.7428 22.0022 67.8444 22.1761C67.9459 22.35 67.9997 22.5478 68 22.7494V32.9876C67.9997 33.1891 67.9459 33.387 67.8444 33.5609C67.7428 33.7348 67.5971 33.8785 67.422 33.9773L58.9333 38.7665V52.0005C58.9333 52.3022 58.8139 52.5915 58.6014 52.8049C58.3889 53.0182 58.1006 53.1381 57.8 53.1381H54.4V55.3791C54.4 55.6808 54.2806 55.9701 54.0681 56.1835C53.8555 56.3968 53.5673 56.5167 53.2667 56.5167H49.8667V54.2415H52.1333V49.6912H50.6373C50.3722 49.6966 50.1136 49.6084 49.9065 49.4422C49.6994 49.2759 49.557 49.042 49.504 48.7811C49.1112 46.7874 48.3418 44.8876 47.2374 43.1843C47.0948 42.9673 47.0305 42.7079 47.0553 42.4492C47.08 42.1905 47.1923 41.9481 47.3733 41.7623L48.4613 40.7385L45.254 37.5191L44.2 38.5771C44.01 38.7639 43.7605 38.8777 43.4953 38.8985C43.2301 38.9193 42.966 38.8458 42.7494 38.6908C41.0523 37.5823 39.1596 36.81 37.1734 36.4157C36.9135 36.3625 36.6805 36.2196 36.5148 36.0117C36.3491 35.8038 36.2613 35.5443 36.2667 35.2781V33.7993H31.7334V35.2667C31.7387 35.5329 31.6509 35.7925 31.4852 36.0003C31.3196 36.2082 31.0865 36.3511 30.8267 36.4043C28.8404 36.7987 26.9477 37.5709 25.2507 38.6795C25.0346 38.8226 24.7761 38.8871 24.5184 38.8622C24.2606 38.8374 24.0191 38.7247 23.834 38.543L22.78 37.485L19.5727 40.7044L20.6267 41.7623C20.8128 41.9531 20.9262 42.2035 20.9469 42.4697C20.9676 42.7359 20.8944 43.0009 20.74 43.2184C19.6356 44.9218 18.8662 46.8216 18.4734 48.8153C18.4204 49.0761 18.278 49.31 18.0709 49.4763C17.8638 49.6426 17.6052 49.7307 17.34 49.7253H15.8667V54.2756H18.1334V56.5508H14.7334C14.4328 56.5508 14.1445 56.4309 13.932 56.2176C13.7194 56.0043 13.6 55.7149 13.6 55.4132V53.1381H10.2C9.89947 53.1381 9.6112 53.0182 9.39866 52.8049C9.18612 52.5915 9.06671 52.3022 9.06671 52.0005V38.7665L0.578054 33.9773C0.402992 33.8785 0.257221 33.7348 0.155662 33.5609C0.0541017 33.387 0.000400477 33.1891 5.44063e-05 32.9876V22.7494C-0.00189139 22.5501 0.0483864 22.3537 0.145851 22.18C0.243315 22.0063 0.384544 21.8614 0.555387 21.7597L9.62205 16.6406C9.79433 16.5408 9.98977 16.4882 10.1887 16.4882C10.3877 16.4882 10.5831 16.5408 10.7554 16.6406L19.822 21.7597C19.9971 21.8585 20.1429 22.0022 20.2444 22.1761C20.346 22.35 20.3997 22.5478 20.4 22.7494V32.9876C20.3997 33.1891 20.346 33.387 20.2444 33.5609C20.1429 33.7348 19.9971 33.8785 19.822 33.9773L11.3334 38.7665V50.8629H13.6V48.5878C13.6 48.286 13.7194 47.9967 13.932 47.7834C14.1445 47.57 14.4328 47.4502 14.7334 47.4502H16.4334C16.8594 45.8034 17.5157 44.2254 18.3827 42.7634L17.17 41.5462C17.065 41.4399 16.9819 41.3138 16.9255 41.1752C16.8691 41.0366 16.8405 40.8882 16.8414 40.7385C16.8405 40.5888 16.8691 40.4404 16.9255 40.3018C16.9819 40.1632 17.065 40.0371 17.17 39.9308L21.9754 35.1075C22.0807 35.0009 22.2061 34.9162 22.3442 34.8585C22.4823 34.8007 22.6304 34.771 22.78 34.771C22.9296 34.771 23.0778 34.8007 23.2159 34.8585C23.354 34.9162 23.4793 35.0009 23.5847 35.1075L24.7974 36.3247C26.2521 35.4534 27.8249 34.7982 29.4667 34.3794V32.6617C29.4667 32.36 29.5861 32.0706 29.7986 31.8573C30.0112 31.644 30.2994 31.5241 30.6 31.5241H32.8667V27.4021L22.1227 21.4753C21.9438 21.3771 21.7947 21.2323 21.691 21.0561C21.5873 20.8799 21.5328 20.6789 21.5334 20.4742V7.96092C21.5283 7.76076 21.5759 7.5628 21.6714 7.38703C21.7669 7.21125 21.9069 7.0639 22.0774 6.95985L33.4107 0.703187C33.583 0.603344 33.7784 0.550781 33.9774 0.550781C34.1763 0.550781 34.3717 0.603344 34.544 0.703187L45.8774 6.95985C46.0562 7.05808 46.2054 7.20291 46.3091 7.37909C46.4128 7.55528 46.4672 7.75628 46.4667 7.96092V20.4742C46.4672 20.6789 46.4128 20.8799 46.3091 21.0561C46.2054 21.2323 46.0562 21.3771 45.8774 21.4753L35.1334 27.4021V31.5241H37.4C37.7006 31.5241 37.9889 31.644 38.2014 31.8573C38.414 32.0706 38.5334 32.36 38.5334 32.6617V34.3794C40.1752 34.7982 41.748 35.4534 43.2027 36.3247L44.4154 35.1075C44.5207 35.0009 44.6461 34.9162 44.7842 34.8585C44.9223 34.8007 45.0704 34.771 45.22 34.771C45.3696 34.771 45.5178 34.8007 45.6559 34.8585C45.794 34.9162 45.9193 35.0009 46.0247 35.1075L50.83 39.9308C50.9351 40.0371 51.0182 40.1632 51.0746 40.3018C51.131 40.4404 51.1595 40.5888 51.1587 40.7385C51.1595 40.8882 51.131 41.0366 51.0746 41.1752C51.0182 41.3138 50.9351 41.4399 50.83 41.5462L49.6173 42.7634C50.4843 44.2254 51.1406 45.8034 51.5667 47.4502H53.2667C53.5673 47.4502 53.8555 47.57 54.0681 47.7834C54.2806 47.9967 54.4 48.286 54.4 48.5878V50.8629H56.6667V38.7665L48.1553 33.9773C47.9803 33.8785 47.8345 33.7348 47.733 33.5609C47.6314 33.387 47.5777 33.1891 47.5774 32.9876V22.7494C47.5777 22.5478 47.6314 22.35 47.733 22.1761C47.8345 22.0022 47.9803 21.8585 48.1553 21.7597L57.222 16.6406C57.3943 16.5408 57.5897 16.4882 57.7887 16.4882C57.9876 16.4882 58.1831 16.5408 58.3553 16.6406ZM34 3.00109L23.8 8.63209V19.86L34 25.491L44.2 19.86V8.68897L34 3.00109ZM10.2 18.9499L2.26672 23.4206V32.3278L10.2 36.8098L18.1334 32.3392V23.4206L10.2 18.9499ZM57.8 36.8098L65.7333 32.3392V23.4092L57.8 18.9385L49.8667 23.4092V32.3392L57.8 36.8098ZM36.7314 17.6303L34.8047 19.5756C34.6993 19.6822 34.574 19.7668 34.4359 19.8246C34.2978 19.8823 34.1496 19.9121 34 19.9121C33.8504 19.9121 33.7023 19.8823 33.5642 19.8246C33.4261 19.7668 33.3007 19.6822 33.1954 19.5756L31.2687 17.6303H27.2C26.8995 17.6303 26.6112 17.5105 26.3986 17.2971C26.1861 17.0838 26.0667 16.7944 26.0667 16.4927V9.66728C26.0667 9.36558 26.1861 9.07623 26.3986 8.86289C26.6112 8.64956 26.8995 8.52971 27.2 8.52971H40.8C41.1006 8.52971 41.3889 8.64956 41.6014 8.86289C41.8139 9.07623 41.9334 9.36558 41.9334 9.66728V16.4927C41.9334 16.7944 41.8139 17.0838 41.6014 17.2971C41.3889 17.5105 41.1006 17.6303 40.8 17.6303H36.7314ZM32.1685 15.4396C32.3065 15.4962 32.4321 15.5796 32.538 15.6851L34 17.1639L35.462 15.6851C35.5679 15.5796 35.6935 15.4962 35.8316 15.4396C35.9697 15.383 36.1175 15.3543 36.2667 15.3552H39.6667V10.8049H28.3334V15.3552H31.7334C31.8825 15.3543 32.0304 15.383 32.1685 15.4396ZM10.6987 31.85L14.586 25.0245L12.614 23.887L9.53138 29.3132L7.66138 27.1291L5.93872 28.6079L8.85138 32.0206C8.95779 32.1455 9.08988 32.2457 9.23856 32.3145C9.38725 32.3832 9.54901 32.4188 9.71271 32.4188H9.82605C10.0062 32.4008 10.1794 32.3398 10.3313 32.2409C10.4831 32.1419 10.6091 32.0079 10.6987 31.85ZM53.5387 28.6079L55.2613 27.1291L57.1313 29.3132L60.214 23.887L62.186 25.0245L58.2987 31.85C58.209 32.0079 58.083 32.1419 57.9312 32.2409C57.7794 32.3398 57.6061 32.4008 57.426 32.4188H57.3127C57.149 32.4188 56.9872 32.3832 56.8385 32.3145C56.6898 32.2457 56.5577 32.1455 56.4513 32.0206L53.5387 28.6079ZM27.1 52C27.1 48.1892 30.1892 45.1 34 45.1C37.8108 45.1 40.9 48.1892 40.9 52C40.9 53.2586 40.564 54.4354 39.9776 55.4492L41.8819 56.5508C42.6568 55.2112 43.1 53.6557 43.1 52C43.1 46.9742 39.0258 42.9 34 42.9C28.9742 42.9 24.9 46.9742 24.9 52C24.9 53.6557 25.3432 55.2112 26.1181 56.5508L28.0224 55.4492C27.436 54.4354 27.1 53.2586 27.1 52Z" fill="#7EA935"/>
</svg>
