<svg width="149" height="29" viewBox="0 0 149 29" fill="none" xmlns="http://www.w3.org/2000/svg">
<path d="M66.63 21.1615C66.5715 21.0676 66.4803 20.9965 66.3723 20.9605C66.2644 20.9246 66.1466 20.9262 66.0398 20.9651L65.8898 21.0181L65.805 21.043L65.6681 21.0805L65.6029 21.096L65.4529 21.1303L65.2866 21.1646H65.2409H65.1594L65.2605 21.0898L65.3094 21.0493L65.3322 21.0306L65.3551 21.0088L65.4007 20.9682L65.4431 20.9246C65.5454 20.821 65.6341 20.7058 65.7072 20.5817C65.7639 20.4825 65.8098 20.378 65.8442 20.2699L65.8735 20.1764L65.8996 20.0579V20.0049C65.9131 19.8904 65.8815 19.7751 65.8111 19.6815C65.7406 19.588 65.6363 19.5228 65.5184 19.4987C65.4005 19.4746 65.2774 19.4933 65.1731 19.5511C65.0688 19.609 64.9907 19.7018 64.954 19.8116C64.954 19.8116 64.954 19.8303 64.9377 19.8646C64.9279 19.8925 64.9159 19.9196 64.9018 19.9457C64.8795 19.9883 64.8533 20.029 64.8235 20.0673C64.7834 20.1187 64.7375 20.1658 64.6866 20.2076C64.6564 20.2331 64.6249 20.257 64.592 20.2793C64.5542 20.3041 64.515 20.327 64.4746 20.3478L64.3573 20.404C64.084 20.252 63.7734 20.1724 63.4573 20.1733C63.1412 20.1726 62.8306 20.2522 62.5573 20.404L62.4399 20.3478C62.3996 20.327 62.3604 20.3041 62.3226 20.2793C62.2897 20.257 62.2581 20.2331 62.228 20.2076C62.1771 20.1658 62.1311 20.1187 62.091 20.0673C62.0614 20.0289 62.0352 19.9882 62.0128 19.9457C61.9987 19.9196 61.9867 19.8925 61.9769 19.8646C61.9769 19.8334 61.9606 19.8116 61.9606 19.8116C61.9239 19.7018 61.8458 19.609 61.7415 19.5511C61.6372 19.4933 61.5141 19.4746 61.3962 19.4987C61.2783 19.5228 61.174 19.588 61.1035 19.6815C61.0331 19.7751 61.0015 19.8904 61.015 20.0049V20.0579L61.0411 20.1764L61.0672 20.2699C61.1018 20.3779 61.1477 20.4824 61.2041 20.5817C61.2772 20.7058 61.3659 20.821 61.4682 20.9246L61.5106 20.9682L61.5563 21.0088L61.5791 21.0306L61.6019 21.0493L61.6508 21.0898L61.7519 21.1646H61.6704H61.6248L61.4585 21.1303L61.3085 21.096L61.2432 21.0805L61.1063 21.043L61.0215 21.0181L60.8715 20.9651C60.7583 20.9255 60.6338 20.9276 60.5221 20.9708C60.4104 21.0141 60.3196 21.0955 60.2671 21.1993C60.2147 21.303 60.2045 21.4217 60.2384 21.5322C60.2724 21.6428 60.3481 21.7373 60.4509 21.7975L60.5063 21.8287L60.5846 21.8723L60.627 21.891L60.6889 21.9191L60.7574 21.9502L60.8291 21.9783L60.9889 22.0406L61.1715 22.103L61.3737 22.1622L61.4813 22.1903L61.6378 22.2277L61.6019 22.2495C61.4315 22.3535 61.2768 22.4794 61.1422 22.6236C61.1096 22.6579 61.0802 22.6922 61.0509 22.7296L60.9726 22.8387L60.9041 22.9478C60.8813 22.9821 60.865 23.0227 60.8487 23.057L60.803 23.163C60.7897 23.1954 60.7788 23.2287 60.7704 23.2627L60.7443 23.3562C60.7443 23.3562 60.7443 23.3905 60.7443 23.4217C60.7443 23.4529 60.728 23.5526 60.728 23.5526C60.728 23.5526 60.728 23.6119 60.728 23.6867C60.725 23.7136 60.725 23.7408 60.728 23.7677C60.7237 23.8918 60.7711 24.0124 60.8598 24.103C60.9484 24.1936 61.0711 24.2468 61.2009 24.251C61.3306 24.2551 61.4567 24.2098 61.5515 24.125C61.6463 24.0402 61.7019 23.9229 61.7063 23.7989C61.7063 23.7989 61.7063 23.7366 61.7063 23.7085C61.712 23.68 61.7196 23.6519 61.7291 23.6243C61.7475 23.5752 61.7716 23.5282 61.8008 23.4841C61.8444 23.4238 61.8935 23.3675 61.9476 23.3157C61.9733 23.2923 62.0006 23.2705 62.0291 23.2502L62.091 23.2066L62.1628 23.1661L62.2215 23.1349C62.5551 23.4448 63.0019 23.6182 63.4671 23.6181C63.9322 23.6182 64.3791 23.4448 64.7127 23.1349L64.7714 23.1661L64.8431 23.2066L64.9051 23.2502C64.9336 23.2705 64.9608 23.2924 64.9866 23.3157C65.0407 23.3675 65.0898 23.4238 65.1333 23.4841C65.1624 23.5282 65.1865 23.5753 65.2051 23.6243C65.2147 23.6519 65.2223 23.68 65.2279 23.7085C65.2279 23.7366 65.2279 23.7989 65.2279 23.7989C65.2322 23.9229 65.2879 24.0402 65.3827 24.125C65.4774 24.2098 65.6036 24.2551 65.7333 24.251C65.863 24.2468 65.9857 24.1936 66.0744 24.103C66.163 24.0124 66.2104 23.8918 66.2061 23.7677C66.2091 23.7408 66.2091 23.7136 66.2061 23.6867C66.2061 23.6119 66.2061 23.5713 66.2061 23.5589C66.2061 23.5464 66.2061 23.4529 66.1865 23.4217C66.167 23.3905 66.1865 23.3718 66.1865 23.3562L66.1605 23.2627C66.1521 23.2287 66.1412 23.1954 66.1278 23.163L66.0822 23.057C66.0659 23.0195 66.0463 22.9821 66.0268 22.9478L65.9583 22.8387L65.88 22.7296C65.8507 22.6922 65.8213 22.6579 65.7887 22.6236C65.6541 22.4793 65.4994 22.3535 65.329 22.2495L65.2931 22.2277L65.4496 22.1903L65.5572 22.1622L65.7594 22.103L65.942 22.0406L66.1018 21.9783L66.1735 21.9502L66.242 21.9191L66.3039 21.891L66.3463 21.8723L66.4246 21.8287L66.48 21.7975C66.5877 21.7352 66.6658 21.6354 66.6981 21.5191C66.7303 21.4028 66.7141 21.2791 66.6528 21.174" fill="#7EA935"/>
<path d="M20.3666 21.3547C20.3829 22.4429 20.1445 23.5208 19.6688 24.5096C19.2034 25.4551 18.5079 26.2803 17.6407 26.9163C16.678 27.6131 15.5892 28.1342 14.4288 28.4532C13.0514 28.8326 11.6232 29.0165 10.1898 28.9988C8.37084 29.0048 6.56097 28.7526 4.81939 28.2506C3.09205 27.7484 1.46356 26.9762 0 25.9655L1.18365 24.4285C3.84533 26.2516 7.03953 27.2278 10.3138 27.2187C11.3832 27.2251 12.4491 27.1026 13.4865 26.854C14.4021 26.6423 15.2695 26.2725 16.0462 25.7628C16.7563 25.2882 17.3367 24.6574 17.7385 23.9235C18.163 23.1159 18.3735 22.2209 18.3515 21.3173C18.3954 20.3478 18.1463 19.3867 17.6341 18.5489C17.1611 17.8403 16.5241 17.2452 15.7723 16.8093C14.973 16.3495 14.1118 15.996 13.2126 15.7587C12.2669 15.5031 11.3431 15.2953 10.4409 15.1352C9.34096 14.9482 8.26274 14.7196 7.20626 14.4494C6.20332 14.203 5.24711 13.8075 4.37267 13.2772C3.53935 12.7653 2.84351 12.0733 2.34122 11.2571C1.8195 10.4257 1.55864 9.33356 1.55864 7.98056C1.54191 6.89781 1.76412 5.82386 2.21079 4.82876C2.63411 3.9028 3.27054 3.08012 4.07268 2.42205C4.92266 1.73764 5.90712 1.22252 6.96823 0.906938C8.2001 0.542734 9.48422 0.365993 10.7735 0.383194C14.0343 0.383194 16.8396 1.0971 19.1895 2.52492L18.133 4.14291C17.0166 3.52618 15.828 3.03751 14.5919 2.68704C13.3329 2.3334 12.027 2.15594 10.7148 2.16018C9.80283 2.15793 8.89468 2.27327 8.01493 2.5031C7.19023 2.70902 6.4151 3.0658 5.7324 3.5537C5.07885 4.03448 4.54627 4.64913 4.17376 5.3525C3.75897 6.17044 3.55652 7.07192 3.58357 7.98056C3.53974 8.85801 3.77508 9.72756 4.25854 10.4746C4.71091 11.1099 5.31871 11.63 6.02913 11.9897C6.82203 12.3891 7.6661 12.6878 8.53991 12.8782C9.48118 13.086 10.4442 13.2886 11.4289 13.4861C12.5528 13.6939 13.6495 13.9568 14.719 14.2748C15.7425 14.5634 16.7112 15.0065 17.5885 15.5873C18.4402 16.1622 19.1347 16.9246 19.6134 17.8101C20.1199 18.7266 20.3732 19.9123 20.3732 21.3671" fill="#596667"/>
<path d="M46.8828 4.85721H46.8404L42.4351 13.7515L37.0973 24.351H35.4017L30.0638 13.6766L25.6162 4.86344C25.6174 4.869 25.6171 4.87478 25.6154 4.88022C25.6137 4.88567 25.6106 4.89061 25.6064 4.89463C25.6022 4.89865 25.597 4.90161 25.5913 4.90324C25.5856 4.90487 25.5796 4.90512 25.5738 4.90397V28.756H23.7119V0.614279H25.6684L32.2909 13.8762C32.9692 15.225 33.6409 16.5655 34.3061 17.8977C34.9713 19.2299 35.6289 20.5809 36.2788 21.9505H36.3212L40.3385 13.8637L46.935 0.601807H48.8393V28.7404H46.8828V4.85721Z" fill="#596667"/>
<path d="M148.984 21.3547C149 22.443 148.761 23.5209 148.286 24.5097C147.819 25.4555 147.123 26.2808 146.254 26.9164C145.291 27.6134 144.201 28.1345 143.039 28.4533C141.662 28.8327 140.234 29.0165 138.8 28.9989C136.981 29.0049 135.171 28.7528 133.43 28.2507C131.702 27.7485 130.074 26.9763 128.61 25.9655L129.794 24.4286C132.456 26.2517 135.65 27.2279 138.924 27.2188C139.994 27.2252 141.059 27.1027 142.097 26.854C143.012 26.6425 143.88 26.2727 144.656 25.7629C145.366 25.288 145.947 24.6573 146.349 23.9236C146.773 23.1159 146.984 22.221 146.962 21.3173C147.005 20.3475 146.755 19.3865 146.241 18.549C145.768 17.8404 145.131 17.2453 144.379 16.8094C143.581 16.3497 142.721 15.9963 141.823 15.7588C140.877 15.5032 139.954 15.2954 139.055 15.1353C137.955 14.9483 136.876 14.7197 135.82 14.4495C134.817 14.2031 133.861 13.8075 132.986 13.2773C132.153 12.7654 131.457 12.0734 130.955 11.2571C130.433 10.4258 130.172 9.33364 130.172 7.98065C130.155 6.89788 130.378 5.8239 130.824 4.82885C131.248 3.90289 131.884 3.08021 132.686 2.42214C133.536 1.73773 134.521 1.22261 135.582 0.907028C136.812 0.538923 138.095 0.357977 139.384 0.370816C142.645 0.370816 145.45 1.08473 147.8 2.51255L146.743 4.13052C145.627 3.51392 144.438 3.02526 143.202 2.67465C141.943 2.32102 140.637 2.14355 139.325 2.14779C138.413 2.14555 137.505 2.2609 136.625 2.49072C135.801 2.69665 135.025 3.05342 134.343 3.54132C133.689 4.0221 133.157 4.63675 132.784 5.34012C132.374 6.16034 132.178 7.06289 132.21 7.97129C132.166 8.84877 132.402 9.71837 132.885 10.4653C133.338 11.1006 133.945 11.6207 134.656 11.9804C135.449 12.3799 136.293 12.6786 137.167 12.8689C138.108 13.0767 139.071 13.2794 140.056 13.4768C141.179 13.6846 142.276 13.9476 143.346 14.2655C144.369 14.5542 145.338 14.9972 146.215 15.578C147.067 16.1528 147.761 16.9152 148.24 17.8008C148.747 18.7173 149 19.903 149 21.3579" fill="#596667"/>
<path d="M123.348 0.495684L125.291 0V2.25084L123.348 2.74652V0.495684Z" fill="#7EA935"/>
<path d="M109.604 9.35897V28.9961H111.55V8.67935L109.604 9.35897Z" fill="#AAADAE"/>
<path d="M123.348 28.7525V4.57628L125.291 3.89978V28.7525H123.348Z" fill="#596667"/>
<path d="M109.604 6.37819L111.55 5.86692V2.27244H120.302V0.613922H100.725V2.27244H109.604V6.37819Z" fill="#596667"/>
<path d="M80.4983 14.035H80.4233V2.2695H89.2795C90.1402 2.26429 90.9978 2.36913 91.8295 2.58125C92.6131 2.77711 93.3503 3.11469 94.0011 3.57573C94.634 4.03842 95.1463 4.63489 95.4978 5.31843C95.8973 6.12188 96.0928 7.00416 96.0684 7.89348C96.0671 8.61485 95.9461 9.33144 95.7097 10.0165L98.0379 9.393C98.1315 8.88769 98.1784 8.37548 98.1781 7.86231C98.1953 6.81333 97.9786 5.7729 97.5423 4.81027C97.1427 3.93813 96.551 3.15868 95.8076 2.52514C95.0289 1.88151 94.123 1.39387 93.1435 1.09109C92.0518 0.747001 90.9084 0.576394 89.7589 0.586051H78.4082V14.5618L80.4983 14.035Z" fill="#596667"/>
<path d="M57.7051 18.3214C58.0443 17.4048 58.4323 16.3604 58.8692 15.1883L60.2648 11.4473C60.7583 10.1275 61.2159 8.88051 61.6376 7.70625C62.0593 6.53198 62.4332 5.51465 62.7593 4.65421C63.0832 3.7917 63.3006 3.21184 63.4115 2.91464H63.5386C63.9625 4.10137 64.3973 5.27355 64.8429 6.43119C65.2886 7.58882 65.7331 8.761 66.1766 9.94773L68.8276 17.118L70.6568 16.6379C70.409 15.9926 70.1645 15.3379 69.9166 14.6926C68.1167 10.0246 66.3157 5.33175 64.5136 0.613922H62.43L51.7314 28.7525H53.8444L56.9747 20.223C57.116 19.8739 57.3552 19.24 57.6921 18.3214" fill="#596667"/>
<path d="M78.3984 20.2137V28.7525H80.4266V19.5091L78.3984 20.2137Z" fill="#AAADAE"/>
<path d="M89.2725 16.4291L95.4418 28.7526H97.8058L91.1474 15.7806L89.2725 16.4291Z" fill="#AAADAE"/>
<path d="M70.9082 22.8198L73.0994 28.743H75.2548C74.4233 26.539 73.5885 24.3598 72.7538 22.1682L70.9082 22.8198Z" fill="#AAADAE"/>
</svg>
