<svg width="124" height="24" viewBox="0 0 124 24" fill="none" xmlns="http://www.w3.org/2000/svg">
<g opacity="0.7">
<path d="M3.14802 5.89356V8.19222H0V12.0204H3.14802V23.626H7.81807V12.0377H11.3207L11.7098 8.20949H7.81807V5.84172C7.81807 4.41586 8.24188 3.76775 9.70346 3.76775H11.7791V0.164219C10.8753 0.0534309 9.96543 -0.00140564 9.05483 2.73715e-05C4.70469 0.00866891 3.14802 2.04808 3.14802 5.89356Z" fill="white"/>
<path d="M22.8062 10.5769C22.4235 9.73278 21.794 9.02425 21.0005 8.54454C20.2071 8.06483 19.2868 7.83641 18.3609 7.88933C14.0368 7.88933 12.0303 11.1299 12.0303 15.442V16.4185C12.0303 20.7393 14.0714 23.9712 18.3609 23.9712C19.2844 24.0356 20.2054 23.8159 21.0001 23.3416C21.7948 22.8673 22.4251 22.1612 22.8062 21.3183V23.6515H27.312V8.20906H22.8321L22.8062 10.5769ZM22.6159 16.7037C22.6159 18.9073 21.6386 20.2986 19.7274 20.2986C17.5566 20.2986 16.7091 18.7777 16.7091 16.4704V15.3988C16.7091 13.1002 17.5739 11.5706 19.7274 11.5706C21.6386 11.5706 22.6159 12.9619 22.6159 15.1741V16.7037Z" fill="white"/>
<path d="M37.3443 11.5191C38.4222 11.5272 39.4851 11.772 40.4577 12.2363L41.4956 8.92662C40.1255 8.17757 38.5758 7.81885 37.0156 7.88963C31.5326 7.88963 29.0332 10.8364 29.0332 15.572V16.2633C29.0332 20.9988 31.5326 23.9456 37.0156 23.9456C38.5758 24.0164 40.1255 23.6577 41.4956 22.9086L40.4577 19.5989C39.4851 20.0632 38.4222 20.3081 37.3443 20.3162C34.8103 20.3162 33.712 18.8557 33.712 16.3583V15.4942C33.712 12.9708 34.8103 11.5191 37.3443 11.5191Z" fill="white"/>
<path d="M49.7115 7.88086C44.6176 7.88086 42.1182 10.7672 42.1182 15.1398V16.5051C42.1182 21.0419 44.3235 23.9974 50.2304 23.9974C52.2874 24.0335 54.33 23.6482 56.2323 22.8653L55.3674 19.6593C53.7881 20.2873 52.103 20.607 50.4033 20.6012C47.8088 20.6012 46.8661 19.6593 46.771 17.5507H56.6042V15.0879C56.6215 10.8017 54.5113 7.88086 49.7115 7.88086ZM52.3924 14.5349H46.745C46.745 12.4609 47.558 11.1301 49.6682 11.1301C51.7784 11.1301 52.3924 12.4609 52.3924 14.146V14.5349Z" fill="white"/>
<path d="M67.587 7.88069C66.707 7.84099 65.8338 8.05127 65.0685 8.48716C64.3032 8.92305 63.677 9.5667 63.2628 10.3435V0.0341797L58.5928 0.457607V23.6429H63.0034V21.3096C63.4213 22.1598 64.0826 22.8667 64.9033 23.3406C65.724 23.8145 66.6672 24.034 67.613 23.9713C71.9372 23.9713 73.9695 20.7307 73.9695 16.4185V15.3988C73.9436 11.1213 71.868 7.88069 67.587 7.88069ZM69.3167 16.5222C69.3167 18.6913 68.4519 20.3159 66.2379 20.3159C64.3266 20.3159 63.2888 18.9505 63.2888 16.7469V15.1223C63.2888 12.9187 64.3266 11.5533 66.2379 11.5533C68.4778 11.5533 69.3167 13.1693 69.3167 15.347V16.5222Z" fill="white"/>
<path d="M83.1884 7.88086C77.9994 7.88086 75.5 11.0955 75.5 15.5286V16.3064C75.5 20.7481 78.034 23.9541 83.1884 23.9541C88.3429 23.9541 90.8769 20.7481 90.8769 16.3064V15.5286C90.8855 11.0782 88.3515 7.88086 83.1884 7.88086ZM86.2067 16.6347C86.2067 18.6741 85.3419 20.2988 83.1884 20.2988C81.035 20.2988 80.1701 18.6741 80.1701 16.6347V15.2089C80.1701 13.1695 81.035 11.5449 83.1884 11.5449C85.3419 11.5449 86.2067 13.1695 86.2067 15.2089V16.6347Z" fill="white"/>
<path d="M100.131 7.88086C94.9417 7.88086 92.4424 11.0955 92.4424 15.5286V16.3064C92.4424 20.7481 94.9763 23.9541 100.131 23.9541C105.285 23.9541 107.819 20.7481 107.819 16.3064V15.5286C107.819 11.0782 105.285 7.88086 100.131 7.88086ZM103.149 16.6347C103.149 18.6741 102.284 20.2988 100.131 20.2988C97.9773 20.2988 97.1124 18.6741 97.1124 16.6347V15.2089C97.1124 13.1695 97.9773 11.5449 100.131 11.5449C102.284 11.5449 103.149 13.1695 103.149 15.2089V16.6347Z" fill="white"/>
<path d="M118.975 15.8311L123.81 8.20922H118.846L114.236 15.5718V0.0429688L109.566 0.457759V23.643H114.236V16.0903L119.045 23.643H124L118.975 15.8311Z" fill="white"/>
</g>
</svg>
