<svg width="72" height="58" viewBox="0 0 72 58" fill="none" xmlns="http://www.w3.org/2000/svg">
<g opacity="0.7">
<path d="M0.610352 34.5039V58.0005H59.2186L65.7935 46.3058L59.2186 34.5396L0.610352 34.5039ZM58.4282 56.6514H1.96666V35.844H58.4282L64.2216 46.3058L58.4282 56.6514Z" fill="white"/>
<path d="M28.8953 24.6224H36.3325V28.1334H38.3804V22.773H37.0781V8.2373H29.8025V9.67568C29.8025 10.6882 29.7876 11.7543 29.7576 12.8741C29.723 14.0097 29.6301 15.1428 29.4792 16.269C29.3277 17.4131 29.1057 18.5469 28.8145 19.6639C28.5334 20.7536 28.1233 21.8063 27.5929 22.7998H26.5869V28.1602H28.8953V24.6224ZM30.9433 20.2536C31.2343 19.2411 31.4623 18.2118 31.6259 17.1714C31.8014 16.0702 31.9213 14.961 31.9852 13.8479C32.051 12.7162 32.084 11.6442 32.084 10.6316V10.31H34.5181V22.8177H29.8744C30.3592 22.0163 30.7338 21.154 30.9882 20.2536H30.9433Z" fill="white"/>
<path d="M45.5929 25.2654C46.3492 25.2761 47.102 25.1614 47.8204 24.9259C48.4418 24.7145 49.043 24.4484 49.6168 24.1308L49.3204 22.2903C48.9141 22.4529 48.497 22.5873 48.0719 22.6924C47.5681 22.8274 47.0488 22.8965 46.527 22.8979C45.9503 22.9361 45.3741 22.8165 44.861 22.5519C44.348 22.2872 43.9176 21.8878 43.6168 21.3969C42.9435 20.1094 42.6331 18.6646 42.7186 17.2158H49.7067V15.7863C49.8345 13.7295 49.4097 11.6759 48.4761 9.83626C48.1719 9.23588 47.7078 8.7301 47.1345 8.37406C46.5611 8.01802 45.9004 7.8254 45.2246 7.81718C44.3761 7.79959 43.5489 8.08125 42.8892 8.6123C42.2045 9.18588 41.6555 9.90279 41.2815 10.7118C40.8482 11.6679 40.5461 12.6775 40.3833 13.7136C40.1729 14.8932 40.0707 16.0893 40.0778 17.2873C39.9512 19.3692 40.4853 21.438 41.6048 23.2016C42.0478 23.8452 42.6434 24.3702 43.3391 24.7302C44.0347 25.0901 44.8088 25.274 45.5929 25.2654ZM42.9611 12.99C43.0518 12.4297 43.2054 11.8813 43.4192 11.3551C43.578 10.9476 43.8231 10.579 44.1378 10.274C44.3988 10.0257 44.7466 9.8879 45.1078 9.88986C45.6288 9.88986 46.051 10.2413 46.3743 10.9441C46.7535 11.8861 46.9633 12.887 46.9941 13.9013C46.9941 14.0502 46.9941 14.1901 46.9941 14.3212C46.9941 14.4463 46.9941 14.5713 46.9941 14.6785V15.0359H42.7096C42.7544 14.3468 42.8384 13.6608 42.9611 12.9811V12.99Z" fill="white"/>
<path d="M68.2365 25.2659C68.9488 25.2766 69.6573 25.1617 70.3293 24.9264C70.9108 24.7158 71.4703 24.4495 72 24.1312L71.7395 22.2908C71.3471 22.4496 70.9452 22.5839 70.5359 22.6929C70.0601 22.8309 69.5675 22.9031 69.0718 22.9073C68.4923 22.9288 67.919 22.7813 67.4226 22.4829C66.9263 22.1844 66.5285 21.7481 66.2784 21.2277C65.6074 19.7831 65.2992 18.198 65.3802 16.6088C65.38 15.7799 65.4461 14.9524 65.5778 14.134C65.6895 13.3994 65.8761 12.678 66.1347 11.9809C66.3297 11.4203 66.6351 10.904 67.0329 10.4621C67.1855 10.2848 67.3739 10.1414 67.5859 10.0414C67.798 9.94132 68.0288 9.88682 68.2634 9.88141C68.6731 9.88896 69.0721 10.013 69.4132 10.2388C69.7967 10.485 70.1417 10.786 70.4371 11.1322L71.7665 8.89866C71.2927 8.56555 70.7721 8.30366 70.2215 8.1214C69.5984 7.91869 68.946 7.81907 68.2904 7.82657C67.4936 7.82662 66.7148 8.06303 66.0538 8.50556C65.3184 8.99702 64.7043 9.64757 64.2574 10.4085C63.7154 11.3359 63.3157 12.3387 63.0717 13.3836C62.7666 14.6533 62.6188 15.9554 62.6316 17.2609C62.6316 19.8458 63.1466 21.8263 64.1766 23.2021C64.6286 23.8536 65.2362 24.3832 65.9448 24.7434C66.6534 25.1036 67.4408 25.2831 68.2365 25.2659Z" fill="white"/>
<path d="M2.95509 24.6223L8.14678 15.6883H9.83542V24.6223H12.4043V7.53705e-05H8.24557C7.33647 -0.00418208 6.43564 0.171968 5.59583 0.518239C4.76102 0.864737 4.01287 1.3893 3.4042 2.0549C2.74702 2.78338 2.2404 3.63336 1.91319 4.55642C1.52825 5.65573 1.34275 6.81433 1.3653 7.97818C1.32451 9.4849 1.66419 10.9777 2.35331 12.3201C3.10735 13.6215 4.26343 14.646 5.64972 15.2416L0 24.6223H2.95509ZM5.45214 12.2755C5.01137 11.7747 4.67544 11.1916 4.46408 10.5601C4.19378 9.73579 4.06623 8.8718 4.08685 8.00498C4.0661 7.09967 4.18115 6.19634 4.42817 5.32477C4.61335 4.67882 4.91796 4.07287 5.32638 3.53796C5.67007 3.09525 6.11714 2.74259 6.6288 2.51054C7.10348 2.29905 7.61765 2.18944 8.13779 2.1889H9.82643V13.562H8.46113C7.90478 13.5638 7.35312 13.4608 6.83537 13.2582C6.30523 13.0435 5.83194 12.7103 5.45214 12.2844V12.2755Z" fill="white"/>
<path d="M18.548 16.9927H22.2396V24.6313H24.8085V8.2373H22.2396V14.7949H18.548V8.2373H15.9521V24.6313H18.548V16.9927Z" fill="white"/>
<path d="M54.8812 16.3137L55.1686 16.6711L59.1656 24.8725H62.0579L57.3782 15.733L61.474 8.2373H58.7075L55.1686 15.4739L54.8812 15.7955V8.2373H52.2764V24.8725H54.8812V16.3137Z" fill="white"/>
<path d="M19.7962 52.0227H18.7273V50.0304H12.862V52.0316H11.7842V49.1548H12.4488C12.8369 48.6893 13.1216 48.1473 13.2842 47.5646C13.499 46.8526 13.6286 46.1179 13.6704 45.3757L13.8501 41.9004H18.7453V49.1548H19.8142L19.7962 52.0227ZM13.6704 49.1548H17.6585V42.7313H14.892L14.7752 45.1256C14.7457 45.9358 14.619 46.7395 14.398 47.5199C14.2443 48.097 13.9986 48.646 13.6704 49.1459V49.1548Z" fill="white"/>
<path d="M24.7008 43.9824H25.7427V50.0308H24.7008V45.6263L21.8984 50.0308H20.8564V43.9824H21.8984V48.3958L24.7008 43.9824Z" fill="white"/>
<path d="M32.3809 47.0738C32.4188 47.8647 32.1948 48.6462 31.7432 49.2984C31.5486 49.5677 31.2903 49.7853 30.991 49.9318C30.6918 50.0782 30.3609 50.1491 30.0276 50.1382C29.7036 50.1552 29.3799 50.1017 29.0789 49.9813C28.7779 49.861 28.507 49.6767 28.2851 49.4413V52.3538H27.2432V43.9826H28.1953L28.2492 44.6526C28.4637 44.3884 28.7387 44.1792 29.0513 44.0424C29.3638 43.9056 29.7048 43.8453 30.0456 43.8664C30.3797 43.8544 30.7118 43.9228 31.0137 44.0659C31.3155 44.209 31.5781 44.4226 31.7791 44.6884C32.241 45.3592 32.4654 46.1639 32.4169 46.9755L32.3809 47.0738ZM31.339 46.9576C31.3698 46.3857 31.2155 45.819 30.8989 45.3406C30.7633 45.1506 30.5822 44.9972 30.3721 44.8943C30.162 44.7913 29.9293 44.7421 29.6953 44.7509C29.4036 44.74 29.115 44.8125 28.8634 44.9598C28.6119 45.107 28.4081 45.3229 28.2761 45.5818V48.4675C28.4087 48.7278 28.6139 48.9447 28.8672 49.092C29.1205 49.2394 29.4111 49.311 29.7043 49.2984C29.9355 49.3051 30.1647 49.2547 30.3716 49.1518C30.5785 49.0489 30.7566 48.8967 30.8899 48.7087C31.2243 48.1846 31.3817 47.568 31.339 46.9487V46.9576Z" fill="white"/>
<path d="M36.0542 50.1383C35.6811 50.1502 35.3096 50.0849 34.9633 49.9465C34.6169 49.8081 34.3033 49.5996 34.0422 49.3343C33.7768 49.0422 33.5719 48.7008 33.4394 48.3298C33.3068 47.9588 33.2491 47.5654 33.2697 47.1722V46.9846C33.2582 46.4297 33.375 45.8795 33.611 45.3765C33.8243 44.9245 34.1603 44.5409 34.5811 44.2687C34.9804 44.0052 35.4492 43.8653 35.9284 43.8666C36.2746 43.8479 36.6205 43.9082 36.9397 44.0429C37.2588 44.1776 37.5428 44.3832 37.7697 44.6439C38.2468 45.2846 38.4792 46.0731 38.4255 46.8685V47.2973H34.3116C34.3003 47.8271 34.4858 48.3424 34.8326 48.7446C34.9919 48.9237 35.1886 49.066 35.4089 49.1616C35.6291 49.2573 35.8678 49.304 36.1081 49.2985C36.4219 49.3034 36.7316 49.2264 37.0063 49.0752C37.2637 48.9227 37.4893 48.7225 37.6709 48.4855L38.3087 48.9769C38.0676 49.3494 37.7325 49.6527 37.337 49.8564C36.9415 50.0602 36.4992 50.1574 36.0542 50.1383ZM35.9284 44.7243C35.7292 44.7198 35.5313 44.7582 35.3484 44.8369C35.1655 44.9155 35.0018 45.0325 34.8685 45.1799C34.5594 45.5387 34.3737 45.9864 34.3386 46.4575H37.3835V46.3771C37.3832 45.9323 37.2312 45.5008 36.9524 45.1531C36.8249 45.0093 36.6669 44.8955 36.4898 44.8198C36.3128 44.7441 36.121 44.7084 35.9284 44.7154V44.7243Z" fill="white"/>
<path d="M41.3628 47.4488H40.6084V50.0219H39.5664V43.9824H40.6084V46.5376H41.291L43.3389 43.9824H44.5964L42.1892 46.886L44.794 50.0219H43.4737L41.3628 47.4488Z" fill="white"/>
<path d="M50.0302 44.8222H47.9912V50.0308H46.9493V44.8222H44.9463V43.9824H50.0212L50.0302 44.8222Z" fill="white"/>
</g>
</svg>
