<svg width="87" height="43" viewBox="0 0 87 43" fill="none" xmlns="http://www.w3.org/2000/svg">
<g opacity="0.7">
<path d="M45.1098 37.3218C43.3703 37.2002 41.6474 36.9011 39.9672 36.429C39.685 36.3487 38.4942 35.9022 38.2031 35.7683C35.6854 34.5871 33.5265 32.7444 31.9512 30.4321C30.3759 28.1198 29.4417 25.4223 29.246 22.6206C29.0502 19.8188 29.6 17.0152 30.8381 14.5015C32.0762 11.9878 33.9574 9.85591 36.2858 8.32782C38.6143 6.79973 41.3048 5.93127 44.0774 5.81284C46.85 5.69441 49.6032 6.33034 52.0506 7.65443C54.4979 8.97853 56.5499 10.9424 57.9928 13.3416C59.4358 15.7407 60.217 18.4875 60.2552 21.296H65.8653C65.8424 17.5101 64.8288 13.7979 62.9278 10.5373C61.0267 7.27676 58.3061 4.58421 55.0428 2.73376C51.7795 0.883307 48.09 -0.0589618 44.3499 0.00285734C40.6099 0.0646765 36.9528 1.12838 33.7509 3.0857C30.5491 5.04302 27.9167 7.82405 26.1219 11.1457C24.3271 14.4674 23.4338 18.2111 23.533 21.9957C23.6323 25.7804 24.7205 29.4709 26.6869 32.6915C28.6533 35.9121 31.4277 38.5479 34.7277 40.3305C35.8659 40.9124 37.0452 41.4077 38.256 41.8126C40.3013 42.3947 42.3996 42.7657 44.5188 42.9197C45.2157 42.9732 47.659 43 48.3735 43H87V37.3486H48.3647C47.8531 37.3486 45.6126 37.3486 45.1098 37.295V37.3218ZM48.3647 28.4117C47.959 28.4117 45.8243 28.4117 45.4274 28.367C44.6693 28.3116 43.9153 28.2102 43.1692 28.0634C42.5978 27.9177 42.0422 27.7143 41.5109 27.4564C40.4813 26.8922 39.6163 26.0639 39.0028 25.0547C38.3892 24.0454 38.0486 22.8906 38.0152 21.7061C37.9817 20.5215 38.2566 19.3489 38.8121 18.3058C39.3677 17.2627 40.1845 16.3858 41.1806 15.763C42.1767 15.1402 43.317 14.7935 44.4873 14.7575C45.6575 14.7216 46.8166 14.9977 47.8481 15.5582C48.8797 16.1187 49.7475 16.9439 50.3646 17.951C50.9816 18.958 51.3262 20.1116 51.3638 21.296H56.7533C56.7189 19.1302 56.1164 17.0125 55.0076 15.1598C53.8987 13.3071 52.3233 11.786 50.4427 10.7521C48.5621 9.71824 46.4438 9.20884 44.3047 9.27601C42.1656 9.34319 40.0825 9.98454 38.2688 11.1344C36.4551 12.2843 34.9759 13.9014 33.9827 15.8201C32.9895 17.7388 32.5178 19.8902 32.6162 22.054C32.7145 24.2179 33.3792 26.3164 34.5422 28.1347C35.7052 29.9531 37.3248 31.4259 39.2351 32.4025C39.8938 32.7466 40.5854 33.0218 41.2992 33.2238C42.5508 33.5281 43.8255 33.7253 45.1098 33.8131C45.5597 33.8131 47.7561 33.8666 48.2059 33.8666H86.9294V28.4117H48.3647ZM20.1027 42.9732H14.4574V5.83273H6.20988V0.118817H20.1027V42.9732ZM0 8.6897V14.1894H6.17459V42.9732H11.6347V8.6897H0Z" fill="white"/>
</g>
</svg>
