<svg width="45" height="48" viewBox="0 0 45 48" fill="none" xmlns="http://www.w3.org/2000/svg">
<g opacity="0.7">
<path d="M40.7271 9.74609H32.9902V14.1009H40.7271V9.74609Z" fill="white"/>
<path d="M40.7271 15.7783H32.9902V20.1332H40.7271V15.7783Z" fill="white"/>
<path d="M40.7271 21.8213H32.9902V26.1761H40.7271V21.8213Z" fill="white"/>
<path d="M40.7271 27.8545H32.9902V32.2093H40.7271V27.8545Z" fill="white"/>
<path d="M40.7271 33.8877H32.9902V38.2426H40.7271V33.8877Z" fill="white"/>
<path d="M44.2994 5.27112H27.4745V0.446804C27.4756 0.381706 27.4622 0.317169 27.4352 0.257879C27.4083 0.198589 27.3685 0.146063 27.3187 0.104008C27.2689 0.0619529 27.2103 0.0314728 27.1472 0.0147578C27.0842 -0.00195713 27.0182 -0.00452628 26.9541 0.00732034L0.59076 4.75172C0.422257 4.78534 0.266356 4.86489 0.14035 4.98149C0.0951208 5.02354 0.0592964 5.07461 0.0351544 5.1314C0.0110124 5.18819 -0.000921166 5.24938 0.000211412 5.31105V42.4373C-0.0023553 42.518 0.0184952 42.5978 0.060262 42.667C0.0813987 42.7004 0.109232 42.7292 0.141938 42.7515C0.174644 42.7739 0.211531 42.7893 0.250433 42.7968L26.9841 47.9907C27.0489 48.0042 27.116 48.003 27.1804 47.987C27.2447 47.9711 27.3046 47.9409 27.3556 47.8986C27.4066 47.8564 27.4473 47.8032 27.4749 47.7431C27.5024 47.6829 27.516 47.6173 27.5146 47.5512V42.7269H44.3394C44.5146 42.7269 44.6826 42.6574 44.8065 42.5338C44.9304 42.4102 45 42.2425 45 42.0677V5.89039C44.9949 5.80376 44.9727 5.71897 44.9347 5.64093C44.8967 5.56288 44.8436 5.49314 44.7786 5.4356C44.7135 5.37807 44.6376 5.33391 44.5554 5.30569C44.4732 5.27747 44.3862 5.26572 44.2994 5.27112ZM15.4139 32.8585L12.6915 26.2264L9.86898 32.6088L6.17571 32.4491L10.6096 23.9591L6.60609 15.3992L10.3794 15.2393L12.8116 21.6118L15.4739 15.0296L19.2372 14.8698L14.8033 23.6594L19.4875 33.0283L15.4139 32.8585ZM42.8381 40.6593H27.4745V38.2322H31.2278V33.8774H27.4745V32.2393H31.2278V27.8844H27.4745V26.2064H31.2278V21.8515H27.4745V20.1735H31.2278V15.8187H27.4745V14.1407H31.2278V9.78581H27.4745V7.39862H42.8281L42.8381 40.6593Z" fill="white"/>
</g>
</svg>
