<svg width="63" height="35" viewBox="0 0 63 35" fill="none" xmlns="http://www.w3.org/2000/svg">
<path opacity="0.7" d="M30.8219 34.8568H34.5821C35.2228 34.7887 35.8271 34.5327 36.315 34.1227C36.6619 33.6541 36.8442 33.0889 36.8348 32.5112C36.8348 32.5112 36.7568 27.5924 39.1049 26.8668C41.4529 26.1412 44.3814 31.6169 47.5265 33.7262C49.9092 35.3208 51.7115 34.9664 51.7115 34.9664L60.1245 34.8483C60.1245 34.8483 64.526 34.5868 62.4379 31.2119C62.2646 30.9335 61.2249 28.6808 56.1823 24.1669C50.9057 19.3999 51.6161 20.1676 57.9671 11.9245C61.84 6.86222 63.3823 3.83326 62.8971 2.5255C62.4119 1.21774 59.5873 1.60588 59.5873 1.60588L50.1173 1.66494C49.6976 1.61674 49.2726 1.69011 48.8956 1.87587C48.5235 2.12595 48.2249 2.46618 48.0291 2.86301C47.0583 5.33944 45.8999 7.74222 44.5634 10.0515C40.3439 17.0206 38.663 17.3918 37.9699 16.9615C36.367 15.949 36.7656 12.9117 36.7656 10.7433C36.7656 3.99356 37.8139 1.16714 34.7121 0.441541C33.2664 0.101398 31.7796 -0.0434002 30.2933 0.0112367C26.9143 0.0112367 24.055 0.0112305 22.4348 0.795888C21.3604 1.31056 20.5286 2.48332 21.0312 2.48332C22.1085 2.57595 23.1092 3.06468 23.8297 3.85014C24.8001 5.13259 24.7655 8.02655 24.7655 8.02655C24.7655 8.02655 25.32 15.9828 23.4659 16.9699C22.1922 17.6449 20.442 16.2613 16.6817 9.94181C15.4059 7.73963 14.2772 5.45966 13.3026 3.11611C13.1296 2.71794 12.8625 2.36525 12.5229 2.0868C12.0824 1.80182 11.5872 1.60661 11.0672 1.51303L2.065 1.57209C2.065 1.57209 0.713361 1.57212 0.219496 2.1796C-0.274369 2.78707 0.219496 3.74045 0.219496 3.74045C0.219496 3.74045 7.26365 19.7711 15.2435 27.8792C22.5561 35.2955 30.8392 34.8061 30.8392 34.8061" fill="white"/>
</svg>
