<svg width="178" height="22" viewBox="0 0 178 22" fill="none" xmlns="http://www.w3.org/2000/svg">
<g opacity="0.7">
<path d="M40.3653 14.0337C40.3772 13.8251 40.3374 13.6167 40.2494 13.4268C40.1614 13.2369 40.0279 13.0712 39.8604 12.9441C39.2981 12.5881 38.6848 12.318 38.0412 12.1429C37.3231 11.9258 36.6256 11.647 35.9566 11.3097C34.5626 10.5619 33.8656 9.55777 33.8656 8.29724C33.8581 7.66717 34.0555 7.05143 34.4288 6.54105C34.8412 5.99756 35.3999 5.57997 36.0408 5.33607C36.7892 5.03704 37.5903 4.88883 38.3973 4.9002C39.2041 4.88667 40.0041 5.04861 40.7408 5.37453C41.3913 5.65888 41.9461 6.12142 42.3398 6.70767C42.7157 7.27962 42.9138 7.94818 42.9096 8.6305H40.3782C40.3895 8.39143 40.3479 8.15283 40.2562 7.93139C40.1645 7.70994 40.025 7.51102 39.8474 7.34861C39.4238 7.01681 38.8909 6.85239 38.3519 6.88715C37.8404 6.85679 37.333 6.99419 36.9083 7.27812C36.7451 7.39492 36.6133 7.5494 36.5242 7.72812C36.4351 7.90684 36.3913 8.10441 36.3968 8.30365C36.4017 8.50668 36.4598 8.70497 36.5654 8.87911C36.6709 9.05326 36.8203 9.19729 36.9989 9.29711C37.5513 9.62905 38.1485 9.88154 38.7727 10.047C39.9326 10.3295 41.0099 10.8759 41.919 11.643C42.2391 11.9499 42.4917 12.319 42.661 12.7271C42.8303 13.1351 42.9128 13.5734 42.9031 14.0145C42.9224 14.493 42.8228 14.9688 42.6128 15.4002C42.4028 15.8316 42.089 16.2053 41.6989 16.4885C40.7476 17.129 39.6109 17.4441 38.462 17.3858C37.5719 17.3988 36.6891 17.224 35.8725 16.8731C35.1583 16.5788 34.5431 16.0898 34.0986 15.463C33.687 14.8506 33.4746 14.1281 33.49 13.3927H36.0278C36.0278 14.7344 36.8371 15.4053 38.4555 15.4053C38.9531 15.4339 39.4471 15.3061 39.8669 15.04C40.0277 14.9263 40.1575 14.7749 40.2445 14.5992C40.3316 14.4235 40.373 14.2292 40.3653 14.0337Z" fill="white"/>
<path d="M47.9204 5.06055L51.0732 13.88L54.213 5.06055H57.5341V17.2385H54.9964V13.9184L55.2489 8.18199L51.9342 17.2385H50.1993L46.8911 8.18836L47.1436 13.9184V17.2385H44.6123V5.06055H47.9204Z" fill="white"/>
<path d="M66.8306 14.7129H62.396L61.5545 17.219H58.8613L63.4318 5.04102H65.7754L70.3719 17.219H67.6787L66.8306 14.7129ZM63.0758 12.6811H66.1444L64.6036 8.13038L63.0758 12.6811Z" fill="white"/>
<path d="M76.0622 12.7709H74.0489V17.219H71.5176V5.04108H76.0493C77.2458 4.96764 78.431 5.30743 79.4028 6.0025C79.7974 6.33354 80.1092 6.75065 80.3136 7.22105C80.5181 7.69146 80.6096 8.20236 80.581 8.71369C80.6086 9.44365 80.4196 10.1656 80.0372 10.7903C79.6285 11.3802 79.0548 11.8391 78.3864 12.1107L81.0407 17.078V17.1934H78.3281L76.0622 12.7709ZM74.0489 10.7391H76.0882C76.6243 10.7725 77.1528 10.6004 77.5642 10.2584C77.7419 10.0882 77.8807 9.8823 77.9711 9.65453C78.0616 9.42676 78.1016 9.18245 78.0886 8.93804C78.1028 8.69143 78.0666 8.44449 77.982 8.21209C77.8975 7.97969 77.7664 7.76659 77.5965 7.58562C77.3903 7.40712 77.15 7.27148 76.8897 7.18671C76.6295 7.10193 76.3547 7.06976 76.0817 7.09211H74.0489V10.7391Z" fill="white"/>
<path d="M91.3604 7.09237H87.5797V17.2193H85.0484V7.09237H81.3389V5.06055H91.341L91.3604 7.09237Z" fill="white"/>
<path d="M102.211 13.168C102.193 13.7545 102.053 14.3312 101.802 14.8625C101.55 15.3938 101.191 15.8685 100.748 16.2574C99.7677 17.0428 98.5305 17.4442 97.2711 17.3854C96.5715 17.4185 95.8735 17.2938 95.2298 17.0206C94.586 16.7475 94.0134 16.3331 93.5551 15.8087C92.5926 14.5774 92.1121 13.0432 92.2021 11.4887V10.7453C92.1874 9.68102 92.4084 8.62652 92.8495 7.6559C93.2252 6.81109 93.8474 6.09681 94.6363 5.60486C95.5849 5.07362 96.67 4.82936 97.7573 4.90226C98.8446 4.97517 99.8865 5.36206 100.754 6.01508C101.654 6.83488 102.194 7.97185 102.256 9.18135H99.7247C99.727 8.55375 99.4966 7.94711 99.0774 7.47641C98.589 7.08588 97.9681 6.89549 97.3423 6.94442C96.9761 6.92177 96.6101 6.99237 96.2792 7.14945C95.9483 7.30652 95.6635 7.54485 95.452 7.84176C94.9695 8.68767 94.7446 9.65381 94.8046 10.6235V11.54C94.7319 12.536 94.9403 13.5324 95.4066 14.4179C95.6151 14.7218 95.9008 14.966 96.2349 15.1258C96.5691 15.2856 96.9399 15.3554 97.31 15.328C97.9396 15.3757 98.5641 15.1856 99.0579 14.796C99.4762 14.3502 99.7077 13.7636 99.7053 13.1552L102.211 13.168Z" fill="white"/>
<path d="M110.802 14.7129H106.354L105.512 17.219H102.819L107.39 5.04102H109.733L114.33 17.219H111.637L110.802 14.7129ZM107.047 12.6811H110.115L108.575 8.13038L107.047 12.6811Z" fill="white"/>
<path d="M118.007 15.2064H123.38V17.219H115.476V5.04102H118.007V15.2064Z" fill="white"/>
<path d="M127.374 15.2064H132.747V17.219H124.843V5.04102H127.374V15.2064Z" fill="white"/>
<path d="M134.191 17.2202V5.04219H138.49C139.683 4.96191 140.87 5.25812 141.882 5.88824C142.267 6.17669 142.573 6.55464 142.774 6.9885C142.975 7.42236 143.064 7.89868 143.035 8.37511C143.046 8.93549 142.883 9.48572 142.569 9.95181C142.253 10.411 141.8 10.7607 141.274 10.9517C141.866 11.0832 142.393 11.4167 142.763 11.8939C143.135 12.3964 143.326 13.008 143.307 13.6309C143.34 14.13 143.255 14.63 143.058 15.0908C142.862 15.5515 142.559 15.9603 142.174 16.2844C141.231 16.9447 140.089 17.2679 138.937 17.2009L134.191 17.2202ZM136.723 10.1698H138.594C139.888 10.1484 140.536 9.64419 140.536 8.65713C140.557 8.43445 140.524 8.20995 140.44 8.00249C140.355 7.79504 140.222 7.61067 140.05 7.46494C139.593 7.18698 139.058 7.05916 138.522 7.09964H136.749L136.723 10.1698ZM136.723 11.9388V15.2204H138.891C139.394 15.2506 139.89 15.1004 140.29 14.7974C140.458 14.6536 140.591 14.4739 140.678 14.2718C140.766 14.0697 140.806 13.8505 140.795 13.6309C140.795 12.5156 140.212 11.9516 139.047 11.9388H136.723Z" fill="white"/>
<path d="M152.15 14.7129H147.715L146.874 17.219H144.181L148.751 5.04102H151.095L155.691 17.219H152.998L152.15 14.7129ZM148.395 12.6811H151.464L149.923 8.13038L148.395 12.6811Z" fill="white"/>
<path d="M166.302 13.168C166.283 13.7545 166.144 14.3312 165.893 14.8625C165.641 15.3938 165.282 15.8685 164.838 16.2574C163.859 17.0428 162.621 17.4442 161.362 17.3854C160.662 17.4185 159.964 17.2938 159.321 17.0206C158.677 16.7475 158.104 16.3331 157.646 15.8087C156.683 14.5774 156.203 13.0432 156.293 11.4887V10.7453C156.278 9.68102 156.499 8.62652 156.94 7.6559C157.316 6.81109 157.938 6.09681 158.727 5.60486C159.676 5.07362 160.761 4.82936 161.848 4.90226C162.935 4.97517 163.977 5.36206 164.845 6.01508C165.745 6.83488 166.285 7.97185 166.347 9.18135H163.816C163.818 8.55375 163.587 7.94711 163.168 7.47641C162.68 7.08588 162.059 6.89549 161.433 6.94442C161.067 6.92177 160.701 6.99237 160.37 7.14945C160.039 7.30652 159.754 7.54485 159.543 7.84176C159.06 8.68767 158.835 9.65381 158.895 10.6235V11.54C158.823 12.536 159.031 13.5324 159.497 14.4179C159.706 14.7218 159.992 14.966 160.326 15.1258C160.66 15.2856 161.031 15.3554 161.401 15.328C162.03 15.3757 162.655 15.1856 163.149 14.796C163.567 14.3502 163.798 13.7636 163.796 13.1552L166.302 13.168Z" fill="white"/>
<path d="M171.81 12.3414L170.516 13.7451V17.219H167.984V5.04102H170.516V10.5531L171.629 9.04051L174.756 5.04102H177.87L173.513 10.4442L178 17.1997H174.976L171.81 12.3414Z" fill="white"/>
<path d="M28.7065 7.73343C28.4438 7.29231 28.0317 6.95756 27.5434 6.7886C27.0552 6.61964 26.5222 6.6274 26.0392 6.81047C26.0392 6.81047 25.5536 7.00276 25.3918 7.06045L25.0098 7.18223L24.3948 7.35526L24.0906 7.43217L23.4432 7.5924L22.6857 7.74622L22.485 7.78468L22.1225 7.8488L22.5821 7.49629L22.8022 7.31039L22.9058 7.22068L23.0094 7.12453L23.2101 6.93225L23.4043 6.73356C23.8689 6.24813 24.2711 5.70778 24.602 5.12478C24.866 4.67122 25.0829 4.19235 25.2494 3.69548L25.3724 3.25961C25.3724 3.20833 25.4889 2.72121 25.4889 2.70199L25.5213 2.45205C25.5939 1.91167 25.458 1.36406 25.1409 0.918456C24.8237 0.472856 24.3485 0.162009 23.8101 0.0479532C23.2716 -0.0661028 22.7096 0.0250036 22.236 0.303095C21.7624 0.581187 21.4121 1.02582 21.255 1.54829C21.255 1.54829 21.255 1.64444 21.1838 1.79185C21.1371 1.92184 21.0809 2.04825 21.0155 2.17003C20.9156 2.36968 20.7986 2.56049 20.6659 2.74044C20.4848 2.97543 20.2786 3.19033 20.0508 3.38139C19.9145 3.49992 19.7719 3.61119 19.6236 3.71469C19.4544 3.83026 19.2794 3.93722 19.0992 4.03516C18.9309 4.1249 18.7561 4.21465 18.5684 4.29797C17.3362 3.58719 15.9353 3.21336 14.5092 3.21477C13.0832 3.21336 11.6823 3.58719 10.4501 4.29797C10.2624 4.21465 10.0811 4.1249 9.91929 4.03516C9.7391 3.93725 9.56404 3.83029 9.39487 3.71469C9.24657 3.61119 9.10392 3.49992 8.96757 3.38139C8.74207 3.18999 8.53808 2.9751 8.35907 2.74044C8.22636 2.56049 8.10938 2.36968 8.00945 2.17003C7.94406 2.04823 7.88779 1.92182 7.84113 1.79185C7.78934 1.64444 7.76992 1.54829 7.76992 1.54829C7.61282 1.02582 7.26255 0.581187 6.78896 0.303095C6.31538 0.0250036 5.75334 -0.0661028 5.21491 0.0479532C4.67648 0.162009 4.20128 0.472856 3.8841 0.918456C3.56692 1.36406 3.43107 1.91167 3.50367 2.45205L3.53607 2.70199C3.53607 2.70199 3.63961 3.20833 3.65255 3.25961L3.7756 3.69548C3.94208 4.19235 4.15898 4.67122 4.42298 5.12478C4.75383 5.70778 5.15608 6.24813 5.62063 6.73356L5.8148 6.93225L6.01553 7.12453L6.11913 7.22068L6.22266 7.31039L6.44283 7.49629L6.90245 7.8488L6.53987 7.78468L6.33922 7.74622L5.58175 7.5924L4.93437 7.43217L4.63011 7.35526L4.01513 7.18223L3.63311 7.06045C3.44537 6.99635 2.98573 6.81047 2.98573 6.81047C2.47231 6.61151 1.90198 6.61175 1.38875 6.81117C0.875524 7.0106 0.45725 7.3945 0.217578 7.88608C-0.0220944 8.37766 -0.0655124 8.94069 0.0960347 9.46258C0.257582 9.98448 0.612209 10.4268 1.08893 10.701L1.34142 10.8484L1.69743 11.0471L1.8852 11.1433L2.16361 11.2778L2.47434 11.4253L2.79156 11.5599L3.51015 11.8483L4.33234 12.1367L5.2451 12.4123L5.73064 12.5469L6.44283 12.72L6.28098 12.8161C5.51074 13.3001 4.81141 13.8867 4.20282 14.5595C4.06039 14.7261 3.91796 14.8864 3.79496 15.0594L3.43246 15.5722L3.12821 16.0849C3.0311 16.2516 2.95341 16.431 2.87572 16.5977L2.67499 17.0976C2.61133 17.2517 2.55941 17.4102 2.51963 17.5719C2.46783 17.7642 2.42249 17.9437 2.40954 18.0142C2.39659 18.0847 2.36424 18.1744 2.34482 18.3218C2.3254 18.4692 2.26713 18.9628 2.26066 18.9628C2.25418 18.9628 2.26066 19.2192 2.26066 19.5653C2.24664 19.6931 2.24664 19.822 2.26066 19.9499C2.29002 20.4907 2.52296 21.0011 2.91357 21.3803C3.30419 21.7596 3.8242 21.9802 4.37098 21.9987C4.91777 22.0172 5.45165 21.8322 5.86751 21.4803C6.28337 21.1283 6.55097 20.6349 6.61756 20.0973C6.61756 20.0973 6.6176 19.8153 6.66292 19.6807C6.69044 19.5459 6.72724 19.4131 6.773 19.2832C6.85773 19.0589 6.96623 18.844 7.09669 18.6423C7.28801 18.3607 7.50469 18.0968 7.74408 17.8539C7.86095 17.7444 7.98412 17.6417 8.11306 17.5463L8.39787 17.3412C8.47556 17.2835 8.57921 17.2322 8.71516 17.1425L8.98053 16.9951C10.4852 18.4432 12.5014 19.2527 14.5999 19.2512C16.6983 19.2527 18.7145 18.4432 20.2192 16.9951L20.4846 17.1425C20.627 17.2258 20.7241 17.2835 20.8018 17.3412L21.0867 17.5463C21.2156 17.6417 21.3388 17.7444 21.4557 17.8539C21.6951 18.0969 21.9117 18.3607 22.1031 18.6423C22.2335 18.844 22.342 19.0589 22.4268 19.2832C22.4726 19.4131 22.5094 19.5459 22.5369 19.6807C22.5369 19.8153 22.5821 20.0973 22.5821 20.0973C22.6487 20.6349 22.9163 21.1283 23.3322 21.4803C23.748 21.8322 24.282 22.0172 24.8288 21.9987C25.3756 21.9802 25.8955 21.7596 26.2861 21.3803C26.6767 21.0011 26.9097 20.4907 26.939 19.9499C26.9531 19.822 26.9531 19.6931 26.939 19.5653C26.939 19.2127 26.939 19.0205 26.939 18.9628C26.939 18.9051 26.8808 18.4692 26.8549 18.3218C26.829 18.1744 26.8031 18.0847 26.7901 18.0142C26.7772 17.9437 26.7255 17.7642 26.6801 17.5719C26.6403 17.4102 26.5883 17.2517 26.5247 17.0976L26.3241 16.5977C26.2464 16.431 26.1687 16.2516 26.0716 16.0849L25.7673 15.5722L25.4047 15.0594C25.2817 14.8864 25.1393 14.7261 24.9969 14.5595C24.3883 13.8867 23.689 13.3001 22.9188 12.8161L22.7569 12.72L23.4691 12.5469L23.9546 12.4123L24.8674 12.1367L25.6896 11.8483L26.4082 11.5599L26.7254 11.4253L27.0362 11.2778L27.3146 11.1433L27.5023 11.0471L27.8584 10.8484L28.1108 10.701C28.5816 10.3811 28.9073 9.89164 29.0185 9.3372C29.1298 8.78277 29.0179 8.20723 28.7065 7.73343ZM13.7324 10.1754C14.0602 10.3839 14.4182 10.5417 14.7941 10.6433C15.2276 10.773 15.6464 10.947 16.0435 11.1625C16.4001 11.3316 16.7011 11.597 16.9118 11.9282C17.1226 12.2593 17.2345 12.6426 17.2347 13.034C17.2467 13.3236 17.1869 13.6118 17.0605 13.8732C16.9341 14.1346 16.745 14.3614 16.5096 14.5339C15.9249 14.9251 15.227 15.1164 14.5222 15.0786C13.9681 15.0854 13.4188 14.9762 12.9102 14.7582C12.4702 14.581 12.0921 14.2802 11.8226 13.8929C11.5746 13.5113 11.4483 13.0646 11.4601 12.611H13.2339C13.2208 12.7673 13.2411 12.9246 13.2935 13.0726C13.3459 13.2206 13.4293 13.356 13.5382 13.4699C13.8227 13.6796 14.1755 13.7778 14.5287 13.7455C14.7738 13.759 15.0167 13.6938 15.2214 13.5596C15.3023 13.4979 15.3674 13.4182 15.4113 13.3268C15.4552 13.2355 15.4766 13.1351 15.4738 13.034C15.4794 12.9204 15.4577 12.8072 15.4105 12.7036C15.3632 12.5999 15.2917 12.5089 15.2019 12.438C14.9056 12.2417 14.5801 12.0925 14.2373 11.9957C13.8526 11.8726 13.4763 11.7248 13.1109 11.5534C12.7057 11.4119 12.3531 11.1527 12.099 10.8097C11.8449 10.4667 11.7012 10.0557 11.6866 9.63061C11.6813 9.24643 11.8067 8.87168 12.0427 8.56665C12.3045 8.241 12.6516 7.99271 13.0461 7.8488C13.5128 7.6717 14.0095 7.58466 14.5092 7.5924C14.9967 7.58543 15.4801 7.68158 15.927 7.87442C16.323 8.04117 16.6623 8.31703 16.9045 8.66919C17.1386 9.01837 17.2605 9.42951 17.2542 9.84854H15.4933C15.5008 9.72155 15.4804 9.59446 15.4335 9.47604C15.3865 9.35763 15.3141 9.25072 15.2214 9.16273C15.013 8.99161 14.7471 8.90462 14.4768 8.91917C14.2105 8.90375 13.9466 8.97586 13.7259 9.12427C13.6443 9.18384 13.5779 9.26159 13.5322 9.35121C13.4864 9.44083 13.4626 9.53982 13.4626 9.64023C13.4626 9.74064 13.4864 9.83967 13.5322 9.92929C13.5779 10.0189 13.6443 10.0966 13.7259 10.1562L13.7324 10.1754Z" fill="white"/>
</g>
</svg>
