<svg width="142" height="28" viewBox="0 0 142 28" fill="none" xmlns="http://www.w3.org/2000/svg">
<g opacity="0.7">
<path d="M22.105 18.2002C22.5319 18.2002 22.7454 18.7545 22.7454 19.8632C22.6898 20.6385 22.4372 21.3862 22.0121 22.0336C21.4882 22.9125 20.8305 23.702 20.0631 24.373C19.2699 25.0876 18.379 25.6825 17.418 26.1394C16.5289 26.5744 15.556 26.8053 14.5686 26.8158C13.3311 26.8158 12.4803 25.6853 12.0163 23.4241C11.4125 24.4467 10.5874 25.3173 9.60311 25.9703C8.38186 26.6713 6.98563 26.9977 5.58438 26.9098C4.83587 26.9429 4.0887 26.818 3.39045 26.543C2.6922 26.268 2.05815 25.849 1.52848 25.3126C1.02632 24.8078 0.632693 24.2034 0.372347 23.5372C0.112001 22.8711 -0.00944552 22.1576 0.0156335 21.4416C-0.0761808 19.6224 0.237293 17.8055 0.932938 16.1255C1.62858 14.4455 2.68854 12.9453 4.03437 11.7361C5.00514 10.8519 6.14584 10.1803 7.38494 9.76305C8.39431 9.44367 9.4459 9.28208 10.5034 9.28387C11.4307 9.24566 12.3528 9.44266 13.1857 9.85698C13.5198 9.15545 13.9003 8.80469 14.3273 8.80469C14.7752 8.8163 15.2162 8.91872 15.6244 9.10592C16.0325 9.29313 16.3993 9.56134 16.7033 9.8946C17.0199 10.1448 17.2841 10.4565 17.4801 10.8115C17.6761 11.1664 17.8001 11.5574 17.8449 11.9616C17.411 12.9311 16.9182 13.8725 16.3692 14.7802C16.1433 16.3196 16.0409 17.8749 16.0629 19.431C16.0629 21.4228 16.3073 22.4187 16.7961 22.4187C17.2849 22.4187 18.7606 21.2318 21.2232 18.8579C21.6502 18.4194 21.9441 18.2002 22.105 18.2002ZM5.34306 20.3705C5.34306 22.2496 6.02369 23.1892 7.38494 23.1892C8.1382 23.1558 8.86944 22.922 9.50494 22.5112C10.1404 22.1005 10.6577 21.5274 11.0046 20.8497C11.3675 20.2355 11.6395 19.5708 11.8121 18.8767C11.7823 16.5953 12.019 14.3182 12.5174 12.0931C10.5914 12.479 8.83271 13.4645 7.48702 14.9118C6.06142 16.3759 5.26712 18.3524 5.27808 20.4082L5.34306 20.3705Z" fill="white"/>
<path d="M37.9941 15.7572C37.9941 14.968 37.5486 14.5733 36.6576 14.5733C35.7666 14.5733 35.0736 15.1997 34.5786 16.4524C33.8191 17.6633 33.2639 18.9937 32.9358 20.3892C32.9388 21.2515 33.0639 22.1089 33.3071 22.9354C33.5 23.5167 33.6246 24.119 33.6783 24.7299C33.6783 25.5441 32.6605 26.3459 30.6248 27.1351C30.3676 27.2393 30.0942 27.2965 29.8173 27.3042C29.5355 27.3135 29.259 27.2256 29.033 27.0549C28.807 26.8842 28.645 26.6408 28.5736 26.3647C28.3211 25.5411 28.2081 24.6802 28.2395 23.8185V20.7462C28.235 19.8602 28.2908 18.9749 28.4066 18.0966C28.3981 17.3789 28.4541 16.6619 28.5736 15.9544C28.6868 15.4631 28.6868 14.952 28.5736 14.4606C28.5736 13.6463 28.2055 13.2392 27.4692 13.2392C26.7328 13.2392 25.8728 14.113 24.889 15.8605C24.0723 17.1104 23.566 18.5415 23.4133 20.0321C23.4062 20.9846 23.5312 21.9334 23.7845 22.8508C23.9778 23.432 24.1024 24.0344 24.1557 24.6453C24.1557 25.4596 23.1379 26.2613 21.1022 27.0505C20.845 27.1547 20.5717 27.212 20.2948 27.2197C20.013 27.229 19.7364 27.1411 19.5104 26.9704C19.2845 26.7996 19.1225 26.5563 19.0511 26.2801C18.786 25.3434 18.6732 24.3692 18.717 23.3957C18.6624 20.9211 18.7958 18.446 19.116 15.9921C19.4794 13.7292 20.301 11.5668 21.5292 9.64071C21.6591 9.36363 21.857 9.12487 22.104 8.94723C22.3509 8.76959 22.6387 8.65898 22.9399 8.62598C23.7195 8.62598 24.4466 9.2837 25.121 10.5991C25.2961 10.8972 25.4422 11.2119 25.5572 11.5386C26.0128 10.8839 26.6137 10.3465 27.3117 9.96958C28.0096 9.59265 28.7852 9.38671 29.576 9.36826C30.5957 9.34939 31.5866 9.71048 32.3604 10.3829C32.7351 10.6988 33.0372 11.0936 33.2456 11.5399C33.454 11.9861 33.5637 12.4731 33.5669 12.9667V13.3707C34.1837 12.5255 34.9859 11.8369 35.9104 11.3592C36.8349 10.8814 37.8564 10.6276 38.8944 10.6178C39.4225 10.5808 39.9526 10.6516 40.4532 10.8259C40.9538 11.0002 41.4148 11.2745 41.8087 11.6325C42.1334 11.9554 42.3898 12.3418 42.5622 12.7683C42.7345 13.1947 42.8192 13.6523 42.8111 14.113C42.8221 15.0099 42.7537 15.906 42.6069 16.7907C42.4707 17.5799 42.313 18.3253 42.1336 19.0268L41.6602 20.9059C41.5423 21.3157 41.4737 21.7385 41.456 22.1649C41.456 22.475 41.456 22.6065 41.7623 22.6065C42.2611 22.5359 42.722 22.2977 43.0709 21.93C43.5845 21.479 44.1104 20.9811 44.6487 20.4361L46.0873 18.9423C46.5328 18.4913 46.8422 18.2658 47.0154 18.2658C47.1887 18.2658 47.3558 18.6729 47.5167 19.4872C47.4634 20.4408 47.2119 21.3723 46.7784 22.2207C46.345 23.0691 45.7394 23.8153 45.0014 24.4104C43.5874 25.88 41.6627 26.7329 39.6369 26.7875C37.9168 26.7875 37.0567 25.2028 37.0567 22.0334C37.0877 20.8929 37.2213 19.7576 37.4558 18.6416C37.7103 17.6961 37.8903 16.7316 37.9941 15.7572Z" fill="white"/>
<path d="M57.5126 23.6688C56.7201 24.7085 55.7058 25.5536 54.5455 26.1409C53.3851 26.7282 52.1088 27.0426 50.8116 27.0605C49.7426 27.143 48.6681 27.0048 47.6534 26.6544C46.6388 26.3039 45.705 25.7485 44.9087 25.0217C44.2535 24.3556 43.7419 23.5591 43.4064 22.6825C43.0709 21.806 42.9188 20.8685 42.9596 19.9294C42.8892 17.2057 43.8486 14.5575 45.6419 12.5257C46.5236 11.5038 47.6192 10.6936 48.8489 10.154C50.0787 9.61446 51.4119 9.35908 52.7514 9.40643C53.8904 9.34858 55.0294 9.52103 56.1019 9.91376C57.5126 10.5025 58.218 11.0444 58.218 11.5392C58.218 12.034 57.2342 12.2376 55.2666 12.1499C54.3491 12.1345 53.4382 12.31 52.5904 12.6655C51.7427 13.0211 50.9761 13.5491 50.3382 14.2169C49.6315 14.8667 49.0643 15.6564 48.6715 16.5372C48.2788 17.4181 48.0689 18.3712 48.055 19.3375C48.0217 20.3277 48.3524 21.2952 48.9831 22.0528C49.3215 22.4256 49.7381 22.7169 50.2023 22.9055C50.6664 23.0941 51.1663 23.1751 51.6654 23.1426C52.675 23.1866 53.6761 22.9389 54.5519 22.4286C53.7317 21.8874 53.065 21.1393 52.6174 20.2579C52.1698 19.3764 51.9569 18.3921 51.9995 17.402C51.9886 16.2252 52.4353 15.0913 53.2433 14.2451C53.6588 13.7644 54.1754 13.384 54.7553 13.132C55.3351 12.88 55.9633 12.7627 56.5938 12.7888C57.12 12.7296 57.6526 12.7976 58.1479 12.987C58.6431 13.1765 59.087 13.482 59.4431 13.8787C60.0497 14.7117 60.3574 15.7292 60.3156 16.7631C60.2956 18.0395 60.021 19.2987 59.5081 20.4649H59.7123C60.7262 20.4555 61.6984 20.0557 62.4317 19.3469L63.1649 18.6046C63.2416 18.5052 63.3384 18.4236 63.4489 18.3652C63.5593 18.3069 63.6809 18.2732 63.8053 18.2664C64.1394 18.2664 64.3065 18.661 64.3065 19.4502C64.3653 20.0764 64.2813 20.7079 64.0609 21.296C63.8404 21.8841 63.4894 22.413 63.035 22.842C62.2489 23.546 61.2351 23.9338 60.1856 23.9319C59.2882 23.9334 58.3929 23.8452 57.5126 23.6688ZM57.1785 19.4596C57.5651 18.6672 57.7713 17.7971 57.7818 16.9134C57.7818 16.0991 57.525 15.692 57.0114 15.692C56.4979 15.692 56.3184 15.8517 56.4731 16.1712C56.3356 16.4647 56.2658 16.7859 56.2689 17.1107C56.2529 18.005 56.5865 18.8695 57.1971 19.516L57.1785 19.4596Z" fill="white"/>
<path d="M138.408 27.07C140.392 27.07 142 25.442 142 23.4339C142 21.4258 140.392 19.7979 138.408 19.7979C136.425 19.7979 134.816 21.4258 134.816 23.4339C134.816 25.442 136.425 27.07 138.408 27.07Z" fill="white"/>
<path d="M101.682 18.8485C102.084 18.8485 102.285 19.4028 102.285 20.5115C102.229 21.2868 101.977 22.0345 101.552 22.6819C101.028 23.5608 100.37 24.3503 99.6027 25.0213C98.8102 25.7367 97.9191 26.3317 96.9576 26.7877C96.0884 27.2136 95.1386 27.4444 94.1732 27.4641C93.446 27.5051 92.723 27.3287 92.0942 26.9568C91.5913 26.6205 91.1873 26.1531 90.9248 25.6039C90.3601 24.0976 90.0223 22.514 89.9224 20.9061C89.7803 19.2828 89.5228 17.672 89.1521 16.0862C88.5657 15.9731 88.0149 15.7185 87.5464 15.344C87.3297 15.19 87.1519 14.9863 87.0277 14.7496C86.9035 14.5128 86.8364 14.2497 86.8318 13.9816C86.8197 13.7321 86.8835 13.4848 87.0146 13.2731C87.1457 13.0614 87.3378 12.8955 87.565 12.7978C88.089 12.5437 88.6638 12.4151 89.2449 12.422C89.8476 12.4133 90.4403 12.5796 90.9526 12.9011C91.6065 12.3524 92.1514 11.6829 92.5583 10.9281C93.0254 9.96875 93.2457 8.90553 93.1987 7.83701C93.1775 7.24506 93.0246 6.66558 92.7514 6.14176C92.4782 5.61794 92.0917 5.16325 91.6209 4.81163C90.5636 3.98172 89.2436 3.57083 87.9084 3.656C86.6339 3.61647 85.36 3.75237 84.1217 4.06C83.3377 4.28981 82.574 4.58522 81.8384 4.94318L80.1585 5.82636C79.7409 6.07445 79.2689 6.2133 78.7849 6.23036C78.358 6.23036 78.1445 6.0957 78.1445 5.82636C78.2461 5.32382 78.4766 4.85719 78.8128 4.47341C79.3796 3.74119 80.0598 3.10662 80.8268 2.59431C83.0018 0.998335 85.6213 0.142957 88.3075 0.151502C90.6999 0.074825 93.0705 0.631848 95.1849 1.7675C96.1803 2.31286 97.0041 3.13069 97.5621 4.12755C98.1201 5.12442 98.3899 6.2601 98.3405 7.40479C98.4294 9.2629 97.86 11.0921 96.7348 12.5629C95.6769 13.9055 94.2734 14.9264 92.6789 15.5131C93.0472 16.3455 93.3393 17.2104 93.5514 18.0969C93.7741 19.0239 93.9969 19.8726 94.2196 20.6431C94.3954 21.2947 94.6413 21.9248 94.9528 22.5222C95.0342 22.7287 95.1714 22.9078 95.3486 23.0391C95.5259 23.1703 95.7362 23.2484 95.9552 23.2644C96.5003 23.1963 97.0069 22.9448 97.3938 22.5503C97.9507 22.0743 98.5107 21.5638 99.0737 21.0189L100.549 19.4874C100.849 19.1561 101.246 18.9319 101.682 18.8485ZM86.0243 5.84517C86.3399 5.84517 86.4976 6.25229 86.4976 7.06657C86.5473 7.83618 86.5473 8.60821 86.4976 9.37782C86.2955 10.6931 86.0166 11.9951 85.6623 13.277C85.1039 15.1574 84.679 17.0758 84.3908 19.0176V24.3167C84.44 24.8616 84.3254 25.4088 84.0621 25.8866C83.7987 26.3644 83.3989 26.7505 82.9151 26.9944L81.6064 27.6051C81.164 27.811 80.6826 27.9168 80.1956 27.9152C79.1871 27.9152 78.6828 26.7845 78.6828 24.5234C78.8003 21.5294 79.341 18.5679 80.2885 15.7292C81.0567 12.892 82.1828 10.1667 83.639 7.62087C83.9318 7.20055 84.2818 6.82415 84.6785 6.50281C85.0446 6.13064 85.5267 5.8983 86.0429 5.84517H86.0243Z" fill="white"/>
<path d="M132.31 18.8486C132.712 18.8486 132.913 19.4029 132.913 20.5116C132.857 21.2869 132.605 22.0346 132.18 22.682C131.656 23.5612 130.998 24.3509 130.231 25.0214C129.438 25.7368 128.547 26.3318 127.585 26.7878C126.62 27.2397 125.568 27.4707 124.504 27.4642C124.051 27.4823 123.6 27.4064 123.177 27.2413C122.755 27.0762 122.37 26.8254 122.046 26.5042C121.723 26.183 121.468 25.7982 121.297 25.3736C121.126 24.949 121.042 24.4934 121.051 24.0349C121.072 23.0243 121.218 22.0204 121.488 21.0472C121.779 19.9385 122.088 18.8079 122.416 17.6553C123.132 15.4539 123.605 13.1788 123.827 10.8718C123.851 10.4329 123.781 9.99383 123.622 9.58465C123.545 9.43929 123.427 9.32003 123.284 9.24156C123.14 9.16308 122.977 9.12881 122.815 9.14304C122.369 9.1918 121.936 9.33091 121.544 9.55202C121.152 9.77314 120.808 10.0718 120.532 10.4302C119.625 11.4527 118.857 12.5934 118.249 13.822C116.692 16.5837 115.796 19.6759 115.631 22.8511V23.8658C115.657 24.2286 115.657 24.5928 115.631 24.9557C115.61 25.371 115.497 25.7761 115.299 26.1406C115.101 26.5051 114.825 26.8195 114.49 27.0602C113.791 27.6704 112.897 28.0042 111.974 27.9998C111.715 28.0045 111.46 27.9287 111.245 27.7826C111.029 27.6365 110.863 27.427 110.768 27.1824C110.485 26.555 110.349 25.8703 110.369 25.1811C110.406 24.032 110.587 22.8923 110.907 21.7894C111.266 20.4114 111.656 18.952 112.077 17.4111C113.079 14.4347 113.721 11.346 113.988 8.21289C114.022 7.40345 113.895 6.59544 113.617 5.83586C113.499 5.55444 113.297 5.3177 113.039 5.15918C112.781 5.00067 112.48 4.92843 112.179 4.95268C110.879 4.95268 109.605 5.89223 108.355 7.77133C106.775 10.4494 105.643 13.3731 105.004 16.4245C104.738 17.4455 104.537 18.3287 104.401 19.0741V19.7506C104.734 21.1778 104.958 22.6291 105.069 24.0913C105.133 24.657 105.027 25.2292 104.763 25.7323C104.5 26.2354 104.092 26.646 103.593 26.9099L102.285 27.5206C101.865 27.7161 101.41 27.8217 100.948 27.8307C99.7665 27.8307 99.1756 26.7001 99.1756 24.4389C99.4526 19.8722 100.073 15.3336 101.032 10.8624C101.477 8.43839 101.7 7.09171 101.7 6.82238C101.7 4.87438 101.208 3.90039 100.224 3.90039C99.8904 3.90169 99.5654 4.01021 99.2963 4.2104L98.2939 4.85869L97.4586 5.46942C97.1847 5.66017 96.8627 5.76775 96.5305 5.77949C96.153 5.77949 95.9643 5.46631 95.9643 4.83994C95.94 4.15718 96.0999 3.48059 96.427 2.88297C96.754 2.28535 97.2359 1.78928 97.8206 1.44813C99.0638 0.559834 100.56 0.107774 102.081 0.160948C102.517 0.10006 102.961 0.126904 103.387 0.239913C103.813 0.352921 104.213 0.549902 104.564 0.819561C104.915 1.08922 105.21 1.42625 105.432 1.81141C105.654 2.19657 105.799 2.62229 105.858 3.06418V3.17692C105.864 3.80864 105.932 4.4382 106.062 5.05602C106.586 3.65605 107.496 2.43789 108.684 1.5467C109.872 0.65551 111.288 0.128873 112.763 0.0294545C113.956 -0.107994 115.153 0.239242 116.093 0.994981C117.033 1.75072 117.638 2.85315 117.775 4.0601C117.775 4.14153 117.775 4.22296 117.775 4.30439C117.919 5.1796 117.975 6.06731 117.942 6.95393V7.26394C118.503 6.27725 119.301 5.44943 120.261 4.85669C121.221 4.26394 122.313 3.92536 123.437 3.87218C126.432 3.87218 127.929 5.70433 127.929 9.36858C127.896 11.2697 127.65 13.1608 127.196 15.0059C126.707 17.1355 126.348 18.6638 126.119 19.5908C125.929 20.2899 125.817 21.0085 125.785 21.733C125.785 22.635 126.094 23.086 126.713 23.086C127.332 23.086 128.842 21.8332 131.242 19.3278C131.551 19.0764 131.919 18.9111 132.31 18.8486Z" fill="white"/>
<path d="M81.5785 14.0568C82.1973 14.0568 82.5066 14.633 82.5066 15.7855C82.4875 17.0763 82.226 18.3517 81.7363 19.5437C81.1758 20.9438 80.3885 22.2394 79.4067 23.3771C78.2717 24.676 76.9052 25.747 75.3786 26.5339C73.582 27.4515 71.5896 27.9065 69.5778 27.8587C67.4225 27.8878 65.3364 27.0887 63.7399 25.6226C62.8741 24.7889 62.1999 23.7726 61.7652 22.6458C61.3306 21.519 61.146 20.3092 61.2247 19.1021C61.1892 16.4861 61.5844 13.8824 62.3942 11.3978C63.1011 9.24553 64.1548 7.22644 65.5127 5.4223C66.6442 3.81785 68.0797 2.45727 69.7356 1.41981C71.1391 0.561034 72.7372 0.0821966 74.3763 0.0292969C76.9441 0.0292969 78.2279 1.15987 78.2279 3.42106C78.2773 4.53377 78.0236 5.63878 77.4947 6.61549C77.0059 7.40471 76.514 7.79933 76.019 7.79933C75.6877 7.79543 75.3609 7.72058 75.0602 7.5797C74.7594 7.43881 74.4915 7.2351 74.2741 6.98193C74.0673 6.74249 73.8156 6.54694 73.5336 6.40664C73.2516 6.26633 72.945 6.18404 72.6314 6.16452C71.8805 6.13169 71.1366 6.32361 70.4929 6.7163C69.8491 7.10899 69.3339 7.68508 69.0117 8.3725C68.4625 9.11734 68.0536 9.95811 67.8051 10.8529C66.98 13.0146 66.5826 15.3195 66.6357 17.6364C66.8522 19.2756 67.6953 20.7633 68.9839 21.7798C69.7473 22.3197 70.6732 22.5723 71.6012 22.4939C73.232 22.2975 74.7347 21.5018 75.8241 20.2578C76.6316 19.3746 77.3369 18.5572 78.1073 17.6458C78.8776 16.7345 79.5459 15.9171 80.1492 15.1654C80.7524 14.4138 81.1516 14.0568 81.5785 14.0568Z" fill="white"/>
</g>
</svg>
