<svg width="95" height="44" viewBox="0 0 95 44" fill="none" xmlns="http://www.w3.org/2000/svg">
<g opacity="0.7">
<path d="M56.8541 17.4874C55.2934 17.4103 54.1143 18.8073 54.1143 20.7871C54.1143 22.7669 55.2241 24.2154 56.7154 24.3011C58.2067 24.3868 59.4552 22.9812 59.4552 21.0014C59.4552 19.0216 58.3367 17.5646 56.8541 17.4874Z" fill="white"/>
<path d="M71.0216 17.5642C70.568 17.2974 70.037 17.1887 69.5135 17.2555C68.9901 17.3223 68.5044 17.5608 68.1343 17.9327C67.6921 18.3698 67.1719 18.8841 67.3887 19.544C67.6054 20.204 68.2557 19.7669 68.7933 19.8354C69.0881 19.8354 69.3829 19.7583 69.6603 19.7583C69.9801 19.7948 70.303 19.7948 70.6227 19.7583C71.2123 19.6811 72.1054 20.1268 72.2528 19.4669C72.5042 18.5498 71.7586 17.9327 71.0216 17.5642Z" fill="white"/>
<path d="M94.7612 13.8963C94.606 11.1608 93.5288 8.55548 91.7012 6.49571C89.8736 4.43594 87.401 3.04037 84.6776 2.53156C79.9376 1.55597 75.1286 0.942791 70.2934 0.697442C60.2791 0.183201 50.2734 -0.108219 40.2591 0.0374823C30.6799 0.076306 21.1166 0.812526 11.6469 2.24016C5.11806 3.3372 1.3378 7.00545 0.306028 13.4506C-0.102009 16.5659 -0.102009 19.7202 0.306028 22.8355C0.895614 30.0178 5.19613 33.4632 11.5775 34.9287C13.4359 35.293 15.3202 35.5136 17.2133 35.5887C18.774 35.5887 19.0687 36.2486 18.9907 37.5685C18.9127 39.2827 18.9907 40.9968 18.9907 42.7109C18.9907 43.1481 18.7652 43.7394 19.2855 43.9537C19.8057 44.168 20.1005 43.5852 20.3953 43.2938C22.3201 41.2454 24.1756 39.1884 26.0311 37.14C26.2209 36.8945 26.4688 36.6989 26.753 36.5704C27.0373 36.4419 27.3491 36.3843 27.6611 36.4029C34.8575 36.84 42.0453 36.9857 48.6434 36.9172C58.1375 36.9943 66.9553 36.48 75.9291 35.8201C79.8176 35.6627 83.6528 34.8692 87.2787 33.4717C89.2408 32.6897 90.9556 31.4032 92.2453 29.7455C93.5351 28.0878 94.3528 26.1193 94.6138 24.044C95.0735 20.6794 95.123 17.2725 94.7612 13.8963ZM19.3288 10.0823H19.693H19.8144C21.8409 10.2113 23.744 11.0898 25.145 12.5429C26.546 13.9961 27.3421 15.9174 27.375 17.9245C27.375 18.293 27.5223 18.8759 26.9328 18.8759C26.3432 18.8759 26.4906 18.293 26.4906 17.8474C26.4559 17.5788 26.4183 17.3217 26.3778 17.076C26.3778 16.9503 26.3548 16.8275 26.3085 16.7075C26.2623 16.5875 26.2362 16.4704 26.2305 16.3561C26.19 16.1847 26.1438 16.0161 26.0918 15.8504L25.9877 15.5247C25.9357 15.3647 25.8779 15.2105 25.8143 15.0619C25.7507 14.9133 25.6871 14.7677 25.6235 14.6248L25.4848 14.3505C25.4097 14.2191 25.3316 14.0906 25.2507 13.9649C25.1698 13.8391 25.086 13.7163 24.9993 13.5963L24.9125 13.4763L24.7218 13.2535L24.5224 13.0392L24.3143 12.8335C24.1336 12.6675 23.9425 12.5129 23.7421 12.3707L23.4906 12.1993C23.2294 12.0329 22.9571 11.884 22.6756 11.7536L22.2247 11.5651L21.9126 11.4451L21.5831 11.3422C21.3057 11.2565 21.0167 11.1794 20.7161 11.1108C20.4155 11.0423 20.0976 10.9822 19.7623 10.9308C19.3895 10.8537 18.8953 10.9308 18.8953 10.4937C18.8953 10.0566 19.1208 10.0823 19.3635 10.0823H19.3288ZM24.9386 18.0788C24.271 18.1559 24.4184 17.5646 24.349 17.2217C23.9068 14.6505 23.0138 13.7077 20.3433 13.1164C19.9705 13.0392 19.3809 13.1164 19.4762 12.5336C19.5716 11.9508 20.1439 12.165 20.5167 12.2422C21.7932 12.3604 22.9836 12.9301 23.8692 13.8465C24.7549 14.7629 25.2762 15.9644 25.3374 17.2303C25.2681 17.4874 25.4935 18.0017 24.9906 18.0788H24.9386ZM23.3085 16.7589C23.3085 17.0503 23.3085 17.4188 22.8663 17.496C22.5716 17.496 22.4242 17.2732 22.3461 16.9818C22.3554 16.5058 22.1737 16.0456 21.8405 15.7019C21.5074 15.3582 21.0501 15.1589 20.5687 15.1476C20.2739 15.0705 19.9011 15.0019 20.0485 14.5648C20.1265 14.2734 20.4213 14.2734 20.7161 14.2734C21.3869 14.2947 22.0262 14.5603 22.511 15.019C22.9959 15.4777 23.2923 16.0974 23.3432 16.7589H23.3085ZM27.4616 24.8239C27.1856 25.4969 26.7302 26.0833 26.144 26.5209C25.5578 26.9586 24.8626 27.231 24.1322 27.3094C23.8392 27.2512 23.5498 27.1768 23.2652 27.0866C20.4431 25.9724 17.8818 24.2988 15.739 22.1688C13.5962 20.0389 11.9173 17.4977 10.8059 14.7019C10.6854 14.4273 10.5981 14.1397 10.5458 13.8449C10.2596 12.2593 11.1093 11.008 12.8781 10.4166C13.054 10.3445 13.2425 10.3073 13.433 10.3073C13.6234 10.3073 13.812 10.3445 13.9879 10.4166C14.8549 10.708 17.0312 13.7163 17.1006 14.5905C17.1031 14.6333 17.1031 14.6763 17.1006 14.7191C17.0811 14.987 16.9907 15.2453 16.8385 15.4679C16.6863 15.6905 16.4778 15.8697 16.2335 15.9875C16.0126 16.1114 15.8273 16.289 15.6953 16.5035C15.5633 16.718 15.489 16.9623 15.4792 17.2132C15.4927 17.548 15.5721 17.877 15.7133 18.1816C16.5839 19.9833 18.0833 21.4137 19.9357 22.2099H19.9964L20.1178 22.2613L20.2999 22.3213H20.3606H20.482H20.7248H20.9588C21.0759 22.2949 21.1874 22.2485 21.2883 22.1841C21.4633 22.0669 21.6087 21.9115 21.7132 21.7299C22.5282 20.4871 23.5687 20.4872 24.6785 21.2928C25.2515 21.6422 25.7965 22.0348 26.3085 22.467C26.9154 22.9469 27.6177 23.3241 27.6091 24.1297C27.622 24.3664 27.5836 24.6031 27.4964 24.8239H27.4616ZM44.2909 12.8764C43.1031 15.9533 41.8458 19.0301 40.658 22.1841C40.1378 23.504 39.6176 24.8239 39.0973 26.0667C38.9813 26.4426 38.7542 26.7757 38.4452 27.0231C38.1362 27.2705 37.7594 27.421 37.3633 27.4551C36.9286 27.4673 36.5036 27.3267 36.1639 27.0583C35.8242 26.79 35.5917 26.4113 35.5078 25.9895C33.7737 21.7042 32.0396 17.2646 30.3056 12.9449C29.8634 11.7708 30.0801 10.7423 31.4153 10.3052C32.7506 9.86807 33.3402 10.6737 33.7911 11.7708C34.8315 14.7019 35.9413 17.6331 37.1985 21.0785C38.3864 18.0017 39.3488 15.4305 40.3112 12.7993C40.4521 12.3474 40.626 11.9063 40.8314 11.4794C41.2736 10.4509 42.0193 9.86807 43.2071 10.3052C44.3949 10.7423 44.6984 11.6936 44.3256 12.8764H44.2909ZM49.0336 25.5524C49.0336 26.7266 48.444 27.4551 47.2562 27.4551C46.0683 27.4551 45.5221 26.6495 45.5221 25.4753V21.3785V17.2046C45.5221 16.0304 46.0423 15.3019 47.2995 15.3019C48.5567 15.3019 49.0336 16.039 49.0336 17.136V25.5524ZM47.5336 14.1191C47.2731 14.1346 47.0123 14.0965 46.7674 14.0074C46.5225 13.9182 46.299 13.7799 46.1108 13.6012C45.9227 13.4225 45.774 13.2072 45.6742 12.9688C45.5743 12.7305 45.5255 12.4743 45.5308 12.2164C45.5296 11.9561 45.5806 11.6982 45.6809 11.4574C45.7811 11.2167 45.9286 10.998 46.1148 10.814C46.301 10.6299 46.5223 10.4841 46.7658 10.385C47.0093 10.2859 47.2703 10.2355 47.5336 10.2366C48.0324 10.2901 48.4948 10.5199 48.8358 10.8837C49.1767 11.2475 49.3732 11.7208 49.3891 12.2164C49.2157 13.3135 48.7041 14.042 47.5336 14.1191ZM61.9958 24.9696C61.6755 25.5862 61.2267 26.1287 60.6791 26.5616C60.1314 26.9944 59.4972 27.3078 58.8183 27.481C58.1394 27.6543 57.431 27.6835 56.7398 27.5668C56.0486 27.45 55.3903 27.19 54.8081 26.8038C54.3659 26.5124 54.2098 26.3666 53.8457 26.8809C53.6093 27.2086 53.2562 27.4358 52.8574 27.5169C52.4586 27.598 52.0434 27.5269 51.6954 27.318C51.3349 27.1363 51.0409 26.8478 50.8544 26.4928C50.6679 26.1379 50.5981 25.7342 50.6549 25.3382V18.7387V12.5079C50.6549 11.2651 51.0971 10.2366 52.5104 10.2366C53.9237 10.2366 54.2445 11.188 54.2445 12.4393V13.2449C54.2445 15.1476 54.2445 15.1476 56.0219 14.6334C57.15 14.254 58.3787 14.2896 59.4824 14.7335C60.5862 15.1775 61.4909 16.0001 62.0305 17.0503C62.7455 18.2525 63.1175 19.6237 63.1068 21.0183C63.0961 22.4128 62.7032 23.7783 61.9698 24.9696H61.9958ZM73.935 22.107H68.0738C67.2588 22.107 67.2067 22.4756 67.5536 23.0584C68.2212 24.3011 70.1547 24.8154 71.776 24.2325C72.3683 23.9949 72.9471 23.726 73.5101 23.4269C73.6709 23.3062 73.856 23.2211 74.0531 23.1775C74.2501 23.1339 74.4543 23.1328 74.6518 23.1743C74.8493 23.2158 75.0354 23.2989 75.1975 23.4179C75.3596 23.5369 75.4938 23.6891 75.591 23.864C75.7169 24.0315 75.804 24.2243 75.8462 24.4288C75.8883 24.6333 75.8844 24.8444 75.8348 25.0473C75.7851 25.2501 75.6909 25.4397 75.5589 25.6025C75.4269 25.7653 75.2602 25.8975 75.0708 25.9895C74.0013 26.8095 72.7321 27.3363 71.391 27.5169C70.05 27.6974 68.6845 27.5254 67.4322 27.018C64.831 25.921 63.7212 23.7183 63.7212 21.0185C63.632 19.4204 64.154 17.8476 65.1835 16.6123C66.2131 15.3771 67.6751 14.5697 69.279 14.3505C70.8613 14.2097 72.4386 14.6688 73.6912 15.6348C74.9437 16.6009 75.7778 18.0016 76.0245 19.553C76.354 21.3785 75.8424 22.0384 73.9089 22.107H73.935ZM84.0186 17.4188C80.9753 18.1559 80.5505 20.2043 80.8279 22.8441C80.9141 23.7724 80.8879 24.7075 80.7499 25.6296C80.7402 25.8609 80.6845 26.088 80.586 26.298C80.4875 26.5081 80.3482 26.6968 80.1759 26.8536C80.0036 27.0104 79.8018 27.1321 79.5819 27.2118C79.362 27.2915 79.1284 27.3276 78.8944 27.318C78.6604 27.3084 78.4307 27.2534 78.2182 27.156C78.0057 27.0587 77.8147 26.9209 77.6561 26.7506C77.4975 26.5803 77.3744 26.3808 77.2938 26.1634C77.2132 25.9461 77.1767 25.7152 77.1864 25.4839C77.1864 24.0183 77.1864 22.407 77.1864 20.7957V16.3989C77.1564 16.0359 77.2401 15.6726 77.4262 15.3582C77.6124 15.0439 77.8919 14.7938 78.2268 14.6419C78.571 14.4406 78.9765 14.3672 79.3706 14.4347C79.7646 14.5023 80.1215 14.7064 80.3771 15.0105C80.8192 15.6704 81.0447 15.379 81.4175 15.0105C81.6807 14.7879 81.9874 14.6214 82.3186 14.5211C82.6497 14.4208 82.9982 14.389 83.3423 14.4277C83.7081 14.4634 84.0514 14.6184 84.3183 14.8682C84.5851 15.118 84.7603 15.4485 84.8163 15.8075C84.955 16.6132 84.6602 17.2731 83.9926 17.4188H84.0186Z" fill="white"/>
</g>
</svg>
