<svg width="92" height="54" viewBox="0 0 92 54" fill="none" xmlns="http://www.w3.org/2000/svg">
<g opacity="0.7">
<path d="M86.402 21.6955C86.402 21.4949 86.3263 21.2943 86.3074 21.0842C86.2463 20.4667 86.0171 19.8783 85.6451 19.3842C85.5272 19.224 85.3833 19.0852 85.2194 18.9735C84.9799 18.8139 84.7302 18.6703 84.472 18.5437C84.3517 18.4811 84.2194 18.4453 84.0842 18.4387C83.6685 18.4078 83.2511 18.4078 82.8354 18.4387C82.7533 18.4469 82.6733 18.4695 82.5989 18.5055L82.0881 18.7634C81.8662 18.8829 81.665 19.0377 81.492 19.2218C81.2861 19.4267 81.1164 19.6658 80.9906 19.9286C80.7177 20.4601 80.6247 21.0673 80.7257 21.6573C80.9161 22.5613 81.0081 23.4837 81.0001 24.4079C81.0001 24.8759 80.9433 25.363 80.9149 25.8214C80.8881 26.3022 80.799 26.7774 80.65 27.2349C80.6068 27.3715 80.5782 27.5124 80.5649 27.6551C80.5609 27.746 80.545 27.8359 80.5176 27.9226C80.3662 28.3237 80.2621 28.7535 80.0919 29.1546C79.9216 29.5557 79.8081 29.7945 79.6567 30.1097C79.5053 30.4249 79.4107 30.5872 79.2878 30.8164C79.1648 31.0457 78.9755 31.3608 78.8053 31.6187C78.635 31.8766 78.389 32.2013 78.1714 32.4783C77.7257 33.0487 77.2353 33.582 76.7051 34.0732L76.4496 34.3025C75.9214 34.7857 75.3515 35.2204 74.7468 35.6014C74.3494 35.8497 73.9237 36.0598 73.5169 36.2795L73.1101 36.48L72.164 36.8525L71.8235 36.9862C71.7252 37.0214 71.6238 37.047 71.5207 37.0626C71.3567 37.0857 71.1952 37.1241 71.0382 37.1772L70.622 37.2918L69.9503 37.4256C69.5942 37.5004 69.2341 37.5546 68.8718 37.5879C68.2569 37.5879 67.6514 37.5879 67.0365 37.5879C66.8088 37.5841 66.5814 37.5682 66.3554 37.5402C65.8161 37.4638 65.2769 37.3587 64.7471 37.2441H64.5957C64.3979 37.1674 64.1913 37.1161 63.9808 37.0913H63.8294L62.4103 36.5373C62.0508 36.3845 61.7103 36.1744 61.3602 36.0025C61.012 35.816 60.6769 35.6053 60.3574 35.3722C59.7724 34.9526 59.219 34.4897 58.7019 33.9873C58.236 33.5392 57.7998 33.0607 57.3963 32.5547C57.2639 32.3923 57.122 32.23 57.0085 32.0485C56.7625 31.6856 56.5354 31.3226 56.3178 30.9502C55.9858 30.4018 55.7131 29.819 55.5042 29.2119C55.5042 29.2119 55.5042 29.126 55.4475 29.0878L55.3624 28.8776C55.3056 28.7057 55.2394 28.5338 55.1826 28.3619C55.1261 28.1959 55.0788 28.0269 55.0407 27.8557C55.0089 27.6591 54.955 27.4669 54.8799 27.2827C54.857 27.2333 54.8381 27.1822 54.8231 27.1299C54.714 26.7758 54.53 26.45 54.2839 26.1748C53.9576 25.7971 53.5307 25.522 53.054 25.3821C52.5259 25.2117 51.9666 25.1628 51.4173 25.2388C50.9254 25.3057 50.4713 25.4012 49.9415 25.4871H49.7902L49.1942 25.6208L48.8631 25.6877L48.2481 25.8596L47.7373 26.0411C47.6126 26.0959 47.4826 26.1375 47.3494 26.1652C47.2455 26.1865 47.144 26.2185 47.0466 26.2607L45.8263 26.7574H45.7411C45.5046 26.9102 45.2303 26.977 45.0032 27.149C44.7762 27.3209 44.7005 27.149 44.7005 26.9866C44.7005 26.9293 44.7005 26.8815 44.7005 26.8242C44.7005 26.7669 44.7005 26.6237 44.7005 26.5282C44.6918 25.8108 44.7202 25.0936 44.7856 24.3792C44.7856 24.0641 44.7856 23.7584 44.8707 23.4242C44.9559 23.0899 44.9465 22.7747 44.9559 22.4691C44.9654 22.1635 44.9559 21.9151 44.9559 21.6477C44.9462 21.5333 44.9462 21.4183 44.9559 21.3039C45.0411 20.9314 45.1262 20.5589 45.2208 20.1865V20.1005C45.3911 19.623 45.4573 19.1454 45.6181 18.6488C45.6181 18.6488 45.6181 18.6488 45.6181 18.5819L45.8073 17.9229C45.8641 17.7128 45.9398 17.5027 45.9776 17.283C46.0036 17.1024 46.0415 16.9237 46.0911 16.7482C46.1758 16.4862 46.2173 16.212 46.2141 15.9364C46.2141 15.7263 46.2141 15.5257 46.2141 15.3156C46.2236 15.2267 46.2236 15.1371 46.2141 15.0482C46.1505 14.7733 46.0715 14.5022 45.9776 14.2364C45.8548 13.9053 45.6572 13.6077 45.4005 13.3672C45.1372 13.1359 44.852 12.9311 44.5491 12.756C44.1562 12.5057 43.6984 12.3794 43.2341 12.3931H42.8462C42.5329 12.3921 42.2253 12.478 41.9569 12.6414C41.6241 12.8218 41.3312 13.0688 41.0961 13.3672C40.9214 13.6056 40.7664 13.8579 40.6325 14.1218C40.5568 14.2746 40.5095 14.4274 40.4338 14.5802C40.3423 14.7646 40.2755 14.9606 40.2351 15.1628C40.2232 15.2222 40.2041 15.2799 40.1784 15.3347C40.1155 15.4967 40.0772 15.6673 40.0648 15.8409C40.0457 16.0086 40.0141 16.1746 39.9703 16.3375C39.9703 16.519 39.8662 16.6909 39.8094 16.8628C39.7825 16.9565 39.7635 17.0524 39.7527 17.1493C39.7205 17.4231 39.6698 17.6943 39.6013 17.9611C39.554 18.1528 39.5193 18.3474 39.4972 18.5437C39.4791 18.7577 39.4378 18.9691 39.3742 19.1741C39.2555 19.5373 39.1731 19.9117 39.1283 20.2915C39.1283 20.3679 39.1283 20.4443 39.1283 20.5112L39.0242 20.9792C39.0242 21.0842 39.0242 21.1893 38.958 21.2943C38.8634 21.6286 38.712 21.9534 38.6552 22.2972C38.5985 22.641 38.4944 22.7556 38.3904 22.9753C38.1777 23.5051 37.8944 24.0031 37.5484 24.4556C37.2674 24.8232 36.9325 25.1453 36.5551 25.4107C36.4937 25.4569 36.4269 25.4954 36.3564 25.5253C36.0539 25.6387 35.7255 25.6618 35.4103 25.5922C35.3121 25.5731 35.2188 25.5341 35.136 25.4776C34.6975 25.1821 34.389 24.727 34.2751 24.2073C34.2788 24.1628 34.2788 24.1181 34.2751 24.0736C34.1494 23.698 34.0824 23.3049 34.0764 22.9084C34.033 22.1163 34.033 21.3224 34.0764 20.5303C34.0764 20.1769 34.1237 19.814 34.1615 19.4606C34.1959 19.1872 34.2692 18.9202 34.3791 18.6679C34.4862 18.4334 34.6095 18.2068 34.7481 17.9898C34.9943 17.64 35.1681 17.2437 35.259 16.8246C35.259 16.7768 35.259 16.7195 35.259 16.6718C35.3034 16.5025 35.335 16.3301 35.3536 16.156C35.3536 15.7836 35.3536 15.4111 35.3536 15.0386C35.3464 14.9153 35.3241 14.7934 35.2873 14.6757C35.2306 14.4656 35.1644 14.265 35.1076 14.0645C35.091 14.0143 35.0687 13.9662 35.0414 13.9212C34.8188 13.5492 34.5264 13.2248 34.1805 12.9661C33.9404 12.7961 33.6797 12.6581 33.4047 12.5554C33.2389 12.4848 33.0635 12.4397 32.8844 12.4217C32.4029 12.379 31.9185 12.379 31.4369 12.4217C31.0962 12.4532 30.7699 12.5751 30.4909 12.7751C30.0856 13.0577 29.736 13.414 29.4598 13.8257C29.3585 13.9756 29.2668 14.1319 29.1854 14.2937C29.1097 14.4369 29.053 14.5897 28.9867 14.733C28.9163 14.8759 28.8622 15.0265 28.8259 15.1819C28.8259 15.2965 28.7597 15.4015 28.7218 15.5066C28.6755 15.6206 28.6407 15.739 28.6178 15.86C28.5661 16.2237 28.4935 16.5841 28.4002 16.9392C28.3263 17.2524 28.2851 17.5725 28.2772 17.8943C28.2772 18.0662 28.2772 18.2286 28.2772 18.4005C28.2772 18.9544 28.2551 19.5115 28.211 20.0718C28.211 20.1483 28.211 20.2247 28.211 20.3011C28.211 20.9219 28.211 21.5331 28.211 22.1539C28.2184 22.3607 28.1693 22.5656 28.069 22.7461C27.9271 22.9848 27.7758 23.2141 27.615 23.4337C27.4541 23.6534 27.2365 23.9304 27.0473 24.1787C26.7954 24.5189 26.5171 24.8383 26.2148 25.1338C25.9357 25.3907 25.6385 25.6269 25.3256 25.8405C25.1999 25.9257 25.0669 25.9992 24.9282 26.0602C24.8962 26.0779 24.8609 26.0888 24.8245 26.0922C24.7882 26.0955 24.7515 26.0912 24.7168 26.0795C24.6822 26.0678 24.6503 26.0491 24.6232 26.0244C24.5961 25.9997 24.5743 25.9696 24.5593 25.936C24.5278 25.8829 24.5054 25.8248 24.493 25.7641C24.4653 25.6289 24.4494 25.4914 24.4457 25.3534C24.4457 24.7422 24.4457 24.1309 24.4457 23.5197C24.4457 23.0612 24.4457 22.5646 24.4457 22.1444C24.4493 21.2356 24.5253 20.3285 24.6728 19.432C24.734 19.0177 24.7656 18.5996 24.7674 18.1808C24.7674 17.6842 24.7673 17.2257 24.8714 16.7004C24.8714 16.4139 24.9187 16.1274 24.9282 15.8313C24.9417 15.6948 24.9417 15.5572 24.9282 15.4206C24.9282 15.2678 24.862 15.1246 24.8336 14.9718C24.8074 14.8448 24.7559 14.7246 24.6822 14.6184L24.5687 14.4465C24.3871 14.1716 24.1482 13.9401 23.8686 13.7684C23.577 13.5878 23.2571 13.4586 22.9226 13.3863C22.1862 13.2198 21.4157 13.3108 20.7372 13.6442H20.6615C20.3148 13.8375 19.9964 14.0786 19.7155 14.3605L19.0154 15.1055C18.6064 15.5459 18.2212 16.0082 17.8613 16.4903C17.568 16.8915 17.2653 17.2831 16.9625 17.6746L16.0165 18.8876C15.8651 19.0786 15.7138 19.2696 15.5529 19.4511C15.4574 19.5482 15.3491 19.6317 15.2312 19.6994C15.1979 19.7225 15.1603 19.7387 15.1206 19.7469C15.081 19.7551 15.0401 19.7552 15.0004 19.7472C14.9607 19.7392 14.923 19.7232 14.8895 19.7002C14.8561 19.6773 14.8275 19.6477 14.8056 19.6134C14.7666 19.5641 14.7347 19.5094 14.7109 19.4511C14.6307 19.2771 14.5857 19.0888 14.5785 18.8971C14.5785 18.6011 14.5785 18.305 14.5785 17.9994C14.5785 17.6937 14.5785 17.1589 14.5785 16.7386C14.5785 16.5094 14.5785 16.2802 14.5785 16.051C14.5785 15.5544 14.4934 15.0959 14.4461 14.5706C14.4341 14.4411 14.3988 14.3149 14.342 14.1981C14.0943 13.6868 13.6848 13.2735 13.1784 13.0234L13.0081 12.9661L12.5256 12.8228C12.1619 12.7095 11.7729 12.7095 11.4093 12.8228L10.993 12.947C10.9121 12.9691 10.8354 13.0046 10.766 13.052C10.5957 13.1762 10.4254 13.3099 10.274 13.4532C9.93145 13.7784 9.64105 14.1554 9.41313 14.5706C9.11985 15.0673 8.81709 15.5257 8.5522 16.0796C8.2873 16.6336 8.01297 17.1016 7.73861 17.6173L7.39805 18.2572C7.33183 18.3814 7.2467 18.5055 7.17101 18.6297C6.99776 18.9288 6.76207 19.1863 6.48036 19.3842C6.42444 19.4232 6.36409 19.4552 6.30061 19.4797C6.23052 19.5134 6.15076 19.5203 6.076 19.4993C6.00123 19.4782 5.93652 19.4305 5.89382 19.3651C5.77999 19.2212 5.71675 19.0431 5.71407 18.8589C5.71407 18.6106 5.71407 18.3527 5.71407 18.1044C5.71407 17.3594 5.69515 16.6113 5.65731 15.86C5.66325 15.5608 5.61519 15.2631 5.51544 14.9813C5.45868 14.8381 5.39244 14.7043 5.32622 14.5611C5.26866 14.4276 5.18161 14.3091 5.07175 14.2147C4.96189 14.1204 4.83216 14.0526 4.69239 14.0167L4.4937 13.9594C4.12336 13.8725 3.73824 13.8725 3.36791 13.9594L2.65837 14.0931C2.57591 14.1053 2.496 14.1311 2.42186 14.1695C2.19481 14.3032 1.96774 14.4465 1.75015 14.5897C1.6367 14.667 1.53475 14.7603 1.44741 14.8667C1.2979 15.0382 1.16488 15.2237 1.05009 15.4206C0.760687 15.8681 0.549518 16.3623 0.42573 16.8819C0.410117 16.9663 0.387968 17.0493 0.3595 17.1302C0.242964 17.4865 0.166804 17.855 0.13246 18.2286C0.0472259 18.8425 0.00296362 19.4615 0 20.0814C0 20.0814 0 20.0814 0 20.0814C0 20.5971 0 21.1033 0 21.6191C0 22.5741 6.92873e-06 23.5292 0.0662298 24.4175C0.0662298 24.8568 0.0662298 25.2866 0.0662298 25.7259C0.0662298 26.9962 0.0662252 28.2759 0.17975 29.5462C0.198757 29.7896 0.230312 30.0319 0.274331 30.2721C0.311844 30.4654 0.359232 30.6567 0.416261 30.8451C0.443775 30.9414 0.481848 31.0343 0.529781 31.1221C0.693853 31.3969 0.890849 31.6504 1.11632 31.8766C1.16733 31.9309 1.22448 31.979 1.2866 32.0198C1.59564 32.2444 1.95782 32.3828 2.3367 32.421H2.53538C3.09093 32.4707 3.64771 32.3402 4.12473 32.0485H4.18149C4.45056 31.8491 4.69233 31.6147 4.90049 31.3513C5.09664 31.1389 5.24225 30.8841 5.32622 30.6063C5.32261 30.5714 5.32261 30.5362 5.32622 30.5013C5.39244 30.3676 5.45863 30.2243 5.52485 30.0906L6.28173 28.3046C6.30495 28.2326 6.3239 28.1592 6.33849 28.0849C6.35302 28.02 6.37199 27.9562 6.39525 27.8939C6.5277 27.5883 6.68853 27.2922 6.81151 26.9388C6.9345 26.5855 7.10476 26.2703 7.25612 25.936C7.33412 25.78 7.39748 25.6169 7.44534 25.4489C7.46007 25.4057 7.47909 25.3641 7.5021 25.3248C7.64401 25.0096 7.7954 24.6849 7.9373 24.3697C8.03203 24.1533 8.13941 23.9428 8.25893 23.7393C8.419 23.4771 8.65758 23.2731 8.94011 23.1567C8.99964 23.1471 9.06032 23.1471 9.11985 23.1567C9.28026 23.1551 9.4358 23.2123 9.5576 23.3177C9.67939 23.4231 9.75913 23.5695 9.78204 23.7298C9.79015 23.8602 9.79015 23.991 9.78204 24.1214C9.78204 24.3506 9.78204 24.5798 9.72528 24.809C9.72528 25.2961 9.64016 25.7641 9.6307 26.2703C9.6307 27.2254 9.6307 28.1804 9.6307 29.0687C9.62754 29.3669 9.67228 29.6636 9.76316 29.9473C9.76316 30.0046 9.76316 30.0619 9.76316 30.1288C9.91287 30.6858 10.2467 31.1744 10.7092 31.5136L10.7849 31.5614L11.3336 31.8384C11.415 31.8772 11.5008 31.9061 11.589 31.9243C11.7971 31.9243 12.0052 32.0103 12.2134 32.0294C12.38 32.0475 12.5481 32.0475 12.7148 32.0294C13.1245 32.0056 13.5215 31.8774 13.8689 31.6569H13.9257C14.0794 31.5908 14.218 31.4932 14.3326 31.3704C14.4366 31.2653 14.5407 31.1603 14.6258 31.0552C14.8266 30.8468 14.9842 30.6 15.0894 30.3294C15.1094 30.279 15.1348 30.2309 15.165 30.1861C15.3296 29.8799 15.4689 29.5604 15.5813 29.231L15.7137 28.8872L16.1016 27.9321C16.1054 27.894 16.1054 27.8556 16.1016 27.8175C16.1281 27.6662 16.1726 27.5187 16.234 27.3782C16.234 27.2922 16.2908 27.2063 16.3192 27.1203L16.5273 26.5377L16.622 26.3085C16.7733 25.8883 16.9247 25.4776 17.1139 25.0765C17.1139 24.9905 17.1707 24.9045 17.2085 24.8186C17.2316 24.7526 17.26 24.6887 17.2936 24.6276L17.5207 24.2551C17.7105 23.9324 17.9901 23.6733 18.3248 23.5101C18.4016 23.4675 18.4879 23.4451 18.5755 23.4451C18.6632 23.4451 18.7494 23.4675 18.8263 23.5101C18.965 23.5893 19.0978 23.6787 19.2236 23.7775C19.2679 23.8092 19.3045 23.8505 19.3307 23.8985C19.3569 23.9465 19.372 23.9998 19.3749 24.0545C19.3749 24.1691 19.3749 24.2837 19.3749 24.3983C19.3749 24.8472 19.3749 25.2961 19.3749 25.7546C19.3749 26.7096 19.3749 27.6647 19.3749 28.6198C19.3902 29.0919 19.4634 29.5602 19.5925 30.0142C19.618 30.1036 19.6529 30.1901 19.6966 30.2721C19.8392 30.5667 20.0171 30.8426 20.2264 31.0934C20.4923 31.4178 20.8125 31.6926 21.1724 31.9052C21.3676 32.0224 21.5777 32.1124 21.7968 32.1727C22.2087 32.2775 22.6305 32.3383 23.055 32.3541C23.372 32.3477 23.6881 32.3189 24.0011 32.2682C24.3905 32.2127 24.7641 32.076 25.0985 31.867L25.9594 31.3608C26.2159 31.2142 26.4568 31.0414 26.6784 30.8451C27.0077 30.5566 27.3087 30.2368 27.5771 29.89C27.9372 29.4339 28.2539 28.9447 28.5232 28.4287V28.3524C28.5343 28.3346 28.5496 28.32 28.5678 28.3098C28.586 28.2997 28.6064 28.2944 28.6272 28.2944C28.648 28.2944 28.6684 28.2997 28.6866 28.3098C28.7048 28.32 28.7202 28.3346 28.7313 28.3524V28.4287C28.807 28.6102 28.9016 28.7917 28.9678 28.9731C29.0801 29.2653 29.2295 29.5414 29.4124 29.7945L30.1031 30.7496C30.3682 31.1316 30.6657 31.4895 30.9923 31.8193C31.3768 32.1876 31.8176 32.4907 32.2979 32.7171H32.4303L33.0452 32.8698C33.5261 33.0187 34.0402 33.0187 34.521 32.8698C34.6127 32.8344 34.7079 32.8088 34.8049 32.7934C35.0383 32.7614 35.2633 32.6835 35.4671 32.5642C35.7427 32.4221 36.0054 32.2559 36.2523 32.0676C36.676 31.7313 37.0629 31.3503 37.4065 30.931C37.6114 30.6859 37.7861 30.4165 37.9268 30.1288C38.0214 29.9282 38.1728 29.7659 38.2769 29.5653H38.3242C38.3398 29.5512 38.36 29.5434 38.3809 29.5434C38.4019 29.5434 38.4221 29.5512 38.4377 29.5653C38.4441 29.6 38.4441 29.6356 38.4377 29.6704C38.4431 29.7467 38.4431 29.8233 38.4377 29.8996C38.3399 30.3328 38.2798 30.7738 38.2579 31.2176C38.2579 31.3513 38.2579 31.4945 38.2579 31.6283C38.2607 31.6928 38.2464 31.7569 38.2165 31.814C38.1865 31.8711 38.1421 31.919 38.0876 31.953L37.7471 32.1822C37.3876 32.4305 37.0186 32.6693 36.6591 32.9272C36.2996 33.185 36.1861 33.3092 35.9401 33.4811C35.4748 33.8078 35.0264 34.1584 34.5967 34.5317C33.7204 35.2729 32.8954 36.0738 32.1276 36.9289C31.436 37.7094 30.8271 38.5609 30.3112 39.4694C30.1692 39.7177 30.0463 39.966 29.9138 40.2144C29.8637 40.3168 29.8195 40.422 29.7814 40.5296C29.6773 40.8161 29.5733 41.1026 29.4692 41.3891C29.3453 41.6956 29.2595 42.0164 29.2138 42.3442C29.2193 42.4109 29.2193 42.478 29.2138 42.5447C29.1304 42.83 29.0889 43.126 29.0908 43.4234C29.0908 43.901 29.0908 44.3785 29.0908 44.8465C29.1149 45.4428 29.2006 46.035 29.3462 46.6134C29.3431 46.6419 29.3431 46.6708 29.3462 46.6993C29.5071 47.0718 29.6016 47.4634 29.7719 47.8359C29.9422 48.2083 30.0652 48.4376 30.226 48.7336C30.5018 49.2096 30.8184 49.6602 31.1721 50.0803C31.5767 50.5643 32.0129 51.0206 32.4776 51.446C32.8085 51.7624 33.1627 52.0529 33.5372 52.3152L33.9913 52.6208C34.4392 52.9368 34.9105 53.2178 35.4009 53.4613C35.5832 53.5735 35.7858 53.6481 35.9969 53.6809C36.0497 53.6877 36.101 53.7039 36.1483 53.7287C36.607 53.93 37.1056 54.0215 37.6052 53.9961C37.9281 54.007 38.2499 53.9518 38.5512 53.8337C38.7355 53.7428 38.929 53.6724 39.1283 53.6236H39.2134C39.4414 53.5059 39.6569 53.3651 39.8567 53.2034C40.3471 52.7792 40.7518 52.2636 41.0488 51.6848C41.219 51.3601 41.3704 51.0067 41.5218 50.6724C41.5547 50.6122 41.5801 50.548 41.5974 50.4814C41.6361 50.2935 41.6965 50.1108 41.7772 49.937C41.8031 49.8651 41.8253 49.7917 41.8434 49.7174C41.9002 49.5263 41.9569 49.3353 42.0232 49.1539C42.0931 48.9687 42.1439 48.7766 42.1746 48.5808C42.1833 48.4898 42.2023 48.4001 42.2313 48.3134C42.3137 48.0679 42.3739 47.8154 42.4111 47.5589C42.4111 47.4061 42.4773 47.2628 42.5151 47.11C42.6069 46.7981 42.6703 46.4784 42.7043 46.1549C42.7253 45.9358 42.7632 45.7186 42.8179 45.5055C42.8758 45.2837 42.9106 45.0565 42.9219 44.8274C42.9332 44.5379 42.9712 44.2502 43.0354 43.9678C43.1796 43.3729 43.2652 42.7651 43.2909 42.1532C43.2909 41.9812 43.2909 41.7998 43.3476 41.6279C43.4044 41.456 43.4139 41.1312 43.4233 40.8734C43.4474 40.3404 43.5138 39.8102 43.622 39.2879C43.7197 38.7937 43.7767 38.2922 43.7922 37.7885C43.8017 37.4366 43.8333 37.0857 43.8869 36.7379C43.98 36.2048 44.0306 35.6651 44.0382 35.1238C44.037 35.0398 44.0532 34.9565 44.0857 34.8792C44.1183 34.8019 44.1666 34.7323 44.2274 34.6749L44.4167 34.5126C44.7099 34.2929 44.9937 34.0732 45.2965 33.8727C45.8681 33.4737 46.4689 33.1192 47.0939 32.8125C47.5022 32.5946 47.9223 32.4002 48.3522 32.23C48.6278 32.1004 48.9165 32.0012 49.2131 31.9339C49.3161 31.9128 49.4222 31.9128 49.5253 31.9339C49.7865 31.9735 50.0337 32.0786 50.2443 32.2395C50.4965 32.4519 50.6972 32.7198 50.8308 33.0227L50.9727 33.3092L51.3417 33.9682C51.5663 34.3843 51.8159 34.7862 52.0891 35.1716L52.458 35.6969C52.6661 35.9834 52.8648 36.289 53.1013 36.5564C53.7009 37.2846 54.3523 37.9677 55.0502 38.6003C55.3718 38.8868 55.684 39.1733 55.9962 39.4408C56.3084 39.7082 56.5638 39.8705 56.8666 40.0711C57.1693 40.2717 57.4531 40.5009 57.8126 40.6824C58.1721 40.8638 58.6451 41.1504 59.0614 41.37C59.3168 41.5133 59.5912 41.6279 59.8561 41.7616C60.3813 42.0149 60.9215 42.235 61.4738 42.4206C61.663 42.4874 61.8616 42.5448 62.0508 42.6212C62.2742 42.7176 62.5099 42.7819 62.751 42.8122C62.8413 42.8254 62.93 42.8478 63.0158 42.879C63.3815 43.0051 63.7586 43.0947 64.1416 43.1464C64.2533 43.1615 64.3639 43.1838 64.4728 43.2133C64.7307 43.2745 64.9934 43.3128 65.2579 43.3279L66.5257 43.4234C67.2655 43.4838 68.009 43.4838 68.7488 43.4234L70.2436 43.3088C70.4328 43.3088 70.6125 43.2515 70.8017 43.2229L71.2653 43.1274L72.06 42.9459C72.3053 42.8706 72.5549 42.81 72.8074 42.7644C72.8978 42.7518 72.9866 42.7293 73.0723 42.6976C73.4601 42.5543 73.848 42.4015 74.2453 42.2773C74.6427 42.1532 75.2671 41.8189 75.7874 41.6183C75.8621 41.5845 75.9347 41.5462 76.005 41.5037L76.6483 41.1599C77.0929 40.9307 77.5187 40.6632 77.9349 40.3958C78.1525 40.2621 78.3606 40.0998 78.5687 39.9565C78.7769 39.8132 78.862 39.7655 78.9945 39.6509C80.171 38.7148 81.2517 37.6622 82.2205 36.5087C82.4304 36.2656 82.6262 36.0105 82.807 35.7446C83.053 35.3721 83.3179 35.0092 83.5544 34.6272C83.7909 34.2452 84.1504 33.6052 84.4247 33.08C84.5667 32.8125 84.6802 32.526 84.8221 32.2586C84.964 31.9912 85.087 31.5614 85.2478 31.2271C85.2863 31.1341 85.3179 31.0383 85.3424 30.9406L85.3992 30.74L85.8155 29.4793C85.8216 29.419 85.8216 29.3582 85.8155 29.2979C85.8511 29.0402 85.9145 28.7871 86.0046 28.5434C86.0816 28.3181 86.1294 28.0838 86.1466 27.8462C86.1466 27.5023 86.2412 27.1681 86.2885 26.8242C86.3255 26.5997 86.3507 26.3734 86.3641 26.1461C86.4209 25.1242 86.3641 24.1023 86.3641 23.0803C86.4151 22.6206 86.4278 22.1574 86.402 21.6955ZM38.1065 38.7913C38.1111 38.8453 38.1111 38.8997 38.1065 38.9537C38.0326 39.4148 37.9946 39.881 37.993 40.3481C37.993 40.7492 37.993 41.1408 37.993 41.5419C37.9691 41.8244 37.928 42.1051 37.87 42.3824C37.7829 42.7944 37.7291 43.2128 37.7092 43.6335C37.7011 43.8856 37.663 44.1357 37.5957 44.3785C37.5211 44.6179 37.4704 44.8643 37.4443 45.1139C37.4305 45.2282 37.393 45.3383 37.3343 45.437C37.2757 45.5357 37.1971 45.6209 37.1037 45.6869C37.0597 45.7234 37.0046 45.7433 36.9477 45.7433C36.8907 45.7433 36.8356 45.7234 36.7916 45.6869C36.6741 45.6201 36.5604 45.5468 36.451 45.4673C36.0723 45.1723 35.7704 44.7888 35.5711 44.3498C35.3599 43.9478 35.2587 43.4961 35.2779 43.0414C35.2779 42.9459 35.2779 42.8408 35.2779 42.7453C35.2818 42.6162 35.3009 42.4879 35.3346 42.3633C35.3997 42.1022 35.4851 41.8467 35.5901 41.5992C35.6658 41.4655 35.7225 41.3223 35.7888 41.1886L35.8455 41.093C36.1683 40.6 36.5256 40.1308 36.9146 39.6891L37.5673 38.9537L37.7092 38.8104C37.7617 38.7661 37.8188 38.7277 37.8795 38.6958C38.0309 38.5716 38.1065 38.6194 38.1065 38.7913Z" fill="white"/>
<path d="M91.9934 8.5536C91.9886 8.4845 91.9692 8.41724 91.9366 8.3563C91.904 8.29537 91.8588 8.24216 91.8042 8.20022C91.6705 8.08765 91.5049 8.02076 91.3312 8.0092H85.0968C84.9766 8.00202 84.8598 7.96602 84.7562 7.90415C84.5592 7.79244 84.3882 7.63937 84.2548 7.45527C84.1794 7.35921 84.1334 7.24304 84.1223 7.12098C84.1223 6.98727 84.1223 6.84402 84.1223 6.71031C84.1223 5.77434 84.1223 4.83517 84.1223 3.89283C84.1223 3.44076 84.1223 2.99187 84.1223 2.54617C84.1223 1.99223 84.1223 1.42873 84.1223 0.874789C84.121 0.643222 84.0446 0.418489 83.9048 0.234905C83.8681 0.176716 83.8196 0.127041 83.7626 0.0891727C83.7055 0.0513045 83.6411 0.0260959 83.5736 0.0152278C83.4245 -0.0110519 83.2715 -0.0032428 83.1258 0.0380787C82.9801 0.0794003 82.8454 0.153182 82.7317 0.253996L82.4857 0.492765L78.7015 4.31306L77.9447 5.09623C77.5811 5.49612 77.3097 5.97231 77.15 6.49063C77.0933 6.65299 77.0649 6.83446 77.0082 6.99682C76.9224 7.29117 76.8841 7.59753 76.8946 7.90415C76.8946 8.33393 76.8946 8.76371 76.8946 9.18395C76.8946 9.60418 76.8946 10.2727 76.8946 10.8076C76.8946 11.3424 76.8946 11.2565 76.6108 11.5525L74.0281 14.1312L72.486 15.6211L70.348 17.7223L69.7993 18.2762C69.752 18.3314 69.6916 18.3735 69.6237 18.3985C69.5559 18.4236 69.4828 18.4308 69.4114 18.4195L68.3519 18.2954C68.0375 18.2591 67.7201 18.2591 67.4058 18.2954L66.4598 18.4004C66.3694 18.4081 66.2804 18.4273 66.1948 18.4577L65.4853 18.7633C65.315 18.8397 65.1542 18.9066 64.9934 19.0021C64.5106 19.2757 64.0706 19.6201 63.6879 20.024C63.1672 20.5807 62.7506 21.2278 62.458 21.9342C62.4357 21.9903 62.4168 22.0477 62.4013 22.1061C62.335 22.3449 62.2688 22.5741 62.1931 22.8128C62.1225 23.0222 62.0843 23.2412 62.0796 23.4623C62.0796 23.8444 62.0796 24.2264 62.0796 24.6084C62.0798 24.8618 62.1214 25.1135 62.2026 25.3533C62.2783 25.573 62.3256 25.7927 62.3918 26.0124C62.4115 26.0874 62.4367 26.1609 62.4674 26.232C62.5904 26.509 62.7135 26.786 62.8743 27.0534C63.3069 27.7847 63.8871 28.416 64.5772 28.9062C64.7766 29.0446 64.9852 29.1691 65.2015 29.2787C65.3941 29.3838 65.5932 29.4764 65.7975 29.5557C66.1467 29.6815 66.5039 29.7836 66.8666 29.8613H67.0652C67.6103 29.8936 68.1568 29.8936 68.7019 29.8613C68.8232 29.8532 68.9435 29.8341 69.0614 29.804C69.5492 29.667 70.0266 29.4946 70.4899 29.2882L70.6697 29.1928C71.0062 29.0096 71.3233 28.792 71.6157 28.5433C72.2866 27.9917 72.8238 27.2927 73.1861 26.4995C73.3186 26.2034 73.4037 25.8882 73.5078 25.5444C73.5113 25.5063 73.5113 25.4679 73.5078 25.4298L73.6308 24.5416C73.6722 24.2534 73.6722 23.9606 73.6308 23.6724L73.5361 23.0134C73.5361 22.9179 73.5361 22.8192 73.5361 22.7174C73.5281 22.6572 73.5352 22.5959 73.5566 22.5392C73.5781 22.4824 73.6134 22.4321 73.6591 22.3926L73.9997 22.0584L77.9731 18.0661L80.6126 15.4206L80.8017 15.2487C80.9362 15.1353 81.1097 15.0804 81.2842 15.0959C81.5586 15.0959 81.8424 15.0959 82.1262 15.0959C82.7128 15.0959 83.2898 15.0959 83.8764 15.0959C84.3063 15.1049 84.7363 15.0826 85.163 15.029C85.3808 15.0053 85.5942 14.9506 85.7969 14.8667C86.2402 14.6909 86.6499 14.4389 87.0078 14.1217L87.67 13.4913L88.1809 12.966L88.9661 12.1733L90.5838 10.5402C90.9717 10.1486 91.3501 9.757 91.738 9.37497C91.8351 9.26372 91.908 9.13312 91.952 8.99164C91.996 8.85016 92.0101 8.70092 91.9934 8.5536Z" fill="white"/>
<path d="M51.0483 17.5307C51.1444 17.796 51.2817 18.0443 51.4551 18.2661C51.648 18.5008 51.867 18.7123 52.1078 18.8964C52.3845 19.0842 52.6874 19.229 53.0065 19.3262C53.4283 19.461 53.881 19.461 54.3027 19.3262L54.5013 19.2689C55.1494 19.0888 55.7046 18.665 56.0528 18.0846C56.2326 17.7981 56.4218 17.502 56.5826 17.2059C56.8819 16.6937 57.2237 16.2081 57.6043 15.7542C58.0049 15.2666 58.4379 14.8071 58.9004 14.3789C59.1748 14.1115 59.4775 13.8918 59.7802 13.6531C60.0152 13.4598 60.2616 13.2812 60.5181 13.1182L61.1141 12.7458C61.3412 12.612 61.5777 12.4783 61.8142 12.3637L62.7602 11.9435C62.832 11.9029 62.9083 11.8709 62.9873 11.848C63.1172 11.8151 63.2438 11.7703 63.3657 11.7143L63.9428 11.5137C64.0185 11.5137 64.1036 11.5137 64.1793 11.4468C64.3929 11.3645 64.6151 11.3069 64.8415 11.2749L65.3145 11.189C65.6173 11.1412 65.92 11.0744 66.2606 11.0362C66.6012 10.998 66.8755 10.9789 67.2066 10.9502C67.638 10.9161 68.0713 10.9161 68.5027 10.9502L69.3163 11.0171C69.6707 11.0376 70.0223 11.0919 70.3664 11.1794C70.8001 11.2825 71.2477 11.3115 71.6909 11.2654C71.7744 11.2592 71.857 11.2432 71.9368 11.2176C72.3067 11.1052 72.6553 10.9308 72.9681 10.7019C73.1543 10.5211 73.3107 10.3116 73.4316 10.0811C73.6447 9.77534 73.7899 9.42675 73.8573 9.05915C73.8993 8.91976 73.9216 8.77508 73.9236 8.62939C73.9311 8.34801 73.8927 8.06727 73.81 7.79845C73.6412 7.19152 73.2787 6.65776 72.7788 6.27988C72.6558 6.18438 72.5234 6.10798 72.4004 6.02202C72.3009 5.94992 72.1884 5.89802 72.0693 5.86921C71.6909 5.78325 71.3219 5.68774 70.934 5.63044C70.5462 5.57314 70.2907 5.52539 69.988 5.45853C69.7604 5.41006 69.5296 5.37814 69.2974 5.36302C68.4554 5.31527 67.604 5.36302 66.762 5.36302C66.2313 5.37215 65.7026 5.42968 65.1821 5.53493L64.7375 5.61135C64.501 5.61135 64.255 5.68774 64.0279 5.74504C63.8009 5.80235 63.5454 5.85011 63.2995 5.89786L62.8549 6.00293L62.3156 6.17484L61.8899 6.3181C61.765 6.37017 61.635 6.40859 61.502 6.4327C61.4205 6.44889 61.3412 6.47454 61.2655 6.50912L60.0735 7.01531C59.837 7.12037 59.6005 7.22542 59.3734 7.34003C59.1464 7.45464 58.8436 7.62655 58.5787 7.77936C58.3138 7.93217 57.8692 8.19004 57.5286 8.40971C57.1313 8.64875 56.7519 8.91689 56.3934 9.21197C56.1853 9.39343 55.9677 9.5558 55.7501 9.72772C55.5325 9.89963 55.2298 10.1384 54.9838 10.3772C54.5675 10.7783 54.1702 11.189 53.7728 11.6187C53.5647 11.848 53.3755 12.0963 53.1769 12.3351C52.9782 12.5738 52.9687 12.6216 52.8647 12.7553C52.6235 13.0609 52.3992 13.3798 52.193 13.7104C51.7818 14.323 51.409 14.961 51.0766 15.6205C51.0283 15.7163 50.9963 15.8196 50.9821 15.9261C50.9821 16.1936 50.9253 16.461 50.8969 16.7189C50.8685 16.9767 50.9442 17.2059 50.9726 17.4543C50.9957 17.4818 51.021 17.5073 51.0483 17.5307Z" fill="white"/>
</g>
</svg>
