<svg width="50" height="50" viewBox="0 0 50 50" fill="none" xmlns="http://www.w3.org/2000/svg">
<g opacity="0.7">
<path d="M50 12.6687C50 12.3909 50 11.8056 50 11.3393C49.979 10.267 49.8929 9.19684 49.7422 8.13493C49.5643 7.18936 49.2608 6.27184 48.8397 5.40676C47.9059 3.57621 46.4119 2.09206 44.5756 1.17069C43.7172 0.750956 42.8068 0.447332 41.8683 0.267876C40.7972 0.112276 39.7175 0.0228016 38.6355 0H37.3066H12.6735H11.3447C10.2728 0.0209257 9.20308 0.107073 8.1416 0.257946C7.19641 0.435929 6.27926 0.739579 5.41451 1.16076C3.58405 2.08811 2.09715 3.57557 1.17016 5.40676C0.750489 6.26545 0.447025 7.17627 0.267755 8.11513C0.112216 9.18665 0.0227925 10.2667 0 11.3492C0 11.8056 0 12.4008 0 12.6786V37.3215C0 37.5992 0 38.1845 0 38.6508C0.0209907 39.7232 0.107089 40.7932 0.257829 41.8551C0.435626 42.8007 0.73913 43.7183 1.16025 44.5833C2.08466 46.413 3.56792 47.9003 5.39469 48.8294C6.25308 49.2491 7.16349 49.5527 8.10194 49.7321C9.17304 49.8877 10.2527 49.9772 11.3348 50H12.6636H37.2967H38.6255C39.6975 49.9791 40.7672 49.8929 41.8286 49.7421C42.7738 49.5641 43.691 49.2605 44.5557 48.8393C46.3862 47.9119 47.8731 46.4244 48.8001 44.5932C49.2196 43.7345 49.5231 42.8238 49.7025 41.8849C49.8581 40.8134 49.9475 39.7333 49.9703 38.6508C49.9703 38.1944 49.9703 37.5992 49.9703 37.3215L50 12.6687ZM25.5454 42.4306C22.5521 42.43 19.6065 41.6796 16.9774 40.248L7.46727 42.7381L10.0159 33.4425C8.04508 30.0201 7.25791 26.0428 7.77638 22.1274C8.29486 18.2119 10.09 14.5769 12.8836 11.7859C15.6771 8.99487 19.313 7.20372 23.2276 6.69013C27.1422 6.17653 31.1168 6.96915 34.5353 8.94516C37.9538 10.9212 40.6252 13.9702 42.1354 17.6195C43.6456 21.2688 43.9102 25.3146 42.8882 29.1296C41.8663 32.9447 39.6148 36.3159 36.4828 38.7207C33.3508 41.1255 29.5134 42.4295 25.5653 42.4306H25.5454Z" fill="white"/>
<path d="M25.556 9.57304C22.8914 9.56389 20.2733 10.2709 17.9753 11.6203C15.6773 12.9696 13.7838 14.9116 12.4927 17.2434C11.2016 19.5752 10.5603 22.2112 10.6359 24.8757C10.7114 27.5403 11.501 30.1356 12.9221 32.3905L13.2791 32.956L11.7718 38.4619L17.4144 36.9837L17.9598 37.3111C20.2558 38.6741 22.8762 39.3937 25.5461 39.3945V39.3945C29.5004 39.3945 33.2927 37.823 36.0889 35.0258C38.885 32.2285 40.4558 28.4347 40.4558 24.4788C40.4558 20.5229 38.885 16.7291 36.0889 13.9318C33.2927 11.1346 29.5004 9.56311 25.5461 9.56311L25.556 9.57304ZM34.3223 30.8925C33.9455 31.9441 32.1605 32.8766 31.2978 33.0254C30.3546 33.1867 29.3868 33.1256 28.4715 32.8469C27.6017 32.5618 26.7476 32.2307 25.913 31.8548C21.4207 29.8707 18.4755 25.3865 18.2573 25.0889C17.2083 23.756 16.5707 22.146 16.4227 20.456C16.4101 19.7579 16.5429 19.0649 16.8126 18.421C17.0824 17.777 17.4832 17.1964 17.9895 16.7159C18.1394 16.5435 18.3235 16.4042 18.53 16.3069C18.7366 16.2095 18.9612 16.1563 19.1895 16.1504H20.0522C20.3299 16.1504 20.6968 16.0413 21.0439 16.9243C21.391 17.8072 22.3132 20.0294 22.4223 20.2576C22.4874 20.3779 22.5215 20.5126 22.5215 20.6494C22.5215 20.7862 22.4874 20.9209 22.4223 21.0413C22.3097 21.3093 22.1594 21.5598 21.9761 21.7853C21.748 22.0433 21.51 22.3706 21.3017 22.569C21.0935 22.7675 20.8456 23.0354 21.1034 23.4818C21.7753 24.6341 22.6141 25.6805 23.5925 26.5869C24.6545 27.5309 25.8726 28.2829 27.1922 28.8092C27.6385 29.0373 27.9062 28.9977 28.1839 28.7C28.4616 28.4024 29.3045 27.3905 29.602 26.9441C29.8995 26.4976 30.197 26.5671 30.5937 26.7159C30.9903 26.8647 33.2117 27.946 33.6579 28.1742C34.1042 28.4024 34.4017 28.5116 34.5207 28.7C34.6805 29.4364 34.6148 30.2039 34.3323 30.9024L34.3223 30.8925Z" fill="white"/>
</g>
</svg>
