<svg width="69" height="58" viewBox="0 0 69 58" fill="none" xmlns="http://www.w3.org/2000/svg">
<g opacity="0.7">
<path d="M15.451 46.2985C18.731 44.1643 22.2414 41.2942 22.2414 35.7012C22.2414 29.0594 17.2753 25.4258 11.0378 25.4258C8.12631 25.4258 0.377757 26.3457 0.377757 36.9339H6.6153C6.6153 34.5237 6.79956 30.844 11.305 30.844C11.9096 30.8281 12.511 30.937 13.0716 31.1639C13.6322 31.3907 14.1398 31.7307 14.5627 32.1624C14.9856 32.5942 15.3147 33.1085 15.5294 33.6731C15.7441 34.2376 15.8397 34.8404 15.8104 35.4436C15.8104 39.1232 13.4886 40.7607 7.56429 45.0383C0.506749 50.1806 0.193483 54.1822 0 57.9998H22.2414V52.3515H8.07103C8.84496 50.8521 11.0378 49.2239 15.451 46.2985Z" fill="white"/>
<path d="M41.5066 25.4258H34.2188L22.2412 45.2498V50.7693H35.0848V57.9998H41.5343V50.7693H45.2197V45.627H41.5343L41.5066 25.4258ZM35.0572 45.6638H27.0414L35.1033 31.7915H35.1954C35.2322 32.7942 35.0848 37.7526 35.0848 45.6638H35.0572Z" fill="white"/>
<path d="M10.5857 16.6046C11.1325 16.1621 11.5704 15.6003 11.8659 14.9624C12.1614 14.3245 12.3065 13.6276 12.2902 12.925C12.2941 11.8962 11.941 10.8978 11.291 10.0995C10.6409 9.30126 9.73409 8.75238 8.72458 8.5462V8.49101C9.55638 8.24462 10.2887 7.74167 10.8167 7.05424C11.3447 6.3668 11.6412 5.53017 11.6637 4.66418C11.6845 3.99876 11.5241 3.34019 11.1996 2.75861C10.8751 2.17703 10.3986 1.69425 9.82098 1.3617C8.61401 0.524587 7.14907 0.239414 4.75356 0.239414C3.17952 0.225005 1.60724 0.348123 0.0546875 0.607372V17.9753C1.36887 18.1388 2.69213 18.2187 4.01648 18.2145C7.25963 18.2513 9.33267 17.6993 10.5857 16.6046ZM3.27019 2.80597C3.87817 2.6984 4.49583 2.65522 5.11289 2.67717C7.15828 2.67717 8.42053 3.44069 8.42053 5.08733C8.42053 6.57758 7.15829 7.62629 4.92862 7.62629H3.27941L3.27019 2.80597ZM3.27019 9.98126H4.82727C7.05694 9.98126 8.84435 10.8184 8.84435 12.8606C8.84435 14.9028 7.00165 15.8227 4.93783 15.8227C4.36852 15.8292 3.79934 15.8015 3.23334 15.7399L3.27019 9.98126Z" fill="white"/>
<path d="M18.2983 5.31641H15.0459V18.0756H18.2983V5.31641Z" fill="white"/>
<path d="M16.6489 3.47664C16.9916 3.46758 17.3239 3.35774 17.6044 3.16087C17.8848 2.964 18.1008 2.68887 18.2253 2.36996C18.3497 2.05104 18.3772 1.70254 18.3041 1.36813C18.2311 1.03372 18.0608 0.72827 17.8146 0.490076C17.5684 0.251882 17.2573 0.0915388 16.9202 0.0291388C16.5832 -0.0332613 16.2352 0.00505869 15.9198 0.139299C15.6045 0.273539 15.3358 0.497718 15.1476 0.783752C14.9593 1.06979 14.8598 1.40496 14.8614 1.74723C14.8587 1.9798 14.9035 2.21048 14.9931 2.42518C15.0827 2.63988 15.2152 2.83408 15.3824 2.99594C15.5497 3.1578 15.7483 3.28391 15.966 3.36656C16.1838 3.44921 16.4161 3.48666 16.6489 3.47664Z" fill="white"/>
<path d="M22.3338 13.7155C22.2067 14.9848 22.5618 16.2554 23.3288 17.2756C23.6937 17.6292 24.1271 17.9046 24.6024 18.085C25.0777 18.2653 25.5849 18.3467 26.0929 18.3243C26.8819 18.3504 27.6698 18.2447 28.4239 18.0115L28.3686 15.5462C27.9568 15.6544 27.5322 15.707 27.1064 15.7025C25.8718 15.7025 25.4572 14.893 25.4572 13.3476V7.71773H28.5253V5.30757H25.4664V1.62793L22.3154 2.39144V5.27077H20.4727V7.68092H22.3154L22.3338 13.7155Z" fill="white"/>
<path d="M30.975 18.0665H34.1997V11.5076C34.2033 11.174 34.2372 10.8415 34.301 10.5141C34.4 9.82594 34.7481 9.19786 35.2795 8.74865C35.8109 8.29944 36.4887 8.06023 37.1848 8.07629C37.4946 8.07817 37.8034 8.1121 38.1062 8.17749V5.06819C37.8553 5.01172 37.5987 4.98395 37.3415 4.98541C36.5433 5.02225 35.7768 5.30847 35.1503 5.80363C34.5237 6.2988 34.0687 6.97792 33.8496 7.74514H33.7482L33.6469 5.30738H30.8828C30.9657 6.45727 30.9842 7.68995 30.9842 9.41938L30.975 18.0665Z" fill="white"/>
<path d="M43.561 5.31641H40.3086V18.0756H43.561V5.31641Z" fill="white"/>
<path d="M41.9116 3.47664C42.2543 3.46758 42.5866 3.35774 42.8671 3.16087C43.1475 2.964 43.3635 2.68887 43.488 2.36996C43.6124 2.05104 43.6399 1.70254 43.5668 1.36813C43.4938 1.03372 43.3235 0.72827 43.0773 0.490076C42.8311 0.251882 42.52 0.0915388 42.1829 0.0291388C41.8459 -0.0332613 41.4979 0.00505869 41.1825 0.139299C40.8672 0.273539 40.5985 0.497718 40.4102 0.783752C40.222 1.06979 40.1224 1.40496 40.1241 1.74723C40.1214 1.9798 40.1662 2.21048 40.2558 2.42518C40.3454 2.63988 40.4779 2.83408 40.6451 2.99594C40.8124 3.1578 41.011 3.28391 41.2287 3.36656C41.4465 3.44921 41.6788 3.48666 41.9116 3.47664Z" fill="white"/>
<path d="M48.997 18.0668L50.462 15.5278C50.8858 14.8195 51.2451 14.1939 51.6136 13.458H51.6689C52.0375 14.1663 52.406 14.8471 52.8206 15.5278L54.3961 18.0668H58.0815L53.7235 11.4434L57.9986 5.3168H54.479L53.0602 7.67176C52.6916 8.3249 52.3231 8.97804 51.9545 9.68637H51.8163C51.4478 9.03323 51.0793 8.39851 50.6647 7.71778L49.1444 5.30762H45.5512L49.8262 11.5722L45.3945 18.0668H48.997Z" fill="white"/>
<path d="M58.1829 22.6475C56.0435 22.6475 53.9522 23.2809 52.1734 24.4675C50.3947 25.6542 49.0083 27.3409 48.1896 29.3143C47.3709 31.2877 47.1567 33.4592 47.5741 35.5541C47.9914 37.6491 49.0216 39.5734 50.5343 41.0838C52.0471 42.5942 53.9744 43.6227 56.0726 44.0394C58.1709 44.4561 60.3457 44.2423 62.3222 43.4249C64.2987 42.6075 65.988 41.2233 67.1766 39.4472C68.3651 37.6712 68.9995 35.5832 68.9995 33.4472C68.9971 30.5837 67.8567 27.8381 65.8287 25.8133C63.8007 23.7885 61.0509 22.6499 58.1829 22.6475ZM58.1829 42.2324C56.4426 42.2324 54.7414 41.7171 53.2945 40.7518C51.8475 39.7865 50.7197 38.4144 50.0537 36.8092C49.3878 35.2039 49.2135 33.4375 49.553 31.7333C49.8925 30.0292 50.7306 28.4638 51.9611 27.2352C53.1917 26.0066 54.7595 25.1698 56.4663 24.8309C58.1731 24.4919 59.9423 24.6659 61.55 25.3308C63.1578 25.9957 64.532 27.1218 65.4989 28.5665C66.4657 30.0112 66.9817 31.7097 66.9817 33.4472C66.9793 35.7764 66.0515 38.0096 64.4019 39.6566C62.7523 41.3036 60.5157 42.2299 58.1829 42.2324Z" fill="white"/>
<path d="M58.782 28.2959H56.7734V34.2569H62.753V32.2515H58.782V28.2959Z" fill="white"/>
</g>
</svg>
