<svg width="50" height="50" viewBox="0 0 50 50" fill="none" xmlns="http://www.w3.org/2000/svg">
<g opacity="0.7">
<path d="M50 12.6687C50 12.3909 50 11.8056 50 11.3393C49.979 10.267 49.8929 9.19684 49.7422 8.13493C49.5643 7.18936 49.2608 6.27184 48.8397 5.40676C47.9059 3.57621 46.4119 2.09206 44.5756 1.17069C43.7172 0.750956 42.8068 0.447332 41.8683 0.267876C40.7972 0.112276 39.7175 0.0228016 38.6355 0H37.3066H12.6735H11.3447C10.2728 0.0209257 9.20308 0.107073 8.1416 0.257946C7.19641 0.435929 6.27926 0.739579 5.41451 1.16076C3.58405 2.08811 2.09715 3.57557 1.17016 5.40676C0.750489 6.26545 0.447025 7.17627 0.267755 8.11513C0.112216 9.18665 0.0227925 10.2667 0 11.3492C0 11.8056 0 12.4008 0 12.6786V37.3215C0 37.5992 0 38.1845 0 38.6508C0.0209907 39.7232 0.107089 40.7932 0.257829 41.8551C0.435626 42.8007 0.73913 43.7183 1.16025 44.5833C2.08466 46.413 3.56792 47.9003 5.39469 48.8294C6.25308 49.2491 7.16349 49.5527 8.10194 49.7321C9.17304 49.8877 10.2527 49.9772 11.3348 50H12.6636H37.2967H38.6255C39.6975 49.9791 40.7672 49.8929 41.8286 49.7421C42.7738 49.5641 43.691 49.2605 44.5557 48.8393C46.3862 47.9119 47.8731 46.4244 48.8001 44.5932C49.2196 43.7345 49.5231 42.8238 49.7025 41.8849C49.8581 40.8134 49.9475 39.7333 49.9703 38.6508C49.9703 38.1944 49.9703 37.5992 49.9703 37.3215L50 12.6687ZM25.5454 42.4306C22.5521 42.43 19.6065 41.6796 16.9774 40.248L7.46727 42.7381L10.0159 33.4425C8.04508 30.0201 7.25791 26.0428 7.77638 22.1274C8.29486 18.2119 10.09 14.5769 12.8836 11.7859C15.6771 8.99487 19.313 7.20372 23.2276 6.69013C27.1422 6.17653 31.1168 6.96915 34.5353 8.94516C37.9538 10.9212 40.6252 13.9702 42.1354 17.6195C43.6456 21.2688 43.9102 25.3146 42.8882 29.1296C41.8663 32.9447 39.6148 36.3159 36.4828 38.7207C33.3508 41.1255 29.5134 42.4295 25.5653 42.4306H25.5454Z" fill="white"/>
<path d="M25.556 9.57341C22.8914 9.56426 20.2733 10.2713 17.9753 11.6206C15.6773 12.9699 13.7838 14.912 12.4927 17.2438C11.2016 19.5756 10.5603 22.2115 10.6359 24.8761C10.7114 27.5406 11.501 30.136 12.9221 32.3909L13.2791 32.9563L11.7718 38.4623L17.4144 36.9841L17.9598 37.3115C20.2558 38.6744 22.8762 39.394 25.5461 39.3948C29.5004 39.3948 33.2927 37.8234 36.0889 35.0261C38.885 32.2289 40.4558 28.4351 40.4558 24.4792C40.4558 20.5233 38.885 16.7294 36.0889 13.9322C33.2927 11.135 29.5004 9.56348 25.5461 9.56348L25.556 9.57341ZM34.3223 30.8928C33.9455 31.9444 32.1605 32.877 31.2978 33.0258C30.3546 33.1871 29.3869 33.1259 28.4715 32.8472C27.6017 32.5622 26.7476 32.231 25.913 31.8552C21.4207 29.871 18.4755 25.3869 18.2573 25.0893C17.2083 23.7564 16.5707 22.1463 16.4227 20.4564C16.4101 19.7583 16.5429 19.0652 16.8126 18.4213C17.0824 17.7774 17.4832 17.1968 17.9895 16.7163C18.1394 16.5439 18.3235 16.4046 18.53 16.3073C18.7366 16.2099 18.9612 16.1566 19.1895 16.1508H20.0522C20.3299 16.1508 20.6968 16.0417 21.0439 16.9246C21.391 17.8076 22.3132 20.0298 22.4223 20.2579C22.4874 20.3783 22.5215 20.5129 22.5215 20.6498C22.5215 20.7866 22.4874 20.9213 22.4223 21.0417C22.3097 21.3096 22.1594 21.5602 21.9761 21.7857C21.748 22.0436 21.51 22.371 21.3017 22.5694C21.0935 22.7678 20.8456 23.0357 21.1034 23.4822C21.7753 24.6344 22.6141 25.6809 23.5925 26.5873C24.6545 27.5313 25.8726 28.2833 27.1922 28.8095C27.6385 29.0377 27.9062 28.998 28.1839 28.7004C28.4616 28.4028 29.3045 27.3909 29.602 26.9444C29.8995 26.498 30.197 26.5675 30.5937 26.7163C30.9903 26.8651 33.2117 27.9464 33.6579 28.1746C34.1042 28.4028 34.4017 28.5119 34.5207 28.7004C34.6805 29.4368 34.6148 30.2042 34.3323 30.9028L34.3223 30.8928Z" fill="white"/>
</g>
</svg>
