<svg width="140" height="36" viewBox="0 0 140 36" fill="none" xmlns="http://www.w3.org/2000/svg">
<g opacity="0.7">
<path d="M25.0798 3.58036L3.50753 25.6611C1.12783 22.7242 -0.117731 18.9877 0.0087709 15.1652C0.135273 11.3427 1.62497 7.7021 4.19331 4.93883C6.86369 2.03684 10.5022 0.283513 14.3771 0.0314877C18.2521 -0.220538 22.076 1.04742 25.0798 3.58036Z" fill="white"/>
<path d="M27.9872 31.2714C21.4126 37.2732 10.1569 37.8719 2.69531 31.2714L15.3673 18.0322L27.9872 31.2714ZM19.4 26.8814C19.3168 26.7564 19.2272 26.636 19.1317 26.5207C17.9614 25.3157 16.7911 24.1184 15.6282 22.9058C15.3822 22.6525 15.2332 22.7062 15.017 22.9058C13.8765 24.0954 12.7211 25.2697 11.5806 26.4593C11.4837 26.559 11.4092 26.6742 11.2601 26.8584L19.4 26.8814Z" fill="white"/>
<path d="M17.7598 15.6912L27.2116 5.76758C29.4645 8.55636 30.7016 12.0671 30.7098 15.6945C30.718 19.3218 29.4966 22.8384 27.2563 25.6379L17.7598 15.6912Z" fill="white"/>
<path d="M52.9951 18.7389L54.4859 20.7958C52.9668 22.3701 50.9345 23.3083 48.7824 23.4288C46.6302 23.5493 44.5111 22.8436 42.8351 21.4482C42.0168 20.677 41.3547 19.7468 40.8868 18.7112C40.4189 17.6755 40.1544 16.5548 40.1087 15.4136C40.063 14.2724 40.2369 13.1331 40.6203 12.0613C41.0038 10.9895 41.5893 10.0063 42.3431 9.16832C45.787 5.50739 51.5639 6.31325 54.0759 8.92272L52.7193 11.0794L52.3093 10.7724C51.5777 10.1905 50.7331 9.7776 49.8327 9.56174C48.9324 9.34587 47.9974 9.33211 47.0914 9.52138C45.9379 9.77072 44.9046 10.4256 44.1688 11.3736C43.433 12.3217 43.0405 13.5039 43.0587 14.7173C42.9439 16.0187 43.2775 17.3202 44.0012 18.3937C44.725 19.4673 45.7925 20.2443 47.0169 20.5886C48.0009 20.8199 49.0248 20.801 50.0002 20.5335C50.9755 20.2661 51.873 19.7581 52.6149 19.0536L52.9131 18.785L52.9951 18.7389Z" fill="white"/>
<path d="M140 23.1517H137.182V22.6375C137.182 20.5346 137.182 18.4394 137.182 16.3364C137.186 15.9264 137.146 15.5172 137.063 15.1161C137.006 14.7975 136.847 14.5081 136.61 14.2949C136.373 14.0818 136.073 13.9573 135.759 13.9419C135.339 13.8853 134.913 13.9163 134.505 14.0329C134.097 14.1496 133.716 14.3497 133.385 14.6211C133.054 14.8925 132.779 15.2298 132.578 15.6129C132.376 15.9959 132.251 16.4169 132.211 16.8507C132.091 18.1784 132.136 19.5215 132.121 20.8646C132.121 21.6321 132.121 22.3996 132.121 23.1671H129.318V7.0498H132.099V13.5505C132.218 13.397 132.293 13.3279 132.352 13.2358C133.004 12.3394 133.936 11.7018 134.991 11.4305C136.046 11.1593 137.16 11.271 138.144 11.7468C138.639 12.0098 139.061 12.399 139.369 12.8772C139.677 13.3555 139.861 13.907 139.903 14.4791C139.966 14.9161 139.996 15.3575 139.993 15.7992C140 18.2014 140 20.6574 140 23.1517Z" fill="white"/>
<path d="M95.0221 11.2325C96.3884 11.1887 97.7294 11.6189 98.8298 12.454C99.9302 13.2891 100.726 14.4807 101.09 15.8375C101.303 16.6718 101.341 17.5436 101.2 18.3942C101.059 19.2448 100.743 20.0544 100.272 20.7685C99.8021 21.4827 99.1886 22.0848 98.4732 22.5342C97.7578 22.9837 96.9572 23.2701 96.1253 23.3743C95.1634 23.5599 94.1732 23.5181 93.2292 23.2522C92.2853 22.9863 91.4124 22.5032 90.6763 21.8393C89.8482 21.1107 89.2469 20.1471 88.9473 19.0688C88.6477 17.9906 88.6631 16.8454 88.9917 15.7761C89.2671 14.6694 89.8518 13.6702 90.6732 12.9022C91.4947 12.1341 92.5169 11.631 93.6132 11.4551C94.0754 11.3093 94.5524 11.2939 95.0221 11.2325ZM91.6528 17.3725C91.6834 18.0532 91.9072 18.7098 92.2966 19.2609C92.6859 19.812 93.2236 20.2334 93.8432 20.4731C94.4628 20.7127 95.1371 20.7601 95.7825 20.6092C96.428 20.4583 97.0163 20.1159 97.4746 19.6243C97.933 19.1327 98.2413 18.5135 98.3614 17.8433C98.4814 17.1732 98.408 16.4815 98.1501 15.8538C97.8923 15.2262 97.4614 14.6902 96.9107 14.3122C96.36 13.9341 95.7137 13.7306 95.0519 13.7269C94.5908 13.72 94.1334 13.8105 93.7077 13.993C93.2821 14.1755 92.8974 14.446 92.5773 14.7877C92.2573 15.1294 92.0088 15.5351 91.8472 15.9797C91.6856 16.4244 91.6144 16.8984 91.6379 17.3725H91.6528Z" fill="white"/>
<path d="M62.8647 15.8831C62.921 15.6218 62.9203 15.3509 62.8627 15.0899C62.8051 14.8289 62.692 14.5843 62.5317 14.3737C62.3713 14.163 62.1676 13.9916 61.9352 13.8717C61.7027 13.7519 61.4474 13.6865 61.1875 13.6804C60.094 13.5918 59.0011 13.8604 58.0643 14.4479L57.6021 14.7088L56.5436 12.6596C57.3768 12.0449 58.3269 11.6185 59.3315 11.4086C60.4704 11.1266 61.66 11.1451 62.7902 11.4623C63.5823 11.6403 64.2937 12.086 64.8111 12.7287C65.3285 13.3713 65.6221 14.1737 65.6451 15.0081C65.7718 17.6867 65.6451 20.3806 65.6451 23.0975H63.1107V21.5088C63.0511 21.5088 63.0138 21.5088 63.0063 21.5088C62.4432 22.377 61.5885 23.0004 60.6062 23.2596C59.624 23.5189 58.5834 23.3955 57.6841 22.9133C57.1109 22.6483 56.6256 22.2164 56.2878 21.671C55.9501 21.1255 55.7747 20.4902 55.7833 19.8433C55.7457 19.2229 55.887 18.605 56.1893 18.067C56.4917 17.529 56.9417 17.095 57.4828 16.8194C58.8386 16.1311 60.3319 15.7789 61.8435 15.791C62.2013 15.8677 62.5665 15.8831 62.8647 15.8831ZM62.9542 17.8939C62.4407 17.8506 61.9246 17.8506 61.4112 17.8939C60.7172 18.0066 60.0374 18.197 59.3836 18.4618C59.1275 18.5747 58.9176 18.7759 58.7897 19.0307C58.6619 19.2856 58.6241 19.5783 58.683 19.8587C58.7068 20.1425 58.8157 20.4116 58.9947 20.6289C59.1736 20.8461 59.4138 21.0008 59.6818 21.0713C60.0115 21.1918 60.3653 21.2247 60.7106 21.167C61.0559 21.1093 61.3814 20.9629 61.6571 20.7413C62.0796 20.4094 62.4176 19.9769 62.6422 19.481C62.8668 18.9851 62.9713 18.4405 62.9467 17.8939H62.9542Z" fill="white"/>
<path d="M114.059 23.1594H111.376V21.0949C111.182 21.3712 111.055 21.5707 110.914 21.7549C110.245 22.5666 109.336 23.13 108.326 23.3588C107.316 23.5875 106.261 23.4689 105.323 23.0213C104.844 22.7618 104.434 22.3855 104.129 21.9253C103.823 21.4651 103.632 20.9349 103.572 20.3811C103.51 20.0522 103.478 19.7183 103.475 19.3834C103.475 16.8737 103.475 14.364 103.475 11.8543C103.475 11.7699 103.475 11.6778 103.475 11.5703H106.277V12.0769C106.277 14.1875 106.277 16.3057 106.277 18.4163C106.275 18.7352 106.3 19.0537 106.352 19.368C106.362 19.5797 106.415 19.7868 106.508 19.9764C106.6 20.1659 106.729 20.3337 106.887 20.4693C107.046 20.6048 107.229 20.7052 107.427 20.7639C107.625 20.8227 107.832 20.8387 108.037 20.8109C108.845 20.7907 109.616 20.4568 110.195 19.8761C110.774 19.2954 111.119 18.5108 111.16 17.6795C111.217 17.0751 111.242 16.4678 111.234 15.8606C111.234 14.4791 111.234 13.0899 111.234 11.7085C111.23 11.6651 111.23 11.6214 111.234 11.578H114L114.059 23.1594Z" fill="white"/>
<path d="M126.896 12.9441L125.622 14.9703C124.893 14.2867 123.971 13.8616 122.99 13.7577C122.34 13.658 121.676 13.7647 121.086 14.0636C120.496 14.3626 120.008 14.8395 119.688 15.4308C119.322 16.0377 119.138 16.7423 119.16 17.4563C119.181 18.1703 119.406 18.862 119.807 19.4448C120.166 20.0229 120.683 20.4778 121.294 20.7513C121.905 21.0247 122.581 21.1043 123.236 20.9798C124.305 20.8117 125.299 20.3109 126.084 19.5446L127.172 21.5861C126.582 22.1994 125.87 22.6734 125.085 22.9753C123.412 23.6758 121.54 23.6758 119.867 22.9753C118.719 22.46 117.759 21.5815 117.128 20.4672C116.498 19.3529 116.228 18.0607 116.358 16.7779C116.489 15.4951 117.012 14.2884 117.854 13.3327C118.695 12.3771 119.81 11.7221 121.037 11.4629C122.582 11.1188 124.195 11.3471 125.592 12.1076C126.04 12.3635 126.475 12.6427 126.896 12.9441Z" fill="white"/>
<path d="M81.7014 14.0183H80.2627V11.7158H81.7535V8.39258H84.5265V11.7158H87.0981V14.0183H84.5339V15.1081C84.5339 16.1724 84.5339 17.2366 84.5339 18.3009C84.5339 19.9663 85.2793 20.7338 86.8969 20.7185H87.3069C87.3069 21.486 87.3069 22.2535 87.3069 23.021C87.3069 23.1054 87.128 23.2589 87.0236 23.2665C85.9465 23.3885 84.8572 23.2192 83.8631 22.7754C83.2576 22.5137 82.7385 22.0775 82.3682 21.5193C81.998 20.961 81.7922 20.3045 81.7759 19.6286C81.6939 18.0092 81.7312 16.3745 81.7163 14.7474C81.7014 14.5248 81.7014 14.3176 81.7014 14.0183Z" fill="white"/>
<path d="M72.8459 20.7498C72.8459 21.5173 72.8459 22.2387 72.8459 22.9602C72.8264 23.0286 72.7901 23.0907 72.7405 23.1404C72.6909 23.1902 72.6296 23.2259 72.5627 23.2441C71.9144 23.2642 71.2656 23.2231 70.6246 23.1213C70.0758 23.0044 69.5784 22.7082 69.2064 22.2767C68.8344 21.8453 68.6076 21.3016 68.5598 20.7268C68.4957 20.3672 68.4633 20.0025 68.4629 19.637C68.4629 15.5437 68.4629 11.4376 68.4629 7.31871C68.4629 7.22661 68.4629 7.13452 68.4629 7.01172H71.2582V7.53361C71.2582 11.2278 71.2582 14.9246 71.2582 18.6239C71.2582 18.7467 71.2582 18.8695 71.2582 18.9923C71.2731 20.4198 71.4296 20.604 72.8459 20.7498Z" fill="white"/>
<path d="M79.1601 20.7419V23.1748C76.9239 23.8732 74.9784 22.5531 74.8293 20.1969C74.7771 19.3757 74.7845 18.5545 74.7845 17.7333C74.7845 14.341 74.7845 10.9487 74.7845 7.55635V6.99609H77.5873V7.52566C77.5873 11.2199 77.5873 14.914 77.5873 18.6082C77.5873 18.731 77.5873 18.8538 77.5873 18.9766C77.6171 20.4195 77.8929 20.7495 79.1601 20.7419Z" fill="white"/>
</g>
</svg>
