<svg width="115" height="44" viewBox="0 0 115 44" fill="none" xmlns="http://www.w3.org/2000/svg">
<g opacity="0.7">
<path d="M37.4342 26.1449C36.1144 28.082 35.4158 30.369 35.4299 32.7062C35.444 35.0434 36.1701 37.3219 37.5131 39.2432C38.2869 40.5208 39.3591 41.5954 40.6396 42.3765C41.9201 43.1575 43.3713 43.6222 44.8709 43.7313C46.3705 43.8404 47.8746 43.5908 49.2565 43.0035C50.6384 42.4162 51.8575 41.5083 52.8113 40.3565C54.7934 38.1356 55.8616 35.2582 55.8043 32.294C55.8201 30.3696 55.2812 28.4807 54.2508 26.8494C53.4975 25.3106 52.3378 24.0026 50.8948 23.0643C49.4518 22.126 47.7792 21.5924 46.0548 21.5202C44.3304 21.4479 42.6184 21.8397 41.1006 22.654C39.5828 23.4682 38.3158 24.6746 37.4342 26.1449ZM51.6792 33.6595C51.1613 37.3733 48.3 40.1129 45.2106 39.8694C42.1211 39.6259 39.4616 36.3905 39.4704 32.2853C39.4881 31.8742 39.5321 31.4646 39.6021 31.0589C40.3481 27.3886 43.2883 24.9707 46.3603 25.4578C49.7482 26.0057 52.197 29.8152 51.6792 33.6595Z" fill="white"/>
<path d="M15.1585 28.3879C15.1179 27.336 14.7816 26.3162 14.1877 25.4434C13.5938 24.5706 12.7658 23.8794 11.7969 23.4478C8.38265 21.7083 4.92451 22.2475 1.35228 23.3434L2.36165 26.6658C4.02202 26.4133 5.69513 26.2507 7.37337 26.1788C10.6647 26.1788 11.7618 27.7182 11.2879 30.7362C8.83612 30.9605 6.40036 31.3323 3.99416 31.8495C2.85251 32.1174 1.83654 32.7616 1.11261 33.6765C0.388678 34.5914 -0.000223784 35.7227 0.00948762 36.8853C-0.166052 40.7035 2.09838 43.1039 6.46053 43.3214C9.31305 43.4605 12.1919 43.1213 15.2375 42.9909C15.2375 42.0516 15.2375 41.5384 15.2375 41.0252C15.2287 36.807 15.3341 32.5975 15.1585 28.3879ZM11.3493 39.9816C9.42347 40.1752 7.48102 40.1343 5.56527 39.8598C4.94821 39.8264 4.3676 39.5597 3.94305 39.1148C3.51849 38.6698 3.28236 38.0804 3.28328 37.468C3.21863 36.8318 3.40724 36.1958 3.80891 35.6954C4.21058 35.195 4.79352 34.8699 5.43359 34.7892C7.38209 34.436 9.35966 34.2642 11.3405 34.2761L11.3493 39.9816Z" fill="white"/>
<path d="M91.2103 28.3879C91.1697 27.336 90.8335 26.3162 90.2396 25.4434C89.6457 24.5706 88.8177 23.8794 87.8488 23.4478C84.4345 21.7083 80.9764 22.2475 77.4041 23.3434L78.4135 26.6658C80.0739 26.4133 81.7469 26.2507 83.4251 26.1788C86.7165 26.1788 87.8137 27.7182 87.3397 30.7362C84.888 30.9605 82.4522 31.3323 80.046 31.8495C78.9044 32.1174 77.8884 32.7616 77.1645 33.6765C76.4405 34.5914 76.0515 35.7227 76.0612 36.8853C75.8857 40.7035 78.1502 43.1039 82.5124 43.3214C85.3649 43.4605 88.2438 43.1213 91.2894 42.9909C91.2894 42.0516 91.2894 41.5384 91.2894 41.0252C91.2806 36.807 91.3507 32.5975 91.2103 28.3879ZM87.4011 39.9816C85.4753 40.1752 83.5329 40.1343 81.6171 39.8598C81.0001 39.8264 80.4195 39.5597 79.9949 39.1148C79.5704 38.6698 79.3342 38.0804 79.3351 37.468C79.2705 36.8318 79.4591 36.1958 79.8608 35.6954C80.2624 35.195 80.8454 34.8699 81.4855 34.7892C83.434 34.436 85.4115 34.2642 87.3923 34.2761L87.4011 39.9816Z" fill="white"/>
<path d="M31.8082 36.5805C31.8872 30.5445 31.8082 24.5085 31.8082 18.4725V13.4541L31.4395 13.5585L28.6133 14.3325L27.9287 14.5239V19.7858C27.9287 19.9482 27.9287 20.1105 27.9287 20.2729C27.9287 26.1523 27.9287 32.0318 27.9287 37.9199C27.9287 41.3989 28.982 42.6861 32.2646 43.7211L32.8175 43.8951C33.0163 43.9456 33.2188 43.9805 33.4231 43.9994L34.3008 40.39C31.9047 40.0769 31.7906 38.4679 31.8082 36.5805Z" fill="white"/>
<path d="M22.8735 36.5805C22.9525 30.5445 22.8735 24.5085 22.8735 18.4725V13.4541L22.5049 13.5585L19.6787 14.3325L18.9941 14.5239V19.7858C18.9941 19.9482 18.9941 20.1105 18.9941 20.2729C18.9941 26.1523 18.9941 32.0318 18.9941 37.9199C18.9941 41.3989 20.0473 42.6861 23.3299 43.7211L23.8829 43.8951C24.0816 43.9456 24.2842 43.9805 24.4885 43.9994L25.3662 40.39C22.9613 40.0769 22.8559 38.4679 22.8735 36.5805Z" fill="white"/>
<path d="M73.9204 23.2917H69.2511C67.3201 25.5617 63.9849 29.1451 62.5191 30.7976V11.9851V11.8633L62.1504 11.9676L59.3243 12.7417L58.6396 12.9331V14.5595C58.6396 14.7595 58.6396 15.4988 58.6396 15.7249C58.6396 16.4642 58.6396 17.1948 58.6396 17.9341V18.7343C58.7011 26.1619 58.6396 33.5981 58.6396 41.0257C58.6396 41.565 58.6396 42.1042 58.6396 42.6174H62.5367V32.9893C65.4506 35.4072 67.917 37.625 69.6811 40.7126C70.12 41.478 70.4885 42.1042 70.8045 42.6087H75.193C72.6497 38.6236 69.741 34.8795 66.5039 31.4238C68.6455 29.0494 71.3838 26.1184 73.9204 23.2917Z" fill="white"/>
<path d="M105.297 0C103.532 0.00162349 101.8 0.482944 100.292 1.39162C98.7829 2.30029 97.5544 3.60152 96.74 5.15377C95.9255 6.70602 95.5562 8.44986 95.6722 10.1956C95.7882 11.9414 96.3851 13.6222 97.3978 15.0552L95.7829 19.03L99.7939 17.4296C101.036 18.2946 102.466 18.857 103.969 19.0714C105.472 19.2858 107.004 19.1461 108.442 18.6635C109.88 18.181 111.183 17.3693 112.244 16.2942C113.306 15.2192 114.097 13.9112 114.554 12.4763C115.01 11.0415 115.118 9.52035 114.869 8.0363C114.621 6.55225 114.023 5.14717 113.124 3.93513C112.225 2.72308 111.05 1.73824 109.694 1.06056C108.339 0.382867 106.842 0.031431 105.323 0.0347838L105.297 0ZM108.808 15.0465C108.641 15.1422 108.492 15.2553 108.334 15.3596C108.215 15.439 108.079 15.4884 107.937 15.5035C107.794 15.5187 107.651 15.4991 107.518 15.4466C106.768 15.1327 106.09 14.6711 105.525 14.0898C104.342 12.8937 103.414 11.4739 102.796 9.91505C102.347 8.87827 102.051 7.7827 101.918 6.66223C101.81 5.83979 101.861 5.0046 102.067 4.20084C102.1 4.07192 102.167 3.954 102.261 3.85921C102.355 3.76443 102.473 3.69622 102.603 3.66161C102.822 3.59203 103.05 3.53115 103.278 3.47897C103.384 3.44887 103.494 3.44017 103.603 3.45338C103.712 3.46659 103.817 3.50143 103.913 3.55583C104.008 3.61023 104.09 3.68306 104.156 3.76998C104.222 3.8569 104.27 3.95611 104.297 4.06168C104.498 4.78357 104.692 5.49676 104.893 6.21865C104.928 6.32541 104.939 6.43811 104.928 6.54958C104.916 6.66105 104.881 6.76884 104.825 6.86615C104.768 6.96347 104.693 7.04818 104.602 7.11488C104.511 7.18158 104.407 7.22883 104.297 7.25364L103.682 7.4189C104.091 9.15932 104.875 10.7913 105.982 12.2025L106.614 11.7763C106.71 11.7095 106.819 11.6624 106.934 11.638C107.048 11.6136 107.167 11.6123 107.283 11.6342C107.398 11.6561 107.508 11.7008 107.605 11.7655C107.703 11.8303 107.787 11.9138 107.851 12.0111C108.237 12.6113 108.641 13.2027 109.054 13.7506C109.133 13.8484 109.189 13.9619 109.22 14.0834C109.25 14.2048 109.254 14.3314 109.231 14.4544C109.207 14.5775 109.158 14.6941 109.085 14.7963C109.012 14.8984 108.917 14.9838 108.808 15.0465Z" fill="white"/>
</g>
</svg>
