<svg width="140" height="36" viewBox="0 0 140 36" fill="none" xmlns="http://www.w3.org/2000/svg">
<g opacity="0.7">
<path d="M25.0798 3.58036L3.50753 25.6611C1.12783 22.7242 -0.117731 18.9877 0.0087709 15.1652C0.135273 11.3427 1.62497 7.7021 4.19331 4.93883C6.86369 2.03684 10.5022 0.283513 14.3771 0.0314877C18.2521 -0.220538 22.076 1.04742 25.0798 3.58036Z" fill="white"/>
<path d="M27.9872 31.2716C21.4126 37.2733 10.1569 37.872 2.69531 31.2716L15.3673 18.0323L27.9872 31.2716ZM19.4 26.8815C19.3168 26.7565 19.2272 26.6361 19.1317 26.5208C17.9614 25.3158 16.7911 24.1185 15.6282 22.9059C15.3822 22.6526 15.2332 22.7063 15.017 22.9059C13.8765 24.0955 12.7211 25.2698 11.5806 26.4594C11.4837 26.5592 11.4092 26.6743 11.2601 26.8585L19.4 26.8815Z" fill="white"/>
<path d="M17.7598 15.6914L27.2116 5.7677C29.4645 8.55648 30.7016 12.0672 30.7098 15.6946C30.718 19.3219 29.4966 22.8386 27.2563 25.6381L17.7598 15.6914Z" fill="white"/>
<path d="M52.9951 18.7384L54.4859 20.7953C52.9668 22.3696 50.9345 23.3078 48.7824 23.4283C46.6302 23.5488 44.5111 22.8431 42.8351 21.4477C42.0168 20.6765 41.3547 19.7463 40.8868 18.7107C40.4189 17.675 40.1544 16.5544 40.1087 15.4131C40.063 14.2719 40.2369 13.1326 40.6203 12.0608C41.0038 10.989 41.5893 10.0058 42.3431 9.16783C45.787 5.5069 51.5639 6.31276 54.0759 8.92223L52.7193 11.0789L52.3093 10.7719C51.5777 10.19 50.7331 9.77711 49.8327 9.56125C48.9324 9.34538 47.9974 9.33162 47.0914 9.52089C45.9379 9.77024 44.9046 10.4251 44.1688 11.3731C43.433 12.3212 43.0405 13.5034 43.0587 14.7168C42.9439 16.0182 43.2775 17.3197 44.0012 18.3933C44.725 19.4668 45.7925 20.2438 47.0169 20.5881C48.0009 20.8194 49.0248 20.8005 50.0002 20.533C50.9755 20.2656 51.873 19.7577 52.6149 19.0531L52.9131 18.7845L52.9951 18.7384Z" fill="white"/>
<path d="M140 23.1514H137.182V22.6372C137.182 20.5343 137.182 18.439 137.182 16.3361C137.186 15.926 137.146 15.5169 137.063 15.1158C137.006 14.7972 136.847 14.5078 136.61 14.2946C136.373 14.0814 136.073 13.9569 135.759 13.9415C135.339 13.8849 134.913 13.9159 134.505 14.0326C134.097 14.1493 133.716 14.3493 133.385 14.6207C133.054 14.8922 132.779 15.2295 132.578 15.6125C132.376 15.9956 132.251 16.4165 132.211 16.8503C132.091 18.178 132.136 19.5212 132.121 20.8643C132.121 21.6318 132.121 22.3993 132.121 23.1667H129.318V7.04944H132.099V13.5501C132.218 13.3966 132.293 13.3275 132.352 13.2354C133.004 12.339 133.936 11.7014 134.991 11.4302C136.046 11.1589 137.16 11.2706 138.144 11.7465C138.639 12.0095 139.061 12.3986 139.369 12.8769C139.677 13.3551 139.861 13.9066 139.903 14.4787C139.966 14.9158 139.996 15.3571 139.993 15.7988C140 18.2011 140 20.657 140 23.1514Z" fill="white"/>
<path d="M95.0221 11.2325C96.3884 11.1887 97.7294 11.6189 98.8298 12.454C99.9302 13.2891 100.726 14.4807 101.09 15.8375C101.303 16.6718 101.341 17.5436 101.2 18.3942C101.059 19.2448 100.743 20.0544 100.272 20.7685C99.8021 21.4827 99.1886 22.0848 98.4732 22.5342C97.7578 22.9837 96.9572 23.2701 96.1253 23.3743C95.1634 23.5599 94.1732 23.5181 93.2292 23.2522C92.2853 22.9863 91.4124 22.5032 90.6763 21.8393C89.8482 21.1107 89.2469 20.1471 88.9473 19.0688C88.6477 17.9906 88.6631 16.8454 88.9917 15.7761C89.2671 14.6694 89.8518 13.6702 90.6732 12.9022C91.4947 12.1341 92.5169 11.631 93.6132 11.4551C94.0754 11.3093 94.5524 11.2939 95.0221 11.2325ZM91.6528 17.3725C91.6834 18.0532 91.9072 18.7098 92.2966 19.2609C92.6859 19.812 93.2236 20.2334 93.8432 20.4731C94.4628 20.7127 95.1371 20.7601 95.7825 20.6092C96.428 20.4583 97.0163 20.1159 97.4746 19.6243C97.933 19.1327 98.2413 18.5135 98.3614 17.8433C98.4814 17.1732 98.408 16.4815 98.1501 15.8538C97.8923 15.2262 97.4614 14.6902 96.9107 14.3122C96.36 13.9341 95.7137 13.7306 95.0519 13.7269C94.5908 13.72 94.1334 13.8105 93.7077 13.993C93.2821 14.1755 92.8974 14.446 92.5773 14.7877C92.2573 15.1294 92.0088 15.5351 91.8472 15.9797C91.6856 16.4244 91.6144 16.8984 91.6379 17.3725H91.6528Z" fill="white"/>
<path d="M62.8647 15.8836C62.921 15.6223 62.9203 15.3514 62.8627 15.0904C62.8051 14.8294 62.692 14.5848 62.5317 14.3741C62.3713 14.1635 62.1676 13.9921 61.9352 13.8722C61.7027 13.7524 61.4474 13.687 61.1875 13.6809C60.094 13.5923 59.0011 13.8609 58.0643 14.4483L57.6021 14.7093L56.5436 12.6601C57.3768 12.0453 58.3269 11.619 59.3315 11.4091C60.4704 11.1271 61.66 11.1456 62.7902 11.4628C63.5823 11.6407 64.2937 12.0865 64.8111 12.7292C65.3285 13.3718 65.6221 14.1742 65.6451 15.0086C65.7718 17.6872 65.6451 20.381 65.6451 23.098H63.1107V21.5093C63.0511 21.5093 63.0138 21.5093 63.0063 21.5093C62.4432 22.3774 61.5885 23.0009 60.6062 23.2601C59.624 23.5193 58.5834 23.396 57.6841 22.9138C57.1109 22.6488 56.6256 22.2169 56.2878 21.6714C55.9501 21.126 55.7747 20.4907 55.7833 19.8438C55.7457 19.2234 55.887 18.6055 56.1893 18.0675C56.4917 17.5295 56.9417 17.0954 57.4828 16.8199C58.8386 16.1316 60.3319 15.7794 61.8435 15.7915C62.2013 15.8682 62.5665 15.8836 62.8647 15.8836ZM62.9542 17.8944C62.4407 17.851 61.9246 17.851 61.4112 17.8944C60.7172 18.007 60.0374 18.1975 59.3836 18.4623C59.1275 18.5752 58.9176 18.7763 58.7897 19.0312C58.6619 19.2861 58.6241 19.5788 58.683 19.8591C58.7068 20.143 58.8157 20.4121 58.9947 20.6294C59.1736 20.8466 59.4138 21.0012 59.6818 21.0718C60.0115 21.1923 60.3653 21.2252 60.7106 21.1675C61.0559 21.1098 61.3814 20.9634 61.6571 20.7418C62.0796 20.4098 62.4176 19.9774 62.6422 19.4815C62.8668 18.9856 62.9713 18.441 62.9467 17.8944H62.9542Z" fill="white"/>
<path d="M114.059 23.1593H111.376V21.0948C111.182 21.3711 111.055 21.5706 110.914 21.7548C110.245 22.5665 109.336 23.1299 108.326 23.3586C107.316 23.5874 106.261 23.4688 105.323 23.0212C104.844 22.7617 104.434 22.3854 104.129 21.9252C103.823 21.465 103.632 20.9348 103.572 20.381C103.51 20.0521 103.478 19.7182 103.475 19.3832C103.475 16.8735 103.475 14.3639 103.475 11.8542C103.475 11.7697 103.475 11.6776 103.475 11.5702H106.277V12.0767C106.277 14.1873 106.277 16.3056 106.277 18.4162C106.275 18.7351 106.3 19.0536 106.352 19.3679C106.362 19.5796 106.415 19.7867 106.508 19.9762C106.6 20.1658 106.729 20.3336 106.887 20.4692C107.046 20.6047 107.229 20.705 107.427 20.7638C107.625 20.8226 107.832 20.8386 108.037 20.8108C108.845 20.7906 109.616 20.4567 110.195 19.876C110.774 19.2953 111.119 18.5107 111.16 17.6794C111.217 17.0749 111.242 16.4677 111.234 15.8605C111.234 14.479 111.234 13.0898 111.234 11.7083C111.23 11.6649 111.23 11.6213 111.234 11.5779H114L114.059 23.1593Z" fill="white"/>
<path d="M126.896 12.9437L125.622 14.9698C124.893 14.2862 123.971 13.8611 122.99 13.7572C122.34 13.6575 121.676 13.7643 121.086 14.0632C120.496 14.3621 120.008 14.839 119.688 15.4303C119.322 16.0373 119.138 16.7418 119.16 17.4558C119.181 18.1698 119.406 18.8615 119.807 19.4443C120.166 20.0224 120.683 20.4773 121.294 20.7508C121.905 21.0242 122.581 21.1038 123.236 20.9793C124.305 20.8112 125.299 20.3104 126.084 19.5441L127.172 21.5856C126.582 22.1989 125.87 22.6729 125.085 22.9748C123.412 23.6753 121.54 23.6753 119.867 22.9748C118.719 22.4595 117.759 21.5811 117.128 20.4668C116.498 19.3524 116.228 18.0602 116.358 16.7774C116.489 15.4946 117.012 14.2879 117.854 13.3322C118.695 12.3766 119.81 11.7217 121.037 11.4624C122.582 11.1183 124.195 11.3466 125.592 12.1071C126.04 12.363 126.475 12.6422 126.896 12.9437Z" fill="white"/>
<path d="M81.7014 14.0183H80.2627V11.7158H81.7535V8.39258H84.5265V11.7158H87.0981V14.0183H84.5339V15.1081C84.5339 16.1724 84.5339 17.2366 84.5339 18.3009C84.5339 19.9663 85.2793 20.7338 86.8969 20.7185H87.3069C87.3069 21.486 87.3069 22.2535 87.3069 23.021C87.3069 23.1054 87.128 23.2589 87.0236 23.2665C85.9465 23.3885 84.8572 23.2192 83.8631 22.7754C83.2576 22.5137 82.7385 22.0775 82.3682 21.5193C81.998 20.961 81.7922 20.3045 81.7759 19.6286C81.6939 18.0092 81.7312 16.3745 81.7163 14.7474C81.7014 14.5248 81.7014 14.3176 81.7014 14.0183Z" fill="white"/>
<path d="M72.8459 20.7493C72.8459 21.5168 72.8459 22.2383 72.8459 22.9597C72.8264 23.0281 72.7901 23.0902 72.7405 23.1399C72.6909 23.1897 72.6296 23.2254 72.5627 23.2437C71.9144 23.2637 71.2656 23.2226 70.6246 23.1209C70.0758 23.0039 69.5784 22.7077 69.2064 22.2762C68.8344 21.8448 68.6076 21.3012 68.5598 20.7263C68.4957 20.3668 68.4633 20.002 68.4629 19.6365C68.4629 15.5432 68.4629 11.4371 68.4629 7.31822C68.4629 7.22612 68.4629 7.13403 68.4629 7.01123H71.2582V7.53312C71.2582 11.2273 71.2582 14.9241 71.2582 18.6234C71.2582 18.7462 71.2582 18.869 71.2582 18.9918C71.2731 20.4193 71.4296 20.6035 72.8459 20.7493Z" fill="white"/>
<path d="M79.1601 20.7417V23.1747C76.9239 23.8731 74.9784 22.553 74.8293 20.1968C74.7771 19.3756 74.7845 18.5544 74.7845 17.7332C74.7845 14.3409 74.7845 10.9485 74.7845 7.55623V6.99597H77.5873V7.52554C77.5873 11.2197 77.5873 14.9139 77.5873 18.6081C77.5873 18.7309 77.5873 18.8537 77.5873 18.9765C77.6171 20.4194 77.8929 20.7494 79.1601 20.7417Z" fill="white"/>
</g>
</svg>
