<svg width="115" height="38" viewBox="0 0 115 38" fill="none" xmlns="http://www.w3.org/2000/svg">
<g opacity="0.7">
<path d="M93.9048 7.8828C93.7919 7.46564 93.5341 7.1036 93.1788 6.86293C92.8236 6.62227 92.3945 6.51908 91.9702 6.57225H85.4751C84.1009 6.62583 82.7618 7.02651 81.5798 7.73775C80.3979 8.44899 79.4108 9.44816 78.7084 10.6442C78.006 11.8403 77.6108 13.1951 77.5587 14.5853C77.5065 15.9754 77.7992 17.3567 78.41 18.6031C79.0486 19.8266 79.9701 20.8757 81.0961 21.6611C80.9598 22.6757 80.9598 23.7044 81.0961 24.719C81.2091 25.0354 81.2008 25.3831 81.0729 25.6936C80.945 26.0041 80.7068 26.2549 80.4052 26.3965C79.6756 26.8556 79.0579 27.4752 78.598 28.2094C78.1381 28.9435 77.8479 29.7731 77.7491 30.6365C77.6503 31.4999 77.7455 32.3747 78.0274 33.1957C78.3093 34.0167 78.7707 34.7627 79.3774 35.3782C81.1407 37.0617 83.4737 37.9994 85.8983 37.9994C88.323 37.9994 90.6558 37.0617 92.4192 35.3782C93.4714 34.3132 94.0626 32.8692 94.0626 31.3635C94.0626 29.8579 93.4714 28.4138 92.4192 27.3489C90.8864 25.7626 88.8145 24.8256 86.6238 24.7278C86.1413 24.7751 85.6554 24.7751 85.1729 24.7278C84.8706 24.7278 84.6633 24.3346 84.4214 24.1162C84.6588 23.88 84.9331 23.6852 85.2333 23.5395C85.716 23.4975 86.2016 23.4975 86.6843 23.5395C88.6024 23.3511 90.3938 22.4865 91.7454 21.097C93.0969 19.7074 93.9224 17.8814 94.0775 15.9383C94.216 14.0261 93.7173 12.1221 92.6611 10.5301L92.9029 10.3466C93.1207 10.2705 93.3212 10.151 93.4926 9.99525C93.664 9.83951 93.803 9.65066 93.9012 9.4398C93.9993 9.22894 94.0548 9.00032 94.0644 8.76743C94.0739 8.53455 94.0372 8.30209 93.9566 8.08374L93.9048 7.8828ZM89.6468 29.5331C89.9272 29.7436 90.1551 30.0176 90.312 30.3332C90.469 30.6488 90.5508 30.9971 90.5508 31.3504C90.5508 31.7037 90.469 32.0521 90.312 32.3676C90.1551 32.6832 89.9272 32.9572 89.6468 33.1677C88.5595 33.9821 87.2425 34.4216 85.8897 34.4216C84.5369 34.4216 83.2198 33.9821 82.1326 33.1677C81.8227 32.9546 81.5689 32.6681 81.3935 32.333C81.2182 31.998 81.1266 31.6247 81.1266 31.2456C81.1266 30.8665 81.2182 30.4931 81.3935 30.1581C81.5689 29.8231 81.8227 29.5365 82.1326 29.3234C83.242 28.5345 84.5747 28.1318 85.9301 28.1759C87.2854 28.22 88.5899 28.7086 89.6468 29.5681V29.5331ZM85.786 19.6952C84.7514 19.6791 83.7651 19.25 83.042 18.5013C82.3188 17.7527 81.9175 16.7452 81.9254 15.6985C81.9334 14.6518 82.35 13.6508 83.0845 12.9135C83.8189 12.1762 84.8117 11.7625 85.8465 11.7625C86.8812 11.7625 87.874 12.1762 88.6085 12.9135C89.3429 13.6508 89.7596 14.6518 89.7676 15.6985C89.7756 16.7452 89.3742 17.7527 88.6511 18.5013C87.9279 19.25 86.9416 19.6791 85.907 19.6952H85.786Z" fill="white"/>
<path d="M58.3544 2.44893C58.4035 2.06318 58.4035 1.67265 58.3544 1.2869C58.2958 1.02503 58.175 0.781555 58.0024 0.577574C57.8299 0.373593 57.6107 0.215271 57.364 0.1163C57.1172 0.0173279 56.8504 -0.0193074 56.5865 0.00959321C56.3226 0.0384938 56.0697 0.132048 55.8496 0.282145C55.4656 0.610827 55.1687 1.03125 54.9859 1.50532C53.4485 5.20108 51.963 8.92305 50.3997 12.6188L48.6723 16.865L48.3095 16.0437L43.3 4.37981C42.8509 3.27894 42.4364 2.17809 41.9441 1.11217C41.8031 0.743106 41.5376 0.436323 41.1947 0.24607C40.8517 0.0558161 40.4533 -0.00566361 40.0698 0.0724652C39.679 0.144685 39.3248 0.350941 39.0668 0.656497C38.8088 0.962053 38.6628 1.34822 38.6533 1.74996V21.0238C38.6383 21.2566 38.6383 21.4901 38.6533 21.7228C38.69 22.1297 38.8665 22.5107 39.1521 22.7996C39.4377 23.0885 39.8144 23.2671 40.2167 23.3042C40.6346 23.3087 41.0398 23.1597 41.3575 22.885C41.6751 22.6103 41.8835 22.2284 41.9441 21.8102C41.9647 21.5193 41.9647 21.2273 41.9441 20.9365V11.0724C42.1406 11.2158 42.2884 11.4172 42.3673 11.649L46.5908 21.9412C46.6956 22.3246 46.9208 22.6631 47.2323 22.9058C47.5439 23.1485 47.925 23.2822 48.3182 23.2867C48.7129 23.288 49.0968 23.1565 49.4095 22.913C49.7222 22.6694 49.946 22.3275 50.0456 21.9412C50.3738 21.1199 50.7107 20.3249 51.0389 19.5298L54.5973 10.8889C54.6051 10.9994 54.6051 11.1104 54.5973 11.2209V21.4257C54.5785 21.6581 54.6059 21.8919 54.6778 22.1134C54.7497 22.3349 54.8647 22.5397 55.016 22.7155C55.1673 22.8914 55.3519 23.0349 55.5588 23.1375C55.7658 23.2401 55.991 23.2997 56.2211 23.3129H56.3161C56.7849 23.2992 57.2295 23.0987 57.553 22.7551C57.8765 22.4115 58.0528 21.9526 58.0435 21.4782V20.7442C58.2507 14.6342 58.3544 8.53572 58.3544 2.44893Z" fill="white"/>
<path d="M19.0906 16.8913C18.7608 16.7163 18.3809 16.6632 18.0167 16.7414C17.6524 16.8196 17.3265 17.024 17.0954 17.3194C15.9662 18.5246 14.5055 19.3596 12.9023 19.7162C11.299 20.0729 9.62683 19.9348 8.10193 19.32C6.57704 18.7051 5.26958 17.6417 4.34844 16.2672C3.42731 14.8927 2.93486 13.2703 2.93486 11.6097C2.93486 9.94915 3.42731 8.32674 4.34844 6.95224C5.26958 5.57774 6.57704 4.51433 8.10193 3.89948C9.62683 3.28463 11.299 3.14662 12.9023 3.50327C14.5055 3.85991 15.9662 4.69482 17.0954 5.90008C17.419 6.22554 17.8569 6.40823 18.3132 6.40823C18.7696 6.40823 19.2074 6.22554 19.5311 5.90008C19.8241 5.56864 19.975 5.13307 19.9507 4.68909C19.9264 4.24511 19.7289 3.82906 19.4015 3.53236H19.3583L19.1164 3.26151C17.7645 1.97775 16.1223 1.04863 14.3333 0.555404C12.5443 0.0621731 10.6632 0.0198493 8.85429 0.432166C7.04542 0.844483 5.36394 1.69888 3.95697 2.92059C2.55001 4.14231 1.46038 5.69414 0.783415 7.44036C0.106446 9.18659 -0.137245 11.074 0.0736461 12.9375C0.284537 14.8011 0.943569 16.5839 1.99314 18.1302C3.04272 19.6765 4.45089 20.9391 6.0944 21.8076C7.73791 22.676 9.56674 23.1239 11.4209 23.112C12.9413 23.1334 14.4498 22.8381 15.8525 22.2443C17.2551 21.6506 18.522 20.7712 19.5742 19.6609C19.879 19.352 20.089 18.9606 20.1789 18.5338C20.2408 18.171 20.1623 17.7981 19.9597 17.4922C19.757 17.1864 19.4459 16.9712 19.0906 16.8913Z" fill="white"/>
<path d="M75.9734 13.3528C75.6274 11.351 74.5579 9.55102 72.9727 8.30277C71.3876 7.05451 69.4001 6.44725 67.3968 6.59906C65.3696 6.7301 63.4617 7.61404 62.0394 9.08117C60.6171 10.5483 59.7807 12.4952 59.6907 14.5481C59.6008 16.601 60.2636 18.6151 61.552 20.2038C62.8404 21.7925 64.6635 22.8437 66.6714 23.1557C68.786 23.5014 70.9511 23.0102 72.7173 21.784L72.8986 22.0548C73.0384 22.4563 73.3183 22.7923 73.6857 22.9998C74.053 23.2073 74.4826 23.2721 74.8938 23.1819C75.3109 23.0807 75.6778 22.8304 75.9269 22.4772C76.1761 22.1241 76.2908 21.6917 76.2498 21.2598V19.6434C76.2783 17.5429 76.1861 15.4424 75.9734 13.3528ZM67.941 19.7395C66.9997 19.7395 66.0797 19.4572 65.2971 18.9282C64.5144 18.3992 63.9044 17.6474 63.5443 16.7677C63.1841 15.888 63.0899 14.9201 63.2735 13.9863C63.4571 13.0524 63.9103 12.1946 64.5759 11.5214C65.2415 10.8481 66.0894 10.3896 67.0125 10.2038C67.9357 10.0181 68.8926 10.1134 69.7622 10.4778C70.6318 10.8422 71.375 11.4592 71.898 12.2509C72.4209 13.0425 72.7 13.9733 72.7 14.9254C72.6977 16.2007 72.1953 17.4229 71.3031 18.3239C70.4109 19.2248 69.2016 19.7308 67.941 19.7308V19.7395Z" fill="white"/>
<path d="M29.1435 6.7832C27.5514 6.7832 25.995 7.26078 24.6713 8.15553C23.3475 9.05029 22.3158 10.322 21.7065 11.8099C21.0973 13.2979 20.9378 14.9351 21.2484 16.5147C21.559 18.0943 22.3257 19.5452 23.4514 20.684C24.5772 21.8228 26.0116 22.5984 27.5731 22.9126C29.1346 23.2267 30.753 23.0655 32.2239 22.4492C33.6948 21.8329 34.952 20.7892 35.8365 19.4501C36.721 18.111 37.1931 16.5366 37.1931 14.9261C37.1931 12.7665 36.3451 10.6953 34.8355 9.1682C33.3258 7.64112 31.2784 6.7832 29.1435 6.7832ZM29.1435 19.8887C28.1794 19.9005 27.2332 19.6236 26.4243 19.0928C25.6153 18.562 24.9797 17.8011 24.5972 16.9058C24.2146 16.0105 24.1024 15.0207 24.2745 14.061C24.4467 13.1013 24.8955 12.2145 25.5646 11.5123C26.2337 10.81 27.0933 10.3235 28.035 10.1141C28.9767 9.9047 29.9586 9.98167 30.8572 10.3354C31.7558 10.6891 32.5309 11.3037 33.0851 12.1019C33.6392 12.9001 33.9476 13.8462 33.9715 14.8213C33.9797 16.1215 33.491 17.3746 32.6074 18.3189C31.7238 19.2632 30.5137 19.8257 29.2298 19.8887H29.1435Z" fill="white"/>
<path d="M114.495 18.0624C114.171 17.7369 113.733 17.5542 113.277 17.5542C112.82 17.5542 112.383 17.7369 112.059 18.0624L111.549 18.5167C110.891 19.0449 110.108 19.3893 109.277 19.5154C108.446 19.6416 107.598 19.5451 106.815 19.2356C106.033 18.9262 105.345 18.4145 104.819 17.7518C104.293 17.089 103.948 16.2984 103.819 15.4587C103.656 14.5099 103.778 13.5333 104.171 12.656C104.564 11.7786 105.209 11.0413 106.022 10.5398C106.843 10.0261 107.798 9.77458 108.762 9.81822C109.727 9.86186 110.656 10.1986 111.428 10.7844L112.059 11.3349C112.388 11.6593 112.83 11.8383 113.29 11.8326C113.749 11.8268 114.187 11.6368 114.508 11.3043C114.828 10.9718 115.005 10.524 115 10.0595C114.994 9.59495 114.806 9.15174 114.477 8.82733C113.577 7.88368 112.469 7.16823 111.244 6.73912C110.019 6.31001 108.712 6.17936 107.427 6.35778C106.143 6.53621 104.918 7.01868 103.853 7.76598C102.788 8.51327 101.912 9.5043 101.296 10.6585C100.681 11.8127 100.343 13.0976 100.311 14.4086C100.279 15.7196 100.553 17.0198 101.111 18.2034C101.669 19.3871 102.495 20.4209 103.523 21.2207C104.55 22.0206 105.75 22.5639 107.024 22.8066C108.378 23.0876 109.782 23.0101 111.098 22.5815C112.415 22.153 113.599 21.3878 114.538 20.3602C114.806 20.0367 114.95 19.6256 114.942 19.2031C114.934 18.7806 114.775 18.3754 114.495 18.0624Z" fill="white"/>
<path d="M98.8273 8.70443C98.8273 8.24099 98.6453 7.79653 98.3213 7.46883C97.9974 7.14113 97.558 6.95703 97.0999 6.95703C96.6417 6.95703 96.2024 7.14113 95.8784 7.46883C95.5545 7.79653 95.3725 8.24099 95.3725 8.70443V21.4692C95.3187 21.9264 95.4455 22.3867 95.7252 22.7499C96.005 23.1131 96.4152 23.3499 96.8667 23.4088H97.0567C97.308 23.4119 97.5569 23.3595 97.786 23.2553C98.0152 23.151 98.219 22.9975 98.3835 22.8053C98.548 22.6132 98.669 22.387 98.7382 22.1427C98.8074 21.8983 98.8231 21.6417 98.7841 21.3906V15.2747C98.7928 13.3787 98.8273 10.6877 98.8273 8.70443Z" fill="white"/>
<path d="M97.1092 4.33615C97.5674 4.33615 98.0067 4.15205 98.3307 3.82435C98.6546 3.49665 98.8366 3.05219 98.8366 2.58875C98.8373 2.14149 98.6684 1.71099 98.3647 1.38592C98.061 1.06084 97.6457 0.865944 97.2042 0.841345H97.1092C96.8907 0.831987 96.6726 0.866451 96.4673 0.942745C96.262 1.01904 96.0736 1.13564 95.913 1.28587C95.7524 1.43611 95.6229 1.61699 95.5318 1.8181C95.4406 2.01921 95.3896 2.23659 95.3818 2.4577C95.3818 2.4577 95.3818 2.51884 95.3818 2.55379C95.3812 3.00105 95.5501 3.43155 95.8538 3.75663C96.1574 4.0817 96.5728 4.2766 97.0142 4.3012L97.1092 4.33615Z" fill="white"/>
</g>
</svg>
