<svg width="49" height="49" viewBox="0 0 49 49" fill="none" xmlns="http://www.w3.org/2000/svg">
<g opacity="0.7">
<path d="M24.5 4.42044C31.0518 4.42044 31.8313 4.42046 34.3671 4.5586C35.9241 4.57796 37.4661 4.86499 38.9257 5.40715C39.9843 5.81508 40.9456 6.44027 41.7477 7.24242C42.5499 8.04457 43.175 9.00592 43.583 10.0645C44.1251 11.5241 44.4122 13.0661 44.4315 14.6231C44.5499 17.2082 44.5697 17.9877 44.5697 24.4902C44.5697 30.9926 44.5697 31.8214 44.4315 34.3573C44.4122 35.9142 44.1251 37.4562 43.583 38.9159C43.175 39.9744 42.5499 40.9357 41.7477 41.7378C40.9456 42.54 39.9843 43.1652 38.9257 43.5731C37.4661 44.1153 35.9241 44.4023 34.3671 44.4217C31.7819 44.5401 31.0024 44.5598 24.5 44.5598C17.9976 44.5598 17.1688 44.5598 14.6329 44.4217C13.076 44.4023 11.534 44.1153 10.0743 43.5731C9.0158 43.1652 8.05451 42.54 7.25236 41.7378C6.4502 40.9357 5.82502 39.9744 5.41709 38.9159C4.87493 37.4562 4.58778 35.9142 4.56841 34.3573C4.45001 31.7721 4.43032 30.9926 4.43032 24.4902C4.43032 17.9877 4.43027 17.1589 4.56841 14.6231C4.58778 13.0661 4.87493 11.5241 5.41709 10.0645C5.82502 9.00592 6.4502 8.04457 7.25236 7.24242C8.05451 6.44027 9.0158 5.81508 10.0743 5.40715C11.534 4.86499 13.076 4.57796 14.6329 4.5586C17.2181 4.44019 17.9976 4.42044 24.5 4.42044ZM24.5 0C17.8397 0 17.001 2.40837e-05 14.3863 0.148031C12.3625 0.194281 10.3611 0.5812 8.46599 1.29259C6.83694 1.92324 5.35743 2.88699 4.12221 4.12221C2.88699 5.35743 1.92324 6.83694 1.29259 8.46599C0.581018 10.3611 0.194093 12.3625 0.148031 14.3863C0.0296254 17.001 0 17.8397 0 24.5C0 31.1603 2.40837e-05 31.999 0.148031 34.6138C0.194093 36.6375 0.581018 38.639 1.29259 40.5341C1.92324 42.1631 2.88699 43.6426 4.12221 44.8778C5.35743 46.113 6.83694 47.0768 8.46599 47.7074C10.3611 48.4188 12.3625 48.8058 14.3863 48.852C17.001 48.9704 17.8397 49 24.5 49C31.1603 49 31.999 49 34.6138 48.852C36.6375 48.8058 38.639 48.4188 40.5341 47.7074C42.1631 47.0768 43.6426 46.113 44.8778 44.8778C46.113 43.6426 47.0768 42.1631 47.7075 40.5341C48.419 38.639 48.8059 36.6375 48.852 34.6138C48.9704 31.999 49 31.1603 49 24.5C49 17.8397 49 17.001 48.852 14.3863C48.8059 12.3625 48.419 10.3611 47.7075 8.46599C47.0768 6.83694 46.113 5.35743 44.8778 4.12221C43.6426 2.88699 42.1631 1.92324 40.5341 1.29259C38.639 0.5812 36.6375 0.194281 34.6138 0.148031C31.999 0.0296254 31.1603 0 24.5 0Z" fill="white"/>
<path d="M24.5001 11.9297C22.0063 11.9219 19.5663 12.6543 17.4891 14.034C15.4118 15.4138 13.7906 17.379 12.8308 19.6807C11.8711 21.9824 11.616 24.5171 12.0977 26.964C12.5794 29.4108 13.7762 31.6596 15.5368 33.4257C17.2974 35.1918 19.5426 36.3959 21.9879 36.8853C24.4332 37.3746 26.9686 37.1274 29.2733 36.1749C31.578 35.2224 33.5483 33.6074 34.9346 31.5345C36.3209 29.4615 37.0609 27.0238 37.0609 24.53C37.0609 21.1882 35.7334 17.9833 33.3704 15.6203C31.0074 13.2573 27.8024 11.9297 24.4606 11.9297H24.5001ZM24.4606 32.7099C22.8428 32.7099 21.2612 32.2301 19.9161 31.3313C18.5709 30.4325 17.5225 29.155 16.9034 27.6603C16.2843 26.1657 16.1223 24.5209 16.4379 22.9342C16.7535 21.3475 17.5326 19.89 18.6766 18.746C19.8205 17.6021 21.278 16.823 22.8648 16.5074C24.4515 16.1918 26.0962 16.3537 27.5909 16.9728C29.0856 17.592 30.3631 18.6404 31.2619 19.9856C32.1607 21.3307 32.6405 22.9122 32.6405 24.53C32.6405 26.6994 31.7786 28.78 30.2446 30.314C28.7106 31.848 26.63 32.7099 24.4606 32.7099Z" fill="white"/>
<path d="M40.5345 11.4367C40.5345 12.0222 40.3609 12.5944 40.0356 13.0812C39.7104 13.568 39.2481 13.9474 38.7072 14.1715C38.1663 14.3955 37.5711 14.4541 36.9969 14.3399C36.4226 14.2257 35.8952 13.9438 35.4813 13.5298C35.0673 13.1158 34.7853 12.5884 34.6711 12.0142C34.5569 11.44 34.6156 10.8448 34.8396 10.3039C35.0637 9.76299 35.443 9.30066 35.9298 8.9754C36.4166 8.65013 36.9889 8.47656 37.5744 8.47656C38.3595 8.47656 39.1124 8.78842 39.6675 9.34355C40.2227 9.89868 40.5345 10.6516 40.5345 11.4367Z" fill="white"/>
</g>
</svg>
