<svg width="146" height="43" viewBox="0 0 146 43" fill="none" xmlns="http://www.w3.org/2000/svg">
<g opacity="0.7">
<path d="M24.686 15.2764H17.1113V17.2619H24.686V15.2764Z" fill="white"/>
<path d="M24.6857 0H22.7168V15.2767H24.6857V0Z" fill="white"/>
<path d="M7.5752 15.2761V11.0012C7.5752 10.1092 7.9266 9.25365 8.55213 8.62286C9.17767 7.99207 10.0261 7.6377 10.9108 7.6377H22.7247V9.5936H10.9108C10.5483 9.5936 10.2007 9.73878 9.94441 9.9972C9.68813 10.2556 9.54423 10.6061 9.54423 10.9716V15.2464L7.5752 15.2761Z" fill="white"/>
<path d="M9.53633 17.2617H7.56738V25.7373H9.53633V17.2617Z" fill="white"/>
<path d="M17.1116 9.62402H15.1426V33.3763H17.1116V9.62402Z" fill="white"/>
<path d="M3.33548 27.7235C2.89745 27.7235 2.46377 27.6365 2.05908 27.4675C1.65439 27.2985 1.28667 27.0507 0.976939 26.7384C0.667206 26.426 0.421525 26.0553 0.253898 25.6472C0.0862719 25.2391 0 24.8017 0 24.36V18.6331C0 18.1914 0.0862719 17.754 0.253898 17.3459C0.421525 16.9378 0.667206 16.567 0.976939 16.2547C1.28667 15.9424 1.65439 15.6946 2.05908 15.5256C2.46377 15.3565 2.89745 15.2695 3.33548 15.2695H15.1495V17.2551H3.33548C2.97432 17.2551 2.62788 17.3992 2.37181 17.6561C2.11574 17.9129 1.97089 18.2615 1.96895 18.6257V24.3526C1.96895 24.7181 2.11293 25.0686 2.36921 25.327C2.62549 25.5854 2.97305 25.7306 3.33548 25.7306H15.1495V27.7161H3.33548V27.7235Z" fill="white"/>
<path d="M15.1494 7.63836V3.36355C15.1494 2.47148 15.5008 1.61595 16.1264 0.985165C16.7519 0.354378 17.6003 0 18.4849 0H22.7241V1.98555H18.4849C18.1225 1.98555 17.7749 2.13072 17.5186 2.38915C17.2623 2.64758 17.1184 2.99808 17.1184 3.36355V7.63836H15.1494Z" fill="white"/>
<path d="M24.686 25.7373H17.1113V27.7228H24.686V25.7373Z" fill="white"/>
<path d="M24.6857 27.7227H22.7168V42.9994H24.6857V27.7227Z" fill="white"/>
<path d="M10.9029 35.361C10.0183 35.361 9.16986 35.0066 8.54432 34.3759C7.91879 33.7451 7.56738 32.8895 7.56738 31.9975V27.7227H9.53642V31.9975C9.53642 32.3629 9.68041 32.7134 9.93668 32.9719C10.193 33.2303 10.5405 33.3755 10.9029 33.3755H22.7169V35.361H10.9029Z" fill="white"/>
<path d="M18.4781 42.9997C18.04 42.9997 17.6063 42.9127 17.2017 42.7437C16.797 42.5746 16.4293 42.3269 16.1195 42.0145C15.8098 41.7022 15.5641 41.3314 15.3965 40.9233C15.2289 40.5152 15.1426 40.0778 15.1426 39.6361V35.3613H17.1115V39.6361C17.1135 40.0003 17.2583 40.3489 17.5144 40.6058C17.7705 40.8626 18.1169 41.0068 18.4781 41.0067H22.7173V42.9923H18.4781V42.9997Z" fill="white"/>
<path d="M54.6687 17.3734C54.6044 16.8323 54.3934 16.3196 54.0589 15.8916C53.6861 15.4586 53.2036 15.136 52.663 14.9581C51.8696 14.7078 51.0399 14.5951 50.2091 14.6248C49.9005 14.6248 49.5528 14.6248 49.1658 14.6248C48.7838 14.6248 48.3944 14.6692 47.9977 14.7137C47.1935 14.8019 46.4022 14.9834 45.6393 15.2545L46.0728 16.7807C47.3024 16.5005 48.5591 16.3589 49.8197 16.3584C50.6411 16.2725 51.4675 16.4626 52.1707 16.8992C52.417 17.1588 52.6034 17.4701 52.7164 17.8108C52.8295 18.1515 52.8664 18.5131 52.8246 18.8699V19.7516H49.276C47.5617 19.7516 46.3372 20.1097 45.6025 20.8258C45.2069 21.2669 44.905 21.785 44.7155 22.3482C44.5259 22.9113 44.4528 23.5077 44.5005 24.1005C44.4309 25.0576 44.7134 26.0071 45.2939 26.7676C45.6263 27.1009 46.0285 27.3551 46.4709 27.5114C46.9132 27.6678 47.3847 27.7225 47.8508 27.6715C49.6072 27.5781 51.3091 27.024 52.7879 26.0638L52.8393 27.464H54.7863V19.2255C54.7926 18.6061 54.7533 17.987 54.6687 17.3734ZM52.8246 24.4635C52.5029 24.6532 52.1719 24.8262 51.8328 24.9821C51.0099 25.3673 47.8434 26.6935 46.903 25.5822C46.5826 25.1592 46.4306 24.6307 46.4768 24.1005C46.4337 23.7214 46.4732 23.3374 46.5925 22.9752C46.7118 22.6131 46.908 22.2816 47.1674 22.0038C47.7047 21.5968 48.3711 21.4018 49.041 21.4556H52.8172L52.8246 24.4635Z" fill="white"/>
<path d="M92.5501 17.3734C92.4858 16.8323 92.2747 16.3196 91.9402 15.8916C91.5672 15.4589 91.0848 15.1363 90.5444 14.9581C89.751 14.7078 88.9212 14.5951 88.0904 14.6248C87.7819 14.6248 87.4342 14.6248 87.0472 14.6248C86.6603 14.6248 86.2708 14.6544 85.879 14.7137C85.0749 14.8021 84.2836 14.9836 83.5206 15.2545L83.9541 16.7807C85.1837 16.5005 86.4405 16.3588 87.7011 16.3584C88.5225 16.2725 89.3489 16.4626 90.0521 16.8992C90.2984 17.1588 90.4847 17.4701 90.5978 17.8108C90.7108 18.1515 90.7478 18.5131 90.706 18.8699V19.7516H87.1647C85.4553 19.7516 84.2308 20.1097 83.4912 20.8258C83.0956 21.2669 82.7937 21.785 82.6042 22.3482C82.4147 22.9113 82.3414 23.5077 82.3891 24.1005C82.3196 25.0576 82.6021 26.0071 83.1827 26.7676C83.5151 27.1009 83.9172 27.3551 84.3595 27.5114C84.8019 27.6678 85.2734 27.7225 85.7394 27.6715C87.4984 27.5794 89.2029 27.0252 90.6839 26.0638L90.7354 27.464H92.6823V19.2255C92.6839 18.6057 92.6398 17.9866 92.5501 17.3734ZM90.706 24.4635C90.3843 24.6532 90.0533 24.8262 89.7142 24.9821C88.8913 25.3673 85.7247 26.6935 84.7843 25.5822C84.4639 25.1592 84.312 24.6307 84.3582 24.1005C84.3156 23.7214 84.3553 23.3375 84.4746 22.9755C84.5938 22.6134 84.7897 22.2819 85.0488 22.0038C85.586 21.5968 86.2524 21.4018 86.9223 21.4556H90.6986V24.4857L90.706 24.4635Z" fill="white"/>
<path d="M43.0462 25.5006C41.7486 25.8245 40.4155 25.9813 39.0788 25.9674C38.5785 25.9832 38.0798 25.9027 37.6094 25.7303C37.2175 25.575 36.8853 25.2972 36.6616 24.9375C36.3919 24.4841 36.2169 23.9799 36.1473 23.4558C36.0332 22.6759 35.9816 21.8881 35.9931 21.0998C35.9819 20.3559 36.0335 19.6123 36.1473 18.8772C36.2177 18.3695 36.3876 17.8809 36.647 17.4399C36.8688 17.0844 37.1949 16.8073 37.58 16.6472C38.0494 16.4704 38.5485 16.3874 39.0494 16.4027C39.5098 16.4027 40.0633 16.4324 40.7098 16.4916C41.4495 16.5553 42.1853 16.6592 42.9139 16.8028L43.3033 15.3211C41.9154 14.9221 40.4844 14.6957 39.042 14.6469C38.1082 14.6032 37.178 14.7888 36.331 15.1877C35.6845 15.5275 35.1431 16.0401 34.7661 16.6694C34.3827 17.3001 34.1325 18.0038 34.0314 18.7365C33.918 19.534 33.8616 20.3386 33.8624 21.1443C33.8593 22.0017 33.9157 22.8583 34.0314 23.7077C34.1298 24.4503 34.38 25.1642 34.7661 25.8044C35.144 26.4181 35.6866 26.9113 36.331 27.2268C37.1827 27.6089 38.1107 27.7864 39.042 27.7454C40.5465 27.7401 42.0384 27.4693 43.4502 26.9453L43.0462 25.5006Z" fill="white"/>
<path d="M103.989 25.5006C102.691 25.8245 101.358 25.9813 100.022 25.9674C99.5213 25.9832 99.0226 25.9027 98.5522 25.7303C98.1604 25.575 97.8283 25.2972 97.6045 24.9375C97.3352 24.4839 97.1601 23.9798 97.0902 23.4558C96.9764 22.6759 96.9248 21.8881 96.9359 21.0998C96.9251 20.3559 96.9767 19.6124 97.0902 18.8772C97.1613 18.3697 97.3311 17.8812 97.5898 17.4399C97.8136 17.0832 98.1424 16.806 98.5302 16.6472C98.9996 16.4702 99.4987 16.3872 99.9996 16.4027C100.462 16.4027 101.014 16.4027 101.66 16.4916C102.4 16.5553 103.136 16.6592 103.864 16.8028L104.253 15.3211C102.866 14.9221 101.435 14.6957 99.9923 14.6469C99.0585 14.6032 98.1281 14.7888 97.2812 15.1877C96.6347 15.5275 96.0933 16.0401 95.7163 16.6694C95.3334 17.3003 95.0833 18.0039 94.9816 18.7365C94.8682 19.534 94.8118 20.3386 94.8126 21.1443C94.8096 22.0017 94.8661 22.8582 94.9816 23.7077C95.0804 24.4502 95.3306 25.1641 95.7163 25.8044C96.0945 26.4178 96.637 26.9109 97.2812 27.2268C98.1329 27.6089 99.061 27.7864 99.9923 27.7454C101.497 27.7401 102.989 27.4693 104.4 26.9453L103.989 25.5006Z" fill="white"/>
<path d="M59.5333 9.26855H57.6084V27.5236H59.5333V9.26855Z" fill="white"/>
<path d="M64.4191 9.26855H62.4941V27.5236H64.4191V9.26855Z" fill="white"/>
<path d="M72.1845 25.945C71.5366 26.0762 70.8728 26.1086 70.2154 26.0413C70.0131 26.0119 69.8226 25.9273 69.6644 25.7968C69.5242 25.6524 69.4296 25.4694 69.3926 25.2708C69.3354 24.9705 69.3059 24.6654 69.3044 24.3595V16.536H72.3754V14.9061H69.3044V10.8535L67.3795 11.7352V24.9745C67.3733 25.3537 67.4153 25.7321 67.5044 26.1006C67.5807 26.4194 67.729 26.7161 67.9379 26.9674C68.166 27.2245 68.4575 27.4162 68.7828 27.5231C69.2191 27.6759 69.6808 27.7413 70.142 27.7157C70.9345 27.6832 71.7196 27.5487 72.4783 27.3156L72.1845 25.945Z" fill="white"/>
<path d="M81.5523 16.4695V14.7803C81.0082 14.8493 80.4703 14.9608 79.9433 15.1137C79.5686 15.2396 79.2086 15.3878 78.8412 15.5508C78.4739 15.7138 78.1506 15.8768 77.8494 16.0398C77.5916 16.168 77.3457 16.3192 77.1147 16.4917L77.0632 16.4398V14.9581H75.0869V27.5529H77.0632V17.9438C78.4833 17.2417 79.9946 16.7453 81.5523 16.4695Z" fill="white"/>
<path d="M116.185 27.5226L111.534 20.0102L115.744 14.913H113.481L109.61 19.5953L108.28 21.3364L108.228 21.3067V9.94922H106.252V27.5226H108.228V24.0257L110.278 21.5142L113.944 27.5226H116.185Z" fill="white"/>
<path d="M120.027 14.9141H118.103V27.5237H120.027V14.9141Z" fill="white"/>
<path d="M119.072 12.7135C119.562 12.7135 119.866 12.6023 119.983 12.3801C120.12 12.1257 120.185 11.8392 120.174 11.5503C120.189 11.2639 120.118 10.9797 119.969 10.7354C119.831 10.5378 119.533 10.439 119.072 10.439C118.91 10.4158 118.745 10.4319 118.59 10.4861C118.436 10.5402 118.296 10.6307 118.183 10.7502C118.029 10.9873 117.952 11.267 117.963 11.5503C117.957 11.833 118.02 12.1128 118.147 12.3652C118.264 12.5579 118.573 12.7135 119.072 12.7135Z" fill="white"/>
<path d="M130.784 17.0029C131.141 17.7407 131.288 18.5639 131.21 19.3811V27.4862H133.186V19.4107C133.188 18.7692 133.149 18.1282 133.069 17.4918C133.005 16.9685 132.835 16.4641 132.569 16.0101C132.301 15.5746 131.913 15.2271 131.452 15.0099C130.823 14.7411 130.143 14.6171 129.461 14.6469C129.002 14.6465 128.545 14.7063 128.102 14.8247C127.277 15.0504 126.485 15.3816 125.743 15.8101C125.415 16.0027 125.151 16.1657 124.95 16.299H124.869V14.9284H122.944V27.5232H124.869V17.8919C125.06 17.7882 125.332 17.6548 125.692 17.4918C126.052 17.3289 126.427 17.1659 126.846 17.0103C127.264 16.8547 127.668 16.7139 128.08 16.5954C128.43 16.4857 128.793 16.4259 129.16 16.4176C129.495 16.4084 129.829 16.4509 130.152 16.5435C130.405 16.6257 130.626 16.7865 130.784 17.0029Z" fill="white"/>
<path d="M140.673 14.6537C141.07 14.6537 141.474 14.6537 141.9 14.7056C142.326 14.7574 142.745 14.7797 143.156 14.8315C143.568 14.8834 145.36 15.1946 145.999 15.3798V27.5671C146.003 28.2051 145.952 28.8422 145.845 29.4711C145.751 30.0145 145.521 30.5246 145.177 30.9528C144.786 31.4112 144.277 31.7521 143.707 31.9382C142.861 32.1996 141.977 32.3172 141.092 32.2864C140.768 32.2864 140.416 32.2864 140.041 32.2864C139.666 32.2864 139.306 32.242 138.924 32.1975C138.564 32.1539 138.206 32.0921 137.852 32.0123C137.405 31.913 136.966 31.7843 136.537 31.627L136.823 30.1972C137.007 30.247 137.193 30.2865 137.381 30.3157C137.985 30.4061 138.594 30.4655 139.203 30.4935C139.872 30.4935 140.467 30.5454 141.003 30.5454C141.497 30.5556 141.99 30.5083 142.473 30.4046C142.813 30.3319 143.131 30.1768 143.399 29.9527C143.631 29.74 143.799 29.4651 143.884 29.1599C143.984 28.7834 144.031 28.3942 144.023 28.0042V26.967C143.352 27.2257 142.662 27.4288 141.959 27.5745C141.438 27.68 140.91 27.737 140.379 27.7449C139.538 27.7751 138.701 27.6209 137.925 27.293C137.304 27.0121 136.774 26.5601 136.397 25.989C135.999 25.369 135.731 24.673 135.611 23.9442C135.458 23.0637 135.384 22.171 135.39 21.2771C135.381 20.3347 135.467 19.3939 135.648 18.4692C135.79 17.7208 136.088 17.0112 136.522 16.3874C136.936 15.814 137.497 15.3657 138.145 15.0908C138.95 14.7745 139.81 14.6258 140.673 14.6537ZM137.455 21.0474C137.444 21.8184 137.496 22.589 137.609 23.3515C137.683 23.8864 137.853 24.4034 138.109 24.8777C138.312 25.2468 138.622 25.5443 138.998 25.7297C139.419 25.9152 139.876 26.0038 140.335 25.989C140.911 25.9801 141.486 25.9281 142.054 25.8334C142.722 25.7275 143.382 25.5791 144.03 25.3889V16.7726C143.541 16.7035 143.007 16.6392 142.429 16.58C141.87 16.5203 141.308 16.4907 140.746 16.4911C140.311 16.4875 139.876 16.5397 139.453 16.6467C139.049 16.7523 138.685 16.9736 138.403 17.2838C138.063 17.6765 137.823 18.1471 137.705 18.6544C137.515 19.4373 137.426 20.2416 137.44 21.0474H137.455Z" fill="white"/>
</g>
</svg>
