<svg width="72" height="58" viewBox="0 0 72 58" fill="none" xmlns="http://www.w3.org/2000/svg">
<g opacity="0.7">
<path d="M0.611328 34.5039V58.0005H65.3884L71.9641 46.3058L65.3884 34.5396L0.611328 34.5039ZM64.5979 56.6514H1.95879V35.844H64.5979L70.419 46.3058L64.5979 56.6514Z" fill="white"/>
<path d="M28.8995 24.6224H36.3375V28.1334H38.3856V22.773H37.0831V8.2373H29.8068V9.67568C29.8068 10.6882 29.7918 11.7543 29.7619 12.8741C29.7272 14.0097 29.6343 15.1428 29.4834 16.269C29.3319 17.4131 29.1098 18.5469 28.8186 19.6639C28.5375 20.7536 28.1274 21.8063 27.5969 22.7998H26.5908V28.1602H28.8995V24.6224ZM30.9476 20.2536C31.2387 19.2411 31.4667 18.2118 31.6303 17.1714C31.8058 16.0702 31.9257 14.961 31.9896 13.8479C32.0555 12.7162 32.0885 11.6442 32.0885 10.6316V10.31H34.5229V22.8177H29.8786C30.3479 22.014 30.7074 21.1517 30.9476 20.2536Z" fill="white"/>
<path d="M45.5993 25.2654C46.3557 25.2761 47.1086 25.1614 47.8271 24.9259C48.4486 24.7145 49.0498 24.4484 49.6237 24.1308L49.3273 22.2903C48.9209 22.4529 48.5037 22.5873 48.0787 22.6924C47.5748 22.8274 47.0554 22.8965 46.5336 22.8979C45.9568 22.9361 45.3806 22.8165 44.8674 22.5519C44.3543 22.2872 43.9239 21.8878 43.623 21.3969C42.9497 20.1094 42.6393 18.6646 42.7247 17.2158H49.7136V15.7863C49.8414 13.7295 49.4166 11.6759 48.4829 9.83626C48.1787 9.23588 47.7145 8.7301 47.1411 8.37406C46.5677 8.01802 45.907 7.8254 45.231 7.81718C44.3825 7.79959 43.5551 8.08125 42.8954 8.6123C42.2106 9.18588 41.6615 9.90279 41.2874 10.7118C40.8541 11.6679 40.552 12.6775 40.3891 13.7136C40.1788 14.8932 40.0765 16.0893 40.0837 17.2873C39.957 19.3692 40.4913 21.438 41.6108 23.2016C42.0539 23.8452 42.6496 24.3702 43.3453 24.7302C44.0409 25.0901 44.8151 25.274 45.5993 25.2654ZM42.9673 12.99C43.0579 12.4297 43.2116 11.8813 43.4254 11.3551C43.5842 10.9476 43.8293 10.579 44.1441 10.274C44.4051 10.0257 44.753 9.8879 45.1142 9.88986C45.6353 9.88986 46.0575 10.2413 46.3809 10.9441C46.7601 11.8861 46.9699 12.887 47.0007 13.9013C47.0007 14.0502 47.0007 14.1901 47.0007 14.3212C47.0007 14.4463 47.0007 14.5713 47.0007 14.6785V15.0359H42.7427C42.7786 14.3473 42.8536 13.6613 42.9673 12.9811V12.99Z" fill="white"/>
<path d="M68.2361 25.2659C68.9485 25.2766 69.6571 25.1617 70.3291 24.9264C70.9107 24.7158 71.4703 24.4495 72 24.1312L71.7395 22.2908C71.3471 22.4496 70.9451 22.5839 70.5358 22.6929C70.06 22.8309 69.5672 22.9031 69.0715 22.9073C68.4919 22.9288 67.9186 22.7813 67.4222 22.4829C66.9258 22.1844 66.528 21.7481 66.2778 21.2277C65.6068 19.7831 65.2985 18.198 65.3795 16.6088C65.3793 15.7799 65.4454 14.9524 65.5771 14.134C65.6889 13.3994 65.8755 12.678 66.1341 11.9809C66.3291 11.4203 66.6345 10.904 67.0324 10.4621C67.185 10.2848 67.3735 10.1414 67.5855 10.0414C67.7976 9.94132 68.0284 9.88682 68.263 9.88141C68.6728 9.88896 69.0717 10.013 69.4129 10.2388C69.7965 10.485 70.1415 10.786 70.4369 11.1322L71.7665 8.89866C71.2926 8.56555 70.772 8.30366 70.2214 8.1214C69.5981 7.91869 68.9457 7.81907 68.29 7.82657C67.4931 7.82662 66.7143 8.06303 66.0532 8.50556C65.3177 8.99702 64.7035 9.64757 64.2566 10.4085C63.7145 11.3359 63.3148 12.3387 63.0708 13.3836C62.7656 14.6533 62.6178 15.9554 62.6307 17.2609C62.6307 19.8458 63.1457 21.8263 64.1758 23.2021C64.6278 23.8536 65.2355 24.3832 65.9442 24.7434C66.6529 25.1036 67.4404 25.2831 68.2361 25.2659Z" fill="white"/>
<path d="M2.95542 24.6223L8.14767 15.6883H9.83647V24.6223H12.4057V7.53705e-05H8.24648C7.33728 -0.00418208 6.43635 0.171968 5.59645 0.518239C4.76155 0.864737 4.01331 1.3893 3.40457 2.0549C2.74732 2.78338 2.24065 3.63336 1.9134 4.55642C1.52842 5.65573 1.34287 6.81433 1.36542 7.97818C1.32463 9.4849 1.66438 10.9777 2.35357 12.3201C3.10769 13.6215 4.2639 14.646 5.65035 15.2416L0 24.6223H2.95542ZM5.45275 12.2755C5.01193 11.7747 4.67598 11.1916 4.4646 10.5601C4.19427 9.73579 4.06668 8.8718 4.0873 8.00498C4.06655 7.09967 4.18161 6.19634 4.42866 5.32477C4.61386 4.67882 4.9185 4.07287 5.32697 3.53796C5.6707 3.09525 6.11781 2.74259 6.62953 2.51054C7.10427 2.29905 7.61849 2.18944 8.13868 2.1889H9.82751V13.562H8.46206C7.90565 13.5638 7.35393 13.4608 6.83612 13.2582C6.30593 13.0435 5.83259 12.7103 5.45275 12.2844V12.2755Z" fill="white"/>
<path d="M18.5504 16.9927H22.2424V24.6313H24.8116V8.2373H22.2424V14.7949H18.5504V8.2373H15.9453V24.6313H18.5504V16.9927Z" fill="white"/>
<path d="M54.8784 16.3137L55.1748 16.6711L59.1723 24.8725H62.0648L57.3846 15.733L61.4719 8.2373H58.7141L55.1748 15.4739L54.8784 15.7955V8.2373H52.2822V24.8725H54.8784V16.3137Z" fill="white"/>
<path d="M15.9541 48.4578L13.34 41.9717H11.9746V49.923H13.0256V46.8229L12.9268 43.4994L15.5409 49.923H16.3494L18.9814 43.4815L18.8826 46.8229V49.923H19.9336V41.9717H18.5682L15.9541 48.4578Z" fill="white"/>
<path d="M23.9668 43.9028C23.5002 43.9026 23.044 44.0394 22.6553 44.2959C22.2441 44.573 21.9202 44.9602 21.721 45.4126C21.4885 45.9041 21.3718 46.4419 21.3796 46.985V47.1726C21.3408 47.947 21.6121 48.7052 22.1342 49.281C22.388 49.5424 22.6945 49.7475 23.0335 49.883C23.3725 50.0185 23.7364 50.0813 24.1015 50.0672C24.5427 50.0905 24.9823 49.9969 25.3752 49.796C25.7682 49.5951 26.1005 49.2941 26.3383 48.9237L25.7185 48.4413C25.5396 48.6751 25.3169 48.8723 25.0627 49.022C24.7872 49.1701 24.4775 49.244 24.1644 49.2364C23.9296 49.2426 23.6963 49.1978 23.4807 49.1053C23.265 49.0127 23.0722 48.8745 22.9157 48.7003C22.576 48.3086 22.3937 47.806 22.4037 47.2888H26.4281V46.8689C26.4778 46.0919 26.2486 45.3226 25.7814 44.6979C25.5612 44.435 25.2827 44.2264 24.9679 44.0885C24.6531 43.9505 24.3104 43.887 23.9668 43.9028ZM25.3951 46.4222H22.4217C22.4537 45.9616 22.6331 45.5233 22.9337 45.1714C23.0637 45.0277 23.2232 44.9134 23.4014 44.8363C23.5796 44.7593 23.7725 44.7212 23.9668 44.7247C24.1553 44.7163 24.3433 44.7496 24.5173 44.8223C24.6912 44.8949 24.8468 45.005 24.9729 45.1446C25.242 45.4861 25.3876 45.9079 25.3861 46.3418L25.3951 46.4222Z" fill="white"/>
<path d="M26.9854 44.8316H28.9437V49.924H29.9588V44.8316H31.953V44.0186H26.9854V44.8316Z" fill="white"/>
<path d="M35.6457 43.9027C35.3178 43.8873 34.9908 43.9488 34.6912 44.0823C34.3916 44.2157 34.1277 44.4174 33.921 44.6711L33.8671 44.0189H32.9688V52.2025H33.9838V49.3525C34.2016 49.5823 34.4671 49.7621 34.7619 49.8794C35.0567 49.9967 35.3736 50.0486 35.6906 50.0315C36.017 50.0425 36.3411 49.9732 36.6341 49.8298C36.9271 49.6864 37.1801 49.4734 37.3705 49.2095C37.8075 48.5715 38.0249 47.8098 37.9903 47.0386V46.9492C38.0388 46.1569 37.8208 45.3711 37.3705 44.7157C37.172 44.45 36.9109 44.2368 36.6102 44.0951C36.3094 43.9533 35.9782 43.8872 35.6457 43.9027ZM36.544 48.6288C36.4129 48.8114 36.2386 48.9591 36.0365 49.0588C35.8344 49.1585 35.6107 49.2072 35.3852 49.2006C35.1003 49.2121 34.818 49.1425 34.5714 49.0001C34.3248 48.8577 34.1241 48.6483 33.9928 48.3965V45.5734C34.1213 45.3206 34.3198 45.1098 34.565 44.9657C34.8101 44.8216 35.0917 44.7504 35.3762 44.7604C35.6054 44.7526 35.8329 44.8016 36.0383 44.903C36.2438 45.0043 36.4206 45.1549 36.553 45.3411C36.8638 45.8085 37.0149 46.3629 36.9842 46.9224C37.0224 47.5232 36.8683 48.1205 36.544 48.6288Z" fill="white"/>
<path d="M40.352 48.3337V44.0186H39.3369V49.924H40.352L43.0919 45.6178V49.924H44.1069V44.0186H43.0919L40.352 48.3337Z" fill="white"/>
<path d="M50.7458 44.0186H49.5151L47.5119 46.5201H46.8471V44.0186H45.832V49.924H46.8471V47.4046H47.5927L49.6498 49.924H50.9434L48.3922 46.8596L50.7458 44.0186Z" fill="white"/>
<path d="M56.3058 45.8231C56.3121 45.5601 56.2617 45.2988 56.1579 45.0568C56.054 44.8149 55.8993 44.5979 55.704 44.4205C55.2497 44.0589 54.6769 43.8775 54.096 43.9112C53.688 43.9073 53.2839 43.9895 52.9102 44.1524C52.5586 44.2879 52.2489 44.5128 52.0119 44.8046C51.8055 45.0568 51.6943 45.3729 51.6975 45.698H52.7216C52.7238 45.5663 52.7585 45.437 52.8228 45.3218C52.887 45.2065 52.9787 45.1086 53.0899 45.0369C53.3512 44.85 53.6665 44.7528 53.9882 44.7599C54.3169 44.7459 54.6384 44.8579 54.8865 45.0726C54.9935 45.1841 55.0766 45.316 55.1306 45.4604C55.1847 45.6047 55.2086 45.7586 55.2009 45.9124V46.3055H54.2128C53.5136 46.263 52.8188 46.4412 52.2275 46.8148C51.9988 46.9754 51.8141 47.1902 51.6902 47.4399C51.5662 47.6895 51.507 47.966 51.5179 48.2442C51.513 48.4814 51.5613 48.7167 51.6592 48.933C51.757 49.1494 51.9021 49.3413 52.0838 49.495C52.484 49.8321 52.997 50.0075 53.5211 49.9864C53.8385 49.9888 54.1529 49.9249 54.4438 49.7987C54.7348 49.6725 54.9958 49.4868 55.2099 49.2538C55.2256 49.4683 55.2741 49.6792 55.3536 49.8792H56.4226C56.2679 49.4653 56.1977 49.0249 56.216 48.5837L56.3058 45.8231ZM55.2907 48.271C55.1553 48.5436 54.9389 48.7681 54.6709 48.9143C54.3988 49.0749 54.089 49.1612 53.7726 49.1644C53.4764 49.1767 53.1859 49.0814 52.9551 48.8964C52.8481 48.8059 52.7638 48.6916 52.7092 48.5629C52.6546 48.4341 52.6312 48.2943 52.6407 48.1549C52.6407 47.4283 53.2636 47.0649 54.5092 47.0649H55.3087L55.2907 48.271Z" fill="white"/>
</g>
</svg>
