<svg width="97" height="54" viewBox="0 0 97 54" fill="none" xmlns="http://www.w3.org/2000/svg">
<g opacity="0.7">
<path d="M20.9242 7.08981C19.8705 8.58955 18.9745 10.1946 18.2506 11.8794L18.3404 11.9319C18.5726 11.6016 18.8198 11.2713 19.0445 10.9335C21.4509 7.32382 24.7072 4.36391 28.5257 2.31527C31.9168 0.542452 35.7371 -0.238011 39.5498 0.0631237C41.1344 0.13898 42.7003 0.439762 44.2007 0.956476C46.3276 1.70719 47.8479 3.20862 49.2784 4.8677C49.339 4.94427 49.4094 5.01243 49.488 5.07038C49.1396 4.2811 48.6555 3.55942 48.0576 2.93835C47.4735 2.30775 46.8369 1.72972 46.2527 1.05407C46.8651 1.36643 47.4556 1.72008 48.0201 2.11258C52.0119 5.2806 53.667 9.3945 52.8431 14.4543C52.2001 17.7376 50.7683 20.8143 48.6717 23.4179C47.9977 24.3337 47.2637 25.2046 46.5298 26.0679C46.4336 26.1656 46.3737 26.2934 46.36 26.43C46.3464 26.5666 46.3799 26.7038 46.4549 26.8186C47.2787 28.4552 48.0726 30.1067 48.8814 31.7583C48.9488 31.8934 49.0012 32.0286 49.0985 32.2613C48.2073 32.0736 47.406 31.9235 46.6122 31.7358C44.9121 31.3229 43.227 30.8725 41.527 30.4671C41.2935 30.4259 41.0531 30.4573 40.838 30.5572C38.6816 31.5707 36.4215 32.346 34.0977 32.8694C30.7566 33.6649 27.276 33.6649 23.9349 32.8694C22.179 32.4428 20.532 31.6518 19.1001 30.5475C17.6682 29.4432 16.4833 28.0501 15.6219 26.4582C14.3305 24.3633 13.7451 21.9079 13.9518 19.4541C14.1189 18.4176 14.3847 17.3995 14.7456 16.4137C16.0022 12.8404 18.1254 9.63627 20.9242 7.08981ZM45.7884 29.4086L45.8782 29.3185C45.8043 29.1492 45.7218 28.9839 45.6311 28.823C44.8822 27.6894 44.2082 26.5709 43.4742 25.4223C43.4323 25.3755 43.4003 25.3205 43.3804 25.2607C43.3606 25.201 43.3533 25.1378 43.359 25.0751C43.3646 25.0124 43.383 24.9516 43.4132 24.8963C43.4433 24.8411 43.4845 24.7927 43.5341 24.7542C43.8487 24.4313 44.1407 24.0785 44.4553 23.7557C46.5337 21.6506 48.0416 19.0486 48.8364 16.196C49.62 13.7911 49.62 11.1988 48.8364 8.79394C48.2709 6.94206 47.1685 5.30072 45.6694 4.07884C44.1704 2.85695 42.3426 2.10977 40.4186 1.9324C36.5488 1.47079 32.6282 2.13536 29.1249 3.84673C26.0665 5.26191 23.3867 7.38453 21.3061 10.0401C19.374 12.3055 18.143 15.0866 17.7638 18.0428C17.3219 22.3444 19.2616 25.8051 22.849 28.0047C26.294 30.1217 30.106 30.4521 34.0229 29.6638C35.9499 29.2644 37.8318 28.6709 39.6398 27.8921C39.9239 27.757 40.2328 27.6818 40.5472 27.6715C40.8616 27.6612 41.1747 27.7158 41.4671 27.8321C42.1112 28.0873 42.7777 28.305 43.4293 28.5453L45.7884 29.4086Z" fill="white"/>
<path d="M19.2397 53.7395C19.0525 53.7395 18.9177 53.7395 18.7829 53.7395C17.7569 53.7395 16.7308 53.7395 15.7048 53.7395C15.6059 53.7527 15.5057 53.7274 15.4249 53.6687C15.3441 53.61 15.2888 53.5225 15.2705 53.4242C14.7313 51.8552 14.1695 50.3012 13.6303 48.7322C13.6084 48.6212 13.545 48.5229 13.4531 48.4573C13.3612 48.3917 13.2478 48.3638 13.1361 48.3793C10.7545 48.4194 8.37543 48.4444 5.99885 48.4544C5.86703 48.4372 5.73367 48.4723 5.62732 48.5522C5.52097 48.6322 5.45005 48.7507 5.42967 48.8823C4.92789 50.3838 4.38871 51.8251 3.87944 53.2965C3.85746 53.4154 3.79082 53.5214 3.69331 53.5926C3.59581 53.6638 3.47479 53.6948 3.35515 53.6794C2.24674 53.6794 1.1084 53.6794 0 53.6794C0.037446 53.5593 0.0749249 53.4167 0.127349 53.2815C2.59379 46.8404 5.05773 40.3968 7.51918 33.9506C7.54805 33.8204 7.62525 33.706 7.73512 33.6307C7.84499 33.5555 7.97924 33.5249 8.11077 33.5452C9.13679 33.5452 10.1628 33.5452 11.1888 33.5452C11.2817 33.5314 11.3764 33.5531 11.454 33.6059C11.5317 33.6587 11.5867 33.7389 11.6083 33.8305C14.1047 40.3967 16.6285 46.963 19.1798 53.5292C19.1873 53.5367 19.2023 53.5893 19.2397 53.7395ZM6.59053 45.6242H12.5444L9.63859 37.2988H9.49634L6.59053 45.6242Z" fill="white"/>
<path d="M96.3781 39.1677L90.9335 44.4603L96.9998 53.634C96.8937 53.6588 96.7861 53.6763 96.6777 53.6865C95.5393 53.6865 94.431 53.6865 93.2702 53.6865C93.1775 53.6708 93.089 53.636 93.0103 53.5843C92.9317 53.5326 92.8647 53.4652 92.8133 53.3863C91.4952 51.3218 90.192 49.2423 88.8889 47.1703C88.6268 46.7574 88.5894 46.7349 88.2224 47.0652C87.8555 47.3955 87.3386 47.8835 86.9192 48.319C86.8269 48.4502 86.7821 48.6091 86.792 48.7694C86.792 50.2708 86.792 51.7347 86.792 53.2136V53.6865H83.4443V33.5674H86.7395V44.8281C87.2488 44.3326 87.6757 43.9423 88.0801 43.5219C89.4057 42.1556 90.7238 40.7742 92.0569 39.423C92.2282 39.2612 92.451 39.1655 92.686 39.1527C93.7794 39.1527 94.8728 39.1527 95.9663 39.1527L96.3781 39.1677Z" fill="white"/>
<path d="M53.9888 47.2377H43.2643C43.3242 48.8968 43.841 50.2406 45.3389 51.0739C46.1771 51.5028 47.1456 51.5996 48.0519 51.3451C48.9581 51.0905 49.7355 50.5032 50.2292 49.7C50.3228 49.4653 50.493 49.2692 50.7119 49.1438C50.9309 49.0184 51.1858 48.971 51.4351 49.0094C52.184 49.0695 52.8805 49.0094 53.6818 49.0094C53.6173 49.3601 53.5297 49.7062 53.4196 50.0454C52.8168 51.5205 51.6949 52.7226 50.2667 53.4236C49.5849 53.8186 48.8071 54.0161 48.02 53.9942C47.271 53.9566 46.4472 54.0542 45.6833 53.9491C42.9048 53.5738 41.1898 51.8771 40.3585 49.2872C39.656 47.2092 39.7576 44.9425 40.6431 42.9361C41.1023 41.7509 41.8912 40.7227 42.916 39.9735C43.9409 39.2243 45.1586 38.7856 46.4248 38.7096C50.2967 38.3717 53.4197 41.1344 53.8691 45.1132C53.9514 45.7888 53.9514 46.4795 53.9888 47.2377ZM50.5663 45.0982C50.4465 42.7784 48.6565 41.0818 46.5895 41.3446C44.7172 41.5623 43.0471 43.4841 43.3317 45.0982H50.5663Z" fill="white"/>
<path d="M81.9541 43.1689C80.7933 43.1689 79.7073 43.1689 78.584 43.1689C78.5016 43.1689 78.3817 43.0338 78.3592 42.9437C78.2595 42.5903 78.0685 42.2696 77.8055 42.0139C77.5425 41.7581 77.2168 41.5765 76.8614 41.4873C75.8448 41.1621 74.7421 41.2428 73.7834 41.7125C73.5929 41.7928 73.4273 41.9226 73.3036 42.0885C73.1799 42.2544 73.1027 42.4503 73.0798 42.6562C73.0569 42.862 73.0891 43.0702 73.1733 43.2593C73.2575 43.4485 73.3905 43.6116 73.5586 43.732C74.2625 44.2091 75.0677 44.515 75.9103 44.6253C77.0936 44.9556 78.3068 45.2034 79.4676 45.5938C80.1074 45.831 80.7006 46.1791 81.2201 46.6223C82.9576 48.0486 82.7179 50.8488 81.2201 52.2901C80.3908 53.1615 79.2832 53.7141 78.0896 53.8516C76.732 54.0089 75.3617 54.0265 74.0005 53.9042C71.1246 53.5063 69.6943 51.8172 69.3947 49.1972C69.3893 49.1398 69.3893 49.0819 69.3947 49.0245H72.7124C72.7618 49.2785 72.8269 49.5292 72.9071 49.7752C73.0366 50.1181 73.2431 50.4265 73.5106 50.6765C73.7782 50.9264 74.0996 51.1112 74.4499 51.2166C75.6752 51.618 77.0032 51.5674 78.1945 51.074C78.4391 50.9746 78.652 50.8102 78.8104 50.5986C78.9688 50.3871 79.0669 50.1362 79.0938 49.873C79.1208 49.6099 79.0756 49.3443 78.9633 49.1049C78.8511 48.8654 78.6759 48.6612 78.4566 48.514C78.0848 48.2638 77.6786 48.0691 77.2509 47.936C75.6856 47.4931 74.0979 47.1853 72.5401 46.6748C71.6248 46.4363 70.8334 45.8594 70.325 45.0601C69.8165 44.2607 69.6286 43.2981 69.799 42.3657C69.8605 41.8592 70.0326 41.3726 70.3031 40.9405C70.5737 40.5084 70.9361 40.1415 71.3644 39.8658C73.0075 38.8686 74.9466 38.4782 76.8464 38.7622C77.6329 38.8498 78.404 39.0442 79.1381 39.3403C79.9008 39.6755 80.5623 40.2055 81.0565 40.8774C81.5507 41.5493 81.8602 42.3395 81.9541 43.1689Z" fill="white"/>
<path d="M31.4995 43.1688C30.3911 43.1688 29.3651 43.1688 28.339 43.1688C28.2815 43.1612 28.2265 43.1403 28.1784 43.1078C28.1303 43.0752 28.0905 43.0318 28.0619 42.9812C27.4478 41.5923 26.2945 41.2395 24.924 41.3446C24.5011 41.3766 24.0822 41.4495 23.6733 41.5623C23.3885 41.6165 23.1296 41.7637 22.9372 41.9811C22.7447 42.1984 22.6296 42.4736 22.6098 42.7635C22.6193 43.0481 22.7198 43.3221 22.8965 43.5451C23.0731 43.7681 23.3166 43.9283 23.5909 44.0022C24.894 44.4001 26.2196 44.7529 27.5302 45.1132C28.1369 45.2859 28.7285 45.4886 29.3277 45.6838C32.4656 46.7348 32.6004 50.3532 30.8854 52.1849C29.9233 53.2245 28.5915 53.8421 27.1783 53.9041C25.995 53.9716 24.7967 53.9641 23.6134 53.9041C22.4742 53.8191 21.3989 53.3437 20.5683 52.5575C19.7377 51.7714 19.2024 50.7226 19.0524 49.5874C19.0524 49.4148 19.0075 49.2346 18.9775 48.9869H19.5093C20.3032 48.9869 21.097 48.9869 21.8908 48.9869C22.0494 49.0167 22.1911 49.1051 22.2878 49.2346C22.3897 49.3817 22.468 49.5438 22.5199 49.7151C22.6885 50.1932 22.9994 50.6078 23.4105 50.9032C23.8217 51.1985 24.3134 51.3603 24.8191 51.3667C25.5955 51.3908 26.3724 51.3455 27.1408 51.2315C27.4503 51.1735 27.7423 51.045 27.9946 50.8562C28.219 50.7325 28.4046 50.5487 28.5306 50.3252C28.6566 50.1018 28.7179 49.8475 28.7078 49.5911C28.6977 49.3346 28.6165 49.086 28.4733 48.8732C28.3301 48.6604 28.1306 48.4918 27.8972 48.3863C27.1114 48.0404 26.297 47.7642 25.4632 47.5606C24.3323 47.2377 23.2164 46.9975 22.0631 46.6447C21.3243 46.4094 20.6739 45.9556 20.1971 45.3429C19.7203 44.7302 19.4396 43.9873 19.3918 43.2117C19.344 42.4362 19.5313 41.6643 19.9292 40.9974C20.3271 40.3306 20.917 39.8 21.6212 39.4753C22.7116 38.9716 23.8932 38.6964 25.0934 38.6668C26.2937 38.6371 27.4873 38.8535 28.6011 39.3027C29.2703 39.5744 29.8683 39.9967 30.3487 40.5369C30.8292 41.077 31.1794 41.7207 31.3722 42.4181C31.4334 42.6648 31.4759 42.9158 31.4995 43.1688Z" fill="white"/>
<path d="M40.0299 53.6719C38.5903 53.9794 37.0969 53.92 35.6862 53.4992C35.1937 53.3123 34.7688 52.9809 34.4669 52.5484C34.165 52.1159 34.0001 51.6023 33.9936 51.0744C33.9637 48.1116 33.9337 45.1488 33.9037 42.186C33.9037 41.9983 33.9037 41.8031 33.9037 41.5704H31.5146V39.1156H33.9187V34.7539H37.169V39.108C38.0528 39.108 38.8466 39.108 39.6405 39.108C39.985 39.108 40.0823 39.2206 40.0748 39.5585C40.0748 40.2116 40.0748 40.8647 40.0748 41.5479H37.169C37.169 41.698 37.169 41.8106 37.169 41.9307C37.199 44.6734 37.2289 47.426 37.2589 50.1886C37.2978 50.4152 37.4012 50.6258 37.5567 50.7949C37.7121 50.9641 37.913 51.0846 38.1352 51.142C38.3494 51.1884 38.5676 51.2136 38.7867 51.2171C39.1836 51.2171 39.5806 51.2171 39.9775 51.2171C40.0114 51.2252 40.0442 51.2379 40.0748 51.2546L40.0299 53.6719Z" fill="white"/>
<path d="M63.9204 41.8861C63.2844 41.847 62.6467 41.847 62.0107 41.8861C61.5133 41.9464 61.0364 42.1206 60.6169 42.3953C60.1975 42.6699 59.8466 43.0377 59.5917 43.4701C58.9965 44.4798 58.7005 45.6385 58.738 46.8107C58.703 48.9228 58.6655 51.0348 58.6256 53.1468C58.6256 53.3119 58.6256 53.4696 58.6256 53.6573H55.4502V39.1459H58.4459V41.3981C59.0379 40.5154 59.8022 39.762 60.6926 39.1835C61.665 38.6802 62.7747 38.5089 63.8531 38.6955L63.9204 41.8861Z" fill="white"/>
<path d="M64.8262 39.1455H68.1439V53.6944H64.8262V39.1455Z" fill="white"/>
<path d="M26.2194 22.6069L23.9727 18.8534L29.4023 15.6553L23.9727 12.4648L26.2194 8.71119L31.4169 12.0143C31.5517 9.88978 31.4169 7.87788 31.4169 5.83594H35.9104L35.6858 12.1119L36.899 11.3612C38.1198 10.6105 39.348 9.8072 40.5537 9.00393C40.8234 8.82376 40.9956 8.8538 41.1603 9.10904L43.3022 12.5098L37.7453 15.7153L40.359 17.2168C41.1828 17.6822 41.9917 18.1552 42.823 18.6056C43.0926 18.7482 43.1899 18.9059 43.0251 19.1836C42.4185 20.2046 41.8194 21.2331 41.2053 22.2541C41.0331 22.5393 40.8308 22.6144 40.5013 22.4042C39.1382 21.5334 37.7602 20.7001 36.3897 19.8518L35.7681 19.4764C35.6783 21.5634 35.873 23.5603 35.8955 25.5797H31.402L31.5292 19.4464L26.2194 22.6069Z" fill="white"/>
</g>
</svg>
