<svg width="161" height="38" viewBox="0 0 161 38" fill="none" xmlns="http://www.w3.org/2000/svg">
<g opacity="0.7">
<path d="M31.8004 30.0784C28.8393 29.4895 25.8782 28.7829 22.9171 28.3118C15.9585 27.2695 9.01758 27.2165 2.18924 29.2834C1.50819 29.4895 0.838983 29.7251 0.163849 29.943C0.163849 29.943 0.122393 29.943 0.0157926 29.8723C0.0157926 29.1303 -0.0197408 28.3412 0.0157926 27.558C0.0157926 27.3402 0.300059 27.1223 0.477726 26.928C4.57897 22.5053 8.03211 17.5294 10.735 12.1474C12.5288 8.65177 13.8206 4.92324 14.5726 1.07077C14.5726 0.917661 14.6555 0.77044 14.7088 0.587891H15.4491V23.9424C12.2345 24.1052 9.08523 24.9061 6.18675 26.2979C9.35268 25.0905 12.7292 24.5239 16.1183 24.6314C16.1183 24.3605 16.1539 24.1308 16.1539 23.8953C16.1539 21.7636 16.1539 19.6378 16.1539 17.5061C16.1676 17.187 16.2934 16.8828 16.5092 16.6463C19.5975 13.6802 21.9512 10.0417 23.3849 6.01726C23.5567 5.49905 23.8469 5.51672 24.291 5.61683V26.3038C21.4306 26.1683 18.5938 25.9328 15.7512 25.9151C12.9219 25.8616 10.0986 26.1924 7.35936 26.8985C13.2401 25.9328 19.0913 26.3097 25.0254 27.2695V26.4804C25.0254 23.33 25.0254 20.1795 25.0254 17.0291C25.0138 16.8117 25.0629 16.5954 25.1675 16.4041C25.272 16.2128 25.4278 16.0541 25.6176 15.9456C27.6496 14.5588 29.4484 12.8616 30.9476 10.9166C31.1016 10.7046 31.4747 10.6516 31.8656 10.4691L31.8004 30.0784Z" fill="white"/>
<path d="M53.5056 0.977067V14.6329H52.0369V3.23832L49.2653 9.4332C48.5487 11.029 47.844 12.6367 47.1037 14.2207C47.0417 14.3292 46.9566 14.4228 46.8542 14.4951C46.7519 14.5673 46.6349 14.6164 46.5115 14.6388C46.3954 14.6217 46.285 14.5775 46.1893 14.51C46.0936 14.4425 46.0153 14.3534 45.9607 14.2502C44.4446 10.925 42.9423 7.5881 41.4539 4.2394C41.3382 3.92351 41.1914 3.61974 41.0156 3.33254V14.627H39.541V0.965296C40.1332 0.965296 40.7255 0.929964 41.3177 0.965296C41.4894 0.965296 41.7085 1.21851 41.7915 1.40695C43.3431 4.91268 44.8848 8.42231 46.4167 11.9359C46.454 11.9976 46.4955 12.0566 46.5411 12.1126C46.7839 11.5237 47.003 10.9819 47.2458 10.4461C48.5783 7.50172 49.9345 4.55738 51.2433 1.61304C51.4684 1.10661 51.7289 0.888732 52.2797 0.953507C52.6876 0.983696 53.0969 0.991564 53.5056 0.977067Z" fill="white"/>
<path d="M148.717 33.6173H147.319V20.197C147.897 20.1638 148.477 20.1638 149.055 20.197C149.244 20.197 149.463 20.4914 149.558 20.6975C151.098 24.1365 152.62 27.5814 154.16 31.0616C154.226 30.9941 154.283 30.919 154.331 30.8378C155.806 27.5402 157.292 24.2543 158.737 20.9389C159.004 20.3501 159.33 20.0733 159.981 20.1616C160.32 20.1838 160.661 20.1838 161 20.1616V33.5407C160.938 33.5753 160.873 33.601 160.804 33.6173C159.49 33.7115 159.484 33.7115 159.495 32.4395C159.519 29.2989 159.547 26.1583 159.578 23.0176C159.578 22.8704 159.578 22.7291 159.578 22.4759C158.027 25.9561 156.534 29.3303 155.006 32.6927C154.835 33.0696 154.882 33.682 154.207 33.6938C153.532 33.7056 153.561 33.105 153.39 32.7163C152.004 29.6954 150.648 26.6568 149.286 23.6242C149.139 23.2351 148.957 22.8606 148.741 22.5053L148.717 33.6173Z" fill="white"/>
<path d="M38.9961 19.502C41.1564 19.5438 43.313 19.6971 45.4573 19.9613C48.1697 20.4206 49.5318 22.1754 49.97 25.1728C50.4438 28.4233 49.0284 31.3618 46.2686 32.5866C45.3728 32.974 44.4178 33.2089 43.4437 33.2815C41.9868 33.3933 40.5122 33.3109 38.9961 33.3109V19.502ZM40.5596 20.9977V32.0036C41.9217 31.9642 43.2803 31.8443 44.6281 31.6444C45.4126 31.4921 46.1405 31.1305 46.7341 30.5984C47.3277 30.0663 47.7646 29.3836 47.9979 28.6235C48.3932 27.4615 48.4729 26.2163 48.2289 25.0138C47.8202 22.8055 46.5588 21.5277 44.3557 21.2097C43.1357 21.0389 41.8802 21.0683 40.5596 20.9977Z" fill="white"/>
<path d="M95.9863 33.2934H94.5471C94.5471 33.0166 94.5471 32.7575 94.5471 32.4984C94.5471 30.614 94.5472 28.7297 94.5057 26.8453C94.4761 25.6675 93.9668 24.9962 93.0962 24.7371C92.6484 24.587 92.1637 24.5856 91.715 24.7333C91.2664 24.8809 90.8782 25.1695 90.6089 25.5557C90.1225 26.1993 89.8718 26.9887 89.8982 27.7934C89.8982 29.3656 89.8982 30.9438 89.8982 32.5043C89.8982 32.7458 89.8982 32.9872 89.8982 33.2757H88.3525C88.3525 33.052 88.3525 32.8223 88.3525 32.5867C88.3525 30.9261 88.3525 29.2596 88.3525 27.599C88.3506 27.1793 88.3049 26.761 88.2163 26.3506C88.1382 25.9312 87.9343 25.5451 87.6315 25.243C87.3286 24.941 86.941 24.737 86.5194 24.658C86.0979 24.579 85.6622 24.6287 85.2696 24.8005C84.8769 24.9722 84.5457 25.2581 84.3195 25.6204C83.9555 26.3465 83.7401 27.1371 83.6858 27.9465C83.591 29.4716 83.6858 31.0027 83.6858 32.5338V33.2934H82.1934V23.6183H83.6502L83.7213 24.955C86.3389 22.6584 88.0268 22.7409 89.6435 25.2436C89.9381 24.678 90.3808 24.2022 90.925 23.8663C91.4692 23.5305 92.0945 23.3471 92.7349 23.3356C94.63 23.3003 95.8086 24.0835 95.9566 25.962C96.1343 28.394 95.9863 30.826 95.9863 33.2934Z" fill="white"/>
<path d="M141.001 27.3878C142.961 29.1544 143.838 31.5098 145.437 33.6533C144.857 33.6827 144.276 33.6827 143.696 33.6533C143.53 33.6533 143.352 33.4001 143.245 33.2234C142.559 32.1105 141.842 31.0093 141.226 29.8551C140.379 28.2652 139.118 27.6469 137.27 28.0591C137.27 28.2652 137.234 28.5184 137.234 28.7716C137.234 30.126 137.234 31.4745 137.234 32.8289C137.234 33.6886 137.234 33.6945 136.352 33.6769C136.18 33.6769 136.003 33.6769 135.76 33.6356V20.1152C137.54 20.1216 139.319 20.2179 141.09 20.4038C142.813 20.6629 143.648 21.8053 143.808 23.5483C143.87 24.2836 143.699 25.0198 143.319 25.6534C142.938 26.2871 142.368 26.7865 141.688 27.0815C141.481 27.1875 141.244 27.2818 141.001 27.3878ZM137.252 21.5462C137.252 23.1773 137.252 24.7143 137.252 26.2571C137.274 26.323 137.313 26.3821 137.365 26.4286C137.417 26.475 137.48 26.5073 137.548 26.5221C138.501 26.5494 139.454 26.4942 140.397 26.3572C141.581 26.1099 142.251 25.0028 142.174 23.672C142.151 23.1572 141.935 22.6695 141.569 22.3045C141.203 21.9396 140.713 21.7237 140.196 21.6993C139.289 21.5697 138.348 21.5933 137.246 21.5462H137.252Z" fill="white"/>
<path d="M75.2051 9.85058C75.2051 7.27723 76.3125 5.5224 78.4327 4.93353C80.6891 4.30344 83.0817 4.76275 84.1299 6.74723C84.6391 7.64434 84.9105 8.65542 84.9188 9.6855C84.9271 10.7156 84.672 11.7308 84.1773 12.6359C83.1764 14.5556 80.9378 15.3683 78.5808 14.8088C77.6343 14.5713 76.792 14.0324 76.1825 13.2742C75.573 12.5161 75.2297 11.5805 75.2051 10.6102C75.2051 10.3393 75.2051 10.092 75.2051 9.85058ZM76.7448 9.77992H76.6738C76.7677 10.4106 76.9043 11.0342 77.0824 11.6466C77.3199 12.2874 77.7675 12.83 78.3531 13.1868C78.9386 13.5436 79.628 13.6939 80.31 13.6134C80.9533 13.6165 81.5773 13.3956 82.0738 12.989C82.5703 12.5824 82.908 12.0158 83.0284 11.3875C83.2205 10.5275 83.2605 9.64077 83.1468 8.76707C82.8744 6.89446 81.7965 5.97582 80.0969 5.95815C78.3972 5.94049 77.2246 6.93568 76.8455 8.70228C76.7968 9.05957 76.7691 9.41941 76.7626 9.77992H76.7448Z" fill="white"/>
<path d="M94.3572 9.85125C94.3572 7.2779 95.4706 5.56428 97.5907 4.92831C98.7028 4.57989 99.8958 4.57989 101.008 4.92831C102.737 5.47595 103.625 6.7538 103.892 8.46152C104.158 10.1692 104.04 11.8357 102.897 13.249C102.22 14.0075 101.33 14.5458 100.341 14.7937C99.3522 15.0416 98.3113 14.9876 97.3538 14.6388C96.4901 14.3385 95.7395 13.7825 95.2027 13.0457C94.666 12.3088 94.3689 11.4263 94.3513 10.5167C94.3453 10.2929 94.3572 10.0691 94.3572 9.85125ZM95.8555 9.79236H95.9088C95.9088 10.0809 95.9088 10.3812 95.9621 10.6521C96.0234 11.4298 96.3685 12.1583 96.9324 12.7006C97.4964 13.2429 98.2402 13.5615 99.0239 13.5964C100.842 13.6612 101.985 12.7603 102.287 10.8935C102.402 10.1126 102.402 9.31905 102.287 8.53807C102.23 7.86769 101.932 7.24005 101.449 6.76976C100.965 6.29947 100.327 6.01792 99.6517 5.97649C97.9283 5.84694 96.6905 6.56537 96.2167 8.08465C96.0605 8.64418 95.9379 9.21245 95.8496 9.78647L95.8555 9.79236Z" fill="white"/>
<path d="M72.7709 25.7682C72.7354 24.0959 72.3682 24.1606 74.1627 23.6483C75.1049 23.4014 76.0861 23.3374 77.0527 23.4599C77.712 23.5021 78.3297 23.7945 78.7783 24.2767C79.2269 24.7589 79.472 25.3941 79.4631 26.0509C79.54 28.4358 79.4631 30.8325 79.4631 33.2822H78.0299L77.9647 32.0514L77.7575 31.8512C77.7313 32.0014 77.6814 32.1465 77.6094 32.2811C77.204 32.8106 76.6511 33.21 76.0194 33.4299C75.3877 33.6497 74.705 33.6803 74.0561 33.5177C73.4527 33.4374 72.8959 33.1519 72.4803 32.7096C72.0646 32.2673 71.8158 31.6956 71.776 31.0916C71.66 30.463 71.7672 29.8139 72.0795 29.2553C72.3917 28.6967 72.8894 28.2634 73.4875 28.0295C74.5099 27.738 75.5506 27.5137 76.6026 27.3582C76.7329 27.3582 76.8691 27.3582 76.9994 27.3111C78.1247 27.1285 78.1839 27.0049 77.8108 25.9155C77.7046 25.5344 77.4703 25.201 77.1471 24.9707C76.8239 24.7403 76.4311 24.627 76.0341 24.6494C74.8496 24.6396 73.6976 25.0346 72.7709 25.7682ZM78.101 28.5124L77.8463 28.3416C76.6974 28.5654 75.5366 28.7302 74.4114 29.0364C74.039 29.1377 73.7204 29.3779 73.5218 29.707C73.3232 30.0361 73.26 30.4287 73.3454 30.8031C73.3937 31.1671 73.5596 31.5057 73.818 31.768C74.0764 32.0303 74.4135 32.2021 74.7786 32.2576C75.3513 32.3768 75.9479 32.2954 76.4671 32.0271C76.9864 31.7587 77.3962 31.32 77.6272 30.7854C77.8613 30.0444 78.0258 29.2835 78.1187 28.5124H78.101Z" fill="white"/>
<path d="M132.875 31.6745C132.875 33.2644 133.308 33.1996 131.472 33.5883C130.235 33.8499 128.961 33.8858 127.711 33.6943C126.404 33.4644 125.215 32.7993 124.339 31.8083C123.463 30.8173 122.952 29.5594 122.89 28.2414C122.73 26.3158 122.926 24.4667 124.075 22.8414C125.851 20.327 128.374 19.7263 131.264 20.0855H131.395C133.231 20.4978 132.923 20.1974 132.893 22.0582C129.967 20.9512 127.22 20.8334 125.295 23.8248C123.98 25.8564 124.247 29.1247 125.692 30.8442C126.965 32.3752 129.458 33.2055 132.875 31.6745Z" fill="white"/>
<path d="M51.4032 36.5444C52.9786 36.7564 53.4168 36.4149 54.1393 35.0605C54.4388 34.5422 54.6032 33.9578 54.6177 33.3603C54.6322 32.7628 54.4962 32.1711 54.2222 31.6392C53.1681 29.2484 52.2738 26.7928 51.3203 24.3607C51.2315 24.137 51.1604 23.9073 51.042 23.5775C51.5011 23.5389 51.9627 23.5389 52.4219 23.5775C52.5364 23.62 52.6402 23.6868 52.7261 23.7733C52.812 23.8597 52.878 23.9637 52.9193 24.0781C53.8017 26.5396 54.6545 29.0069 55.5133 31.4743C55.5133 31.5332 55.5666 31.5861 55.6377 31.7393C55.839 31.1975 56.0226 30.7323 56.1943 30.2671C56.9109 28.3356 57.669 26.4159 58.3145 24.4667C58.5632 23.7189 58.9067 23.4185 59.6884 23.554C59.8424 23.554 59.9964 23.554 60.2215 23.5952C60.1563 23.8131 60.1148 23.9956 60.0497 24.1841C58.6224 27.7644 57.2011 31.3447 55.7561 34.9133C55.5064 35.5372 55.1844 36.13 54.7967 36.6799C54.5023 37.1154 54.0977 37.4662 53.6236 37.6967C53.1495 37.9273 52.6226 38.0294 52.0961 37.993C51.5039 37.993 51.2789 37.7693 51.3677 37.1981C51.3973 36.9861 51.3914 36.7859 51.4032 36.5444Z" fill="white"/>
<path d="M63.3186 23.6185V25.1083C63.5614 24.8433 63.6917 24.7197 63.8102 24.5783C64.1074 24.2165 64.4775 23.9205 64.8967 23.7096C65.3159 23.4986 65.775 23.3773 66.2442 23.3535C68.3644 23.2181 69.7146 24.2604 69.8449 26.3744C69.9811 28.6062 69.916 30.8498 69.9337 33.0875C69.9193 33.1598 69.8933 33.2294 69.8568 33.2936H68.4058C68.4058 32.2866 68.4058 31.315 68.4058 30.3493C68.4058 29.1715 68.4413 28.035 68.3111 26.8985C68.1393 25.3674 67.405 24.6667 66.1672 24.649C65.5135 24.6264 64.8744 24.8448 64.3726 25.2621C63.8709 25.6795 63.542 26.2664 63.4489 26.9103C63.3528 27.7685 63.3152 28.6321 63.3364 29.4954C63.3364 30.6731 63.3364 31.8509 63.3364 33.0286C63.3268 33.116 63.3109 33.2026 63.289 33.2877H61.8203V23.6185H63.3186Z" fill="white"/>
<path d="M108.162 14.6501H106.634V6.25282H104.964V4.96909L106.545 4.89843C106.55 4.08355 106.601 3.2696 106.699 2.46051C107.037 0.552578 108.588 -0.24238 110.501 0.0638314C110.577 0.0880754 110.645 0.130198 110.701 0.186608C110.757 0.243018 110.798 0.312025 110.821 0.387702C110.843 0.742639 110.843 1.09861 110.821 1.45355C110.549 1.40055 110.359 1.34755 110.164 1.324C108.932 1.17678 108.233 1.72444 108.138 2.94928C108.091 3.53815 108.138 4.1859 108.138 4.92787H110.353C110.387 5.03386 110.412 5.14211 110.43 5.25176C110.489 6.22928 110.489 6.22926 109.483 6.22926H108.15L108.162 14.6501Z" fill="white"/>
<path d="M92.4385 6.38778C91.4198 6.25234 90.4901 6.0698 89.5543 6.02269C89.2487 6.0021 88.9441 6.07589 88.6823 6.23401C88.4205 6.39212 88.2141 6.62683 88.0916 6.90599C87.7777 7.5773 88.0916 8.30161 88.9148 8.67259C89.738 9.04358 90.4367 9.2968 91.177 9.65012C92.1009 10.0918 92.8234 10.7219 92.8767 11.8407C92.9302 12.4659 92.7572 13.0895 92.3891 13.5991C92.021 14.1087 91.482 14.4708 90.8691 14.6201C89.6251 15.0044 88.2932 15.0044 87.0492 14.6201C86.5281 14.4729 86.2497 14.2256 86.3445 13.6426C86.3673 13.386 86.3673 13.1279 86.3445 12.8712C87.2151 13.1127 88.0738 13.3659 88.9384 13.5896C89.1602 13.6234 89.3859 13.6234 89.6077 13.5896C90.5256 13.5307 91.1237 13.1421 91.2659 12.5061C91.408 11.8701 91.0586 11.2106 90.188 10.7984C89.5247 10.4863 88.8259 10.2508 88.1626 9.94455C86.8597 9.35568 86.2912 8.49592 86.386 7.33585C86.4926 6.04034 87.298 5.32194 88.4647 4.92151C89.4924 4.60826 90.5847 4.56766 91.633 4.80373C92.2253 4.90972 92.5628 5.15705 92.4385 5.81658C92.4156 6.0063 92.4156 6.19806 92.4385 6.38778Z" fill="white"/>
<path d="M117.253 25.0962C116.347 24.9372 115.476 24.7547 114.618 24.6605C114.263 24.6529 113.912 24.7361 113.599 24.9019C113.382 24.9822 113.191 25.121 113.049 25.3029C112.906 25.4847 112.817 25.7023 112.792 25.9315C112.767 26.1606 112.806 26.3922 112.906 26.6004C113.006 26.8085 113.161 26.985 113.356 27.1101C113.75 27.359 114.166 27.5699 114.6 27.7402C115.279 28.0129 115.94 28.3296 116.578 28.6883C116.93 28.8994 117.222 29.1957 117.428 29.5496C117.634 29.9034 117.746 30.3033 117.754 30.7119C117.762 31.1205 117.666 31.5245 117.475 31.8863C117.284 32.2481 117.004 32.5559 116.661 32.7809C115.038 33.888 113.256 33.7879 111.485 33.1402C111.405 33.0924 111.337 33.0274 111.285 32.9499C111.234 32.8725 111.201 32.7845 111.189 32.6926C111.168 32.3494 111.168 32.0053 111.189 31.6621C112.261 31.8741 113.279 32.0978 114.31 32.251C114.621 32.2758 114.934 32.2253 115.222 32.1037C115.456 32.0389 115.666 31.9089 115.828 31.729C115.99 31.5491 116.097 31.327 116.136 31.0886C116.176 30.8503 116.145 30.6058 116.049 30.384C115.954 30.1621 115.796 29.9722 115.595 29.8366C115.289 29.615 114.957 29.4311 114.606 29.2889C114.102 29.0593 113.575 28.8709 113.072 28.6412C111.639 27.9817 111.147 27.2161 111.26 25.8735C111.323 25.2799 111.585 24.7247 112.004 24.2974C112.423 23.87 112.974 23.5955 113.569 23.518C114.58 23.4185 115.597 23.4185 116.607 23.518C116.713 23.508 116.82 23.5242 116.918 23.5653C117.015 23.6064 117.101 23.671 117.168 23.7534C117.234 23.8358 117.279 23.9333 117.298 24.0372C117.317 24.141 117.31 24.248 117.277 24.3484C117.245 24.5964 117.237 24.8467 117.253 25.0962Z" fill="white"/>
<path d="M113.03 6.22896H111.396V4.96879L113.03 4.89223C113.03 4.30337 113.072 3.7675 113.03 3.24341C112.989 2.71932 113.172 2.37777 113.735 2.28355C114.022 2.21286 114.305 2.12435 114.582 2.01855V4.91579H117.075V6.22896H114.588C114.588 7.1417 114.588 7.99557 114.588 8.8141C114.588 9.74451 114.588 10.6808 114.588 11.6112C114.588 13.4249 115.334 13.9667 117.039 13.3778C117.039 13.4073 117.099 13.4367 117.099 13.472C117.164 14.7263 117.039 14.8618 115.772 14.903C113.995 14.9619 113.066 14.002 113.042 11.9881C113.042 10.3452 113.042 8.70221 113.042 7.06516C113.03 6.84139 113.03 6.60583 113.03 6.22896Z" fill="white"/>
<path d="M67.4704 6.60615C64.8942 5.68163 63.5203 5.88774 62.4602 7.3128C61.9514 8.07132 61.68 8.96263 61.68 9.87436C61.68 10.7861 61.9514 11.6774 62.4602 12.4359C63.5084 13.7786 64.9357 13.9258 67.4112 12.9424C67.6126 14.4852 67.5415 14.4028 66.286 14.7384C62.5076 15.7454 59.5583 12.9718 60.1565 9.05584C60.6954 5.52264 63.6446 4.09758 66.8841 4.89844C66.9818 4.90811 67.0762 4.93864 67.1608 4.98797C67.2455 5.03729 67.3185 5.10424 67.3747 5.18421C67.431 5.26418 67.4692 5.35529 67.4867 5.45131C67.5042 5.54733 67.5007 5.64598 67.4763 5.74051C67.4567 6.02867 67.4547 6.31775 67.4704 6.60615Z" fill="white"/>
<path d="M109.648 25.2788C107.244 24.3071 105.763 24.5191 104.667 25.9324C104.146 26.6958 103.867 27.5975 103.867 28.5205C103.867 29.4435 104.146 30.3451 104.667 31.1086C105.692 32.4217 107.249 32.5807 109.577 31.5973C109.855 32.7751 109.654 33.1225 108.481 33.411C104.371 34.418 101.375 31.2263 102.512 26.9865C103.447 23.4003 106.912 22.8644 109.275 23.6417C109.372 23.6942 109.456 23.7673 109.522 23.8558C109.587 23.9444 109.632 24.0462 109.654 24.154C109.683 24.5284 109.681 24.9047 109.648 25.2788Z" fill="white"/>
<path d="M74.3819 4.87499V6.36482C72.4098 5.87606 71.0892 6.76526 70.9293 8.78508C70.8109 10.3044 70.8523 11.8354 70.8227 13.3606C70.8227 13.7551 70.8227 14.1555 70.8227 14.609H69.348C69.348 14.3911 69.3125 14.1555 69.3125 13.9259C69.3125 11.2485 69.3125 8.56915 69.3125 5.88784C69.3125 4.91621 69.3125 4.91622 70.2956 4.93977C70.4259 4.93977 70.5621 4.93976 70.7812 4.98098L70.8641 6.8477C71.6518 5.25187 72.6586 4.398 74.3819 4.87499Z" fill="white"/>
<path d="M98.7275 23.6133H100.196V33.2707H98.7275V23.6133Z" fill="white"/>
<path d="M58.0307 14.6556H56.5205V5.06885C56.5679 5.01585 56.5857 4.9864 56.5975 4.9864C58.0188 4.76263 58.0307 4.77441 58.0307 6.16414C58.0307 8.7316 58.0307 11.2991 58.0307 13.8665C58.0307 14.1021 58.0307 14.3435 58.0307 14.6556Z" fill="white"/>
<path d="M99.4856 19.0545C99.6189 19.0489 99.7519 19.0704 99.8765 19.1178C100.001 19.1652 100.115 19.2375 100.21 19.3302C100.305 19.4229 100.381 19.534 100.431 19.6567C100.482 19.7795 100.507 19.9112 100.504 20.0438C100.497 20.312 100.384 20.5666 100.19 20.7536C99.9969 20.9405 99.7377 21.045 99.4679 21.0449C99.3344 21.0449 99.2022 21.0187 99.079 20.9677C98.9557 20.9167 98.8438 20.842 98.7497 20.7479C98.6556 20.6538 98.5811 20.5421 98.5305 20.4192C98.48 20.2964 98.4544 20.1648 98.4552 20.032C98.4533 19.8991 98.479 19.7673 98.5308 19.6447C98.5825 19.5221 98.6591 19.4115 98.7559 19.3197C98.8526 19.228 98.9674 19.157 99.0929 19.1114C99.2185 19.0658 99.3522 19.0464 99.4856 19.0545Z" fill="white"/>
<path d="M58.3202 1.41189C58.2969 1.67918 58.1753 1.92854 57.9786 2.11218C57.7818 2.29582 57.5239 2.40083 57.2542 2.40708C56.9817 2.39927 56.7235 2.28414 56.5363 2.08702C56.3492 1.88989 56.2484 1.62692 56.2563 1.35595C56.2641 1.08498 56.3799 0.82821 56.5782 0.642128C56.7764 0.456046 57.0409 0.355897 57.3134 0.363706C57.5837 0.378648 57.8381 0.495284 58.0251 0.689948C58.2121 0.884613 58.3176 1.14272 58.3202 1.41189Z" fill="white"/>
</g>
</svg>
