<svg width="54" height="54" viewBox="0 0 54 54" fill="none" xmlns="http://www.w3.org/2000/svg">
<path opacity="0.7" d="M53.9996 26.5812C54.0183 30.2529 53.2991 33.8908 51.885 37.2789C50.6566 40.2624 48.9194 43.0097 46.7509 45.398C44.7127 47.6236 42.2906 49.4638 39.6005 50.8304C37.2528 52.0628 34.7429 52.9574 32.1453 53.4876C30.0489 53.9111 27.9081 54.0731 25.7719 53.9698C21.7499 53.7693 17.8226 52.6768 14.2743 50.7714C11.7626 49.4539 9.47537 47.7466 7.49763 45.7129C5.75322 43.8994 4.28812 41.8364 3.15038 39.5916C1.95334 37.291 1.07639 34.8375 0.543968 32.2991C0.108324 30.2329 -0.0667693 28.1202 0.0227207 26.0104C0.262577 20.3606 2.24123 14.9229 5.68795 10.4414C7.88967 7.52253 10.7027 5.12089 13.93 3.40477C16.1517 2.19667 18.5228 1.28671 20.982 0.698383C23.6766 0.060178 26.4558 -0.142478 29.2143 0.098073C34.6026 0.583429 39.7311 2.63608 43.9675 6.00291C46.312 7.8837 48.2922 10.1786 49.8097 12.7738C50.8083 14.3658 51.6452 16.0538 52.3079 17.8126C52.9254 19.5033 53.3766 21.2502 53.6554 23.0285C53.8529 24.2033 53.9679 25.3904 53.9996 26.5812ZM26.5883 35.655L26.7161 35.7436L33.0895 40.4773C33.3847 40.6888 33.719 40.8393 34.073 40.9202C34.3535 41.0255 34.6642 41.0153 34.9371 40.8917C35.21 40.7681 35.4227 40.5412 35.5287 40.2608C35.6418 40.0288 35.7276 39.7843 35.7844 39.5325C36.0794 38.1842 36.3647 36.836 36.6499 35.4877L38.499 26.7781L40.2398 18.59C40.3462 18.1956 40.3697 17.7835 40.3087 17.3796C40.2645 17.0537 40.0947 16.758 39.8356 16.5557C39.5764 16.3535 39.2485 16.2606 38.9219 16.297C38.7298 16.3236 38.5416 16.3732 38.3613 16.4446L26.3128 21.0897L13.8907 25.8924C13.235 26.1548 12.5596 26.4271 11.8646 26.7092C11.5866 26.8179 11.3494 27.0105 11.1859 27.2603C11.1134 27.341 11.0623 27.4385 11.0372 27.5441C11.012 27.6496 11.0137 27.7598 11.0421 27.8645C11.0705 27.9692 11.1246 28.0651 11.1996 28.1435C11.2745 28.222 11.3678 28.2803 11.4711 28.3133C11.6778 28.4059 11.8916 28.4816 12.1105 28.5397L18.5625 30.508C18.6202 30.5381 18.6843 30.5539 18.7494 30.5539C18.8145 30.5539 18.8786 30.5381 18.9363 30.508L33.7976 21.0897C33.9943 20.9618 34.2008 20.8339 34.3976 20.7158C34.4905 20.6579 34.595 20.6209 34.7037 20.6073C34.8124 20.5937 34.9227 20.6039 35.027 20.6371C35.0574 20.6423 35.0859 20.6553 35.1097 20.6749C35.1335 20.6945 35.1517 20.72 35.1626 20.7488C35.1736 20.7776 35.1768 20.8088 35.172 20.8393C35.1672 20.8697 35.1545 20.8984 35.1352 20.9224C35.0607 21.0237 34.975 21.1162 34.8795 21.198L27.6996 27.7622L22.5754 32.4565C22.5241 32.4991 22.4892 32.5583 22.477 32.6239C22.3983 33.608 22.3196 34.5921 22.241 35.5763L22.0148 38.4401C22.0148 38.7551 22.0148 39.0798 21.9459 39.4243H22.1918C22.658 39.3144 23.084 39.0757 23.4212 38.7354C24.2376 37.9677 25.0343 37.1804 25.8408 36.3931L26.5883 35.655Z" fill="white"/>
</svg>
