<svg width="152" height="40" viewBox="0 0 152 40" fill="none" xmlns="http://www.w3.org/2000/svg">
<g opacity="0.7">
<path d="M52.8545 18.9415V27.0959H49.5527V12.9051H52.4867L54.8475 16.3349L57.9439 21.0509H58.0038V12.8965H61.2713V27.0787H58.346L55.4206 22.7915L52.9742 18.9415H52.8545Z" fill="white"/>
<path d="M63.7598 12.9043H73.6393V15.7853H67.0273V18.4606H72.6471V21.3588H67.0016V24.1626H73.6137V27.0694H63.7598V12.9043Z" fill="white"/>
<path d="M81.6198 15.8453V27.0865H78.3523V15.8453H74.7598V12.9043H85.1953V15.8453H81.6198Z" fill="white"/>
<path d="M92.9963 12.905C93.6816 12.8866 94.3624 13.0213 94.9893 13.2994C95.5075 13.5384 95.9662 13.8898 96.3323 14.3283C96.6821 14.7542 96.9412 15.2473 97.0935 15.7774C97.2505 16.3092 97.3312 16.8606 97.333 17.4152C97.3322 17.7954 97.2775 18.1736 97.1705 18.5384C97.0622 18.9138 96.907 19.2739 96.7086 19.6103C96.5049 19.9527 96.2608 20.2694 95.9816 20.5534C95.6959 20.8487 95.3705 21.1026 95.015 21.308L97.5811 27.0958H94.0313L91.8929 21.8654H89.8828V27.0958H86.6152V12.905H92.9963ZM89.8913 19.0015H92.3206C92.5579 19.024 92.7972 18.9942 93.0218 18.9143C93.2464 18.8343 93.4508 18.706 93.6207 18.5384C93.8865 18.2221 94.0293 17.8201 94.0228 17.4066C94.0361 17.1832 93.9999 16.9596 93.9169 16.7518C93.8338 16.544 93.706 16.3573 93.5425 16.2048C93.379 16.0524 93.1839 15.9381 92.9712 15.8702C92.7584 15.8022 92.5333 15.7823 92.312 15.8118H89.8913V19.0015Z" fill="white"/>
<path d="M110.027 22.6027C110.044 23.3098 109.888 24.0104 109.574 24.6434C109.283 25.2071 108.871 25.6991 108.368 26.0839C107.838 26.4771 107.241 26.7679 106.605 26.9414C105.918 27.1372 105.207 27.2353 104.493 27.2329C103.781 27.2359 103.073 27.1378 102.388 26.9414C101.754 26.7651 101.157 26.4746 100.626 26.0839C100.115 25.7028 99.6969 25.2102 99.4032 24.6434C99.0884 24.0104 98.9328 23.3098 98.9498 22.6027V17.2693C98.9298 16.566 99.0981 15.8702 99.4374 15.2543C99.7587 14.7005 100.197 14.2235 100.72 13.8567C101.256 13.4687 101.855 13.1785 102.491 12.9992C103.138 12.8228 103.805 12.7334 104.476 12.7334C105.153 12.7351 105.827 12.8333 106.477 13.025C107.118 13.206 107.722 13.496 108.265 13.8824C108.791 14.2584 109.226 14.7476 109.539 15.3143C109.872 15.9417 110.037 16.6448 110.018 17.3551L110.027 22.6027ZM106.759 17.9896C106.77 17.6326 106.7 17.2778 106.554 16.952C106.432 16.6905 106.254 16.4593 106.032 16.2747C105.817 16.103 105.57 15.9748 105.305 15.8974C105.044 15.8183 104.774 15.7779 104.501 15.7773C104.226 15.7764 103.952 15.8169 103.689 15.8974C103.425 15.9775 103.179 16.1054 102.962 16.2747C102.735 16.4569 102.554 16.6886 102.431 16.952C102.285 17.2778 102.215 17.6326 102.226 17.9896V22.0024C102.215 22.3594 102.285 22.7142 102.431 23.04C102.554 23.3036 102.735 23.5353 102.962 23.7173C103.179 23.8866 103.425 24.0145 103.689 24.0946C103.952 24.1753 104.226 24.2157 104.501 24.2147C104.774 24.2144 105.045 24.1739 105.305 24.0946C105.57 24.0174 105.817 23.8892 106.032 23.7173C106.254 23.5328 106.432 23.3015 106.554 23.04C106.7 22.7142 106.77 22.3594 106.759 22.0024V17.9896Z" fill="white"/>
<path d="M116.322 22.6021L113.756 27.0865H110.078L114.594 19.8239L110.318 12.9043H113.996L116.297 17.0457L118.598 12.9043H122.259L118.033 19.8239L122.549 27.0865H118.871L116.322 22.6021Z" fill="white"/>
<path d="M140.042 22.9284C140.057 23.5777 139.9 24.2195 139.589 24.789C139.286 25.319 138.868 25.7734 138.366 26.1181C137.817 26.4924 137.205 26.7654 136.561 26.9241C135.845 27.1048 135.109 27.1941 134.371 27.1899C133.868 27.1893 133.365 27.1607 132.865 27.1041C132.389 27.0505 131.919 26.9499 131.463 26.804C130.995 26.6517 130.545 26.4506 130.12 26.2038C129.647 25.9295 129.202 25.6078 128.794 25.2435L130.624 22.834C131.169 23.2825 131.781 23.6415 132.438 23.8973C133.025 24.121 133.648 24.2371 134.277 24.2402C134.657 24.2496 135.036 24.2092 135.406 24.1202C135.665 24.0569 135.911 23.9496 136.133 23.8029C136.297 23.6978 136.432 23.5534 136.526 23.3828C136.596 23.2504 136.634 23.1037 136.638 22.9541C136.642 22.7599 136.588 22.5688 136.484 22.4053C136.348 22.2171 136.169 22.0642 135.962 21.9594C135.649 21.794 135.323 21.6563 134.987 21.5478C134.582 21.4106 134.08 21.2592 133.481 21.0934C132.897 20.9342 132.325 20.7306 131.771 20.4846C131.299 20.2719 130.865 19.9821 130.488 19.6271C130.144 19.3106 129.875 18.921 129.701 18.4868C129.511 17.98 129.421 17.4414 129.435 16.9005C129.428 16.3075 129.557 15.7208 129.812 15.1855C130.065 14.6704 130.43 14.219 130.881 13.8651C131.369 13.4771 131.926 13.1861 132.523 13.0076C133.201 12.8083 133.904 12.71 134.61 12.7161C135.428 12.7142 136.244 12.7888 137.048 12.939C137.945 13.1306 138.795 13.5009 139.546 14.028L138.083 16.6604C137.524 16.2818 136.901 16.0086 136.244 15.8544C135.681 15.7432 135.108 15.6886 134.533 15.6915C134.097 15.6727 133.662 15.761 133.268 15.9487C133.11 16.0252 132.979 16.1484 132.893 16.3018C132.808 16.4552 132.771 16.6312 132.789 16.8061C132.791 16.9781 132.844 17.1453 132.942 17.2863C133.084 17.4624 133.262 17.6058 133.464 17.7065C133.773 17.8707 134.097 18.0057 134.431 18.1095C134.83 18.241 135.318 18.3896 135.894 18.5553C136.649 18.7529 137.379 19.0408 138.066 19.4128C138.548 19.6677 138.977 20.0109 139.332 20.4246C139.613 20.7661 139.813 21.1681 139.914 21.5993C140.007 22.0359 140.05 22.4819 140.042 22.9284Z" fill="white"/>
<path d="M150.417 16.7543C150.006 16.3877 149.518 16.1182 148.989 15.9655C148.532 15.8387 148.06 15.7724 147.586 15.7682C147.297 15.7644 147.008 15.8049 146.731 15.8883C146.464 15.9672 146.215 16.0952 145.995 16.2655C145.765 16.4484 145.578 16.6796 145.448 16.9429C145.295 17.2669 145.222 17.6225 145.234 17.9805V21.9933C145.222 22.3512 145.295 22.7068 145.448 23.0309C145.579 23.296 145.77 23.5276 146.004 23.7082C146.23 23.8785 146.485 24.0063 146.756 24.0855C147.034 24.169 147.322 24.2095 147.612 24.2056C148.069 24.202 148.524 24.1357 148.963 24.0084C149.502 23.8412 150.004 23.5735 150.443 23.2195L151.983 25.7918C151.388 26.283 150.702 26.6503 149.964 26.8722C149.183 27.1133 148.369 27.2347 147.552 27.2323C146.882 27.2313 146.214 27.1419 145.567 26.9665C144.925 26.7895 144.32 26.4991 143.78 26.1091C143.254 25.7406 142.816 25.2605 142.497 24.7029C142.155 24.0845 141.984 23.386 142 22.6793V17.3288C141.982 16.6239 142.147 15.9264 142.48 15.3052C142.793 14.744 143.225 14.2582 143.745 13.8819C144.275 13.4947 144.869 13.2044 145.499 13.0244C146.145 12.8408 146.812 12.7485 147.483 12.75C148.317 12.7506 149.146 12.8689 149.947 13.1016C150.703 13.3075 151.404 13.6795 152 14.1905L150.417 16.7543Z" fill="white"/>
<path d="M19.9473 6.85106L30.9388 17.8607L34.3517 14.4395L19.9473 0L0 19.9958L3.40438 23.417L19.9387 6.83389L19.9473 6.85106Z" fill="white"/>
<path d="M19.956 33.1661L17.8175 31.0225V31.0139L8.95589 22.1307L5.54297 25.5605L19.9474 40L39.9033 19.9957L36.4989 16.583L19.956 33.1661Z" fill="white"/>
</g>
</svg>
